<?xml version="1.0" encoding="UTF-8"?>
<svg xmlns="http://www.w3.org/2000/svg" width="1305.6" height="793.6" viewBox="0 0 1305.6 793.6" style="font-family:system-ui, sans-serif"><rect width="1305.6" height="793.6" fill="#ffffff"></rect><g><path d="M 19.200 49.920 A 30.720 30.720 0 0 1 49.920 19.200 L 231.680 19.200 A 30.720 30.720 0 0 1 262.400 49.920 L 262.400 487.680 A 30.720 30.720 0 0 1 231.680 518.400 L 49.920 518.400 A 30.720 30.720 0 0 1 19.200 487.680 Z" fill="#05966918"></path><text x="35.024" y="48.59904" text-anchor="start" font-size="15.36" font-family="sans-serif" font-weight="600" fill="currentColor" opacity="0.45">スキル配布</text></g><g><path d="M 531.200 49.920 A 30.720 30.720 0 0 1 561.920 19.200 L 743.680 19.200 A 30.720 30.720 0 0 1 774.400 49.920 L 774.400 487.680 A 30.720 30.720 0 0 1 743.680 518.400 L 561.920 518.400 A 30.720 30.720 0 0 1 531.200 487.680 Z" fill="#6d28d918"></path><text x="547.024" y="48.59904" text-anchor="start" font-size="15.36" font-family="sans-serif" font-weight="600" fill="currentColor" opacity="0.45">エージェント環境</text></g><g><path d="M 787.200 305.920 A 30.720 30.720 0 0 1 817.920 275.200 L 1255.680 275.200 A 30.720 30.720 0 0 1 1286.400 305.920 L 1286.400 743.680 A 30.720 30.720 0 0 1 1255.680 774.400 L 817.920 774.400 A 30.720 30.720 0 0 1 787.200 743.680 Z" fill="#7c3aed18"></path><text x="803.024" y="304.59904" text-anchor="start" font-size="15.36" font-family="sans-serif" font-weight="600" fill="currentColor" opacity="0.45">図の生成</text></g><g><defs><marker id="marker-0-e" markerWidth="10" markerHeight="7" refX="9" refY="3.5" orient="auto"><polygon points="0 0, 10 3.5, 0 7" fill="#7c3aed"></polygon></marker></defs><path d="M140.8,198.4 L140.8,339.2" fill="none" stroke="#7c3aed" stroke-width="1.5" marker-end="url(#marker-0-e)"></path><g><rect x="122.24000000000001" y="258.4064" width="37.120000000000005" height="20.7872" rx="10.3936" fill="#ffffff" opacity="0.85"></rect><text x="140.8" y="273.37318400000004" text-anchor="middle" font-size="14.848" font-family="sans-serif" font-weight="500" fill="#7c3aed">配布</text></g></g><g><defs><marker id="marker-1-e" markerWidth="10" markerHeight="7" refX="9" refY="3.5" orient="auto"><polygon points="0 0, 10 3.5, 0 7" fill="#7c3aed"></polygon></marker></defs><path d="M198.4,396.8 L333.44,396.8" fill="none" stroke="#7c3aed" stroke-width="1.5" marker-end="url(#marker-1-e)"></path><g><rect x="222.8608" y="367.10400000000004" width="86.11840000000001" height="20.7872" rx="10.3936" fill="#ffffff" opacity="0.85"></rect><text x="265.92" y="382.07078400000006" text-anchor="middle" font-size="14.848" font-family="sans-serif" font-weight="500" fill="#7c3aed">インストール</text></g></g><g><defs><marker id="marker-2-e" markerWidth="10" markerHeight="7" refX="9" refY="3.5" orient="auto"><polygon points="0 0, 10 3.5, 0 7" fill="#7c3aed"></polygon></marker></defs><path d="M181.52935059634515,612.0706494036548 L351.9977143440203,441.60228565597964" fill="none" stroke="#7c3aed" stroke-width="1.5" marker-end="url(#marker-2-e)"></path><g><rect x="176.78465247018272" y="518.5215875298172" width="179.95776" height="16.62976" rx="8.31488" fill="#ffffff" opacity="0.85"></rect><text x="266.7635324701827" y="530.4950147298172" text-anchor="middle" font-size="11.878400000000001" font-family="sans-serif" font-weight="500" fill="#7c3aed">インストール
(gh skill)</text></g></g><g><defs><marker id="marker-3-e" markerWidth="10" markerHeight="7" refX="9" refY="3.5" orient="auto"><polygon points="0 0, 10 3.5, 0 7" fill="#7c3aed"></polygon></marker></defs><path d="M652.8,198.4 L652.8,327.68" fill="none" stroke="#7c3aed" stroke-width="1.5" marker-end="url(#marker-3-e)"></path><g><rect x="634.24" y="252.64640000000003" width="37.120000000000005" height="20.7872" rx="10.3936" fill="#ffffff" opacity="0.85"></rect><text x="652.8" y="267.61318400000005" text-anchor="middle" font-size="14.848" font-family="sans-serif" font-weight="500" fill="#7c3aed">依頼</text></g></g><g><defs><marker id="marker-4-e" markerWidth="10" markerHeight="7" refX="9" refY="3.5" orient="auto"><polygon points="0 0, 10 3.5, 0 7" fill="#7c3aed"></polygon></marker></defs><path d="M701.6752207156142,347.92477928438586 L868.0706494036548,181.52935059634515" fill="none" stroke="#7c3aed" stroke-width="1.5" marker-end="url(#marker-4-e)"></path><g><rect x="760.7449350596345" y="254.3334649403655" width="48.256" height="20.7872" rx="10.3936" fill="#ffffff" opacity="0.85"></rect><text x="784.8729350596345" y="269.3002489403655" text-anchor="middle" font-size="14.848" font-family="sans-serif" font-weight="500" fill="#7c3aed">MCP</text></g></g><g><defs><marker id="marker-5-e" markerWidth="10" markerHeight="7" refX="9" refY="3.5" orient="auto"><polygon points="0 0, 10 3.5, 0 7" fill="#7c3aed"></polygon></marker></defs><path d="M583.68,396.8 L460.16,396.8" fill="none" stroke="#7c3aed" stroke-width="1.5" marker-end="url(#marker-5-e)"></path><g><rect x="503.35999999999996" y="367.10400000000004" width="37.120000000000005" height="20.7872" rx="10.3936" fill="#ffffff" opacity="0.85"></rect><text x="521.92" y="382.07078400000006" text-anchor="middle" font-size="14.848" font-family="sans-serif" font-weight="500" fill="#7c3aed">使用</text></g></g><g><defs><marker id="marker-6-e" markerWidth="10" markerHeight="7" refX="9" refY="3.5" orient="auto"><polygon points="0 0, 10 3.5, 0 7" fill="#7c3aed"></polygon></marker></defs><path d="M721.92,396.8 L851.1999999999999,396.8" fill="none" stroke="#7c3aed" stroke-width="1.5" marker-end="url(#marker-6-e)"></path><g><rect x="768" y="367.10400000000004" width="37.120000000000005" height="20.7872" rx="10.3936" fill="#ffffff" opacity="0.85"></rect><text x="786.56" y="382.07078400000006" text-anchor="middle" font-size="14.848" font-family="sans-serif" font-weight="500" fill="#7c3aed">編集</text></g></g><g><defs><marker id="marker-7-e" markerWidth="10" markerHeight="7" refX="9" refY="3.5" orient="auto"><polygon points="0 0, 10 3.5, 0 7" fill="#7c3aed"></polygon></marker></defs><path d="M966.4,396.8 L1107.2,396.8" fill="none" stroke="#7c3aed" stroke-width="1.5" marker-end="url(#marker-7-e)"></path><g><rect x="1018.24" y="367.10400000000004" width="37.120000000000005" height="20.7872" rx="10.3936" fill="#ffffff" opacity="0.85"></rect><text x="1036.8" y="382.07078400000006" text-anchor="middle" font-size="14.848" font-family="sans-serif" font-weight="500" fill="#7c3aed">入力</text></g></g><g><defs><marker id="marker-8-e" markerWidth="10" markerHeight="7" refX="9" refY="3.5" orient="auto"><polygon points="0 0, 10 3.5, 0 7" fill="#7c3aed"></polygon></marker></defs><path d="M1124.070649403655,437.5293505963451 L949.5293505963451,612.0706494036548" fill="none" stroke="#7c3aed" stroke-width="1.5" marker-end="url(#marker-8-e)"></path><g><rect x="1018.24" y="514.4064" width="37.120000000000005" height="20.7872" rx="10.3936" fill="#ffffff" opacity="0.85"></rect><text x="1036.8" y="529.3731839999999" text-anchor="middle" font-size="14.848" font-family="sans-serif" font-weight="500" fill="#7c3aed">出力</text></g></g><g><defs><marker id="marker-9-e" markerWidth="10" markerHeight="7" refX="9" refY="3.5" orient="auto"><polygon points="0 0, 10 3.5, 0 7" fill="#7c3aed"></polygon></marker></defs><path d="M1164.8,454.40000000000003 L1164.8,595.1999999999999" fill="none" stroke="#7c3aed" stroke-width="1.5" marker-end="url(#marker-9-e)"></path><g><rect x="1146.24" y="514.4064" width="37.120000000000005" height="20.7872" rx="10.3936" fill="#ffffff" opacity="0.85"></rect><text x="1164.8" y="529.3731839999999" text-anchor="middle" font-size="14.848" font-family="sans-serif" font-weight="500" fill="#7c3aed">出力</text></g></g><g><circle cx="140.8" cy="140.8" r="57.6" fill="#6d28d9" fill-opacity="0.08235294117647059" stroke="#6d28d9" stroke-width="1.5"></circle><svg x="105.08800000000001" y="105.08800000000001" width="71.424" height="71.424" viewBox="0 0 24 24" overflow="hidden" color="#6d28d9"><g fill="none" stroke="currentColor" stroke-width="2" stroke-linecap="round" stroke-linejoin="round"><path d="M3 12a9 9 0 1 0 18 0a9 9 0 1 0 -18 0"/><path d="M8 16l1.106 -1.99m1.4 -2.522l2.494 -4.488"/><path d="M7 14h5m2.9 0h2.1"/><path d="M16 16l-2.51 -4.518m-1.487 -2.677l-1 -1.805"/></g></svg><g><line x1="179.3661341310658" y1="98.01667032377397" x2="186.86063370368726" y2="89.70264940365487" stroke="#6d28d9" stroke-width="1" opacity="0.7"></line><text x="188.86063370368726" y="85.45944940365487" text-anchor="start" font-size="14.144" font-family="sans-serif" font-weight="600" fill="#6d28d9">Anthropic Claude
Marketplace</text></g></g><g><circle cx="140.8" cy="396.8" r="57.6" fill="#6d28d9" fill-opacity="0.08235294117647059" stroke="#6d28d9" stroke-width="1.5"></circle><svg x="105.08800000000001" y="361.088" width="71.424" height="71.424" viewBox="0 0 24 24" overflow="hidden" color="#6d28d9"><g fill="currentColor"><path d="M10 2a3 3 0 0 1 2.995 2.824l.005 .176v1h3a2 2 0 0 1 1.995 1.85l.005 .15v3h1a3 3 0 0 1 .176 5.995l-.176 .005h-1v3a2 2 0 0 1 -1.85 1.995l-.15 .005h-3a2 2 0 0 1 -1.995 -1.85l-.005 -.15v-1a1 1 0 0 0 -1.993 -.117l-.007 .117v1a2 2 0 0 1 -1.85 1.995l-.15 .005h-3a2 2 0 0 1 -1.995 -1.85l-.005 -.15v-3a2 2 0 0 1 1.85 -1.995l.15 -.005h1a1 1 0 0 0 .117 -1.993l-.117 -.007h-1a2 2 0 0 1 -1.995 -1.85l-.005 -.15v-3a2 2 0 0 1 1.85 -1.995l.15 -.005h3v-1a3 3 0 0 1 3 -3z"/></g></svg><g><line x1="179.36613413106576" y1="354.01667032377395" x2="186.86063370368726" y2="345.70264940365485" stroke="#6d28d9" stroke-width="1" opacity="0.7"></line><text x="188.86063370368726" y="340.7106494036549" text-anchor="start" font-size="16.64" font-family="sans-serif" font-weight="600" fill="#6d28d9">プラグイン</text></g></g><g><circle cx="140.8" cy="652.8" r="57.6" fill="#6d28d9" fill-opacity="0.08235294117647059" stroke="#6d28d9" stroke-width="1.5"></circle><svg x="105.08800000000001" y="617.088" width="71.424" height="71.424" viewBox="0 0 24 24" overflow="hidden" color="#6d28d9"><g fill="none" stroke="currentColor" stroke-width="2" stroke-linecap="round" stroke-linejoin="round"><path d="M9 19c-4.3 1.4 -4.3 -2.5 -6 -3m12 5v-3.5c0 -1 .1 -1.4 -.5 -2c2.8 -.3 5.5 -1.4 5.5 -6a4.6 4.6 0 0 0 -1.3 -3.2a4.2 4.2 0 0 0 -.1 -3.2s-1.1 -.3 -3.5 1.3a12.3 12.3 0 0 0 -6.2 0c-2.4 -1.6 -3.5 -1.3 -3.5 -1.3a4.2 4.2 0 0 0 -.1 3.2a4.6 4.6 0 0 0 -1.3 3.2c0 4.6 2.7 5.7 5.5 6c-.6 .6 -.6 1.2 -.5 2v3.5"/></g></svg><g><line x1="179.36613413106576" y1="695.5833296762261" x2="186.86063370368726" y2="703.8973505963452" stroke="#6d28d9" stroke-width="1" opacity="0.7"></line><text x="188.86063370368726" y="723.8653505963451" text-anchor="start" font-size="16.64" font-family="sans-serif" font-weight="600" fill="#6d28d9">gh CLI</text></g></g><g><circle cx="396.8" cy="396.8" r="63.36000000000001" fill="#6d28d9" fill-opacity="0.08235294117647059" stroke="#6d28d9" stroke-width="1.5"></circle><svg x="357.5168" y="357.5168" width="78.5664" height="78.5664" viewBox="0 0 24 24" overflow="hidden" color="#6d28d9"><g fill="none" stroke="currentColor" stroke-width="2" stroke-linecap="round" stroke-linejoin="round"><path d="M4 7h3a1 1 0 0 0 1 -1v-1a2 2 0 0 1 4 0v1a1 1 0 0 0 1 1h3a1 1 0 0 1 1 1v3a1 1 0 0 0 1 1h1a2 2 0 0 1 0 4h-1a1 1 0 0 0 -1 1v3a1 1 0 0 1 -1 1h-3a1 1 0 0 1 -1 -1v-1a2 2 0 0 0 -4 0v1a1 1 0 0 1 -1 1h-3a1 1 0 0 1 -1 -1v-3a1 1 0 0 1 1 -1h1a2 2 0 0 0 0 -4h-1a1 1 0 0 1 -1 -1v-3a1 1 0 0 1 1 -1"/></g></svg><g><line x1="439.3148896120817" y1="349.82156067649214" x2="447.666697074056" y2="340.5929143440203" stroke="#6d28d9" stroke-width="1" opacity="0.7"></line><text x="449.666697074056" y="335.60091434402034" text-anchor="start" font-size="16.64" font-family="sans-serif" font-weight="600" fill="#6d28d9">Skills</text></g></g><g><circle cx="652.8" cy="140.8" r="57.6" fill="#6d28d9" fill-opacity="0.08235294117647059" stroke="#6d28d9" stroke-width="1.5"></circle><svg x="617.088" y="105.08800000000001" width="71.424" height="71.424" viewBox="0 0 24 24" overflow="hidden" color="#6d28d9"><g fill="none" stroke="currentColor" stroke-width="2" stroke-linecap="round" stroke-linejoin="round"><path d="M8 7a4 4 0 1 0 8 0a4 4 0 0 0 -8 0"/><path d="M6 21v-2a4 4 0 0 1 4 -4h4a4 4 0 0 1 4 4v2"/></g></svg><g><line x1="691.3661341310657" y1="98.01667032377397" x2="698.8606337036872" y2="89.70264940365487" stroke="#6d28d9" stroke-width="1" opacity="0.7"></line><text x="700.8606337036872" y="84.71064940365487" text-anchor="start" font-size="16.64" font-family="sans-serif" font-weight="600" fill="#6d28d9">開発者</text></g></g><g><circle cx="652.8" cy="396.8" r="69.12" fill="#6d28d9" fill-opacity="0.08235294117647059" stroke="#6d28d9" stroke-width="1.5"></circle><svg x="609.9455999999999" y="353.9456" width="85.70880000000001" height="85.70880000000001" viewBox="0 0 24 24" overflow="hidden" color="#6d28d9"><g fill="none" stroke="currentColor" stroke-width="2" stroke-linecap="round" stroke-linejoin="round"><path d="M6 6a2 2 0 0 1 2 -2h8a2 2 0 0 1 2 2v4a2 2 0 0 1 -2 2h-8a2 2 0 0 1 -2 -2l0 -4"/><path d="M12 2v2"/><path d="M9 12v9"/><path d="M15 12v9"/><path d="M5 16l4 -2"/><path d="M15 14l4 2"/><path d="M9 18h6"/><path d="M10 8v.01"/><path d="M14 8v.01"/></g></svg><g><line x1="699.2632382645381" y1="447.9736444859339" x2="708.4727604444247" y2="458.11682071561415" stroke="#6d28d9" stroke-width="1" opacity="0.7"></line><text x="710.4727604444247" y="478.08482071561417" text-anchor="start" font-size="16.64" font-family="sans-serif" font-weight="600" fill="#6d28d9">AIエージェント</text></g></g><g><circle cx="908.8" cy="140.8" r="57.6" fill="#6d28d9" fill-opacity="0.08235294117647059" stroke="#6d28d9" stroke-width="1.5"></circle><svg x="873.088" y="105.08800000000001" width="71.424" height="71.424" viewBox="0 0 24 24" overflow="hidden" color="#6d28d9"><g fill="none" stroke="currentColor" stroke-width="2" stroke-linecap="round" stroke-linejoin="round"><path d="M5 5a1 1 0 0 1 1 -1h2a1 1 0 0 1 1 1v14a1 1 0 0 1 -1 1h-2a1 1 0 0 1 -1 -1l0 -14"/><path d="M9 5a1 1 0 0 1 1 -1h2a1 1 0 0 1 1 1v14a1 1 0 0 1 -1 1h-2a1 1 0 0 1 -1 -1l0 -14"/><path d="M5 8h4"/><path d="M9 16h4"/><path d="M13.803 4.56l2.184 -.53c.562 -.135 1.133 .19 1.282 .732l3.695 13.418a1.02 1.02 0 0 1 -.634 1.219l-.133 .041l-2.184 .53c-.562 .135 -1.133 -.19 -1.282 -.732l-3.695 -13.418a1.02 1.02 0 0 1 .634 -1.219l.133 -.041"/><path d="M14 9l4 -1"/><path d="M16 16l3.923 -.98"/></g></svg><g><line x1="947.3661341310657" y1="98.01667032377397" x2="954.8606337036872" y2="89.70264940365487" stroke="#6d28d9" stroke-width="1" opacity="0.7"></line><text x="956.8606337036872" y="85.45944940365487" text-anchor="start" font-size="14.144" font-family="sans-serif" font-weight="600" fill="#6d28d9">Context7
(MCP)</text></g></g><g><circle cx="908.8" cy="396.8" r="57.6" fill="#6d28d9" fill-opacity="0.08235294117647059" stroke="#6d28d9" stroke-width="1.5"></circle><svg x="873.088" y="361.088" width="71.424" height="71.424" viewBox="0 0 24 24" overflow="hidden" color="#6d28d9"><g fill="none" stroke="currentColor" stroke-width="2" stroke-linecap="round" stroke-linejoin="round"><path d="M14 3v4a1 1 0 0 0 1 1h4"/><path d="M17 21h-10a2 2 0 0 1 -2 -2v-14a2 2 0 0 1 2 -2h7l5 5v11a2 2 0 0 1 -2 2"/><path d="M10 13l-1 2l1 2"/><path d="M14 13l1 2l-1 2"/></g></svg><g><line x1="947.3661341310658" y1="439.58332967622607" x2="954.8606337036872" y2="447.8973505963451" stroke="#6d28d9" stroke-width="1" opacity="0.7"></line><text x="956.8606337036872" y="464.8701505963451" text-anchor="start" font-size="14.144" font-family="sans-serif" font-weight="600" fill="#6d28d9">.gg ファイル</text></g></g><g><circle cx="1164.8" cy="396.8" r="57.6" fill="#6d28d9" fill-opacity="0.08235294117647059" stroke="#6d28d9" stroke-width="1.5"></circle><svg x="1129.088" y="361.088" width="71.424" height="71.424" viewBox="0 0 24 24" overflow="hidden" color="#6d28d9"><g fill="none" stroke="currentColor" stroke-width="2" stroke-linecap="round" stroke-linejoin="round"><path d="M8 9l3 3l-3 3"/><path d="M13 15l3 0"/><path d="M3 6a2 2 0 0 1 2 -2h14a2 2 0 0 1 2 2v12a2 2 0 0 1 -2 2h-14a2 2 0 0 1 -2 -2l0 -12"/></g></svg><g><line x1="1126.2338658689341" y1="354.01667032377395" x2="1118.7393662963127" y2="345.7026494036549" stroke="#6d28d9" stroke-width="1" opacity="0.7"></line><text x="1116.7393662963127" y="341.4594494036549" text-anchor="end" font-size="14.144" font-family="sans-serif" font-weight="600" fill="#6d28d9">gg コマンド</text></g></g><g><circle cx="908.8" cy="652.8" r="57.6" fill="#6d28d9" fill-opacity="0.08235294117647059" stroke="#6d28d9" stroke-width="1.5"></circle><svg x="873.088" y="617.088" width="71.424" height="71.424" viewBox="0 0 24 24" overflow="hidden" color="#6d28d9"><g fill="none" stroke="currentColor" stroke-width="2" stroke-linecap="round" stroke-linejoin="round"><path d="M14 3v4a1 1 0 0 0 1 1h4"/><path d="M5 12v-7a2 2 0 0 1 2 -2h7l5 5v4"/><path d="M4 20.25c0 .414 .336 .75 .75 .75h1.25a1 1 0 0 0 1 -1v-1a1 1 0 0 0 -1 -1h-1a1 1 0 0 1 -1 -1v-1a1 1 0 0 1 1 -1h1.25a.75 .75 0 0 1 .75 .75"/><path d="M10 15l2 6l2 -6"/><path d="M20 15h-1a2 2 0 0 0 -2 2v2a2 2 0 0 0 2 2h1v-3"/></g></svg><g><line x1="947.3661341310657" y1="695.5833296762261" x2="954.8606337036872" y2="703.8973505963452" stroke="#6d28d9" stroke-width="1" opacity="0.7"></line><text x="956.8606337036872" y="723.8653505963451" text-anchor="start" font-size="16.64" font-family="sans-serif" font-weight="600" fill="#6d28d9">SVG</text></g></g><g><circle cx="1164.8" cy="652.8" r="57.6" fill="#6d28d9" fill-opacity="0.08235294117647059" stroke="#6d28d9" stroke-width="1.5"></circle><svg x="1129.088" y="617.088" width="71.424" height="71.424" viewBox="0 0 24 24" overflow="hidden" color="#6d28d9"><g fill="none" stroke="currentColor" stroke-width="2" stroke-linecap="round" stroke-linejoin="round"><path d="M15 8h.01"/><path d="M3 6a3 3 0 0 1 3 -3h12a3 3 0 0 1 3 3v12a3 3 0 0 1 -3 3h-12a3 3 0 0 1 -3 -3v-12"/><path d="M3 16l5 -5c.928 -.893 2.072 -.893 3 0l5 5"/><path d="M14 14l1 -1c.928 -.893 2.072 -.893 3 0l3 3"/></g></svg><g><line x1="1203.3661341310658" y1="610.016670323774" x2="1210.8606337036872" y2="601.7026494036548" stroke="#6d28d9" stroke-width="1" opacity="0.7"></line><text x="1212.8606337036872" y="596.7106494036548" text-anchor="start" font-size="16.64" font-family="sans-serif" font-weight="600" fill="#6d28d9">PNG</text></g></g></svg>