<?xml version="1.0" encoding="UTF-8"?>
<svg xmlns="http://www.w3.org/2000/svg" width="1305.6" height="1049.6" viewBox="0 0 1305.6 1049.6" style="font-family:system-ui, sans-serif"><rect width="1305.6" height="1049.6" fill="#ffffff"></rect><g><path d="M 19.200 49.920 A 30.720 30.720 0 0 1 49.920 19.200 L 231.680 19.200 A 30.720 30.720 0 0 1 262.400 49.920 L 262.400 999.680 A 30.720 30.720 0 0 1 231.680 1030.400 L 49.920 1030.400 A 30.720 30.720 0 0 1 19.200 999.680 Z" fill="#d9770615"></path><text x="35.024" y="48.59904" text-anchor="start" font-size="15.36" font-family="sans-serif" font-weight="600" fill="currentColor" opacity="0.45">SSOT（ソース）</text></g><g><path d="M 1043.200 49.920 A 30.720 30.720 0 0 1 1073.920 19.200 L 1255.680 19.200 A 30.720 30.720 0 0 1 1286.400 49.920 L 1286.400 999.680 A 30.720 30.720 0 0 1 1255.680 1030.400 L 1073.920 1030.400 A 30.720 30.720 0 0 1 1043.200 999.680 Z" fill="#05966915"></path><text x="1059.024" y="48.59904" text-anchor="start" font-size="15.36" font-family="sans-serif" font-weight="600" fill="currentColor" opacity="0.45">派生物</text></g><g><defs><marker id="marker-0-e" markerWidth="10" markerHeight="7" refX="9" refY="3.5" orient="auto"><polygon points="0 0, 10 3.5, 0 7" fill="#059669"></polygon></marker></defs><path d="M192.31900620159516,166.5595031007976 L585.8252919379263,363.3126459689632" fill="none" stroke="#059669" stroke-width="1.5" marker-end="url(#marker-0-e)"></path></g><g><defs><marker id="marker-1-e" markerWidth="10" markerHeight="7" refX="9" refY="3.5" orient="auto"><polygon points="0 0, 10 3.5, 0 7" fill="#059669"></polygon></marker></defs><path d="M198.4,396.8 L577.92,396.8" fill="none" stroke="#059669" stroke-width="1.5" marker-end="url(#marker-1-e)"></path></g><g><defs><marker id="marker-2-e" markerWidth="10" markerHeight="7" refX="9" refY="3.5" orient="auto"><polygon points="0 0, 10 3.5, 0 7" fill="#059669"></polygon></marker></defs><path d="M192.31900620159516,627.0404968992024 L585.8252919379263,430.28735403103684" fill="none" stroke="#059669" stroke-width="1.5" marker-end="url(#marker-2-e)"></path></g><g><defs><marker id="marker-3-e" markerWidth="10" markerHeight="7" refX="9" refY="3.5" orient="auto"><polygon points="0 0, 10 3.5, 0 7" fill="#059669"></polygon></marker></defs><path d="M181.52935059634515,868.0706494036548 L599.8518442247513,449.7481557752487" fill="none" stroke="#059669" stroke-width="1.5" marker-end="url(#marker-3-e)"></path></g><g><defs><marker id="marker-4-e" markerWidth="10" markerHeight="7" refX="9" refY="3.5" orient="auto"><polygon points="0 0, 10 3.5, 0 7" fill="#059669"></polygon></marker></defs><path d="M719.7747080620736,363.3126459689632 L1113.2809937984048,166.5595031007976" fill="none" stroke="#059669" stroke-width="1.5" marker-end="url(#marker-4-e)"></path></g><g><defs><marker id="marker-5-e" markerWidth="10" markerHeight="7" refX="9" refY="3.5" orient="auto"><polygon points="0 0, 10 3.5, 0 7" fill="#059669"></polygon></marker></defs><path d="M727.68,396.8 L1107.2,396.8" fill="none" stroke="#059669" stroke-width="1.5" marker-end="url(#marker-5-e)"></path></g><g><defs><marker id="marker-6-e" markerWidth="10" markerHeight="7" refX="9" refY="3.5" orient="auto"><polygon points="0 0, 10 3.5, 0 7" fill="#059669"></polygon></marker></defs><path d="M719.7747080620736,430.28735403103684 L1113.2809937984048,627.0404968992024" fill="none" stroke="#059669" stroke-width="1.5" marker-end="url(#marker-6-e)"></path></g><g><defs><marker id="marker-7-e" markerWidth="10" markerHeight="7" refX="9" refY="3.5" orient="auto"><polygon points="0 0, 10 3.5, 0 7" fill="#059669"></polygon></marker></defs><path d="M705.7481557752486,449.7481557752487 L1124.070649403655,868.0706494036548" fill="none" stroke="#059669" stroke-width="1.5" marker-end="url(#marker-7-e)"></path></g><g><circle cx="140.8" cy="140.8" r="57.6" fill="#0369a1" fill-opacity="0.08235294117647059" stroke="#0369a1" stroke-width="1.5"></circle><svg x="105.08800000000001" y="105.08800000000001" width="71.424" height="71.424" viewBox="0 0 24 24" overflow="hidden" color="#0369a1"><g fill="none" stroke="currentColor" stroke-width="2" stroke-linecap="round" stroke-linejoin="round"><path d="M7 8l-4 4l4 4"/><path d="M17 8l4 4l-4 4"/><path d="M14 4l-4 16"/></g></svg><g><line x1="179.3661341310658" y1="98.01667032377397" x2="186.86063370368726" y2="89.70264940365487" stroke="#0369a1" stroke-width="1" opacity="0.7"></line><text x="188.86063370368726" y="85.70904940365487" text-anchor="start" font-size="13.312000000000001" font-family="sans-serif" font-weight="600" fill="#0369a1">src/gg/dsl.ts</text></g></g><g><circle cx="140.8" cy="396.8" r="57.6" fill="#0369a1" fill-opacity="0.08235294117647059" stroke="#0369a1" stroke-width="1.5"></circle><svg x="105.08800000000001" y="361.088" width="71.424" height="71.424" viewBox="0 0 24 24" overflow="hidden" color="#0369a1"><g fill="none" stroke="currentColor" stroke-width="2" stroke-linecap="round" stroke-linejoin="round"><path d="M8 9l3 3l-3 3"/><path d="M13 15l3 0"/><path d="M3 6a2 2 0 0 1 2 -2h14a2 2 0 0 1 2 2v12a2 2 0 0 1 -2 2h-14a2 2 0 0 1 -2 -2l0 -12"/></g></svg><g><line x1="179.3661341310658" y1="354.01667032377395" x2="186.86063370368726" y2="345.7026494036549" stroke="#0369a1" stroke-width="1" opacity="0.7"></line><text x="188.86063370368726" y="341.7090494036549" text-anchor="start" font-size="13.312000000000001" font-family="sans-serif" font-weight="600" fill="#0369a1">src/cli/args.ts</text></g></g><g><circle cx="140.8" cy="652.8" r="57.6" fill="#0369a1" fill-opacity="0.08235294117647059" stroke="#0369a1" stroke-width="1.5"></circle><svg x="105.08800000000001" y="617.088" width="71.424" height="71.424" viewBox="0 0 24 24" overflow="hidden" color="#0369a1"><g fill="none" stroke="currentColor" stroke-width="2" stroke-linecap="round" stroke-linejoin="round"><path d="M14 3v4a1 1 0 0 0 1 1h4"/><path d="M17 21h-10a2 2 0 0 1 -2 -2v-14a2 2 0 0 1 2 -2h7l5 5v11a2 2 0 0 1 -2 2"/><path d="M9 17h6"/><path d="M9 13h6"/></g></svg><g><line x1="140.8" y1="710.4" x2="140.8" y2="720.768" stroke="#0369a1" stroke-width="1" opacity="0.7"></line><text x="140.8" y="735.1449600000001" text-anchor="middle" font-size="11.9808" font-family="sans-serif" font-weight="600" fill="#0369a1">llm-reference
.template.md</text></g></g><g><circle cx="140.8" cy="908.8" r="57.6" fill="#0369a1" fill-opacity="0.08235294117647059" stroke="#0369a1" stroke-width="1.5"></circle><svg x="105.08800000000001" y="873.088" width="71.424" height="71.424" viewBox="0 0 24 24" overflow="hidden" color="#0369a1"><g fill="none" stroke="currentColor" stroke-width="2" stroke-linecap="round" stroke-linejoin="round"><path d="M5 19l2.757 -7.351a1 1 0 0 1 .936 -.649h12.307a1 1 0 0 1 .986 1.164l-.996 5.211a2 2 0 0 1 -1.964 1.625h-14.026a2 2 0 0 1 -2 -2v-11a2 2 0 0 1 2 -2h4l3 3h7a2 2 0 0 1 2 2v2"/></g></svg><g><line x1="179.36613413106576" y1="951.5833296762261" x2="186.86063370368726" y2="959.8973505963452" stroke="#0369a1" stroke-width="1" opacity="0.7"></line><text x="188.86063370368726" y="975.8717505963452" text-anchor="start" font-size="13.312000000000001" font-family="sans-serif" font-weight="600" fill="#0369a1">examples/*.gg</text></g></g><g><circle cx="652.8" cy="396.8" r="74.88000000000001" fill="#0369a1" fill-opacity="0.08235294117647059" stroke="#0369a1" stroke-width="1.5"></circle><svg x="606.3743999999999" y="350.37440000000004" width="92.8512" height="92.8512" viewBox="0 0 24 24" overflow="hidden" color="#0369a1"><g fill="none" stroke="currentColor" stroke-width="2" stroke-linecap="round" stroke-linejoin="round"><path d="M20 11a8.1 8.1 0 0 0 -15.5 -2m-.5 -4v4h4"/><path d="M4 13a8.1 8.1 0 0 0 15.5 2m.5 4v-4h-4"/></g></svg><g><line x1="652.8" y1="321.92" x2="652.8" y2="308.44159999999994" stroke="#0369a1" stroke-width="1" opacity="0.7"></line><text x="652.8" y="303.4496" text-anchor="middle" font-size="16.64" font-family="sans-serif" font-weight="600" fill="#0369a1">regen-ai</text></g></g><g><circle cx="1164.8" cy="140.8" r="57.6" fill="#0369a1" fill-opacity="0.08235294117647059" stroke="#0369a1" stroke-width="1.5"></circle><svg x="1129.088" y="105.08800000000001" width="71.424" height="71.424" viewBox="0 0 24 24" overflow="hidden" color="#0369a1"><g fill="none" stroke="currentColor" stroke-width="2" stroke-linecap="round" stroke-linejoin="round"><path d="M11 15a4 4 0 1 0 8 0a4 4 0 1 0 -8 0"/><path d="M18.5 18.5l2.5 2.5"/><path d="M4 6h16"/><path d="M4 12h4"/><path d="M4 18h4"/></g></svg><g><line x1="1126.2338658689341" y1="98.01667032377397" x2="1118.7393662963127" y2="89.70264940365487" stroke="#0369a1" stroke-width="1" opacity="0.7"></line><text x="1116.7393662963127" y="85.70904940365487" text-anchor="end" font-size="13.312000000000001" font-family="sans-serif" font-weight="600" fill="#0369a1">icon-index.json</text></g></g><g><circle cx="1164.8" cy="396.8" r="57.6" fill="#0369a1" fill-opacity="0.08235294117647059" stroke="#0369a1" stroke-width="1.5"></circle><svg x="1129.088" y="361.088" width="71.424" height="71.424" viewBox="0 0 24 24" overflow="hidden" color="#0369a1"><g fill="none" stroke="currentColor" stroke-width="2" stroke-linecap="round" stroke-linejoin="round"><path d="M14 3v4a1 1 0 0 0 1 1h4"/><path d="M17 21h-10a2 2 0 0 1 -2 -2v-14a2 2 0 0 1 2 -2h7l5 5v11a2 2 0 0 1 -2 2"/><path d="M9 9l1 0"/><path d="M9 13l6 0"/><path d="M9 17l6 0"/></g></svg><g><line x1="1126.2338658689341" y1="439.58332967622607" x2="1118.7393662963127" y2="447.8973505963451" stroke="#0369a1" stroke-width="1" opacity="0.7"></line><text x="1116.7393662963127" y="463.8717505963451" text-anchor="end" font-size="13.312000000000001" font-family="sans-serif" font-weight="600" fill="#0369a1">llm-reference.md</text></g></g><g><circle cx="1164.8" cy="652.8" r="57.6" fill="#0369a1" fill-opacity="0.08235294117647059" stroke="#0369a1" stroke-width="1.5"></circle><svg x="1129.088" y="617.088" width="71.424" height="71.424" viewBox="0 0 24 24" overflow="hidden" color="#0369a1"><g fill="none" stroke="currentColor" stroke-width="2" stroke-linecap="round" stroke-linejoin="round"><path d="M3 12a9 9 0 1 0 18 0a9 9 0 0 0 -18 0"/><path d="M3.6 9h16.8"/><path d="M3.6 15h16.8"/><path d="M11.5 3a17 17 0 0 0 0 18"/><path d="M12.5 3a17 17 0 0 1 0 18"/></g></svg><g><line x1="1126.2338658689341" y1="695.5833296762261" x2="1118.7393662963127" y2="703.8973505963452" stroke="#0369a1" stroke-width="1" opacity="0.7"></line><text x="1116.7393662963127" y="719.8717505963452" text-anchor="end" font-size="13.312000000000001" font-family="sans-serif" font-weight="600" fill="#0369a1">llms.txt</text></g></g><g><circle cx="1164.8" cy="908.8" r="57.6" fill="#0369a1" fill-opacity="0.08235294117647059" stroke="#0369a1" stroke-width="1.5"></circle><svg x="1129.088" y="873.088" width="71.424" height="71.424" viewBox="0 0 24 24" overflow="hidden" color="#0369a1"><g fill="none" stroke="currentColor" stroke-width="2" stroke-linecap="round" stroke-linejoin="round"><path d="M21 12a9 9 0 1 0 -9 9"/><path d="M3.6 9h16.8"/><path d="M3.6 15h8.4"/><path d="M11.578 3a17 17 0 0 0 0 18"/><path d="M12.5 3c1.719 2.755 2.5 5.876 2.5 9"/><path d="M18 21v-7m3 3l-3 -3l-3 3"/></g></svg><g><line x1="1126.2338658689341" y1="951.5833296762261" x2="1118.7393662963127" y2="959.8973505963452" stroke="#0369a1" stroke-width="1" opacity="0.7"></line><text x="1116.7393662963127" y="975.8717505963452" text-anchor="end" font-size="13.312000000000001" font-family="sans-serif" font-weight="600" fill="#0369a1">llms-full.txt</text></g></g></svg>