<svg version="1.1" viewBox="0.0 0.0 826.0 511.0" fill="none" stroke="none" stroke-linecap="square" stroke-miterlimit="10" width="826" height="511" xmlns:xlink="http://www.w3.org/1999/xlink" xmlns="http://www.w3.org/2000/svg"><path fill="#ffffff" d="M0 0L826.0 0L826.0 511.0L0 511.0L0 0Z" fill-rule="nonzero"/><path stroke="#cccccc" stroke-width="1.0" stroke-linecap="butt" d="M112.5 81.5L112.5 407.5" fill-rule="nonzero"/><path stroke="#cccccc" stroke-width="1.0" stroke-linecap="butt" d="M262.5 81.5L262.5 407.5" fill-rule="nonzero"/><path stroke="#cccccc" stroke-width="1.0" stroke-linecap="butt" d="M412.5 81.5L412.5 407.5" fill-rule="nonzero"/><path stroke="#cccccc" stroke-width="1.0" stroke-linecap="butt" d="M562.5 81.5L562.5 407.5" fill-rule="nonzero"/><path stroke="#cccccc" stroke-width="1.0" stroke-linecap="butt" d="M712.5 81.5L712.5 407.5" fill-rule="nonzero"/><path stroke="#333333" stroke-width="1.0" stroke-linecap="butt" d="M112.5 407.5L800.5 407.5" fill-rule="nonzero"/><path stroke="#cccccc" stroke-width="1.0" stroke-linecap="butt" d="M112.5 325.5L800.5 325.5" fill-rule="nonzero"/><path stroke="#cccccc" stroke-width="1.0" stroke-linecap="butt" d="M112.5 244.5L800.5 244.5" fill-rule="nonzero"/><path stroke="#cccccc" stroke-width="1.0" stroke-linecap="butt" d="M112.5 162.5L800.5 162.5" fill-rule="nonzero"/><path stroke="#cccccc" stroke-width="1.0" stroke-linecap="butt" d="M112.5 81.5L800.5 81.5" fill-rule="nonzero"/><path stroke="#000000" stroke-width="1.0" stroke-linecap="butt" d="M800.5 81.5L800.5 407.5" fill-rule="nonzero"/><clipPath id="id_0"><path d="M112.55 81.083336L800.45 81.083336L800.45 407.45L112.55 407.45L112.55 81.083336Z" clip-rule="nonzero"/></clipPath><path stroke="#4285f4" stroke-width="2.0" stroke-linecap="butt" clip-path="url(#id_0)" d="M112.55 178.5639L125.28889 183.92284L137.20592 178.42914L149.94481 162.22864L162.27277 158.46924L175.01164 166.88075L187.3396 165.1727L200.07849 159.76102L212.81738 157.2633L225.14534 130.62112L237.88423 117.30004L250.21219 118.132614L262.95108 110.22321L275.68997 120.63032L287.19604 152.2679L299.93494 165.1727L312.2629 229.69673L325.0018 226.36646L337.32974 216.79192L350.06863 226.13518L362.80753 248.38745L375.1355 252.92033L387.87436 257.0411L400.20233 253.74449L412.94122 266.3297L425.6801 278.46924L437.1862 278.46924L449.92508 291.65576L462.25305 288.7712L474.99194 287.1229L487.3199 279.65082L500.05878 299.48526L512.79767 302.7819L525.1256 303.60605L537.8645 306.90268L550.19244 306.4906L562.93134 308.3744L575.6702 309.37518L587.17633 312.95352L599.9152 318.70856L612.24316 322.45868L624.98206 310.19934L637.31006 310.8721L650.04895 312.53723L662.78784 316.2838L675.1158 325.85834L687.8547 323.36063L700.1826 319.61407L712.9215 319.61407L725.6604 318.36523L737.5774 316.2838L750.3163 319.61407L762.6443 320.8629L775.3832 322.4937L787.7111 323.3086L800.45 322.52808" fill-rule="nonzero"/><path fill="#000000" fill-opacity="0.0" clip-path="url(#id_0)" d="M115.55 178.5639C115.55 180.22076 114.206856 181.5639 112.55 181.5639C110.89314 181.5639 109.55 180.22076 109.55 178.5639C109.55 176.90704 110.89314 175.5639 112.55 175.5639C114.206856 175.5639 115.55 176.90704 115.55 178.5639Z" fill-rule="nonzero"/><path fill="#000000" fill-opacity="0.0" clip-path="url(#id_0)" d="M128.2889 183.92284C128.2889 185.57968 126.94574 186.92284 125.28889 186.92284C123.632034 186.92284 122.28889 185.57968 122.28889 183.92284C122.28889 182.26598 123.632034 180.92284 125.28889 180.92284C126.94574 180.92284 128.2889 182.26598 128.2889 183.92284Z" fill-rule="nonzero"/><path fill="#000000" fill-opacity="0.0" clip-path="url(#id_0)" d="M140.20592 178.42914C140.20592 180.086 138.86276 181.42914 137.20592 181.42914C135.54906 181.42914 134.20592 180.086 134.20592 178.42914C134.20592 176.77228 135.54906 175.42914 137.20592 175.42914C138.86276 175.42914 140.20592 176.77228 140.20592 178.42914Z" fill-rule="nonzero"/><path fill="#000000" fill-opacity="0.0" clip-path="url(#id_0)" d="M152.94481 162.22864C152.94481 163.8855 151.60165 165.22864 149.94481 165.22864C148.28795 165.22864 146.94481 163.8855 146.94481 162.22864C146.94481 160.57178 148.28795 159.22864 149.94481 159.22864C151.60165 159.22864 152.94481 160.57178 152.94481 162.22864Z" fill-rule="nonzero"/><path fill="#000000" fill-opacity="0.0" clip-path="url(#id_0)" d="M165.27277 158.46924C165.27277 160.1261 163.92961 161.46924 162.27277 161.46924C160.6159 161.46924 159.27277 160.1261 159.27277 158.46924C159.27277 156.8124 160.6159 155.46924 162.27277 155.46924C163.92961 155.46924 165.27277 156.8124 165.27277 158.46924Z" fill-rule="nonzero"/><path fill="#000000" fill-opacity="0.0" clip-path="url(#id_0)" d="M178.01164 166.88075C178.01164 168.53761 176.6685 169.88075 175.01164 169.88075C173.3548 169.88075 172.01164 168.53761 172.01164 166.88075C172.01164 165.2239 173.3548 163.88075 175.01164 163.88075C176.6685 163.88075 178.01164 165.2239 178.01164 166.88075Z" fill-rule="nonzero"/><path fill="#000000" fill-opacity="0.0" clip-path="url(#id_0)" d="M190.3396 165.1727C190.3396 166.82956 188.99646 168.1727 187.3396 168.1727C185.68275 168.1727 184.3396 166.82956 184.3396 165.1727C184.3396 163.51585 185.68275 162.1727 187.3396 162.1727C188.99646 162.1727 190.3396 163.51585 190.3396 165.1727Z" fill-rule="nonzero"/><path fill="#000000" fill-opacity="0.0" clip-path="url(#id_0)" d="M203.07849 159.76102C203.07849 161.41786 201.73535 162.76102 200.07849 162.76102C198.42165 162.76102 197.07849 161.41786 197.07849 159.76102C197.07849 158.10416 198.42165 156.76102 200.07849 156.76102C201.73535 156.76102 203.07849 158.10416 203.07849 159.76102Z" fill-rule="nonzero"/><path fill="#000000" fill-opacity="0.0" clip-path="url(#id_0)" d="M215.81738 157.2633C215.81738 158.92017 214.47424 160.2633 212.81738 160.2633C211.16052 160.2633 209.81738 158.92017 209.81738 157.2633C209.81738 155.60646 211.16052 154.2633 212.81738 154.2633C214.47424 154.2633 215.81738 155.60646 215.81738 157.2633Z" fill-rule="nonzero"/><path fill="#000000" fill-opacity="0.0" clip-path="url(#id_0)" d="M228.14534 130.62112C228.14534 132.27798 226.8022 133.62112 225.14534 133.62112C223.48848 133.62112 222.14534 132.27798 222.14534 130.62112C222.14534 128.96428 223.48848 127.62113 225.14534 127.62113C226.8022 127.62113 228.14534 128.96428 228.14534 130.62112Z" fill-rule="nonzero"/><path fill="#000000" fill-opacity="0.0" clip-path="url(#id_0)" d="M240.88423 117.30004C240.88423 118.956894 239.54108 120.30004 237.88423 120.30004C236.22737 120.30004 234.88423 118.956894 234.88423 117.30004C234.88423 115.64319 236.22737 114.30004 237.88423 114.30004C239.54108 114.30004 240.88423 115.64319 240.88423 117.30004Z" fill-rule="nonzero"/><path fill="#000000" fill-opacity="0.0" clip-path="url(#id_0)" d="M253.21219 118.132614C253.21219 119.78947 251.86903 121.132614 250.21219 121.132614C248.55533 121.132614 247.21219 119.78947 247.21219 118.132614C247.21219 116.47575 248.55533 115.132614 250.21219 115.132614C251.86903 115.132614 253.21219 116.47575 253.21219 118.132614Z" fill-rule="nonzero"/><path fill="#000000" fill-opacity="0.0" clip-path="url(#id_0)" d="M265.95108 110.22321C265.95108 111.880066 264.60794 113.22321 262.95108 113.22321C261.29422 113.22321 259.95108 111.880066 259.95108 110.22321C259.95108 108.56636 261.29422 107.22321 262.95108 107.22321C264.60794 107.22321 265.95108 108.56636 265.95108 110.22321Z" fill-rule="nonzero"/><path fill="#000000" fill-opacity="0.0" clip-path="url(#id_0)" d="M278.68997 120.63032C278.68997 122.28717 277.34683 123.63032 275.68997 123.63032C274.0331 123.63032 272.68997 122.28717 272.68997 120.63032C272.68997 118.97346 274.0331 117.63032 275.68997 117.63032C277.34683 117.63032 278.68997 118.97346 278.68997 120.63032Z" fill-rule="nonzero"/><path fill="#000000" fill-opacity="0.0" clip-path="url(#id_0)" d="M290.19604 152.2679C290.19604 153.92476 288.8529 155.2679 287.19604 155.2679C285.5392 155.2679 284.19604 153.92476 284.19604 152.2679C284.19604 150.61104 285.5392 149.2679 287.19604 149.2679C288.8529 149.2679 290.19604 150.61104 290.19604 152.2679Z" fill-rule="nonzero"/><path fill="#000000" fill-opacity="0.0" clip-path="url(#id_0)" d="M302.93494 165.1727C302.93494 166.82956 301.5918 168.1727 299.93494 168.1727C298.2781 168.1727 296.93494 166.82956 296.93494 165.1727C296.93494 163.51585 298.2781 162.1727 299.93494 162.1727C301.5918 162.1727 302.93494 163.51585 302.93494 165.1727Z" fill-rule="nonzero"/><path fill="#000000" fill-opacity="0.0" clip-path="url(#id_0)" d="M315.2629 229.69673C315.2629 231.35358 313.91977 232.69673 312.2629 232.69673C310.60605 232.69673 309.2629 231.35358 309.2629 229.69673C309.2629 228.03987 310.60605 226.69673 312.2629 226.69673C313.91977 226.69673 315.2629 228.03987 315.2629 229.69673Z" fill-rule="nonzero"/><path fill="#000000" fill-opacity="0.0" clip-path="url(#id_0)" d="M328.0018 226.36646C328.0018 228.02332 326.65866 229.36646 325.0018 229.36646C323.34494 229.36646 322.0018 228.02332 322.0018 226.36646C322.0018 224.7096 323.34494 223.36646 325.0018 223.36646C326.65866 223.36646 328.0018 224.7096 328.0018 226.36646Z" fill-rule="nonzero"/><path fill="#000000" fill-opacity="0.0" clip-path="url(#id_0)" d="M340.32974 216.79192C340.32974 218.44878 338.9866 219.79192 337.32974 219.79192C335.67288 219.79192 334.32974 218.44878 334.32974 216.79192C334.32974 215.13507 335.67288 213.79192 337.32974 213.79192C338.9866 213.79192 340.32974 215.13507 340.32974 216.79192Z" fill-rule="nonzero"/><path fill="#000000" fill-opacity="0.0" clip-path="url(#id_0)" d="M353.06863 226.13518C353.06863 227.79204 351.7255 229.13518 350.06863 229.13518C348.41177 229.13518 347.06863 227.79204 347.06863 226.13518C347.06863 224.47833 348.41177 223.13518 350.06863 223.13518C351.7255 223.13518 353.06863 224.47833 353.06863 226.13518Z" fill-rule="nonzero"/><path fill="#000000" fill-opacity="0.0" clip-path="url(#id_0)" d="M365.80753 248.38745C365.80753 250.04431 364.4644 251.38745 362.80753 251.38745C361.15067 251.38745 359.80753 250.04431 359.80753 248.38745C359.80753 246.7306 361.15067 245.38745 362.80753 245.38745C364.4644 245.38745 365.80753 246.7306 365.80753 248.38745Z" fill-rule="nonzero"/><path fill="#000000" fill-opacity="0.0" clip-path="url(#id_0)" d="M378.1355 252.92033C378.1355 254.57718 376.79233 255.92033 375.1355 255.92033C373.47864 255.92033 372.1355 254.57718 372.1355 252.92033C372.1355 251.26347 373.47864 249.92033 375.1355 249.92033C376.79233 249.92033 378.1355 251.26347 378.1355 252.92033Z" fill-rule="nonzero"/><path fill="#000000" fill-opacity="0.0" clip-path="url(#id_0)" d="M390.87436 257.0411C390.87436 258.69797 389.53122 260.0411 387.87436 260.0411C386.21753 260.0411 384.87436 258.69797 384.87436 257.0411C384.87436 255.38426 386.21753 254.04112 387.87436 254.04112C389.53122 254.04112 390.87436 255.38426 390.87436 257.0411Z" fill-rule="nonzero"/><path fill="#000000" fill-opacity="0.0" clip-path="url(#id_0)" d="M403.20233 253.74449C403.20233 255.40134 401.8592 256.74448 400.20233 256.74448C398.54547 256.74448 397.20233 255.40134 397.20233 253.74449C397.20233 252.08763 398.54547 250.74449 400.20233 250.74449C401.8592 250.74449 403.20233 252.08763 403.20233 253.74449Z" fill-rule="nonzero"/><path fill="#000000" fill-opacity="0.0" clip-path="url(#id_0)" d="M415.94122 266.3297C415.94122 267.98657 414.59808 269.3297 412.94122 269.3297C411.28436 269.3297 409.94122 267.98657 409.94122 266.3297C409.94122 264.67285 411.28436 263.3297 412.94122 263.3297C414.59808 263.3297 415.94122 264.67285 415.94122 266.3297Z" fill-rule="nonzero"/><path fill="#000000" fill-opacity="0.0" clip-path="url(#id_0)" d="M428.6801 278.46924C428.6801 280.1261 427.33698 281.46924 425.6801 281.46924C424.02325 281.46924 422.6801 280.1261 422.6801 278.46924C422.6801 276.81238 424.02325 275.46924 425.6801 275.46924C427.33698 275.46924 428.6801 276.81238 428.6801 278.46924Z" fill-rule="nonzero"/><path fill="#000000" fill-opacity="0.0" clip-path="url(#id_0)" d="M440.1862 278.46924C440.1862 280.1261 438.84305 281.46924 437.1862 281.46924C435.52936 281.46924 434.1862 280.1261 434.1862 278.46924C434.1862 276.81238 435.52936 275.46924 437.1862 275.46924C438.84305 275.46924 440.1862 276.81238 440.1862 278.46924Z" fill-rule="nonzero"/><path fill="#000000" fill-opacity="0.0" clip-path="url(#id_0)" d="M452.92508 291.65576C452.92508 293.31262 451.58194 294.65576 449.92508 294.65576C448.26825 294.65576 446.92508 293.31262 446.92508 291.65576C446.92508 289.9989 448.26825 288.65576 449.92508 288.65576C451.58194 288.65576 452.92508 289.9989 452.92508 291.65576Z" fill-rule="nonzero"/><path fill="#000000" fill-opacity="0.0" clip-path="url(#id_0)" d="M465.25305 288.7712C465.25305 290.42807 463.9099 291.7712 462.25305 291.7712C460.5962 291.7712 459.25305 290.42807 459.25305 288.7712C459.25305 287.11435 460.5962 285.7712 462.25305 285.7712C463.9099 285.7712 465.25305 287.11435 465.25305 288.7712Z" fill-rule="nonzero"/><path fill="#000000" fill-opacity="0.0" clip-path="url(#id_0)" d="M477.99194 287.1229C477.99194 288.77975 476.6488 290.1229 474.99194 290.1229C473.33508 290.1229 471.99194 288.77975 471.99194 287.1229C471.99194 285.46603 473.33508 284.1229 474.99194 284.1229C476.6488 284.1229 477.99194 285.46603 477.99194 287.1229Z" fill-rule="nonzero"/><path fill="#000000" fill-opacity="0.0" clip-path="url(#id_0)" d="M490.3199 279.65082C490.3199 281.30765 488.97675 282.65082 487.3199 282.65082C485.66302 282.65082 484.3199 281.30765 484.3199 279.65082C484.3199 277.99396 485.66302 276.65082 487.3199 276.65082C488.97675 276.65082 490.3199 277.99396 490.3199 279.65082Z" fill-rule="nonzero"/><path fill="#000000" fill-opacity="0.0" clip-path="url(#id_0)" d="M503.05878 299.48526C503.05878 301.14212 501.71564 302.48526 500.05878 302.48526C498.40192 302.48526 497.05878 301.14212 497.05878 299.48526C497.05878 297.82843 498.40192 296.48526 500.05878 296.48526C501.71564 296.48526 503.05878 297.82843 503.05878 299.48526Z" fill-rule="nonzero"/><path fill="#000000" fill-opacity="0.0" clip-path="url(#id_0)" d="M515.79767 302.7819C515.79767 304.43875 514.4545 305.7819 512.79767 305.7819C511.1408 305.7819 509.79767 304.43875 509.79767 302.7819C509.79767 301.12506 511.1408 299.7819 512.79767 299.7819C514.4545 299.7819 515.79767 301.12506 515.79767 302.7819Z" fill-rule="nonzero"/><path fill="#000000" fill-opacity="0.0" clip-path="url(#id_0)" d="M528.1256 303.60605C528.1256 305.2629 526.7825 306.60605 525.1256 306.60605C523.46875 306.60605 522.1256 305.2629 522.1256 303.60605C522.1256 301.94922 523.46875 300.60605 525.1256 300.60605C526.7825 300.60605 528.1256 301.94922 528.1256 303.60605Z" fill-rule="nonzero"/><path fill="#000000" fill-opacity="0.0" clip-path="url(#id_0)" d="M540.8645 306.90268C540.8645 308.55954 539.52136 309.90268 537.8645 309.90268C536.20764 309.90268 534.8645 308.55954 534.8645 306.90268C534.8645 305.24585 536.20764 303.90268 537.8645 303.90268C539.52136 303.90268 540.8645 305.24585 540.8645 306.90268Z" fill-rule="nonzero"/><path fill="#000000" fill-opacity="0.0" clip-path="url(#id_0)" d="M553.19244 306.4906C553.19244 308.14746 551.8493 309.4906 550.19244 309.4906C548.53564 309.4906 547.19244 308.14746 547.19244 306.4906C547.19244 304.83377 548.53564 303.4906 550.19244 303.4906C551.8493 303.4906 553.19244 304.83377 553.19244 306.4906Z" fill-rule="nonzero"/><path fill="#000000" fill-opacity="0.0" clip-path="url(#id_0)" d="M565.93134 308.3744C565.93134 310.03125 564.5882 311.3744 562.93134 311.3744C561.27454 311.3744 559.93134 310.03125 559.93134 308.3744C559.93134 306.71756 561.27454 305.3744 562.93134 305.3744C564.5882 305.3744 565.93134 306.71756 565.93134 308.3744Z" fill-rule="nonzero"/><path fill="#000000" fill-opacity="0.0" clip-path="url(#id_0)" d="M578.6702 309.37518C578.6702 311.032 577.3271 312.37518 575.6702 312.37518C574.01337 312.37518 572.6702 311.032 572.6702 309.37518C572.6702 307.71832 574.01337 306.37518 575.6702 306.37518C577.3271 306.37518 578.6702 307.71832 578.6702 309.37518Z" fill-rule="nonzero"/><path fill="#000000" fill-opacity="0.0" clip-path="url(#id_0)" d="M590.17633 312.95352C590.17633 314.61038 588.8332 315.95352 587.17633 315.95352C585.5195 315.95352 584.17633 314.61038 584.17633 312.95352C584.17633 311.29666 585.5195 309.95352 587.17633 309.95352C588.8332 309.95352 590.17633 311.29666 590.17633 312.95352Z" fill-rule="nonzero"/><path fill="#000000" fill-opacity="0.0" clip-path="url(#id_0)" d="M602.9152 318.70856C602.9152 320.36542 601.5721 321.70856 599.9152 321.70856C598.25836 321.70856 596.9152 320.36542 596.9152 318.70856C596.9152 317.0517 598.25836 315.70856 599.9152 315.70856C601.5721 315.70856 602.9152 317.0517 602.9152 318.70856Z" fill-rule="nonzero"/><path fill="#000000" fill-opacity="0.0" clip-path="url(#id_0)" d="M615.24316 322.45868C615.24316 324.11554 613.9 325.45868 612.24316 325.45868C610.58636 325.45868 609.24316 324.11554 609.24316 322.45868C609.24316 320.80182 610.58636 319.45868 612.24316 319.45868C613.9 319.45868 615.24316 320.80182 615.24316 322.45868Z" fill-rule="nonzero"/><path fill="#000000" fill-opacity="0.0" clip-path="url(#id_0)" d="M627.98206 310.19934C627.98206 311.85617 626.6389 313.19934 624.98206 313.19934C623.3252 313.19934 621.98206 311.85617 621.98206 310.19934C621.98206 308.54248 623.3252 307.19934 624.98206 307.19934C626.6389 307.19934 627.98206 308.54248 627.98206 310.19934Z" fill-rule="nonzero"/><path fill="#000000" fill-opacity="0.0" clip-path="url(#id_0)" d="M640.31006 310.8721C640.31006 312.52896 638.9669 313.8721 637.31006 313.8721C635.6532 313.8721 634.31006 312.52896 634.31006 310.8721C634.31006 309.21524 635.6532 307.8721 637.31006 307.8721C638.9669 307.8721 640.31006 309.21524 640.31006 310.8721Z" fill-rule="nonzero"/><path fill="#000000" fill-opacity="0.0" clip-path="url(#id_0)" d="M653.04895 312.53723C653.04895 314.1941 651.70575 315.53723 650.04895 315.53723C648.3921 315.53723 647.04895 314.1941 647.04895 312.53723C647.04895 310.8804 648.3921 309.53723 650.04895 309.53723C651.70575 309.53723 653.04895 310.8804 653.04895 312.53723Z" fill-rule="nonzero"/><path fill="#000000" fill-opacity="0.0" clip-path="url(#id_0)" d="M665.78784 316.2838C665.78784 317.94064 664.44464 319.2838 662.78784 319.2838C661.131 319.2838 659.78784 317.94064 659.78784 316.2838C659.78784 314.62695 661.131 313.2838 662.78784 313.2838C664.44464 313.2838 665.78784 314.62695 665.78784 316.2838Z" fill-rule="nonzero"/><path fill="#000000" fill-opacity="0.0" clip-path="url(#id_0)" d="M678.1158 325.85834C678.1158 327.5152 676.77264 328.85834 675.1158 328.85834C673.4589 328.85834 672.1158 327.5152 672.1158 325.85834C672.1158 324.20148 673.4589 322.85834 675.1158 322.85834C676.77264 322.85834 678.1158 324.20148 678.1158 325.85834Z" fill-rule="nonzero"/><path fill="#000000" fill-opacity="0.0" clip-path="url(#id_0)" d="M690.8547 323.36063C690.8547 325.0175 689.51154 326.36063 687.8547 326.36063C686.1978 326.36063 684.8547 325.0175 684.8547 323.36063C684.8547 321.70377 686.1978 320.36063 687.8547 320.36063C689.51154 320.36063 690.8547 321.70377 690.8547 323.36063Z" fill-rule="nonzero"/><path fill="#000000" fill-opacity="0.0" clip-path="url(#id_0)" d="M703.1826 319.61407C703.1826 321.27094 701.8395 322.61407 700.1826 322.61407C698.52576 322.61407 697.1826 321.27094 697.1826 319.61407C697.1826 317.9572 698.52576 316.61407 700.1826 316.61407C701.8395 316.61407 703.1826 317.9572 703.1826 319.61407Z" fill-rule="nonzero"/><path fill="#000000" fill-opacity="0.0" clip-path="url(#id_0)" d="M715.9215 319.61407C715.9215 321.27094 714.57837 322.61407 712.9215 322.61407C711.26465 322.61407 709.9215 321.27094 709.9215 319.61407C709.9215 317.9572 711.26465 316.61407 712.9215 316.61407C714.57837 316.61407 715.9215 317.9572 715.9215 319.61407Z" fill-rule="nonzero"/><path fill="#000000" fill-opacity="0.0" clip-path="url(#id_0)" d="M728.6604 318.36523C728.6604 320.02206 727.31726 321.36523 725.6604 321.36523C724.00354 321.36523 722.6604 320.02206 722.6604 318.36523C722.6604 316.70837 724.00354 315.36523 725.6604 315.36523C727.31726 315.36523 728.6604 316.70837 728.6604 318.36523Z" fill-rule="nonzero"/><path fill="#000000" fill-opacity="0.0" clip-path="url(#id_0)" d="M740.5774 316.2838C740.5774 317.94064 739.23425 319.2838 737.5774 319.2838C735.9206 319.2838 734.5774 317.94064 734.5774 316.2838C734.5774 314.62695 735.9206 313.2838 737.5774 313.2838C739.23425 313.2838 740.5774 314.62695 740.5774 316.2838Z" fill-rule="nonzero"/><path fill="#000000" fill-opacity="0.0" clip-path="url(#id_0)" d="M753.3163 319.61407C753.3163 321.27094 751.97314 322.61407 750.3163 322.61407C748.6594 322.61407 747.3163 321.27094 747.3163 319.61407C747.3163 317.9572 748.6594 316.61407 750.3163 316.61407C751.97314 316.61407 753.3163 317.9572 753.3163 319.61407Z" fill-rule="nonzero"/><path fill="#000000" fill-opacity="0.0" clip-path="url(#id_0)" d="M765.6443 320.8629C765.6443 322.51978 764.30115 323.8629 762.6443 323.8629C760.9874 323.8629 759.6443 322.51978 759.6443 320.8629C759.6443 319.2061 760.9874 317.8629 762.6443 317.8629C764.30115 317.8629 765.6443 319.2061 765.6443 320.8629Z" fill-rule="nonzero"/><path fill="#000000" fill-opacity="0.0" clip-path="url(#id_0)" d="M778.3832 322.4937C778.3832 324.15057 777.04 325.4937 775.3832 325.4937C773.7263 325.4937 772.3832 324.15057 772.3832 322.4937C772.3832 320.83688 773.7263 319.4937 775.3832 319.4937C777.04 319.4937 778.3832 320.83688 778.3832 322.4937Z" fill-rule="nonzero"/><path fill="#000000" fill-opacity="0.0" clip-path="url(#id_0)" d="M790.7111 323.3086C790.7111 324.96545 789.368 326.3086 787.7111 326.3086C786.05426 326.3086 784.7111 324.96545 784.7111 323.3086C784.7111 321.65173 786.05426 320.3086 787.7111 320.3086C789.368 320.3086 790.7111 321.65173 790.7111 323.3086Z" fill-rule="nonzero"/><path fill="#000000" fill-opacity="0.0" clip-path="url(#id_0)" d="M803.45 322.52808C803.45 324.1849 802.1069 325.52808 800.45 325.52808C798.79315 325.52808 797.45 324.1849 797.45 322.52808C797.45 320.87122 798.79315 319.52808 800.45 319.52808C802.1069 319.52808 803.45 320.87122 803.45 322.52808Z" fill-rule="nonzero"/><path fill="#000000" d="M444.125 470.48126Q442.79688 472.79376 440.82812 474.34064L439.84375 473.075Q442.71875 470.96564 443.78125 466.96564L445.39062 467.3875Q445.67188 467.66876 445.1875 467.73126L444.625 469.1375L454.53125 469.1375L454.53125 470.48126L449.40625 470.48126L449.40625 472.8719L453.625 472.8719L453.625 474.2L449.40625 474.2L449.40625 477.3719L455.3125 477.3719L455.3125 478.7L449.40625 478.7L449.40625 482.9344L448.0 482.9344L448.0 478.7L439.90625 478.7L439.90625 477.3719L443.07812 477.3719L443.07812 472.8719L448.0 472.8719L448.0 470.48126L444.125 470.48126ZM444.48438 477.3719L448.0 477.3719L448.0 474.2L444.48438 474.2L444.48438 477.3719ZM469.23438 477.3719L462.54688 477.3719Q462.54688 480.3875 459.45312 483.075L458.26562 481.73126Q461.14062 479.90314 461.14062 476.2469L461.14062 467.66876L470.64062 467.66876L470.64062 481.52814Q470.64062 482.65314 469.4375 482.65314L467.75 482.65314L467.46875 481.09064L468.95312 481.09064Q469.23438 481.09064 469.23438 480.8094L469.23438 477.3719ZM462.54688 475.825L469.23438 475.825L469.23438 473.29376L462.54688 473.29376L462.54688 475.825ZM462.54688 471.7469L469.23438 471.7469L469.23438 469.21564L462.54688 469.21564L462.54688 471.7469Z" fill-rule="nonzero"/><path fill="#4285f4" d="M38.034386 260.93854L38.45626 259.2354Q40.565636 259.76666 41.67501 261.1573Q42.76876 262.5479 42.76876 264.56354Q42.76876 266.64166 41.92501 267.95416Q41.065636 269.25104 39.471886 269.93854Q37.86251 270.62604 36.003136 270.62604Q34.003136 270.62604 32.503136 269.8604Q31.003138 269.07916 30.221888 267.6573Q29.440638 266.2354 29.440638 264.5323Q29.440638 262.6104 30.425013 261.2979Q31.409388 259.9698 33.190636 259.45416L33.596886 261.12604Q32.190636 261.57916 31.550013 262.43854Q30.909388 263.2823 30.909388 264.57916Q30.909388 266.06354 31.628138 267.06354Q32.33126 268.0479 33.534386 268.45416Q34.721886 268.8604 36.003136 268.8604Q37.64376 268.8604 38.878136 268.39166Q40.096886 267.9073 40.70626 266.89166Q41.315636 265.87604 41.315636 264.70416Q41.315636 263.26666 40.48751 262.2823Q39.659386 261.2823 38.034386 260.93854ZM42.55001 257.20416L29.659388 257.20416L29.659388 255.48541L41.034386 255.48541L41.034386 249.14166L42.55001 249.14166L42.55001 257.20416ZM38.409386 247.70416L38.26876 246.09479Q39.23751 245.98541 39.86251 245.57916Q40.471886 245.15729 40.86251 244.28229Q41.23751 243.39166 41.23751 242.29791Q41.23751 241.31354 40.95626 240.57916Q40.659386 239.82916 40.159386 239.46979Q39.64376 239.09479 39.05001 239.09479Q38.440636 239.09479 37.98751 239.45416Q37.534386 239.79791 37.23751 240.61041Q37.034386 241.12604 36.61251 242.90729Q36.17501 244.67291 35.80001 245.39166Q35.315636 246.31354 34.596886 246.76666Q33.878136 247.21979 33.003136 247.21979Q32.01876 247.21979 31.175013 246.67291Q30.331263 246.11041 29.893763 245.04791Q29.440638 243.98541 29.440638 242.67291Q29.440638 241.25104 29.909388 240.15729Q30.362513 239.06354 31.268763 238.46979Q32.159386 237.87604 33.30001 237.84479L33.42501 239.46979Q32.190636 239.61041 31.565638 240.37604Q30.940638 241.12604 30.940638 242.61041Q30.940638 244.15729 31.518763 244.87604Q32.08126 245.57916 32.878136 245.57916Q33.58126 245.57916 34.01876 245.06354Q34.471886 244.57916 34.940636 242.50104Q35.409386 240.42291 35.76876 239.64166Q36.284386 238.51666 37.08126 237.98541Q37.878136 237.45416 38.909386 237.45416Q39.940636 237.45416 40.846886 238.04791Q41.753136 238.62604 42.26876 239.73541Q42.76876 240.82916 42.76876 242.21979Q42.76876 243.96979 42.26876 245.15729Q41.753136 246.32916 40.73751 247.00104Q39.70626 247.67291 38.409386 247.70416Z" fill-rule="nonzero"/><path fill="#4285f4" d="M79.3 407.59064Q79.3 405.3094 79.76875 403.91876Q80.2375 402.52814 81.15938 401.77814Q82.09688 401.0125 83.50313 401.0125Q84.53438 401.0125 85.31563 401.4344Q86.09688 401.84064 86.59688 402.6375Q87.1125 403.41876 87.40938 404.5594Q87.70625 405.6844 87.70625 407.59064Q87.70625 409.85626 87.2375 411.2625Q86.76875 412.65314 85.83125 413.41876Q84.90938 414.16876 83.50313 414.16876Q81.62813 414.16876 80.56563 412.84064Q79.3 411.23126 79.3 407.59064ZM80.925 407.59064Q80.925 410.7625 81.65938 411.825Q82.40938 412.8719 83.50313 412.8719Q84.58125 412.8719 85.33125 411.825Q86.08125 410.7625 86.08125 407.59064Q86.08125 404.41876 85.33125 403.3719Q84.58125 402.325 83.4875 402.325Q82.39375 402.325 81.7375 403.2469Q80.925 404.41876 80.925 407.59064ZM90.19063 413.95L90.19063 412.15314L91.9875 412.15314L91.9875 413.95L90.19063 413.95ZM94.3 407.59064Q94.3 405.3094 94.76875 403.91876Q95.2375 402.52814 96.15938 401.77814Q97.09688 401.0125 98.50313 401.0125Q99.53438 401.0125 100.31563 401.4344Q101.09688 401.84064 101.59688 402.6375Q102.1125 403.41876 102.40938 404.5594Q102.70625 405.6844 102.70625 407.59064Q102.70625 409.85626 102.2375 411.2625Q101.76875 412.65314 100.83125 413.41876Q99.90938 414.16876 98.50313 414.16876Q96.62813 414.16876 95.56563 412.84064Q94.3 411.23126 94.3 407.59064ZM95.925 407.59064Q95.925 410.7625 96.65938 411.825Q97.40938 412.8719 98.50313 412.8719Q99.58125 412.8719 100.33125 411.825Q101.08125 410.7625 101.08125 407.59064Q101.08125 404.41876 100.33125 403.3719Q99.58125 402.325 98.4875 402.325Q97.39375 402.325 96.7375 403.2469Q95.925 404.41876 95.925 407.59064Z" fill-rule="nonzero"/><path fill="#4285f4" d="M79.3 325.99896Q79.3 323.7177 79.76875 322.3271Q80.2375 320.93646 81.15938 320.18646Q82.09688 319.42084 83.50313 319.42084Q84.53438 319.42084 85.31563 319.8427Q86.09688 320.24896 86.59688 321.04584Q87.1125 321.8271 87.40938 322.9677Q87.70625 324.0927 87.70625 325.99896Q87.70625 328.2646 87.2375 329.67084Q86.76875 331.06146 85.83125 331.8271Q84.90938 332.5771 83.50313 332.5771Q81.62813 332.5771 80.56563 331.24896Q79.3 329.6396 79.3 325.99896ZM80.925 325.99896Q80.925 329.17084 81.65938 330.23334Q82.40938 331.2802 83.50313 331.2802Q84.58125 331.2802 85.33125 330.23334Q86.08125 329.17084 86.08125 325.99896Q86.08125 322.8271 85.33125 321.7802Q84.58125 320.73334 83.4875 320.73334Q82.39375 320.73334 81.7375 321.6552Q80.925 322.8271 80.925 325.99896ZM90.19063 332.35834L90.19063 330.56146L91.9875 330.56146L91.9875 332.35834L90.19063 332.35834ZM100.25313 332.35834L98.675 332.35834L98.675 322.2802Q98.09688 322.8271 97.175 323.37396Q96.25313 323.9052 95.50313 324.18646L95.50313 322.6552Q96.83125 322.0302 97.83125 321.1396Q98.83125 320.24896 99.2375 319.42084L100.25313 319.42084L100.25313 332.35834Z" fill-rule="nonzero"/><path fill="#4285f4" d="M79.3 244.40729Q79.3 242.12604 79.76875 240.73541Q80.2375 239.34479 81.15938 238.59479Q82.09688 237.82916 83.50313 237.82916Q84.53438 237.82916 85.31563 238.25104Q86.09688 238.65729 86.59688 239.45416Q87.1125 240.23541 87.40938 241.37604Q87.70625 242.50104 87.70625 244.40729Q87.70625 246.67291 87.2375 248.07916Q86.76875 249.46979 85.83125 250.23541Q84.90938 250.98541 83.50313 250.98541Q81.62813 250.98541 80.56563 249.65729Q79.3 248.04791 79.3 244.40729ZM80.925 244.40729Q80.925 247.57916 81.65938 248.64166Q82.40938 249.68854 83.50313 249.68854Q84.58125 249.68854 85.33125 248.64166Q86.08125 247.57916 86.08125 244.40729Q86.08125 241.23541 85.33125 240.18854Q84.58125 239.14166 83.4875 239.14166Q82.39375 239.14166 81.7375 240.06354Q80.925 241.23541 80.925 244.40729ZM90.19063 250.76666L90.19063 248.96979L91.9875 248.96979L91.9875 250.76666L90.19063 250.76666ZM102.6125 249.25104L102.6125 250.76666L94.09688 250.76666Q94.08125 250.18854 94.28438 249.67291Q94.6125 248.79791 95.31563 247.95416Q96.03438 247.11041 97.39375 246.00104Q99.4875 244.28229 100.22188 243.28229Q100.97188 242.26666 100.97188 241.37604Q100.97188 240.42291 100.3 239.78229Q99.62813 239.14166 98.55 239.14166Q97.39375 239.14166 96.70625 239.82916Q96.03438 240.51666 96.01875 241.71979L94.39375 241.54791Q94.56563 239.73541 95.64375 238.78229Q96.7375 237.82916 98.58125 237.82916Q100.425 237.82916 101.50313 238.86041Q102.59688 239.89166 102.59688 241.40729Q102.59688 242.17291 102.26875 242.92291Q101.95625 243.67291 101.22188 244.50104Q100.4875 245.32916 98.78438 246.76666Q97.3625 247.96979 96.95625 248.39166Q96.55 248.81354 96.3 249.25104L102.6125 249.25104Z" fill-rule="nonzero"/><path fill="#4285f4" d="M79.3 162.81563Q79.3 160.53438 79.76875 159.14375Q80.2375 157.75313 81.15938 157.00313Q82.09688 156.2375 83.50313 156.2375Q84.53438 156.2375 85.31563 156.65938Q86.09688 157.06563 86.59688 157.8625Q87.1125 158.64375 87.40938 159.78438Q87.70625 160.90938 87.70625 162.81563Q87.70625 165.08125 87.2375 166.4875Q86.76875 167.87813 85.83125 168.64375Q84.90938 169.39375 83.50313 169.39375Q81.62813 169.39375 80.56563 168.06563Q79.3 166.45625 79.3 162.81563ZM80.925 162.81563Q80.925 165.9875 81.65938 167.05Q82.40938 168.09688 83.50313 168.09688Q84.58125 168.09688 85.33125 167.05Q86.08125 165.9875 86.08125 162.81563Q86.08125 159.64375 85.33125 158.59688Q84.58125 157.55 83.4875 157.55Q82.39375 157.55 81.7375 158.47188Q80.925 159.64375 80.925 162.81563ZM90.19063 169.175L90.19063 167.37813L91.9875 167.37813L91.9875 169.175L90.19063 169.175ZM94.3 165.76875L95.89375 165.56563Q96.15938 166.90938 96.81563 167.50313Q97.47188 168.09688 98.40938 168.09688Q99.53438 168.09688 100.3 167.33125Q101.06563 166.55 101.06563 165.40938Q101.06563 164.31563 100.34688 163.6125Q99.64375 162.89375 98.55 162.89375Q98.09688 162.89375 97.425 163.08125L97.59688 161.69063Q97.75313 161.70625 97.8625 161.70625Q98.8625 161.70625 99.675 161.175Q100.4875 160.64375 100.4875 159.55Q100.4875 158.675 99.89375 158.1125Q99.3 157.53438 98.37813 157.53438Q97.45625 157.53438 96.83125 158.1125Q96.22188 158.69063 96.05 159.8625L94.47188 159.58125Q94.75313 157.9875 95.78438 157.1125Q96.81563 156.2375 98.34688 156.2375Q99.39375 156.2375 100.28438 156.69063Q101.175 157.14375 101.64375 157.925Q102.1125 158.70625 102.1125 159.58125Q102.1125 160.425 101.65938 161.1125Q101.22188 161.78438 100.33125 162.19063Q101.47188 162.45625 102.09688 163.3Q102.7375 164.12813 102.7375 165.3625Q102.7375 167.05 101.50313 168.2375Q100.28438 169.40938 98.40938 169.40938Q96.70625 169.40938 95.58125 168.39375Q94.47188 167.37813 94.3 165.76875Z" fill-rule="nonzero"/><path fill="#4285f4" d="M79.3 81.22396Q79.3 78.94271 79.76875 77.552086Q80.2375 76.16146 81.15938 75.41146Q82.09688 74.645836 83.50313 74.645836Q84.53438 74.645836 85.31563 75.06771Q86.09688 75.47396 86.59688 76.270836Q87.1125 77.052086 87.40938 78.19271Q87.70625 79.31771 87.70625 81.22396Q87.70625 83.489586 87.2375 84.895836Q86.76875 86.28646 85.83125 87.052086Q84.90938 87.802086 83.50313 87.802086Q81.62813 87.802086 80.56563 86.47396Q79.3 84.864586 79.3 81.22396ZM80.925 81.22396Q80.925 84.395836 81.65938 85.458336Q82.40938 86.50521 83.50313 86.50521Q84.58125 86.50521 85.33125 85.458336Q86.08125 84.395836 86.08125 81.22396Q86.08125 78.052086 85.33125 77.00521Q84.58125 75.958336 83.4875 75.958336Q82.39375 75.958336 81.7375 76.88021Q80.925 78.052086 80.925 81.22396ZM90.19063 87.583336L90.19063 85.78646L91.9875 85.78646L91.9875 87.583336L90.19063 87.583336ZM99.3625 87.583336L99.3625 84.50521L93.78438 84.50521L93.78438 83.052086L99.65938 74.69271L100.95625 74.69271L100.95625 83.052086L102.69063 83.052086L102.69063 84.50521L100.95625 84.50521L100.95625 87.583336L99.3625 87.583336ZM99.3625 83.052086L99.3625 77.239586L95.33125 83.052086L99.3625 83.052086Z" fill-rule="nonzero"/><path fill="#000000" d="M73.6125 431.9344L73.6125 433.45L65.09688 433.45Q65.08125 432.8719 65.28438 432.35626Q65.6125 431.48126 66.31563 430.6375Q67.03438 429.79376 68.39375 428.6844Q70.4875 426.96564 71.22188 425.96564Q71.97188 424.95 71.97188 424.0594Q71.97188 423.10626 71.3 422.46564Q70.62813 421.825 69.55 421.825Q68.39375 421.825 67.70625 422.5125Q67.03438 423.2 67.01875 424.40314L65.39375 424.23126Q65.56563 422.41876 66.64375 421.46564Q67.7375 420.5125 69.58125 420.5125Q71.425 420.5125 72.50313 421.54376Q73.59688 422.575 73.59688 424.09064Q73.59688 424.85626 73.26875 425.60626Q72.95625 426.35626 72.22188 427.1844Q71.4875 428.0125 69.78438 429.45Q68.3625 430.65314 67.95625 431.075Q67.55 431.4969 67.3 431.9344L73.6125 431.9344ZM75.3 427.09064Q75.3 424.8094 75.76875 423.41876Q76.2375 422.02814 77.15938 421.27814Q78.09688 420.5125 79.50313 420.5125Q80.53438 420.5125 81.31563 420.9344Q82.09688 421.34064 82.59688 422.1375Q83.1125 422.91876 83.40938 424.0594Q83.70625 425.1844 83.70625 427.09064Q83.70625 429.35626 83.2375 430.7625Q82.76875 432.15314 81.83125 432.91876Q80.90938 433.66876 79.50313 433.66876Q77.62813 433.66876 76.56563 432.34064Q75.3 430.73126 75.3 427.09064ZM76.925 427.09064Q76.925 430.2625 77.65938 431.325Q78.40938 432.3719 79.50313 432.3719Q80.58125 432.3719 81.33125 431.325Q82.08125 430.2625 82.08125 427.09064Q82.08125 423.91876 81.33125 422.8719Q80.58125 421.825 79.4875 421.825Q78.39375 421.825 77.7375 422.7469Q76.925 423.91876 76.925 427.09064ZM93.6125 431.9344L93.6125 433.45L85.09688 433.45Q85.08125 432.8719 85.28438 432.35626Q85.6125 431.48126 86.31563 430.6375Q87.03438 429.79376 88.39375 428.6844Q90.4875 426.96564 91.22188 425.96564Q91.97188 424.95 91.97188 424.0594Q91.97188 423.10626 91.3 422.46564Q90.62813 421.825 89.55 421.825Q88.39375 421.825 87.70625 422.5125Q87.03438 423.2 87.01875 424.40314L85.39375 424.23126Q85.56563 422.41876 86.64375 421.46564Q87.7375 420.5125 89.58125 420.5125Q91.425 420.5125 92.50313 421.54376Q93.59688 422.575 93.59688 424.09064Q93.59688 424.85626 93.26875 425.60626Q92.95625 426.35626 92.22188 427.1844Q91.4875 428.0125 89.78438 429.45Q88.3625 430.65314 87.95625 431.075Q87.55 431.4969 87.3 431.9344L93.6125 431.9344ZM95.3 427.09064Q95.3 424.8094 95.76875 423.41876Q96.2375 422.02814 97.15938 421.27814Q98.09688 420.5125 99.50313 420.5125Q100.53438 420.5125 101.31563 420.9344Q102.09688 421.34064 102.59688 422.1375Q103.1125 422.91876 103.40938 424.0594Q103.70625 425.1844 103.70625 427.09064Q103.70625 429.35626 103.2375 430.7625Q102.76875 432.15314 101.83125 432.91876Q100.90938 433.66876 99.50313 433.66876Q97.62813 433.66876 96.56563 432.34064Q95.3 430.73126 95.3 427.09064ZM96.925 427.09064Q96.925 430.2625 97.65938 431.325Q98.40938 432.3719 99.50313 432.3719Q100.58125 432.3719 101.33125 431.325Q102.08125 430.2625 102.08125 427.09064Q102.08125 423.91876 101.33125 422.8719Q100.58125 421.825 99.4875 421.825Q98.39375 421.825 97.7375 422.7469Q96.925 423.91876 96.925 427.09064Z" fill-rule="nonzero"/><path fill="#000000" d="M110.175 422.48126Q108.84688 424.79376 106.87813 426.34064L105.89375 425.075Q108.76875 422.96564 109.83125 418.96564L111.44063 419.3875Q111.72188 419.66876 111.2375 419.73126L110.675 421.1375L120.58125 421.1375L120.58125 422.48126L115.45625 422.48126L115.45625 424.8719L119.675 424.8719L119.675 426.2L115.45625 426.2L115.45625 429.3719L121.3625 429.3719L121.3625 430.7L115.45625 430.7L115.45625 434.9344L114.05 434.9344L114.05 430.7L105.95625 430.7L105.95625 429.3719L109.12813 429.3719L109.12813 424.8719L114.05 424.8719L114.05 422.48126L110.175 422.48126ZM110.53438 429.3719L114.05 429.3719L114.05 426.2L110.53438 426.2L110.53438 429.3719Z" fill-rule="nonzero"/><path fill="#000000" d="M123.3 427.09064Q123.3 424.8094 123.76875 423.41876Q124.2375 422.02814 125.15938 421.27814Q126.09688 420.5125 127.50313 420.5125Q128.53438 420.5125 129.31563 420.9344Q130.09688 421.34064 130.59688 422.1375Q131.1125 422.91876 131.40938 424.0594Q131.70625 425.1844 131.70625 427.09064Q131.70625 429.35626 131.2375 430.7625Q130.76875 432.15314 129.83125 432.91876Q128.90938 433.66876 127.50313 433.66876Q125.62813 433.66876 124.56563 432.34064Q123.3 430.73126 123.3 427.09064ZM124.925 427.09064Q124.925 430.2625 125.65938 431.325Q126.40938 432.3719 127.50313 432.3719Q128.58125 432.3719 129.33125 431.325Q130.08125 430.2625 130.08125 427.09064Q130.08125 423.91876 129.33125 422.8719Q128.58125 421.825 127.4875 421.825Q126.39375 421.825 125.7375 422.7469Q124.925 423.91876 124.925 427.09064ZM139.25313 433.45L137.675 433.45L137.675 423.3719Q137.09688 423.91876 136.175 424.46564Q135.25313 424.9969 134.50313 425.27814L134.50313 423.7469Q135.83125 423.1219 136.83125 422.23126Q137.83125 421.34064 138.2375 420.5125L139.25313 420.5125L139.25313 433.45Z" fill-rule="nonzero"/><path fill="#000000" d="M155.28438 429.3719L148.59688 429.3719Q148.59688 432.3875 145.50313 435.075L144.31563 433.73126Q147.19063 431.90314 147.19063 428.2469L147.19063 419.66876L156.69063 419.66876L156.69063 433.52814Q156.69063 434.65314 155.4875 434.65314L153.8 434.65314L153.51875 433.09064L155.00313 433.09064Q155.28438 433.09064 155.28438 432.8094L155.28438 429.3719ZM148.59688 427.825L155.28438 427.825L155.28438 425.29376L148.59688 425.29376L148.59688 427.825ZM148.59688 423.7469L155.28438 423.7469L155.28438 421.21564L148.59688 421.21564L148.59688 423.7469Z" fill-rule="nonzero"/><path fill="#000000" d="M224.01358 431.9344L224.01358 433.45L215.49796 433.45Q215.48233 432.8719 215.68546 432.35626Q216.01358 431.48126 216.7167 430.6375Q217.43546 429.79376 218.79483 428.6844Q220.88858 426.96564 221.62296 425.96564Q222.37296 424.95 222.37296 424.0594Q222.37296 423.10626 221.70108 422.46564Q221.0292 421.825 219.95108 421.825Q218.79483 421.825 218.10733 422.5125Q217.43546 423.2 217.41983 424.40314L215.79483 424.23126Q215.9667 422.41876 217.04483 421.46564Q218.13858 420.5125 219.98233 420.5125Q221.82608 420.5125 222.9042 421.54376Q223.99796 422.575 223.99796 424.09064Q223.99796 424.85626 223.66983 425.60626Q223.35733 426.35626 222.62296 427.1844Q221.88858 428.0125 220.18546 429.45Q218.76358 430.65314 218.35733 431.075Q217.95108 431.4969 217.70108 431.9344L224.01358 431.9344ZM225.70108 427.09064Q225.70108 424.8094 226.16983 423.41876Q226.63858 422.02814 227.56046 421.27814Q228.49796 420.5125 229.9042 420.5125Q230.93546 420.5125 231.7167 420.9344Q232.49796 421.34064 232.99796 422.1375Q233.51358 422.91876 233.81046 424.0594Q234.10733 425.1844 234.10733 427.09064Q234.10733 429.35626 233.63858 430.7625Q233.16983 432.15314 232.23233 432.91876Q231.31046 433.66876 229.9042 433.66876Q228.0292 433.66876 226.9667 432.34064Q225.70108 430.73126 225.70108 427.09064ZM227.32608 427.09064Q227.32608 430.2625 228.06046 431.325Q228.81046 432.3719 229.9042 432.3719Q230.98233 432.3719 231.73233 431.325Q232.48233 430.2625 232.48233 427.09064Q232.48233 423.91876 231.73233 422.8719Q230.98233 421.825 229.88858 421.825Q228.79483 421.825 228.13858 422.7469Q227.32608 423.91876 227.32608 427.09064ZM244.01358 431.9344L244.01358 433.45L235.49796 433.45Q235.48233 432.8719 235.68546 432.35626Q236.01358 431.48126 236.7167 430.6375Q237.43546 429.79376 238.79483 428.6844Q240.88858 426.96564 241.62296 425.96564Q242.37296 424.95 242.37296 424.0594Q242.37296 423.10626 241.70108 422.46564Q241.0292 421.825 239.95108 421.825Q238.79483 421.825 238.10733 422.5125Q237.43546 423.2 237.41983 424.40314L235.79483 424.23126Q235.9667 422.41876 237.04483 421.46564Q238.13858 420.5125 239.98233 420.5125Q241.82608 420.5125 242.9042 421.54376Q243.99796 422.575 243.99796 424.09064Q243.99796 424.85626 243.66983 425.60626Q243.35733 426.35626 242.62296 427.1844Q241.88858 428.0125 240.18546 429.45Q238.76358 430.65314 238.35733 431.075Q237.95108 431.4969 237.70108 431.9344L244.01358 431.9344ZM251.6542 433.45L250.07608 433.45L250.07608 423.3719Q249.49796 423.91876 248.57608 424.46564Q247.6542 424.9969 246.9042 425.27814L246.9042 423.7469Q248.23233 423.1219 249.23233 422.23126Q250.23233 421.34064 250.63858 420.5125L251.6542 420.5125L251.6542 433.45Z" fill-rule="nonzero"/><path fill="#000000" d="M260.57608 422.48126Q259.24796 424.79376 257.2792 426.34064L256.29483 425.075Q259.16983 422.96564 260.23233 418.96564L261.8417 419.3875Q262.12296 419.66876 261.63858 419.73126L261.07608 421.1375L270.98233 421.1375L270.98233 422.48126L265.85733 422.48126L265.85733 424.8719L270.07608 424.8719L270.07608 426.2L265.85733 426.2L265.85733 429.3719L271.76358 429.3719L271.76358 430.7L265.85733 430.7L265.85733 434.9344L264.45108 434.9344L264.45108 430.7L256.35733 430.7L256.35733 429.3719L259.5292 429.3719L259.5292 424.8719L264.45108 424.8719L264.45108 422.48126L260.57608 422.48126ZM260.93546 429.3719L264.45108 429.3719L264.45108 426.2L260.93546 426.2L260.93546 429.3719Z" fill-rule="nonzero"/><path fill="#000000" d="M273.70108 427.09064Q273.70108 424.8094 274.16983 423.41876Q274.63858 422.02814 275.56046 421.27814Q276.49796 420.5125 277.9042 420.5125Q278.93546 420.5125 279.7167 420.9344Q280.49796 421.34064 280.99796 422.1375Q281.51358 422.91876 281.81046 424.0594Q282.10733 425.1844 282.10733 427.09064Q282.10733 429.35626 281.63858 430.7625Q281.16983 432.15314 280.23233 432.91876Q279.31046 433.66876 277.9042 433.66876Q276.0292 433.66876 274.9667 432.34064Q273.70108 430.73126 273.70108 427.09064ZM275.32608 427.09064Q275.32608 430.2625 276.06046 431.325Q276.81046 432.3719 277.9042 432.3719Q278.98233 432.3719 279.73233 431.325Q280.48233 430.2625 280.48233 427.09064Q280.48233 423.91876 279.73233 422.8719Q278.98233 421.825 277.88858 421.825Q276.79483 421.825 276.13858 422.7469Q275.32608 423.91876 275.32608 427.09064ZM289.6542 433.45L288.07608 433.45L288.07608 423.3719Q287.49796 423.91876 286.57608 424.46564Q285.6542 424.9969 284.9042 425.27814L284.9042 423.7469Q286.23233 423.1219 287.23233 422.23126Q288.23233 421.34064 288.63858 420.5125L289.6542 420.5125L289.6542 433.45Z" fill-rule="nonzero"/><path fill="#000000" d="M305.68546 429.3719L298.99796 429.3719Q298.99796 432.3875 295.9042 435.075L294.7167 433.73126Q297.5917 431.90314 297.5917 428.2469L297.5917 419.66876L307.0917 419.66876L307.0917 433.52814Q307.0917 434.65314 305.88858 434.65314L304.20108 434.65314L303.91983 433.09064L305.4042 433.09064Q305.68546 433.09064 305.68546 432.8094L305.68546 429.3719ZM298.99796 427.825L305.68546 427.825L305.68546 425.29376L298.99796 425.29376L298.99796 427.825ZM298.99796 423.7469L305.68546 423.7469L305.68546 421.21564L298.99796 421.21564L298.99796 423.7469Z" fill-rule="nonzero"/><path fill="#000000" d="M374.00372 431.9344L374.00372 433.45L365.4881 433.45Q365.47247 432.8719 365.6756 432.35626Q366.00372 431.48126 366.70685 430.6375Q367.4256 429.79376 368.78497 428.6844Q370.87872 426.96564 371.6131 425.96564Q372.3631 424.95 372.3631 424.0594Q372.3631 423.10626 371.69122 422.46564Q371.01935 421.825 369.94122 421.825Q368.78497 421.825 368.09747 422.5125Q367.4256 423.2 367.40997 424.40314L365.78497 424.23126Q365.95685 422.41876 367.03497 421.46564Q368.12872 420.5125 369.97247 420.5125Q371.81622 420.5125 372.89435 421.54376Q373.9881 422.575 373.9881 424.09064Q373.9881 424.85626 373.65997 425.60626Q373.34747 426.35626 372.6131 427.1844Q371.87872 428.0125 370.1756 429.45Q368.75372 430.65314 368.34747 431.075Q367.94122 431.4969 367.69122 431.9344L374.00372 431.9344ZM375.69122 427.09064Q375.69122 424.8094 376.15997 423.41876Q376.62872 422.02814 377.5506 421.27814Q378.4881 420.5125 379.89435 420.5125Q380.9256 420.5125 381.70685 420.9344Q382.4881 421.34064 382.9881 422.1375Q383.50372 422.91876 383.8006 424.0594Q384.09747 425.1844 384.09747 427.09064Q384.09747 429.35626 383.62872 430.7625Q383.15997 432.15314 382.22247 432.91876Q381.3006 433.66876 379.89435 433.66876Q378.01935 433.66876 376.95685 432.34064Q375.69122 430.73126 375.69122 427.09064ZM377.31622 427.09064Q377.31622 430.2625 378.0506 431.325Q378.8006 432.3719 379.89435 432.3719Q380.97247 432.3719 381.72247 431.325Q382.47247 430.2625 382.47247 427.09064Q382.47247 423.91876 381.72247 422.8719Q380.97247 421.825 379.87872 421.825Q378.78497 421.825 378.12872 422.7469Q377.31622 423.91876 377.31622 427.09064ZM394.00372 431.9344L394.00372 433.45L385.4881 433.45Q385.47247 432.8719 385.6756 432.35626Q386.00372 431.48126 386.70685 430.6375Q387.4256 429.79376 388.78497 428.6844Q390.87872 426.96564 391.6131 425.96564Q392.3631 424.95 392.3631 424.0594Q392.3631 423.10626 391.69122 422.46564Q391.01935 421.825 389.94122 421.825Q388.78497 421.825 388.09747 422.5125Q387.4256 423.2 387.40997 424.40314L385.78497 424.23126Q385.95685 422.41876 387.03497 421.46564Q388.12872 420.5125 389.97247 420.5125Q391.81622 420.5125 392.89435 421.54376Q393.9881 422.575 393.9881 424.09064Q393.9881 424.85626 393.65997 425.60626Q393.34747 426.35626 392.6131 427.1844Q391.87872 428.0125 390.1756 429.45Q388.75372 430.65314 388.34747 431.075Q387.94122 431.4969 387.69122 431.9344L394.00372 431.9344ZM404.00372 431.9344L404.00372 433.45L395.4881 433.45Q395.47247 432.8719 395.6756 432.35626Q396.00372 431.48126 396.70685 430.6375Q397.4256 429.79376 398.78497 428.6844Q400.87872 426.96564 401.6131 425.96564Q402.3631 424.95 402.3631 424.0594Q402.3631 423.10626 401.69122 422.46564Q401.01935 421.825 399.94122 421.825Q398.78497 421.825 398.09747 422.5125Q397.4256 423.2 397.40997 424.40314L395.78497 424.23126Q395.95685 422.41876 397.03497 421.46564Q398.12872 420.5125 399.97247 420.5125Q401.81622 420.5125 402.89435 421.54376Q403.9881 422.575 403.9881 424.09064Q403.9881 424.85626 403.65997 425.60626Q403.34747 426.35626 402.6131 427.1844Q401.87872 428.0125 400.1756 429.45Q398.75372 430.65314 398.34747 431.075Q397.94122 431.4969 397.69122 431.9344L404.00372 431.9344Z" fill-rule="nonzero"/><path fill="#000000" d="M410.56622 422.48126Q409.2381 424.79376 407.26935 426.34064L406.28497 425.075Q409.15997 422.96564 410.22247 418.96564L411.83185 419.3875Q412.1131 419.66876 411.62872 419.73126L411.06622 421.1375L420.97247 421.1375L420.97247 422.48126L415.84747 422.48126L415.84747 424.8719L420.06622 424.8719L420.06622 426.2L415.84747 426.2L415.84747 429.3719L421.75372 429.3719L421.75372 430.7L415.84747 430.7L415.84747 434.9344L414.44122 434.9344L414.44122 430.7L406.34747 430.7L406.34747 429.3719L409.51935 429.3719L409.51935 424.8719L414.44122 424.8719L414.44122 422.48126L410.56622 422.48126ZM410.9256 429.3719L414.44122 429.3719L414.44122 426.2L410.9256 426.2L410.9256 429.3719Z" fill-rule="nonzero"/><path fill="#000000" d="M423.69122 427.09064Q423.69122 424.8094 424.15997 423.41876Q424.62872 422.02814 425.5506 421.27814Q426.4881 420.5125 427.89435 420.5125Q428.9256 420.5125 429.70685 420.9344Q430.4881 421.34064 430.9881 422.1375Q431.50372 422.91876 431.8006 424.0594Q432.09747 425.1844 432.09747 427.09064Q432.09747 429.35626 431.62872 430.7625Q431.15997 432.15314 430.22247 432.91876Q429.3006 433.66876 427.89435 433.66876Q426.01935 433.66876 424.95685 432.34064Q423.69122 430.73126 423.69122 427.09064ZM425.31622 427.09064Q425.31622 430.2625 426.0506 431.325Q426.8006 432.3719 427.89435 432.3719Q428.97247 432.3719 429.72247 431.325Q430.47247 430.2625 430.47247 427.09064Q430.47247 423.91876 429.72247 422.8719Q428.97247 421.825 427.87872 421.825Q426.78497 421.825 426.12872 422.7469Q425.31622 423.91876 425.31622 427.09064ZM439.64435 433.45L438.06622 433.45L438.06622 423.3719Q437.4881 423.91876 436.56622 424.46564Q435.64435 424.9969 434.89435 425.27814L434.89435 423.7469Q436.22247 423.1219 437.22247 422.23126Q438.22247 421.34064 438.62872 420.5125L439.64435 420.5125L439.64435 433.45Z" fill-rule="nonzero"/><path fill="#000000" d="M455.6756 429.3719L448.9881 429.3719Q448.9881 432.3875 445.89435 435.075L444.70685 433.73126Q447.58185 431.90314 447.58185 428.2469L447.58185 419.66876L457.08185 419.66876L457.08185 433.52814Q457.08185 434.65314 455.87872 434.65314L454.19122 434.65314L453.90997 433.09064L455.39435 433.09064Q455.6756 433.09064 455.6756 432.8094L455.6756 429.3719ZM448.9881 427.825L455.6756 427.825L455.6756 425.29376L448.9881 425.29376L448.9881 427.825ZM448.9881 423.7469L455.6756 423.7469L455.6756 421.21564L448.9881 421.21564L448.9881 423.7469Z" fill-rule="nonzero"/><path fill="#000000" d="M523.99384 431.9344L523.99384 433.45L515.4782 433.45Q515.4626 432.8719 515.6657 432.35626Q515.99384 431.48126 516.69696 430.6375Q517.4157 429.79376 518.7751 428.6844Q520.86884 426.96564 521.6032 425.96564Q522.3532 424.95 522.3532 424.0594Q522.3532 423.10626 521.68134 422.46564Q521.00946 421.825 519.93134 421.825Q518.7751 421.825 518.0876 422.5125Q517.4157 423.2 517.4001 424.40314L515.7751 424.23126Q515.94696 422.41876 517.0251 421.46564Q518.11884 420.5125 519.9626 420.5125Q521.80634 420.5125 522.88446 421.54376Q523.9782 422.575 523.9782 424.09064Q523.9782 424.85626 523.6501 425.60626Q523.3376 426.35626 522.6032 427.1844Q521.86884 428.0125 520.1657 429.45Q518.74384 430.65314 518.3376 431.075Q517.93134 431.4969 517.68134 431.9344L523.99384 431.9344ZM525.68134 427.09064Q525.68134 424.8094 526.1501 423.41876Q526.61884 422.02814 527.5407 421.27814Q528.4782 420.5125 529.88446 420.5125Q530.9157 420.5125 531.69696 420.9344Q532.4782 421.34064 532.9782 422.1375Q533.49384 422.91876 533.7907 424.0594Q534.0876 425.1844 534.0876 427.09064Q534.0876 429.35626 533.61884 430.7625Q533.1501 432.15314 532.2126 432.91876Q531.2907 433.66876 529.88446 433.66876Q528.00946 433.66876 526.94696 432.34064Q525.68134 430.73126 525.68134 427.09064ZM527.30634 427.09064Q527.30634 430.2625 528.0407 431.325Q528.7907 432.3719 529.88446 432.3719Q530.9626 432.3719 531.7126 431.325Q532.4626 430.2625 532.4626 427.09064Q532.4626 423.91876 531.7126 422.8719Q530.9626 421.825 529.86884 421.825Q528.7751 421.825 528.11884 422.7469Q527.30634 423.91876 527.30634 427.09064ZM543.99384 431.9344L543.99384 433.45L535.4782 433.45Q535.4626 432.8719 535.6657 432.35626Q535.99384 431.48126 536.69696 430.6375Q537.4157 429.79376 538.7751 428.6844Q540.86884 426.96564 541.6032 425.96564Q542.3532 424.95 542.3532 424.0594Q542.3532 423.10626 541.68134 422.46564Q541.00946 421.825 539.93134 421.825Q538.7751 421.825 538.0876 422.5125Q537.4157 423.2 537.4001 424.40314L535.7751 424.23126Q535.94696 422.41876 537.0251 421.46564Q538.11884 420.5125 539.9626 420.5125Q541.80634 420.5125 542.88446 421.54376Q543.9782 422.575 543.9782 424.09064Q543.9782 424.85626 543.6501 425.60626Q543.3376 426.35626 542.6032 427.1844Q541.86884 428.0125 540.1657 429.45Q538.74384 430.65314 538.3376 431.075Q537.93134 431.4969 537.68134 431.9344L543.99384 431.9344ZM545.68134 430.04376L547.2751 429.84064Q547.5407 431.1844 548.19696 431.77814Q548.8532 432.3719 549.7907 432.3719Q550.9157 432.3719 551.68134 431.60626Q552.44696 430.825 552.44696 429.6844Q552.44696 428.59064 551.7282 427.8875Q551.0251 427.16876 549.93134 427.16876Q549.4782 427.16876 548.80634 427.35626L548.9782 425.96564Q549.13446 425.98126 549.24384 425.98126Q550.24384 425.98126 551.05634 425.45Q551.86884 424.91876 551.86884 423.825Q551.86884 422.95 551.2751 422.3875Q550.68134 421.8094 549.75946 421.8094Q548.8376 421.8094 548.2126 422.3875Q547.6032 422.96564 547.43134 424.1375L545.8532 423.85626Q546.13446 422.2625 547.1657 421.3875Q548.19696 420.5125 549.7282 420.5125Q550.7751 420.5125 551.6657 420.96564Q552.55634 421.41876 553.0251 422.2Q553.49384 422.98126 553.49384 423.85626Q553.49384 424.7 553.0407 425.3875Q552.6032 426.0594 551.7126 426.46564Q552.8532 426.73126 553.4782 427.575Q554.11884 428.40314 554.11884 429.6375Q554.11884 431.325 552.88446 432.5125Q551.6657 433.6844 549.7907 433.6844Q548.0876 433.6844 546.9626 432.66876Q545.8532 431.65314 545.68134 430.04376Z" fill-rule="nonzero"/><path fill="#000000" d="M560.55634 422.48126Q559.2282 424.79376 557.25946 426.34064L556.2751 425.075Q559.1501 422.96564 560.2126 418.96564L561.82196 419.3875Q562.1032 419.66876 561.61884 419.73126L561.05634 421.1375L570.9626 421.1375L570.9626 422.48126L565.8376 422.48126L565.8376 424.8719L570.05634 424.8719L570.05634 426.2L565.8376 426.2L565.8376 429.3719L571.74384 429.3719L571.74384 430.7L565.8376 430.7L565.8376 434.9344L564.43134 434.9344L564.43134 430.7L556.3376 430.7L556.3376 429.3719L559.50946 429.3719L559.50946 424.8719L564.43134 424.8719L564.43134 422.48126L560.55634 422.48126ZM560.9157 429.3719L564.43134 429.3719L564.43134 426.2L560.9157 426.2L560.9157 429.3719Z" fill-rule="nonzero"/><path fill="#000000" d="M573.68134 427.09064Q573.68134 424.8094 574.1501 423.41876Q574.61884 422.02814 575.5407 421.27814Q576.4782 420.5125 577.88446 420.5125Q578.9157 420.5125 579.69696 420.9344Q580.4782 421.34064 580.9782 422.1375Q581.49384 422.91876 581.7907 424.0594Q582.0876 425.1844 582.0876 427.09064Q582.0876 429.35626 581.61884 430.7625Q581.1501 432.15314 580.2126 432.91876Q579.2907 433.66876 577.88446 433.66876Q576.00946 433.66876 574.94696 432.34064Q573.68134 430.73126 573.68134 427.09064ZM575.30634 427.09064Q575.30634 430.2625 576.0407 431.325Q576.7907 432.3719 577.88446 432.3719Q578.9626 432.3719 579.7126 431.325Q580.4626 430.2625 580.4626 427.09064Q580.4626 423.91876 579.7126 422.8719Q578.9626 421.825 577.86884 421.825Q576.7751 421.825 576.11884 422.7469Q575.30634 423.91876 575.30634 427.09064ZM589.63446 433.45L588.05634 433.45L588.05634 423.3719Q587.4782 423.91876 586.55634 424.46564Q585.63446 424.9969 584.88446 425.27814L584.88446 423.7469Q586.2126 423.1219 587.2126 422.23126Q588.2126 421.34064 588.61884 420.5125L589.63446 420.5125L589.63446 433.45Z" fill-rule="nonzero"/><path fill="#000000" d="M605.6657 429.3719L598.9782 429.3719Q598.9782 432.3875 595.88446 435.075L594.69696 433.73126Q597.57196 431.90314 597.57196 428.2469L597.57196 419.66876L607.07196 419.66876L607.07196 433.52814Q607.07196 434.65314 605.86884 434.65314L604.18134 434.65314L603.9001 433.09064L605.38446 433.09064Q605.6657 433.09064 605.6657 432.8094L605.6657 429.3719ZM598.9782 427.825L605.6657 427.825L605.6657 425.29376L598.9782 425.29376L598.9782 427.825ZM598.9782 423.7469L605.6657 423.7469L605.6657 421.21564L598.9782 421.21564L598.9782 423.7469Z" fill-rule="nonzero"/><path fill="#000000" d="M673.984 431.9344L673.984 433.45L665.4684 433.45Q665.45276 432.8719 665.6559 432.35626Q665.984 431.48126 666.68713 430.6375Q667.4059 429.79376 668.76526 428.6844Q670.859 426.96564 671.5934 425.96564Q672.3434 424.95 672.3434 424.0594Q672.3434 423.10626 671.6715 422.46564Q670.99963 421.825 669.9215 421.825Q668.76526 421.825 668.07776 422.5125Q667.4059 423.2 667.39026 424.40314L665.76526 424.23126Q665.93713 422.41876 667.01526 421.46564Q668.109 420.5125 669.95276 420.5125Q671.7965 420.5125 672.87463 421.54376Q673.9684 422.575 673.9684 424.09064Q673.9684 424.85626 673.64026 425.60626Q673.32776 426.35626 672.5934 427.1844Q671.859 428.0125 670.1559 429.45Q668.734 430.65314 668.32776 431.075Q667.9215 431.4969 667.6715 431.9344L673.984 431.9344ZM675.6715 427.09064Q675.6715 424.8094 676.14026 423.41876Q676.609 422.02814 677.5309 421.27814Q678.4684 420.5125 679.87463 420.5125Q680.9059 420.5125 681.68713 420.9344Q682.4684 421.34064 682.9684 422.1375Q683.484 422.91876 683.7809 424.0594Q684.07776 425.1844 684.07776 427.09064Q684.07776 429.35626 683.609 430.7625Q683.14026 432.15314 682.20276 432.91876Q681.2809 433.66876 679.87463 433.66876Q677.99963 433.66876 676.93713 432.34064Q675.6715 430.73126 675.6715 427.09064ZM677.2965 427.09064Q677.2965 430.2625 678.0309 431.325Q678.7809 432.3719 679.87463 432.3719Q680.95276 432.3719 681.70276 431.325Q682.45276 430.2625 682.45276 427.09064Q682.45276 423.91876 681.70276 422.8719Q680.95276 421.825 679.859 421.825Q678.76526 421.825 678.109 422.7469Q677.2965 423.91876 677.2965 427.09064ZM693.984 431.9344L693.984 433.45L685.4684 433.45Q685.45276 432.8719 685.6559 432.35626Q685.984 431.48126 686.68713 430.6375Q687.4059 429.79376 688.76526 428.6844Q690.859 426.96564 691.5934 425.96564Q692.3434 424.95 692.3434 424.0594Q692.3434 423.10626 691.6715 422.46564Q690.99963 421.825 689.9215 421.825Q688.76526 421.825 688.07776 422.5125Q687.4059 423.2 687.39026 424.40314L685.76526 424.23126Q685.93713 422.41876 687.01526 421.46564Q688.109 420.5125 689.95276 420.5125Q691.7965 420.5125 692.87463 421.54376Q693.9684 422.575 693.9684 424.09064Q693.9684 424.85626 693.64026 425.60626Q693.32776 426.35626 692.5934 427.1844Q691.859 428.0125 690.1559 429.45Q688.734 430.65314 688.32776 431.075Q687.9215 431.4969 687.6715 431.9344L693.984 431.9344ZM700.734 433.45L700.734 430.3719L695.1559 430.3719L695.1559 428.91876L701.0309 420.5594L702.32776 420.5594L702.32776 428.91876L704.06213 428.91876L704.06213 430.3719L702.32776 430.3719L702.32776 433.45L700.734 433.45ZM700.734 428.91876L700.734 423.10626L696.70276 428.91876L700.734 428.91876Z" fill-rule="nonzero"/><path fill="#000000" d="M710.5465 422.48126Q709.2184 424.79376 707.24963 426.34064L706.26526 425.075Q709.14026 422.96564 710.20276 418.96564L711.81213 419.3875Q712.0934 419.66876 711.609 419.73126L711.0465 421.1375L720.95276 421.1375L720.95276 422.48126L715.82776 422.48126L715.82776 424.8719L720.0465 424.8719L720.0465 426.2L715.82776 426.2L715.82776 429.3719L721.734 429.3719L721.734 430.7L715.82776 430.7L715.82776 434.9344L714.4215 434.9344L714.4215 430.7L706.32776 430.7L706.32776 429.3719L709.49963 429.3719L709.49963 424.8719L714.4215 424.8719L714.4215 422.48126L710.5465 422.48126ZM710.9059 429.3719L714.4215 429.3719L714.4215 426.2L710.9059 426.2L710.9059 429.3719Z" fill-rule="nonzero"/><path fill="#000000" d="M723.6715 427.09064Q723.6715 424.8094 724.14026 423.41876Q724.609 422.02814 725.5309 421.27814Q726.4684 420.5125 727.87463 420.5125Q728.9059 420.5125 729.68713 420.9344Q730.4684 421.34064 730.9684 422.1375Q731.484 422.91876 731.7809 424.0594Q732.07776 425.1844 732.07776 427.09064Q732.07776 429.35626 731.609 430.7625Q731.14026 432.15314 730.20276 432.91876Q729.2809 433.66876 727.87463 433.66876Q725.99963 433.66876 724.93713 432.34064Q723.6715 430.73126 723.6715 427.09064ZM725.2965 427.09064Q725.2965 430.2625 726.0309 431.325Q726.7809 432.3719 727.87463 432.3719Q728.95276 432.3719 729.70276 431.325Q730.45276 430.2625 730.45276 427.09064Q730.45276 423.91876 729.70276 422.8719Q728.95276 421.825 727.859 421.825Q726.76526 421.825 726.109 422.7469Q725.2965 423.91876 725.2965 427.09064ZM739.62463 433.45L738.0465 433.45L738.0465 423.3719Q737.4684 423.91876 736.5465 424.46564Q735.62463 424.9969 734.87463 425.27814L734.87463 423.7469Q736.20276 423.1219 737.20276 422.23126Q738.20276 421.34064 738.609 420.5125L739.62463 420.5125L739.62463 433.45Z" fill-rule="nonzero"/><path fill="#000000" d="M755.6559 429.3719L748.9684 429.3719Q748.9684 432.3875 745.87463 435.075L744.68713 433.73126Q747.56213 431.90314 747.56213 428.2469L747.56213 419.66876L757.06213 419.66876L757.06213 433.52814Q757.06213 434.65314 755.859 434.65314L754.1715 434.65314L753.89026 433.09064L755.37463 433.09064Q755.6559 433.09064 755.6559 432.8094L755.6559 429.3719ZM748.9684 427.825L755.6559 427.825L755.6559 425.29376L748.9684 425.29376L748.9684 427.825ZM748.9684 423.7469L755.6559 423.7469L755.6559 421.21564L748.9684 421.21564L748.9684 423.7469Z" fill-rule="nonzero"/><path fill="#757575" d="M95.265625 44.4875L95.265625 47.55L83.71875 47.55Q83.90625 45.815624 84.84375 44.26875Q85.78125 42.70625 88.546875 40.14375Q90.78125 38.065624 91.28125 37.33125Q91.96875 36.315624 91.96875 35.315624Q91.96875 34.20625 91.375 33.628124Q90.78125 33.034374 89.734375 33.034374Q88.703125 33.034374 88.09375 33.659374Q87.484375 34.26875 87.390625 35.70625L84.109375 35.378124Q84.40625 32.659374 85.953125 31.4875Q87.5 30.3 89.8125 30.3Q92.359375 30.3 93.8125 31.675Q95.265625 33.034374 95.265625 35.08125Q95.265625 36.2375 94.84375 37.284374Q94.4375 38.33125 93.53125 39.4875Q92.9375 40.253124 91.375 41.690624Q89.8125 43.1125 89.390625 43.58125Q88.984375 44.05 88.734375 44.4875L95.265625 44.4875ZM102.71875 30.3Q105.203125 30.3 106.609375 32.08125Q108.296875 34.190624 108.296875 39.08125Q108.296875 43.95625 106.609375 46.08125Q105.203125 47.846874 102.71875 47.846874Q100.203125 47.846874 98.671875 45.925Q97.140625 43.9875 97.140625 39.034374Q97.140625 34.190624 98.828125 32.05Q100.21875 30.3 102.71875 30.3ZM102.71875 33.034374Q102.109375 33.034374 101.640625 33.409374Q101.171875 33.784374 100.921875 34.76875Q100.578125 36.05 100.578125 39.08125Q100.578125 42.096874 100.875 43.2375Q101.1875 44.3625 101.640625 44.7375Q102.109375 45.1125 102.71875 45.1125Q103.3125 45.1125 103.78125 44.7375Q104.25 44.346874 104.5 43.3625Q104.84375 42.096874 104.84375 39.08125Q104.84375 36.05 104.53125 34.925Q104.234375 33.784374 103.765625 33.409374Q103.3125 33.034374 102.71875 33.034374ZM121.265625 44.4875L121.265625 47.55L109.71875 47.55Q109.90625 45.815624 110.84375 44.26875Q111.78125 42.70625 114.546875 40.14375Q116.78125 38.065624 117.28125 37.33125Q117.96875 36.315624 117.96875 35.315624Q117.96875 34.20625 117.375 33.628124Q116.78125 33.034374 115.734375 33.034374Q114.703125 33.034374 114.09375 33.659374Q113.484375 34.26875 113.390625 35.70625L110.109375 35.378124Q110.40625 32.659374 111.953125 31.4875Q113.5 30.3 115.8125 30.3Q118.359375 30.3 119.8125 31.675Q121.265625 33.034374 121.265625 35.08125Q121.265625 36.2375 120.84375 37.284374Q120.4375 38.33125 119.53125 39.4875Q118.9375 40.253124 117.375 41.690624Q115.8125 43.1125 115.390625 43.58125Q114.984375 44.05 114.734375 44.4875L121.265625 44.4875ZM123.03125 42.9875L126.21875 42.596874Q126.375 43.815624 127.03125 44.471874Q127.703125 45.1125 128.65625 45.1125Q129.67188 45.1125 130.35938 44.346874Q131.0625 43.565624 131.0625 42.253124Q131.0625 41.003124 130.39062 40.284374Q129.73438 39.55 128.76562 39.55Q128.14062 39.55 127.265625 39.8L127.625 37.1125Q128.95312 37.159374 129.65625 36.55Q130.35938 35.925 130.35938 34.909374Q130.35938 34.034374 129.84375 33.51875Q129.32812 33.003124 128.48438 33.003124Q127.640625 33.003124 127.03125 33.596874Q126.4375 34.175 126.3125 35.3L123.28125 34.784374Q123.59375 33.221874 124.234375 32.3Q124.875 31.3625 126.015625 30.83125Q127.15625 30.3 128.57812 30.3Q131.0 30.3 132.46875 31.846874Q133.67188 33.1125 133.67188 34.70625Q133.67188 36.971874 131.20312 38.315624Q132.67188 38.628124 133.54688 39.7375Q134.4375 40.83125 134.4375 42.39375Q134.4375 44.659374 132.78125 46.253124Q131.14062 47.846874 128.67188 47.846874Q126.34375 47.846874 124.8125 46.503124Q123.28125 45.159374 123.03125 42.9875Z" fill-rule="nonzero"/><path fill="#757575" d="M143.21875 32.925Q141.5 35.89375 138.53125 38.2375L136.75 35.940624Q140.79688 32.9875 142.26562 27.409374L144.875 28.08125Q145.85938 29.065624 144.67188 29.2375L144.20312 30.39375L157.25 30.39375L157.25 32.925L150.40625 32.925L150.40625 35.3625L156.03125 35.3625L156.03125 37.89375L150.40625 37.89375L150.40625 41.3625L158.28125 41.3625L158.28125 43.89375L150.40625 43.89375L150.40625 49.51875L147.78125 49.51875L147.78125 43.89375L137.0 43.89375L137.0 41.3625L141.21875 41.3625L141.21875 35.3625L147.78125 35.3625L147.78125 32.925L143.21875 32.925ZM143.84375 41.3625L147.78125 41.3625L147.78125 37.89375L143.84375 37.89375L143.84375 41.3625ZM170.46875 42.39375Q170.46875 48.440624 162.125 49.45625L161.46875 46.753124Q167.84375 46.175 167.84375 42.3L167.84375 39.20625L170.03125 39.20625Q171.90625 39.58125 170.46875 40.534374L170.46875 42.39375ZM182.28125 29.45625L182.28125 31.9875L173.5625 31.9875L173.5625 33.20625L180.5 33.20625L180.5 35.7375L163.71875 35.7375L163.71875 33.20625L170.65625 33.20625L170.65625 31.9875L161.9375 31.9875L161.9375 29.45625L170.65625 29.45625L170.65625 27.20625L173.125 27.20625Q175.0 27.58125 173.5625 28.534374L173.5625 29.45625L182.28125 29.45625ZM164.75 41.55L161.84375 41.55L161.84375 36.4875L182.375 36.4875L182.375 41.55L179.46875 41.55L179.46875 39.01875L164.75 39.01875L164.75 41.55ZM176.0 46.2375Q176.0 46.51875 176.1875 46.51875L179.84375 46.51875Q180.32812 46.51875 180.42188 44.128124L183.04688 45.034374Q182.82812 49.05 180.59375 49.05L175.4375 49.05Q173.375 49.05 173.375 46.9875L173.375 39.20625L175.5625 39.20625Q177.4375 39.58125 176.0 40.534374L176.0 46.2375ZM194.65625 44.83125L194.65625 28.2375L197.125 28.2375Q199.0 28.6125 197.5625 29.565624L197.5625 34.425L205.15625 34.425L205.15625 37.2375L197.5625 37.2375L197.5625 44.83125L207.3125 44.83125L207.3125 47.64375L186.21875 47.64375L186.21875 44.83125L194.65625 44.83125Z" fill-rule="nonzero"/><path fill="#757575" d="M214.98438 47.55L214.98438 33.26875L209.89062 33.26875L209.89062 30.3625L223.54688 30.3625L223.54688 33.26875L218.45312 33.26875L218.45312 47.55L214.98438 47.55ZM225.42188 39.065624Q225.42188 36.440624 226.20312 34.659374Q226.79688 33.346874 227.79688 32.3Q228.8125 31.253124 230.03125 30.753124Q231.625 30.08125 233.73438 30.08125Q237.53125 30.08125 239.79688 32.440624Q242.07812 34.784374 242.07812 38.9875Q242.07812 43.14375 239.8125 45.503124Q237.5625 47.846874 233.78125 47.846874Q229.9375 47.846874 227.67188 45.503124Q225.42188 43.159374 225.42188 39.065624ZM229.0 38.940624Q229.0 41.8625 230.34375 43.378124Q231.6875 44.878124 233.76562 44.878124Q235.84375 44.878124 237.17188 43.39375Q238.5 41.89375 238.5 38.89375Q238.5 35.940624 237.20312 34.4875Q235.90625 33.034374 233.76562 33.034374Q231.625 33.034374 230.3125 34.51875Q229.0 35.9875 229.0 38.940624ZM244.125 47.55L244.125 30.3625L249.6875 30.3625Q252.85938 30.3625 253.8125 30.628124Q255.29688 31.01875 256.28125 32.315624Q257.28125 33.596874 257.28125 35.659374Q257.28125 37.2375 256.70312 38.315624Q256.14062 39.39375 255.25 40.01875Q254.35938 40.628124 253.45312 40.815624Q252.20312 41.065624 249.85938 41.065624L247.59375 41.065624L247.59375 47.55L244.125 47.55ZM247.59375 33.26875L247.59375 38.14375L249.48438 38.14375Q251.54688 38.14375 252.23438 37.878124Q252.92188 37.6125 253.3125 37.034374Q253.70312 36.45625 253.70312 35.70625Q253.70312 34.76875 253.15625 34.159374Q252.60938 33.55 251.76562 33.39375Q251.14062 33.26875 249.26562 33.26875L247.59375 33.26875ZM267.82812 47.55L264.53125 47.55L264.53125 35.14375Q262.71875 36.83125 260.28125 37.628124L260.28125 34.64375Q261.5625 34.221874 263.07812 33.05Q264.59375 31.8625 265.15625 30.3L267.82812 30.3L267.82812 47.55ZM277.96875 30.3Q280.45312 30.3 281.85938 32.08125Q283.54688 34.190624 283.54688 39.08125Q283.54688 43.95625 281.85938 46.08125Q280.45312 47.846874 277.96875 47.846874Q275.45312 47.846874 273.92188 45.925Q272.39062 43.9875 272.39062 39.034374Q272.39062 34.190624 274.07812 32.05Q275.46875 30.3 277.96875 30.3ZM277.96875 33.034374Q277.35938 33.034374 276.89062 33.409374Q276.42188 33.784374 276.17188 34.76875Q275.82812 36.05 275.82812 39.08125Q275.82812 42.096874 276.125 43.2375Q276.4375 44.3625 276.89062 44.7375Q277.35938 45.1125 277.96875 45.1125Q278.5625 45.1125 279.03125 44.7375Q279.5 44.346874 279.75 43.3625Q280.09375 42.096874 280.09375 39.08125Q280.09375 36.05 279.78125 34.925Q279.48438 33.784374 279.01562 33.409374Q278.5625 33.034374 277.96875 33.034374ZM290.96875 30.3Q293.45312 30.3 294.85938 32.08125Q296.54688 34.190624 296.54688 39.08125Q296.54688 43.95625 294.85938 46.08125Q293.45312 47.846874 290.96875 47.846874Q288.45312 47.846874 286.92188 45.925Q285.39062 43.9875 285.39062 39.034374Q285.39062 34.190624 287.07812 32.05Q288.46875 30.3 290.96875 30.3ZM290.96875 33.034374Q290.35938 33.034374 289.89062 33.409374Q289.42188 33.784374 289.17188 34.76875Q288.82812 36.05 288.82812 39.08125Q288.82812 42.096874 289.125 43.2375Q289.4375 44.3625 289.89062 44.7375Q290.35938 45.1125 290.96875 45.1125Q291.5625 45.1125 292.03125 44.7375Q292.5 44.346874 292.75 43.3625Q293.09375 42.096874 293.09375 39.08125Q293.09375 36.05 292.78125 34.925Q292.48438 33.784374 292.01562 33.409374Q291.5625 33.034374 290.96875 33.034374Z" fill-rule="nonzero"/><path fill="#757575" d="M308.53125 49.2375Q305.48438 49.2375 303.21875 47.159374Q302.29688 48.221874 299.5 49.784374L298.5 46.628124Q299.84375 46.26875 301.78125 45.003124L301.78125 39.4875L298.875 39.4875L298.875 36.95625L304.40625 36.95625L304.40625 44.940624Q306.04688 46.425 308.90625 46.425L320.98438 46.425L320.46875 49.2375L308.53125 49.2375ZM309.73438 30.26875Q312.3125 30.878124 312.79688 31.096874L313.48438 30.58125L305.625 30.58125L305.625 28.05L316.57812 28.05L317.17188 27.690624L318.79688 28.878124Q320.0625 29.940624 318.21875 30.096874L315.20312 32.1125L316.29688 32.628124L315.4375 33.4875L319.125 33.4875L319.125 44.55Q319.125 46.2375 317.4375 46.2375L315.01562 46.2375L314.89062 43.70625L316.5 43.70625Q316.5 43.70625 316.5 43.70625L316.5 42.3L313.6875 42.3L313.6875 45.95625L311.0625 45.95625L311.0625 42.3L308.4375 42.3L308.4375 46.33125L305.8125 46.33125L305.8125 33.4875L311.20312 33.4875Q309.07812 32.628124 307.70312 32.284374L309.73438 30.26875ZM313.6875 35.7375L313.6875 36.76875L316.5 36.76875L316.5 35.7375L313.6875 35.7375ZM308.4375 35.7375L308.4375 36.76875L311.0625 36.76875L311.0625 35.7375L308.4375 35.7375ZM311.0625 39.01875L308.4375 39.01875L308.4375 40.05L311.0625 40.05L311.0625 39.01875ZM316.5 39.01875L313.6875 39.01875L313.6875 40.05L316.5 40.05L316.5 39.01875ZM301.51562 27.7375Q304.39062 29.565624 305.53125 31.378124L303.4375 33.596874Q301.70312 31.409374 299.75 29.89375L301.51562 27.7375ZM338.85938 36.76875Q339.17188 39.753124 339.875 41.20625Q340.625 39.909374 341.42188 36.76875L338.85938 36.76875ZM333.70312 47.33125Q336.96875 45.3 338.26562 43.675Q336.75 41.190624 336.48438 36.76875L336.09375 36.76875L336.09375 40.05Q336.09375 46.425 331.89062 49.471874L330.23438 47.3Q333.46875 44.7375 333.46875 40.05L333.46875 28.14375L345.09375 28.14375L345.09375 30.675L336.09375 30.675L336.09375 34.2375L342.03125 34.2375L342.51562 33.753124L344.40625 35.08125Q345.32812 36.003124 344.1875 36.159374Q343.01562 41.221874 341.53125 43.659374Q342.70312 45.003124 345.95312 46.628124L344.71875 49.3625Q341.57812 47.95625 339.84375 45.89375Q338.03125 48.128124 335.21875 49.7375L333.70312 47.33125ZM330.07812 43.034374Q331.5 44.096874 332.35938 45.471874L330.46875 47.096874Q329.89062 46.096874 328.32812 44.534374L330.07812 43.034374ZM328.07812 44.1125Q329.5625 44.70625 328.03125 45.14375Q326.75 48.14375 325.15625 49.7375L323.1875 48.284374Q325.17188 45.690624 326.03125 43.190624L328.07812 44.1125ZM332.4375 43.425L324.5625 43.425L324.5625 28.33125L332.4375 28.33125L332.4375 43.425ZM326.90625 30.58125L326.90625 32.55L330.09375 32.55L330.09375 30.58125L326.90625 30.58125ZM326.90625 34.8L326.90625 36.76875L330.09375 36.76875L330.09375 34.8L326.90625 34.8ZM326.90625 39.01875L326.90625 41.175L330.09375 41.175L330.09375 39.01875L326.90625 39.01875ZM364.59375 34.33125L370.125 34.33125L370.125 37.14375L364.6875 37.14375L364.6875 38.55Q364.6875 45.83125 356.79688 49.034374L354.75 46.721874Q361.78125 44.378124 361.78125 38.7375L361.78125 37.14375L356.34375 37.14375L356.4375 41.925L353.625 41.925L353.53125 37.14375L348.28125 37.14375L348.28125 34.33125L353.53125 34.33125L353.4375 29.3625L355.79688 29.3625Q357.54688 29.534374 356.25 30.83125L356.32812 34.33125L361.6875 34.33125L361.6875 28.6125L364.14062 28.6125Q365.89062 28.784374 364.59375 30.08125L364.59375 34.33125ZM372.78125 40.190624Q383.0 35.909374 388.23438 28.14375L390.32812 29.909374Q391.73438 30.971874 389.65625 31.39375Q387.9375 33.659374 385.21875 36.003124L385.21875 48.95625L382.3125 48.95625L382.3125 38.378124Q379.60938 40.471874 374.90625 42.675L372.78125 40.190624ZM398.28125 35.64375Q402.64062 36.878124 407.70312 39.315624L406.21875 42.14375Q400.95312 39.471874 398.28125 38.753124L398.28125 48.39375L395.375 48.39375L395.375 28.89375L397.64062 28.89375Q399.73438 29.065624 398.28125 30.20625L398.28125 35.64375Z" fill-rule="nonzero"/><path fill="#757575" d="M429.57812 38.565624Q433.34375 41.45625 437.57812 45.8L435.125 47.878124Q430.96875 43.51875 427.60938 40.925Q424.15625 44.64375 419.1875 47.925L416.82812 45.815624Q427.07812 39.14375 429.59375 33.33125L419.64062 33.971874L419.26562 30.971874L430.51562 30.4875L431.79688 30.159374L433.45312 31.815624Q434.60938 32.971874 433.04688 33.26875Q431.34375 36.221874 429.57812 38.565624ZM452.32812 42.096874Q454.04688 43.721874 455.53125 45.425L453.09375 47.6125Q449.29688 43.14375 444.4375 39.565624L446.1875 37.3Q448.1875 38.534374 450.01562 40.190624Q452.5625 37.64375 455.0 34.175L440.71875 34.815624L440.21875 31.721874L457.0 31.33125L458.10938 31.003124L459.70312 32.690624Q460.60938 34.128124 459.20312 33.971874Q456.98438 36.909374 452.32812 42.096874ZM468.92188 39.721874Q467.57812 42.659374 465.21875 46.3625L462.48438 44.8625Q465.04688 41.175 466.78125 37.08125L469.25 38.425Q470.4375 39.425 468.92188 39.721874ZM471.46875 27.95625L473.84375 27.95625Q475.82812 28.315624 474.375 29.284374L474.375 33.20625L483.0 33.20625L483.0 36.01875L474.375 36.01875L474.375 49.05L471.46875 49.05L471.46875 36.01875L463.03125 36.01875L463.03125 33.20625L471.46875 33.20625L471.46875 27.95625ZM481.375 46.128124Q479.23438 42.33125 476.17188 39.08125L478.53125 37.096874Q482.17188 40.95625 484.0625 44.284374L481.375 46.128124Z" fill-rule="nonzero"/><path fill="#757575" d="M504.10938 41.2375L507.48438 42.3Q506.70312 45.1125 504.90625 46.4875Q503.10938 47.846874 500.34375 47.846874Q496.92188 47.846874 494.71875 45.503124Q492.51562 43.159374 492.51562 39.1125Q492.51562 34.815624 494.71875 32.45625Q496.9375 30.08125 500.54688 30.08125Q503.70312 30.08125 505.67188 31.940624Q506.84375 33.034374 507.4375 35.096874L504.0 35.925Q503.6875 34.58125 502.71875 33.815624Q501.76562 33.034374 500.375 33.034374Q498.46875 33.034374 497.28125 34.409374Q496.09375 35.784374 496.09375 38.846874Q496.09375 42.1125 497.26562 43.503124Q498.4375 44.878124 500.3125 44.878124Q501.6875 44.878124 502.6875 44.003124Q503.6875 43.1125 504.10938 41.2375ZM510.21875 47.55L510.21875 30.503124L513.6875 30.503124L513.6875 44.659374L522.3125 44.659374L522.3125 47.55L510.21875 47.55ZM524.25 41.95625L527.625 41.628124Q527.9219 43.33125 528.84375 44.128124Q529.78125 44.925 531.375 44.925Q533.0469 44.925 533.8906 44.221874Q534.75 43.503124 534.75 42.55Q534.75 41.940624 534.3906 41.51875Q534.03125 41.096874 533.1406 40.76875Q532.53125 40.565624 530.3594 40.01875Q527.5781 39.33125 526.4531 38.33125Q524.8594 36.909374 524.8594 34.8625Q524.8594 33.55 525.6094 32.409374Q526.3594 31.26875 527.75 30.675Q529.15625 30.08125 531.1406 30.08125Q534.375 30.08125 536.0 31.503124Q537.6406 32.909374 537.71875 35.284374L534.25 35.425Q534.03125 34.1125 533.2969 33.534374Q532.5625 32.940624 531.09375 32.940624Q529.59375 32.940624 528.7344 33.565624Q528.1875 33.971874 528.1875 34.628124Q528.1875 35.2375 528.7031 35.675Q529.3594 36.221874 531.8906 36.83125Q534.4219 37.425 535.625 38.065624Q536.84375 38.70625 537.53125 39.815624Q538.21875 40.909374 538.21875 42.55Q538.21875 44.01875 537.3906 45.315624Q536.5781 46.596874 535.0781 47.2375Q533.5781 47.8625 531.3281 47.8625Q528.0781 47.8625 526.3281 46.3625Q524.5781 44.846874 524.25 41.95625ZM548.0 35.096874L551.0781 35.096874L551.0781 36.925Q551.6719 35.9875 552.6875 35.409374Q553.71875 34.815624 554.9531 34.815624Q557.125 34.815624 558.625 36.51875Q560.1406 38.221874 560.1406 41.253124Q560.1406 44.378124 558.6094 46.1125Q557.09375 47.83125 554.9375 47.83125Q553.90625 47.83125 553.0625 47.425Q552.21875 47.003124 551.2969 46.01875L551.2969 52.284374L548.0 52.284374L548.0 35.096874ZM551.2656 41.1125Q551.2656 43.20625 552.09375 44.221874Q552.9219 45.221874 554.125 45.221874Q555.2656 45.221874 556.03125 44.3Q556.7969 43.378124 556.7969 41.284374Q556.7969 39.315624 556.0 38.378124Q555.21875 37.425 554.0625 37.425Q552.8594 37.425 552.0625 38.3625Q551.2656 39.284374 551.2656 41.1125ZM562.3906 33.659374L562.3906 30.596874L573.65625 30.596874L573.65625 32.9875Q572.2656 34.3625 570.8125 36.940624Q569.375 39.503124 568.625 42.39375Q567.875 45.26875 567.875 47.55L564.7031 47.55Q564.78125 43.9875 566.1719 40.284374Q567.5625 36.58125 569.8906 33.659374L562.3906 33.659374ZM575.4375 43.128124L578.71875 42.784374Q578.8594 43.909374 579.5469 44.565624Q580.25 45.20625 581.15625 45.20625Q582.1875 45.20625 582.8906 44.378124Q583.6094 43.534374 583.6094 41.846874Q583.6094 40.253124 582.8906 39.471874Q582.1875 38.675 581.0625 38.675Q579.6406 38.675 578.5156 39.925L575.84375 39.55L577.53125 30.596874L586.2344 30.596874L586.2344 33.690624L580.03125 33.690624L579.5156 36.596874Q580.6094 36.05 581.7656 36.05Q583.9531 36.05 585.46875 37.64375Q587.0 39.2375 587.0 41.784374Q587.0 43.909374 585.7656 45.565624Q584.09375 47.846874 581.1094 47.846874Q578.7344 47.846874 577.2344 46.565624Q575.7344 45.284374 575.4375 43.128124Z" fill-rule="nonzero"/><path fill="#757575" d="M609.6094 37.909374Q611.0 35.034374 611.9375 31.971874L614.4844 32.8625Q616.2344 33.7375 614.4531 34.096874Q613.75 36.253124 612.375 39.034374L609.6094 37.909374ZM605.4375 41.55L596.25 41.55L596.25 39.01875L605.4375 39.01875L605.4375 31.425L597.375 31.425L597.375 28.89375L616.03125 28.89375L616.03125 31.425L608.0625 31.425L608.0625 39.01875L617.34375 39.01875L617.34375 41.55L608.0625 41.55L608.0625 49.14375L605.4375 49.14375L605.4375 41.55ZM600.7656 32.08125Q602.96875 35.003124 603.6406 37.440624L600.90625 38.690624Q599.7656 35.440624 598.21875 33.346874L600.7656 32.08125ZM629.125 43.878124L622.78125 45.8Q622.09375 47.51875 621.4844 45.690624L620.8125 43.2375L623.625 42.64375L623.625 36.01875L621.1875 36.01875L621.1875 33.20625L623.625 33.20625L623.625 28.33125L625.7969 28.33125Q627.53125 28.55 626.25 29.45625L626.25 33.20625L628.875 33.20625L628.875 36.01875L626.25 36.01875L626.25 42.003124L628.59375 41.3625L629.125 43.878124ZM640.9531 46.909374Q640.21875 49.33125 637.21875 49.33125L634.7344 49.33125L634.3594 46.51875L637.3125 46.51875Q638.3125 46.51875 638.53125 45.409374Q638.90625 43.58125 638.90625 37.89375L638.90625 34.2375L632.21875 34.2375Q631.25 36.409374 628.9531 39.05L627.1719 36.753124Q630.6875 32.753124 631.5781 27.76875L633.96875 28.440624Q635.7656 29.128124 633.96875 29.659374Q633.6406 30.89375 633.28125 31.70625L641.53125 31.70625L641.53125 36.8625Q641.53125 44.9875 640.9531 46.909374ZM634.8594 41.175Q632.2344 38.95625 630.1094 37.95625L631.71875 35.471874Q633.9375 36.253124 636.59375 38.58125L634.8594 41.175ZM637.8281 43.065624Q634.9219 44.51875 630.4844 45.971874Q629.8906 47.76875 629.2656 45.675L628.8125 43.128124Q633.53125 42.221874 637.3125 40.33125L637.8281 43.065624ZM651.2344 28.940624Q650.8906 31.14375 650.09375 33.628124Q651.25 33.76875 650.25 34.76875L650.25 49.51875L647.625 49.51875L647.6406 38.7375Q647.6406 38.76875 646.84375 39.721874L644.7344 38.14375Q648.1094 34.08125 648.6875 27.221874L651.375 27.8Q652.3594 28.784374 651.2344 28.940624ZM660.46875 32.45625L660.46875 33.4875L665.0625 33.4875L665.0625 45.3L655.59375 45.3L655.59375 33.4875L657.84375 33.4875L657.84375 32.45625L651.09375 32.45625L651.09375 29.925L657.84375 29.925L657.84375 27.3L660.0156 27.3Q661.75 27.51875 660.46875 28.425L660.46875 29.925L666.5625 29.925L666.5625 32.45625L660.46875 32.45625ZM657.9375 35.7375L657.9375 36.675L662.71875 36.675L662.71875 35.7375L657.9375 35.7375ZM657.9375 38.925L657.9375 39.76875L662.71875 39.76875L662.71875 38.925L657.9375 38.925ZM657.9375 42.01875L657.9375 43.05L662.71875 43.05L662.71875 42.01875L657.9375 42.01875ZM651.75 49.51875L651.75 33.76875L653.9219 33.76875Q655.65625 33.9875 654.375 34.89375L654.375 46.14375L667.3125 46.14375L667.3125 48.675L654.375 48.675L654.375 49.51875L651.75 49.51875ZM682.28125 34.20625Q680.6875 43.51875 678.3594 45.846874Q677.03125 47.175 675.5625 47.175Q673.90625 47.175 672.9531 46.221874Q670.59375 43.8625 670.59375 40.33125Q670.59375 36.05 673.6094 33.034374Q676.90625 29.7375 681.65625 29.7375Q685.9375 29.7375 688.3906 32.190624Q691.125 34.925 691.125 38.64375Q691.125 42.64375 688.5781 45.190624Q686.9375 46.83125 683.3594 48.471874L680.7656 45.878124Q684.5469 44.690624 686.3594 42.878124Q688.03125 41.20625 688.03125 38.83125Q688.03125 35.9875 686.1719 34.128124Q684.3281 32.26875 681.7031 32.39375L682.09375 32.58125Q683.96875 33.3625 682.28125 34.20625ZM679.34375 32.659374Q677.53125 33.08125 675.8281 34.784374Q673.5 37.1125 673.5 40.51875Q673.5 42.51875 674.7969 43.815624Q674.96875 43.9875 675.375 43.9875Q675.78125 43.9875 676.3281 43.440624Q678.3906 41.378124 679.34375 32.659374ZM701.1094 35.89375Q704.3906 32.815624 706.15625 27.01875L708.4531 27.70625Q709.65625 28.675 708.3594 28.8625Q707.6875 30.55 707.1875 31.6125L709.1719 31.6125Q710.09375 29.690624 710.7656 27.659374L712.9844 28.471874Q713.9531 29.440624 712.7656 29.6125Q712.1875 30.940624 711.8125 31.6125L716.34375 31.6125L716.34375 34.14375L711.5625 34.14375L711.5625 36.3L715.40625 36.3L715.40625 38.83125L711.5625 38.83125L711.5625 41.08125L715.40625 41.08125L715.40625 43.6125L711.5625 43.6125L711.5625 46.33125L716.90625 46.33125L716.90625 48.8625L706.59375 48.8625L706.59375 49.70625L703.96875 49.70625L703.9844 36.878124Q703.96875 36.909374 702.9219 37.971874L701.1094 35.89375ZM696.6406 49.51875L696.09375 46.9875L698.15625 46.9875Q698.15625 46.9875 698.15625 46.9875L698.15625 41.64375L696.4219 42.05Q696.2656 43.190624 695.28125 42.20625L694.8125 39.565624L698.15625 38.89375L698.15625 34.6125L695.25 34.6125L695.25 32.08125L698.15625 32.08125L698.15625 27.3L700.3281 27.3Q702.0625 27.51875 700.78125 28.425L700.78125 32.08125L703.21875 32.08125L703.21875 34.6125L700.78125 34.6125L700.78125 38.346874L703.1406 37.70625L703.5469 40.128124L700.78125 40.9875L700.78125 47.64375Q700.78125 49.51875 698.90625 49.51875L696.6406 49.51875ZM706.59375 46.33125L708.9375 46.33125L708.9375 43.6125L706.59375 43.6125L706.59375 46.33125ZM706.59375 41.08125L708.9375 41.08125L708.9375 38.83125L706.59375 38.83125L706.59375 41.08125ZM706.59375 36.3L708.9375 36.3L708.9375 34.14375L706.59375 34.14375L706.59375 36.3ZM738.28125 29.925L738.6875 29.39375L740.8125 31.1125L740.2656 31.659374Q737.8125 35.909374 736.1094 36.940624L736.25 36.971874Q737.78125 37.628124 736.34375 38.175Q736.1875 38.70625 736.1094 38.70625L739.40625 38.64375L739.7969 38.128124L742.1406 39.815624L741.5156 40.440624Q738.4531 48.55 728.7656 49.64375L727.7031 47.14375Q732.5156 46.628124 734.6094 45.065624Q733.625 44.08125 732.5781 43.33125Q731.5469 44.221874 729.09375 45.221874L727.9219 42.8625Q732.7344 40.89375 733.5469 38.675Q733.21875 38.9875 729.1719 40.01875L727.9844 37.628124Q731.9375 36.784374 733.3281 35.846874Q732.6875 35.08125 731.6719 34.440624Q731.21875 34.89375 730.2656 35.58125L728.4531 33.64375Q731.7656 30.83125 732.6875 27.565624L734.7656 28.26875Q736.28125 28.909374 734.8594 29.45625Q734.7969 29.878124 734.7344 29.940624L738.28125 29.925ZM726.09375 33.58125L729.1875 33.58125L729.1875 36.1125L726.09375 36.1125L726.09375 37.83125Q727.8125 38.6125 729.7656 40.565624L728.1094 42.878124Q726.3125 41.08125 726.09375 40.909374L726.09375 49.6125L723.46875 49.6125L723.84375 39.95625Q723.6094 42.01875 720.7344 45.33125L718.84375 42.925Q722.46875 39.4875 723.1875 36.1125L719.625 36.1125L719.625 33.58125L723.46875 33.58125L723.46875 31.3Q722.0156 31.51875 720.1875 31.7375L719.53125 29.221874Q723.6875 28.8 727.9375 27.6125L729.125 29.2375Q730.0156 30.58125 728.3594 30.221874Q727.125 30.565624 726.09375 30.784374L726.09375 33.58125ZM733.1875 32.7375Q734.1875 33.26875 735.2656 34.20625Q736.3906 33.159374 736.96875 32.175L733.53125 32.175Q733.2344 32.690624 733.1875 32.7375ZM734.25 41.675Q735.125 42.175 736.6094 43.503124Q737.6875 42.721874 738.46875 40.89375L734.90625 40.89375Q734.4375 41.534374 734.25 41.675Z" fill-rule="nonzero"/></svg>