<svg version="1.1" viewBox="0.0 0.0 826.0 511.0" fill="none" stroke="none" stroke-linecap="square" stroke-miterlimit="10" width="826" height="511" xmlns:xlink="http://www.w3.org/1999/xlink" xmlns="http://www.w3.org/2000/svg"><path fill="#ffffff" d="M0 0L826.0 0L826.0 511.0L0 511.0L0 0Z" fill-rule="nonzero"/><path stroke="#cccccc" stroke-width="1.0" stroke-linecap="butt" d="M112.5 81.5L112.5 407.5" fill-rule="nonzero"/><path stroke="#cccccc" stroke-width="1.0" stroke-linecap="butt" d="M262.5 81.5L262.5 407.5" fill-rule="nonzero"/><path stroke="#cccccc" stroke-width="1.0" stroke-linecap="butt" d="M412.5 81.5L412.5 407.5" fill-rule="nonzero"/><path stroke="#cccccc" stroke-width="1.0" stroke-linecap="butt" d="M562.5 81.5L562.5 407.5" fill-rule="nonzero"/><path stroke="#cccccc" stroke-width="1.0" stroke-linecap="butt" d="M712.5 81.5L712.5 407.5" fill-rule="nonzero"/><path stroke="#333333" stroke-width="1.0" stroke-linecap="butt" d="M112.5 407.5L800.5 407.5" fill-rule="nonzero"/><path stroke="#cccccc" stroke-width="1.0" stroke-linecap="butt" d="M112.5 325.5L800.5 325.5" fill-rule="nonzero"/><path stroke="#cccccc" stroke-width="1.0" stroke-linecap="butt" d="M112.5 244.5L800.5 244.5" fill-rule="nonzero"/><path stroke="#cccccc" stroke-width="1.0" stroke-linecap="butt" d="M112.5 162.5L800.5 162.5" fill-rule="nonzero"/><path stroke="#cccccc" stroke-width="1.0" stroke-linecap="butt" d="M112.5 81.5L800.5 81.5" fill-rule="nonzero"/><path stroke="#000000" stroke-width="1.0" stroke-linecap="butt" d="M800.5 81.5L800.5 407.5" fill-rule="nonzero"/><clipPath id="id_0"><path d="M112.55 81.083336L800.45 81.083336L800.45 407.45L112.55 407.45L112.55 81.083336Z" clip-rule="nonzero"/></clipPath><path stroke="#ff9900" stroke-width="2.0" stroke-linecap="butt" clip-path="url(#id_0)" d="M137.20592 407.24286L149.94481 407.4235M425.6801 193.58093L437.1862 191.3145L449.92508 105.80808L462.25305 109.72283L474.99194 95.5061L487.3199 97.11027L500.05878 93.44571L512.79767 113.2255L525.1256 117.96442L537.8645 111.37115L550.19244 116.72818L562.93134 145.19107L575.6702 161.02669L587.17633 167.67041L599.9152 169.19392L612.24316 165.22475L624.98206 146.60391L637.31006 145.19107L650.04895 143.94221L662.78784 144.3585L675.1158 141.01535L687.8547 125.0013L700.1826 154.55746L712.9215 179.74265L725.6604 184.32176L737.5774 214.29422L750.3163 207.21739L762.6443 194.10445L775.3832 213.14407L787.7111 206.23305L800.45 204.3034" fill-rule="nonzero"/><path fill="#000000" fill-opacity="0.0" clip-path="url(#id_0)" d="M140.20592 407.24286C140.20592 408.89972 138.86276 410.24286 137.20592 410.24286C135.54906 410.24286 134.20592 408.89972 134.20592 407.24286C134.20592 405.58603 135.54906 404.24286 137.20592 404.24286C138.86276 404.24286 140.20592 405.58603 140.20592 407.24286Z" fill-rule="nonzero"/><path fill="#000000" fill-opacity="0.0" clip-path="url(#id_0)" d="M152.94481 407.4235C152.94481 409.08035 151.60165 410.4235 149.94481 410.4235C148.28795 410.4235 146.94481 409.08035 146.94481 407.4235C146.94481 405.76663 148.28795 404.4235 149.94481 404.4235C151.60165 404.4235 152.94481 405.76663 152.94481 407.4235Z" fill-rule="nonzero"/><path fill="#000000" fill-opacity="0.0" clip-path="url(#id_0)" d="M428.6801 193.58093C428.6801 195.2378 427.33698 196.58093 425.6801 196.58093C424.02325 196.58093 422.6801 195.2378 422.6801 193.58093C422.6801 191.92409 424.02325 190.58093 425.6801 190.58093C427.33698 190.58093 428.6801 191.92409 428.6801 193.58093Z" fill-rule="nonzero"/><path fill="#000000" fill-opacity="0.0" clip-path="url(#id_0)" d="M440.1862 191.3145C440.1862 192.97136 438.84305 194.3145 437.1862 194.3145C435.52936 194.3145 434.1862 192.97136 434.1862 191.3145C434.1862 189.65764 435.52936 188.3145 437.1862 188.3145C438.84305 188.3145 440.1862 189.65764 440.1862 191.3145Z" fill-rule="nonzero"/><path fill="#000000" fill-opacity="0.0" clip-path="url(#id_0)" d="M452.92508 105.80808C452.92508 107.464935 451.58194 108.80808 449.92508 108.80808C448.26825 108.80808 446.92508 107.464935 446.92508 105.80808C446.92508 104.15123 448.26825 102.80808 449.92508 102.80808C451.58194 102.80808 452.92508 104.15123 452.92508 105.80808Z" fill-rule="nonzero"/><path fill="#000000" fill-opacity="0.0" clip-path="url(#id_0)" d="M465.25305 109.72283C465.25305 111.379684 463.9099 112.72283 462.25305 112.72283C460.5962 112.72283 459.25305 111.379684 459.25305 109.72283C459.25305 108.06598 460.5962 106.72283 462.25305 106.72283C463.9099 106.72283 465.25305 108.06598 465.25305 109.72283Z" fill-rule="nonzero"/><path fill="#000000" fill-opacity="0.0" clip-path="url(#id_0)" d="M477.99194 95.5061C477.99194 97.16296 476.6488 98.5061 474.99194 98.5061C473.33508 98.5061 471.99194 97.16296 471.99194 95.5061C471.99194 93.84925 473.33508 92.5061 474.99194 92.5061C476.6488 92.5061 477.99194 93.84925 477.99194 95.5061Z" fill-rule="nonzero"/><path fill="#000000" fill-opacity="0.0" clip-path="url(#id_0)" d="M490.3199 97.11027C490.3199 98.76712 488.97675 100.11027 487.3199 100.11027C485.66302 100.11027 484.3199 98.76712 484.3199 97.11027C484.3199 95.453415 485.66302 94.11027 487.3199 94.11027C488.97675 94.11027 490.3199 95.453415 490.3199 97.11027Z" fill-rule="nonzero"/><path fill="#000000" fill-opacity="0.0" clip-path="url(#id_0)" d="M503.05878 93.44571C503.05878 95.10256 501.71564 96.44571 500.05878 96.44571C498.40192 96.44571 497.05878 95.10256 497.05878 93.44571C497.05878 91.78886 498.40192 90.44571 500.05878 90.44571C501.71564 90.44571 503.05878 91.78886 503.05878 93.44571Z" fill-rule="nonzero"/><path fill="#000000" fill-opacity="0.0" clip-path="url(#id_0)" d="M515.79767 113.2255C515.79767 114.88236 514.4545 116.2255 512.79767 116.2255C511.1408 116.2255 509.79767 114.88236 509.79767 113.2255C509.79767 111.56865 511.1408 110.2255 512.79767 110.2255C514.4545 110.2255 515.79767 111.56865 515.79767 113.2255Z" fill-rule="nonzero"/><path fill="#000000" fill-opacity="0.0" clip-path="url(#id_0)" d="M528.1256 117.96442C528.1256 119.62127 526.7825 120.96442 525.1256 120.96442C523.46875 120.96442 522.1256 119.62127 522.1256 117.96442C522.1256 116.30756 523.46875 114.96442 525.1256 114.96442C526.7825 114.96442 528.1256 116.30756 528.1256 117.96442Z" fill-rule="nonzero"/><path fill="#000000" fill-opacity="0.0" clip-path="url(#id_0)" d="M540.8645 111.37115C540.8645 113.028 539.52136 114.37115 537.8645 114.37115C536.20764 114.37115 534.8645 113.028 534.8645 111.37115C534.8645 109.714294 536.20764 108.37115 537.8645 108.37115C539.52136 108.37115 540.8645 109.714294 540.8645 111.37115Z" fill-rule="nonzero"/><path fill="#000000" fill-opacity="0.0" clip-path="url(#id_0)" d="M553.19244 116.72818C553.19244 118.38503 551.8493 119.72818 550.19244 119.72818C548.53564 119.72818 547.19244 118.38503 547.19244 116.72818C547.19244 115.07132 548.53564 113.72818 550.19244 113.72818C551.8493 113.72818 553.19244 115.07132 553.19244 116.72818Z" fill-rule="nonzero"/><path fill="#000000" fill-opacity="0.0" clip-path="url(#id_0)" d="M565.93134 145.19107C565.93134 146.84793 564.5882 148.19107 562.93134 148.19107C561.27454 148.19107 559.93134 146.84793 559.93134 145.19107C559.93134 143.53421 561.27454 142.19107 562.93134 142.19107C564.5882 142.19107 565.93134 143.53421 565.93134 145.19107Z" fill-rule="nonzero"/><path fill="#000000" fill-opacity="0.0" clip-path="url(#id_0)" d="M578.6702 161.02669C578.6702 162.68353 577.3271 164.02669 575.6702 164.02669C574.01337 164.02669 572.6702 162.68353 572.6702 161.02669C572.6702 159.36983 574.01337 158.02669 575.6702 158.02669C577.3271 158.02669 578.6702 159.36983 578.6702 161.02669Z" fill-rule="nonzero"/><path fill="#000000" fill-opacity="0.0" clip-path="url(#id_0)" d="M590.17633 167.67041C590.17633 169.32726 588.8332 170.67041 587.17633 170.67041C585.5195 170.67041 584.17633 169.32726 584.17633 167.67041C584.17633 166.01355 585.5195 164.67041 587.17633 164.67041C588.8332 164.67041 590.17633 166.01355 590.17633 167.67041Z" fill-rule="nonzero"/><path fill="#000000" fill-opacity="0.0" clip-path="url(#id_0)" d="M602.9152 169.19392C602.9152 170.85077 601.5721 172.19392 599.9152 172.19392C598.25836 172.19392 596.9152 170.85077 596.9152 169.19392C596.9152 167.53706 598.25836 166.19392 599.9152 166.19392C601.5721 166.19392 602.9152 167.53706 602.9152 169.19392Z" fill-rule="nonzero"/><path fill="#000000" fill-opacity="0.0" clip-path="url(#id_0)" d="M615.24316 165.22475C615.24316 166.88159 613.9 168.22475 612.24316 168.22475C610.58636 168.22475 609.24316 166.88159 609.24316 165.22475C609.24316 163.56789 610.58636 162.22475 612.24316 162.22475C613.9 162.22475 615.24316 163.56789 615.24316 165.22475Z" fill-rule="nonzero"/><path fill="#000000" fill-opacity="0.0" clip-path="url(#id_0)" d="M627.98206 146.60391C627.98206 148.26077 626.6389 149.60391 624.98206 149.60391C623.3252 149.60391 621.98206 148.26077 621.98206 146.60391C621.98206 144.94707 623.3252 143.60391 624.98206 143.60391C626.6389 143.60391 627.98206 144.94707 627.98206 146.60391Z" fill-rule="nonzero"/><path fill="#000000" fill-opacity="0.0" clip-path="url(#id_0)" d="M640.31006 145.19107C640.31006 146.84793 638.9669 148.19107 637.31006 148.19107C635.6532 148.19107 634.31006 146.84793 634.31006 145.19107C634.31006 143.53421 635.6532 142.19107 637.31006 142.19107C638.9669 142.19107 640.31006 143.53421 640.31006 145.19107Z" fill-rule="nonzero"/><path fill="#000000" fill-opacity="0.0" clip-path="url(#id_0)" d="M653.04895 143.94221C653.04895 145.59908 651.70575 146.94221 650.04895 146.94221C648.3921 146.94221 647.04895 145.59908 647.04895 143.94221C647.04895 142.28537 648.3921 140.94221 650.04895 140.94221C651.70575 140.94221 653.04895 142.28537 653.04895 143.94221Z" fill-rule="nonzero"/><path fill="#000000" fill-opacity="0.0" clip-path="url(#id_0)" d="M665.78784 144.3585C665.78784 146.01535 664.44464 147.3585 662.78784 147.3585C661.131 147.3585 659.78784 146.01535 659.78784 144.3585C659.78784 142.70164 661.131 141.3585 662.78784 141.3585C664.44464 141.3585 665.78784 142.70164 665.78784 144.3585Z" fill-rule="nonzero"/><path fill="#000000" fill-opacity="0.0" clip-path="url(#id_0)" d="M678.1158 141.01535C678.1158 142.67221 676.77264 144.01535 675.1158 144.01535C673.4589 144.01535 672.1158 142.67221 672.1158 141.01535C672.1158 139.3585 673.4589 138.01535 675.1158 138.01535C676.77264 138.01535 678.1158 139.3585 678.1158 141.01535Z" fill-rule="nonzero"/><path fill="#000000" fill-opacity="0.0" clip-path="url(#id_0)" d="M690.8547 125.0013C690.8547 126.65815 689.51154 128.0013 687.8547 128.0013C686.1978 128.0013 684.8547 126.65815 684.8547 125.0013C684.8547 123.344444 686.1978 122.0013 687.8547 122.0013C689.51154 122.0013 690.8547 123.344444 690.8547 125.0013Z" fill-rule="nonzero"/><path fill="#000000" fill-opacity="0.0" clip-path="url(#id_0)" d="M703.1826 154.55746C703.1826 156.21431 701.8395 157.55746 700.1826 157.55746C698.52576 157.55746 697.1826 156.21431 697.1826 154.55746C697.1826 152.9006 698.52576 151.55746 700.1826 151.55746C701.8395 151.55746 703.1826 152.9006 703.1826 154.55746Z" fill-rule="nonzero"/><path fill="#000000" fill-opacity="0.0" clip-path="url(#id_0)" d="M715.9215 179.74265C715.9215 181.3995 714.57837 182.74265 712.9215 182.74265C711.26465 182.74265 709.9215 181.3995 709.9215 179.74265C709.9215 178.08578 711.26465 176.74265 712.9215 176.74265C714.57837 176.74265 715.9215 178.08578 715.9215 179.74265Z" fill-rule="nonzero"/><path fill="#000000" fill-opacity="0.0" clip-path="url(#id_0)" d="M728.6604 184.32176C728.6604 185.97862 727.31726 187.32176 725.6604 187.32176C724.00354 187.32176 722.6604 185.97862 722.6604 184.32176C722.6604 182.66492 724.00354 181.32176 725.6604 181.32176C727.31726 181.32176 728.6604 182.66492 728.6604 184.32176Z" fill-rule="nonzero"/><path fill="#000000" fill-opacity="0.0" clip-path="url(#id_0)" d="M740.5774 214.29422C740.5774 215.95107 739.23425 217.29422 737.5774 217.29422C735.9206 217.29422 734.5774 215.95107 734.5774 214.29422C734.5774 212.63736 735.9206 211.29422 737.5774 211.29422C739.23425 211.29422 740.5774 212.63736 740.5774 214.29422Z" fill-rule="nonzero"/><path fill="#000000" fill-opacity="0.0" clip-path="url(#id_0)" d="M753.3163 207.21739C753.3163 208.87424 751.97314 210.21739 750.3163 210.21739C748.6594 210.21739 747.3163 208.87424 747.3163 207.21739C747.3163 205.56053 748.6594 204.21739 750.3163 204.21739C751.97314 204.21739 753.3163 205.56053 753.3163 207.21739Z" fill-rule="nonzero"/><path fill="#000000" fill-opacity="0.0" clip-path="url(#id_0)" d="M765.6443 194.10445C765.6443 195.76129 764.30115 197.10445 762.6443 197.10445C760.9874 197.10445 759.6443 195.76129 759.6443 194.10445C759.6443 192.44759 760.9874 191.10445 762.6443 191.10445C764.30115 191.10445 765.6443 192.44759 765.6443 194.10445Z" fill-rule="nonzero"/><path fill="#000000" fill-opacity="0.0" clip-path="url(#id_0)" d="M778.3832 213.14407C778.3832 214.80093 777.04 216.14407 775.3832 216.14407C773.7263 216.14407 772.3832 214.80093 772.3832 213.14407C772.3832 211.48721 773.7263 210.14407 775.3832 210.14407C777.04 210.14407 778.3832 211.48721 778.3832 213.14407Z" fill-rule="nonzero"/><path fill="#000000" fill-opacity="0.0" clip-path="url(#id_0)" d="M790.7111 206.23305C790.7111 207.88991 789.368 209.23305 787.7111 209.23305C786.05426 209.23305 784.7111 207.88991 784.7111 206.23305C784.7111 204.5762 786.05426 203.23305 787.7111 203.23305C789.368 203.23305 790.7111 204.5762 790.7111 206.23305Z" fill-rule="nonzero"/><path fill="#000000" fill-opacity="0.0" clip-path="url(#id_0)" d="M803.45 204.3034C803.45 205.96025 802.1069 207.3034 800.45 207.3034C798.79315 207.3034 797.45 205.96025 797.45 204.3034C797.45 202.64655 798.79315 201.3034 800.45 201.3034C802.1069 201.3034 803.45 202.64655 803.45 204.3034Z" fill-rule="nonzero"/><path fill="#000000" d="M444.125 470.48126Q442.79688 472.79376 440.82812 474.34064L439.84375 473.075Q442.71875 470.96564 443.78125 466.96564L445.39062 467.3875Q445.67188 467.66876 445.1875 467.73126L444.625 469.1375L454.53125 469.1375L454.53125 470.48126L449.40625 470.48126L449.40625 472.8719L453.625 472.8719L453.625 474.2L449.40625 474.2L449.40625 477.3719L455.3125 477.3719L455.3125 478.7L449.40625 478.7L449.40625 482.9344L448.0 482.9344L448.0 478.7L439.90625 478.7L439.90625 477.3719L443.07812 477.3719L443.07812 472.8719L448.0 472.8719L448.0 470.48126L444.125 470.48126ZM444.48438 477.3719L448.0 477.3719L448.0 474.2L444.48438 474.2L444.48438 477.3719ZM469.23438 477.3719L462.54688 477.3719Q462.54688 480.3875 459.45312 483.075L458.26562 481.73126Q461.14062 479.90314 461.14062 476.2469L461.14062 467.66876L470.64062 467.66876L470.64062 481.52814Q470.64062 482.65314 469.4375 482.65314L467.75 482.65314L467.46875 481.09064L468.95312 481.09064Q469.23438 481.09064 469.23438 480.8094L469.23438 477.3719ZM462.54688 475.825L469.23438 475.825L469.23438 473.29376L462.54688 473.29376L462.54688 475.825ZM462.54688 471.7469L469.23438 471.7469L469.23438 469.21564L462.54688 469.21564L462.54688 471.7469Z" fill-rule="nonzero"/><path fill="#ff9900" d="M42.55001 266.8448L29.659388 266.8448L29.659388 265.12604L42.55001 265.12604L42.55001 266.8448ZM42.55001 263.14166L29.659388 263.14166L29.659388 261.39166L39.784386 254.62604L29.659388 254.62604L29.659388 253.00104L42.55001 253.00104L42.55001 254.73541L32.42501 261.51666L42.55001 261.51666L42.55001 263.14166ZM42.55001 250.12604L29.659388 250.12604L29.659388 245.26666Q29.659388 243.98541 29.784388 243.31354Q29.940638 242.36041 30.393763 241.71979Q30.831263 241.07916 31.643763 240.68854Q32.440636 240.29791 33.39376 240.29791Q35.034386 240.29791 36.17501 241.34479Q37.315636 242.39166 37.315636 245.11041L37.315636 248.42291L42.55001 248.42291L42.55001 250.12604ZM35.784386 248.42291L35.784386 245.09479Q35.784386 243.43854 35.17501 242.75104Q34.565636 242.04791 33.440636 242.04791Q32.628136 242.04791 32.065636 242.45416Q31.487513 242.86041 31.300013 243.53229Q31.190638 243.96979 31.190638 245.12604L31.190638 248.42291L35.784386 248.42291Z" fill-rule="nonzero"/><path fill="#ff9900" d="M94.3 407.59064Q94.3 405.3094 94.76875 403.91876Q95.2375 402.52814 96.15938 401.77814Q97.09688 401.0125 98.50313 401.0125Q99.53438 401.0125 100.31563 401.4344Q101.09688 401.84064 101.59688 402.6375Q102.1125 403.41876 102.40938 404.5594Q102.70625 405.6844 102.70625 407.59064Q102.70625 409.85626 102.2375 411.2625Q101.76875 412.65314 100.83125 413.41876Q99.90938 414.16876 98.50313 414.16876Q96.62813 414.16876 95.56563 412.84064Q94.3 411.23126 94.3 407.59064ZM95.925 407.59064Q95.925 410.7625 96.65938 411.825Q97.40938 412.8719 98.50313 412.8719Q99.58125 412.8719 100.33125 411.825Q101.08125 410.7625 101.08125 407.59064Q101.08125 404.41876 100.33125 403.3719Q99.58125 402.325 98.4875 402.325Q97.39375 402.325 96.7375 403.2469Q95.925 404.41876 95.925 407.59064Z" fill-rule="nonzero"/><path fill="#ff9900" d="M80.25313 332.35834L78.675 332.35834L78.675 322.2802Q78.09688 322.8271 77.175 323.37396Q76.25313 323.9052 75.50313 324.18646L75.50313 322.6552Q76.83125 322.0302 77.83125 321.1396Q78.83125 320.24896 79.2375 319.42084L80.25313 319.42084L80.25313 332.35834ZM84.3 325.99896Q84.3 323.7177 84.76875 322.3271Q85.2375 320.93646 86.15938 320.18646Q87.09688 319.42084 88.50313 319.42084Q89.53438 319.42084 90.31563 319.8427Q91.09688 320.24896 91.59688 321.04584Q92.1125 321.8271 92.40938 322.9677Q92.70625 324.0927 92.70625 325.99896Q92.70625 328.2646 92.2375 329.67084Q91.76875 331.06146 90.83125 331.8271Q89.90938 332.5771 88.50313 332.5771Q86.62813 332.5771 85.56563 331.24896Q84.3 329.6396 84.3 325.99896ZM85.925 325.99896Q85.925 329.17084 86.65938 330.23334Q87.40938 331.2802 88.50313 331.2802Q89.58125 331.2802 90.33125 330.23334Q91.08125 329.17084 91.08125 325.99896Q91.08125 322.8271 90.33125 321.7802Q89.58125 320.73334 88.4875 320.73334Q87.39375 320.73334 86.7375 321.6552Q85.925 322.8271 85.925 325.99896ZM94.3 325.99896Q94.3 323.7177 94.76875 322.3271Q95.2375 320.93646 96.15938 320.18646Q97.09688 319.42084 98.50313 319.42084Q99.53438 319.42084 100.31563 319.8427Q101.09688 320.24896 101.59688 321.04584Q102.1125 321.8271 102.40938 322.9677Q102.70625 324.0927 102.70625 325.99896Q102.70625 328.2646 102.2375 329.67084Q101.76875 331.06146 100.83125 331.8271Q99.90938 332.5771 98.50313 332.5771Q96.62813 332.5771 95.56563 331.24896Q94.3 329.6396 94.3 325.99896ZM95.925 325.99896Q95.925 329.17084 96.65938 330.23334Q97.40938 331.2802 98.50313 331.2802Q99.58125 331.2802 100.33125 330.23334Q101.08125 329.17084 101.08125 325.99896Q101.08125 322.8271 100.33125 321.7802Q99.58125 320.73334 98.4875 320.73334Q97.39375 320.73334 96.7375 321.6552Q95.925 322.8271 95.925 325.99896Z" fill-rule="nonzero"/><path fill="#ff9900" d="M82.6125 249.25104L82.6125 250.76666L74.09688 250.76666Q74.08125 250.18854 74.28438 249.67291Q74.6125 248.79791 75.31563 247.95416Q76.03438 247.11041 77.39375 246.00104Q79.4875 244.28229 80.22188 243.28229Q80.97188 242.26666 80.97188 241.37604Q80.97188 240.42291 80.3 239.78229Q79.62813 239.14166 78.55 239.14166Q77.39375 239.14166 76.70625 239.82916Q76.03438 240.51666 76.01875 241.71979L74.39375 241.54791Q74.56563 239.73541 75.64375 238.78229Q76.7375 237.82916 78.58125 237.82916Q80.425 237.82916 81.50313 238.86041Q82.59688 239.89166 82.59688 241.40729Q82.59688 242.17291 82.26875 242.92291Q81.95625 243.67291 81.22188 244.50104Q80.4875 245.32916 78.78438 246.76666Q77.3625 247.96979 76.95625 248.39166Q76.55 248.81354 76.3 249.25104L82.6125 249.25104ZM84.3 244.40729Q84.3 242.12604 84.76875 240.73541Q85.2375 239.34479 86.15938 238.59479Q87.09688 237.82916 88.50313 237.82916Q89.53438 237.82916 90.31563 238.25104Q91.09688 238.65729 91.59688 239.45416Q92.1125 240.23541 92.40938 241.37604Q92.70625 242.50104 92.70625 244.40729Q92.70625 246.67291 92.2375 248.07916Q91.76875 249.46979 90.83125 250.23541Q89.90938 250.98541 88.50313 250.98541Q86.62813 250.98541 85.56563 249.65729Q84.3 248.04791 84.3 244.40729ZM85.925 244.40729Q85.925 247.57916 86.65938 248.64166Q87.40938 249.68854 88.50313 249.68854Q89.58125 249.68854 90.33125 248.64166Q91.08125 247.57916 91.08125 244.40729Q91.08125 241.23541 90.33125 240.18854Q89.58125 239.14166 88.4875 239.14166Q87.39375 239.14166 86.7375 240.06354Q85.925 241.23541 85.925 244.40729ZM94.3 244.40729Q94.3 242.12604 94.76875 240.73541Q95.2375 239.34479 96.15938 238.59479Q97.09688 237.82916 98.50313 237.82916Q99.53438 237.82916 100.31563 238.25104Q101.09688 238.65729 101.59688 239.45416Q102.1125 240.23541 102.40938 241.37604Q102.70625 242.50104 102.70625 244.40729Q102.70625 246.67291 102.2375 248.07916Q101.76875 249.46979 100.83125 250.23541Q99.90938 250.98541 98.50313 250.98541Q96.62813 250.98541 95.56563 249.65729Q94.3 248.04791 94.3 244.40729ZM95.925 244.40729Q95.925 247.57916 96.65938 248.64166Q97.40938 249.68854 98.50313 249.68854Q99.58125 249.68854 100.33125 248.64166Q101.08125 247.57916 101.08125 244.40729Q101.08125 241.23541 100.33125 240.18854Q99.58125 239.14166 98.4875 239.14166Q97.39375 239.14166 96.7375 240.06354Q95.925 241.23541 95.925 244.40729Z" fill-rule="nonzero"/><path fill="#ff9900" d="M74.3 165.76875L75.89375 165.56563Q76.15938 166.90938 76.81563 167.50313Q77.47188 168.09688 78.40938 168.09688Q79.53438 168.09688 80.3 167.33125Q81.06563 166.55 81.06563 165.40938Q81.06563 164.31563 80.34688 163.6125Q79.64375 162.89375 78.55 162.89375Q78.09688 162.89375 77.425 163.08125L77.59688 161.69063Q77.75313 161.70625 77.8625 161.70625Q78.8625 161.70625 79.675 161.175Q80.4875 160.64375 80.4875 159.55Q80.4875 158.675 79.89375 158.1125Q79.3 157.53438 78.37813 157.53438Q77.45625 157.53438 76.83125 158.1125Q76.22188 158.69063 76.05 159.8625L74.47188 159.58125Q74.75313 157.9875 75.78438 157.1125Q76.81563 156.2375 78.34688 156.2375Q79.39375 156.2375 80.28438 156.69063Q81.175 157.14375 81.64375 157.925Q82.1125 158.70625 82.1125 159.58125Q82.1125 160.425 81.65938 161.1125Q81.22188 161.78438 80.33125 162.19063Q81.47188 162.45625 82.09688 163.3Q82.7375 164.12813 82.7375 165.3625Q82.7375 167.05 81.50313 168.2375Q80.28438 169.40938 78.40938 169.40938Q76.70625 169.40938 75.58125 168.39375Q74.47188 167.37813 74.3 165.76875ZM84.3 162.81563Q84.3 160.53438 84.76875 159.14375Q85.2375 157.75313 86.15938 157.00313Q87.09688 156.2375 88.50313 156.2375Q89.53438 156.2375 90.31563 156.65938Q91.09688 157.06563 91.59688 157.8625Q92.1125 158.64375 92.40938 159.78438Q92.70625 160.90938 92.70625 162.81563Q92.70625 165.08125 92.2375 166.4875Q91.76875 167.87813 90.83125 168.64375Q89.90938 169.39375 88.50313 169.39375Q86.62813 169.39375 85.56563 168.06563Q84.3 166.45625 84.3 162.81563ZM85.925 162.81563Q85.925 165.9875 86.65938 167.05Q87.40938 168.09688 88.50313 168.09688Q89.58125 168.09688 90.33125 167.05Q91.08125 165.9875 91.08125 162.81563Q91.08125 159.64375 90.33125 158.59688Q89.58125 157.55 88.4875 157.55Q87.39375 157.55 86.7375 158.47188Q85.925 159.64375 85.925 162.81563ZM94.3 162.81563Q94.3 160.53438 94.76875 159.14375Q95.2375 157.75313 96.15938 157.00313Q97.09688 156.2375 98.50313 156.2375Q99.53438 156.2375 100.31563 156.65938Q101.09688 157.06563 101.59688 157.8625Q102.1125 158.64375 102.40938 159.78438Q102.70625 160.90938 102.70625 162.81563Q102.70625 165.08125 102.2375 166.4875Q101.76875 167.87813 100.83125 168.64375Q99.90938 169.39375 98.50313 169.39375Q96.62813 169.39375 95.56563 168.06563Q94.3 166.45625 94.3 162.81563ZM95.925 162.81563Q95.925 165.9875 96.65938 167.05Q97.40938 168.09688 98.50313 168.09688Q99.58125 168.09688 100.33125 167.05Q101.08125 165.9875 101.08125 162.81563Q101.08125 159.64375 100.33125 158.59688Q99.58125 157.55 98.4875 157.55Q97.39375 157.55 96.7375 158.47188Q95.925 159.64375 95.925 162.81563Z" fill-rule="nonzero"/><path fill="#ff9900" d="M79.3625 87.583336L79.3625 84.50521L73.78438 84.50521L73.78438 83.052086L79.65938 74.69271L80.95625 74.69271L80.95625 83.052086L82.69063 83.052086L82.69063 84.50521L80.95625 84.50521L80.95625 87.583336L79.3625 87.583336ZM79.3625 83.052086L79.3625 77.239586L75.33125 83.052086L79.3625 83.052086ZM84.3 81.22396Q84.3 78.94271 84.76875 77.552086Q85.2375 76.16146 86.15938 75.41146Q87.09688 74.645836 88.50313 74.645836Q89.53438 74.645836 90.31563 75.06771Q91.09688 75.47396 91.59688 76.270836Q92.1125 77.052086 92.40938 78.19271Q92.70625 79.31771 92.70625 81.22396Q92.70625 83.489586 92.2375 84.895836Q91.76875 86.28646 90.83125 87.052086Q89.90938 87.802086 88.50313 87.802086Q86.62813 87.802086 85.56563 86.47396Q84.3 84.864586 84.3 81.22396ZM85.925 81.22396Q85.925 84.395836 86.65938 85.458336Q87.40938 86.50521 88.50313 86.50521Q89.58125 86.50521 90.33125 85.458336Q91.08125 84.395836 91.08125 81.22396Q91.08125 78.052086 90.33125 77.00521Q89.58125 75.958336 88.4875 75.958336Q87.39375 75.958336 86.7375 76.88021Q85.925 78.052086 85.925 81.22396ZM94.3 81.22396Q94.3 78.94271 94.76875 77.552086Q95.2375 76.16146 96.15938 75.41146Q97.09688 74.645836 98.50313 74.645836Q99.53438 74.645836 100.31563 75.06771Q101.09688 75.47396 101.59688 76.270836Q102.1125 77.052086 102.40938 78.19271Q102.70625 79.31771 102.70625 81.22396Q102.70625 83.489586 102.2375 84.895836Q101.76875 86.28646 100.83125 87.052086Q99.90938 87.802086 98.50313 87.802086Q96.62813 87.802086 95.56563 86.47396Q94.3 84.864586 94.3 81.22396ZM95.925 81.22396Q95.925 84.395836 96.65938 85.458336Q97.40938 86.50521 98.50313 86.50521Q99.58125 86.50521 100.33125 85.458336Q101.08125 84.395836 101.08125 81.22396Q101.08125 78.052086 100.33125 77.00521Q99.58125 75.958336 98.4875 75.958336Q97.39375 75.958336 96.7375 76.88021Q95.925 78.052086 95.925 81.22396Z" fill-rule="nonzero"/><path fill="#000000" d="M73.6125 431.9344L73.6125 433.45L65.09688 433.45Q65.08125 432.8719 65.28438 432.35626Q65.6125 431.48126 66.31563 430.6375Q67.03438 429.79376 68.39375 428.6844Q70.4875 426.96564 71.22188 425.96564Q71.97188 424.95 71.97188 424.0594Q71.97188 423.10626 71.3 422.46564Q70.62813 421.825 69.55 421.825Q68.39375 421.825 67.70625 422.5125Q67.03438 423.2 67.01875 424.40314L65.39375 424.23126Q65.56563 422.41876 66.64375 421.46564Q67.7375 420.5125 69.58125 420.5125Q71.425 420.5125 72.50313 421.54376Q73.59688 422.575 73.59688 424.09064Q73.59688 424.85626 73.26875 425.60626Q72.95625 426.35626 72.22188 427.1844Q71.4875 428.0125 69.78438 429.45Q68.3625 430.65314 67.95625 431.075Q67.55 431.4969 67.3 431.9344L73.6125 431.9344ZM75.3 427.09064Q75.3 424.8094 75.76875 423.41876Q76.2375 422.02814 77.15938 421.27814Q78.09688 420.5125 79.50313 420.5125Q80.53438 420.5125 81.31563 420.9344Q82.09688 421.34064 82.59688 422.1375Q83.1125 422.91876 83.40938 424.0594Q83.70625 425.1844 83.70625 427.09064Q83.70625 429.35626 83.2375 430.7625Q82.76875 432.15314 81.83125 432.91876Q80.90938 433.66876 79.50313 433.66876Q77.62813 433.66876 76.56563 432.34064Q75.3 430.73126 75.3 427.09064ZM76.925 427.09064Q76.925 430.2625 77.65938 431.325Q78.40938 432.3719 79.50313 432.3719Q80.58125 432.3719 81.33125 431.325Q82.08125 430.2625 82.08125 427.09064Q82.08125 423.91876 81.33125 422.8719Q80.58125 421.825 79.4875 421.825Q78.39375 421.825 77.7375 422.7469Q76.925 423.91876 76.925 427.09064ZM93.6125 431.9344L93.6125 433.45L85.09688 433.45Q85.08125 432.8719 85.28438 432.35626Q85.6125 431.48126 86.31563 430.6375Q87.03438 429.79376 88.39375 428.6844Q90.4875 426.96564 91.22188 425.96564Q91.97188 424.95 91.97188 424.0594Q91.97188 423.10626 91.3 422.46564Q90.62813 421.825 89.55 421.825Q88.39375 421.825 87.70625 422.5125Q87.03438 423.2 87.01875 424.40314L85.39375 424.23126Q85.56563 422.41876 86.64375 421.46564Q87.7375 420.5125 89.58125 420.5125Q91.425 420.5125 92.50313 421.54376Q93.59688 422.575 93.59688 424.09064Q93.59688 424.85626 93.26875 425.60626Q92.95625 426.35626 92.22188 427.1844Q91.4875 428.0125 89.78438 429.45Q88.3625 430.65314 87.95625 431.075Q87.55 431.4969 87.3 431.9344L93.6125 431.9344ZM95.3 427.09064Q95.3 424.8094 95.76875 423.41876Q96.2375 422.02814 97.15938 421.27814Q98.09688 420.5125 99.50313 420.5125Q100.53438 420.5125 101.31563 420.9344Q102.09688 421.34064 102.59688 422.1375Q103.1125 422.91876 103.40938 424.0594Q103.70625 425.1844 103.70625 427.09064Q103.70625 429.35626 103.2375 430.7625Q102.76875 432.15314 101.83125 432.91876Q100.90938 433.66876 99.50313 433.66876Q97.62813 433.66876 96.56563 432.34064Q95.3 430.73126 95.3 427.09064ZM96.925 427.09064Q96.925 430.2625 97.65938 431.325Q98.40938 432.3719 99.50313 432.3719Q100.58125 432.3719 101.33125 431.325Q102.08125 430.2625 102.08125 427.09064Q102.08125 423.91876 101.33125 422.8719Q100.58125 421.825 99.4875 421.825Q98.39375 421.825 97.7375 422.7469Q96.925 423.91876 96.925 427.09064Z" fill-rule="nonzero"/><path fill="#000000" d="M110.175 422.48126Q108.84688 424.79376 106.87813 426.34064L105.89375 425.075Q108.76875 422.96564 109.83125 418.96564L111.44063 419.3875Q111.72188 419.66876 111.2375 419.73126L110.675 421.1375L120.58125 421.1375L120.58125 422.48126L115.45625 422.48126L115.45625 424.8719L119.675 424.8719L119.675 426.2L115.45625 426.2L115.45625 429.3719L121.3625 429.3719L121.3625 430.7L115.45625 430.7L115.45625 434.9344L114.05 434.9344L114.05 430.7L105.95625 430.7L105.95625 429.3719L109.12813 429.3719L109.12813 424.8719L114.05 424.8719L114.05 422.48126L110.175 422.48126ZM110.53438 429.3719L114.05 429.3719L114.05 426.2L110.53438 426.2L110.53438 429.3719Z" fill-rule="nonzero"/><path fill="#000000" d="M123.3 427.09064Q123.3 424.8094 123.76875 423.41876Q124.2375 422.02814 125.15938 421.27814Q126.09688 420.5125 127.50313 420.5125Q128.53438 420.5125 129.31563 420.9344Q130.09688 421.34064 130.59688 422.1375Q131.1125 422.91876 131.40938 424.0594Q131.70625 425.1844 131.70625 427.09064Q131.70625 429.35626 131.2375 430.7625Q130.76875 432.15314 129.83125 432.91876Q128.90938 433.66876 127.50313 433.66876Q125.62813 433.66876 124.56563 432.34064Q123.3 430.73126 123.3 427.09064ZM124.925 427.09064Q124.925 430.2625 125.65938 431.325Q126.40938 432.3719 127.50313 432.3719Q128.58125 432.3719 129.33125 431.325Q130.08125 430.2625 130.08125 427.09064Q130.08125 423.91876 129.33125 422.8719Q128.58125 421.825 127.4875 421.825Q126.39375 421.825 125.7375 422.7469Q124.925 423.91876 124.925 427.09064ZM139.25313 433.45L137.675 433.45L137.675 423.3719Q137.09688 423.91876 136.175 424.46564Q135.25313 424.9969 134.50313 425.27814L134.50313 423.7469Q135.83125 423.1219 136.83125 422.23126Q137.83125 421.34064 138.2375 420.5125L139.25313 420.5125L139.25313 433.45Z" fill-rule="nonzero"/><path fill="#000000" d="M155.28438 429.3719L148.59688 429.3719Q148.59688 432.3875 145.50313 435.075L144.31563 433.73126Q147.19063 431.90314 147.19063 428.2469L147.19063 419.66876L156.69063 419.66876L156.69063 433.52814Q156.69063 434.65314 155.4875 434.65314L153.8 434.65314L153.51875 433.09064L155.00313 433.09064Q155.28438 433.09064 155.28438 432.8094L155.28438 429.3719ZM148.59688 427.825L155.28438 427.825L155.28438 425.29376L148.59688 425.29376L148.59688 427.825ZM148.59688 423.7469L155.28438 423.7469L155.28438 421.21564L148.59688 421.21564L148.59688 423.7469Z" fill-rule="nonzero"/><path fill="#000000" d="M224.01358 431.9344L224.01358 433.45L215.49796 433.45Q215.48233 432.8719 215.68546 432.35626Q216.01358 431.48126 216.7167 430.6375Q217.43546 429.79376 218.79483 428.6844Q220.88858 426.96564 221.62296 425.96564Q222.37296 424.95 222.37296 424.0594Q222.37296 423.10626 221.70108 422.46564Q221.0292 421.825 219.95108 421.825Q218.79483 421.825 218.10733 422.5125Q217.43546 423.2 217.41983 424.40314L215.79483 424.23126Q215.9667 422.41876 217.04483 421.46564Q218.13858 420.5125 219.98233 420.5125Q221.82608 420.5125 222.9042 421.54376Q223.99796 422.575 223.99796 424.09064Q223.99796 424.85626 223.66983 425.60626Q223.35733 426.35626 222.62296 427.1844Q221.88858 428.0125 220.18546 429.45Q218.76358 430.65314 218.35733 431.075Q217.95108 431.4969 217.70108 431.9344L224.01358 431.9344ZM225.70108 427.09064Q225.70108 424.8094 226.16983 423.41876Q226.63858 422.02814 227.56046 421.27814Q228.49796 420.5125 229.9042 420.5125Q230.93546 420.5125 231.7167 420.9344Q232.49796 421.34064 232.99796 422.1375Q233.51358 422.91876 233.81046 424.0594Q234.10733 425.1844 234.10733 427.09064Q234.10733 429.35626 233.63858 430.7625Q233.16983 432.15314 232.23233 432.91876Q231.31046 433.66876 229.9042 433.66876Q228.0292 433.66876 226.9667 432.34064Q225.70108 430.73126 225.70108 427.09064ZM227.32608 427.09064Q227.32608 430.2625 228.06046 431.325Q228.81046 432.3719 229.9042 432.3719Q230.98233 432.3719 231.73233 431.325Q232.48233 430.2625 232.48233 427.09064Q232.48233 423.91876 231.73233 422.8719Q230.98233 421.825 229.88858 421.825Q228.79483 421.825 228.13858 422.7469Q227.32608 423.91876 227.32608 427.09064ZM244.01358 431.9344L244.01358 433.45L235.49796 433.45Q235.48233 432.8719 235.68546 432.35626Q236.01358 431.48126 236.7167 430.6375Q237.43546 429.79376 238.79483 428.6844Q240.88858 426.96564 241.62296 425.96564Q242.37296 424.95 242.37296 424.0594Q242.37296 423.10626 241.70108 422.46564Q241.0292 421.825 239.95108 421.825Q238.79483 421.825 238.10733 422.5125Q237.43546 423.2 237.41983 424.40314L235.79483 424.23126Q235.9667 422.41876 237.04483 421.46564Q238.13858 420.5125 239.98233 420.5125Q241.82608 420.5125 242.9042 421.54376Q243.99796 422.575 243.99796 424.09064Q243.99796 424.85626 243.66983 425.60626Q243.35733 426.35626 242.62296 427.1844Q241.88858 428.0125 240.18546 429.45Q238.76358 430.65314 238.35733 431.075Q237.95108 431.4969 237.70108 431.9344L244.01358 431.9344ZM251.6542 433.45L250.07608 433.45L250.07608 423.3719Q249.49796 423.91876 248.57608 424.46564Q247.6542 424.9969 246.9042 425.27814L246.9042 423.7469Q248.23233 423.1219 249.23233 422.23126Q250.23233 421.34064 250.63858 420.5125L251.6542 420.5125L251.6542 433.45Z" fill-rule="nonzero"/><path fill="#000000" d="M260.57608 422.48126Q259.24796 424.79376 257.2792 426.34064L256.29483 425.075Q259.16983 422.96564 260.23233 418.96564L261.8417 419.3875Q262.12296 419.66876 261.63858 419.73126L261.07608 421.1375L270.98233 421.1375L270.98233 422.48126L265.85733 422.48126L265.85733 424.8719L270.07608 424.8719L270.07608 426.2L265.85733 426.2L265.85733 429.3719L271.76358 429.3719L271.76358 430.7L265.85733 430.7L265.85733 434.9344L264.45108 434.9344L264.45108 430.7L256.35733 430.7L256.35733 429.3719L259.5292 429.3719L259.5292 424.8719L264.45108 424.8719L264.45108 422.48126L260.57608 422.48126ZM260.93546 429.3719L264.45108 429.3719L264.45108 426.2L260.93546 426.2L260.93546 429.3719Z" fill-rule="nonzero"/><path fill="#000000" d="M273.70108 427.09064Q273.70108 424.8094 274.16983 423.41876Q274.63858 422.02814 275.56046 421.27814Q276.49796 420.5125 277.9042 420.5125Q278.93546 420.5125 279.7167 420.9344Q280.49796 421.34064 280.99796 422.1375Q281.51358 422.91876 281.81046 424.0594Q282.10733 425.1844 282.10733 427.09064Q282.10733 429.35626 281.63858 430.7625Q281.16983 432.15314 280.23233 432.91876Q279.31046 433.66876 277.9042 433.66876Q276.0292 433.66876 274.9667 432.34064Q273.70108 430.73126 273.70108 427.09064ZM275.32608 427.09064Q275.32608 430.2625 276.06046 431.325Q276.81046 432.3719 277.9042 432.3719Q278.98233 432.3719 279.73233 431.325Q280.48233 430.2625 280.48233 427.09064Q280.48233 423.91876 279.73233 422.8719Q278.98233 421.825 277.88858 421.825Q276.79483 421.825 276.13858 422.7469Q275.32608 423.91876 275.32608 427.09064ZM289.6542 433.45L288.07608 433.45L288.07608 423.3719Q287.49796 423.91876 286.57608 424.46564Q285.6542 424.9969 284.9042 425.27814L284.9042 423.7469Q286.23233 423.1219 287.23233 422.23126Q288.23233 421.34064 288.63858 420.5125L289.6542 420.5125L289.6542 433.45Z" fill-rule="nonzero"/><path fill="#000000" d="M305.68546 429.3719L298.99796 429.3719Q298.99796 432.3875 295.9042 435.075L294.7167 433.73126Q297.5917 431.90314 297.5917 428.2469L297.5917 419.66876L307.0917 419.66876L307.0917 433.52814Q307.0917 434.65314 305.88858 434.65314L304.20108 434.65314L303.91983 433.09064L305.4042 433.09064Q305.68546 433.09064 305.68546 432.8094L305.68546 429.3719ZM298.99796 427.825L305.68546 427.825L305.68546 425.29376L298.99796 425.29376L298.99796 427.825ZM298.99796 423.7469L305.68546 423.7469L305.68546 421.21564L298.99796 421.21564L298.99796 423.7469Z" fill-rule="nonzero"/><path fill="#000000" d="M374.00372 431.9344L374.00372 433.45L365.4881 433.45Q365.47247 432.8719 365.6756 432.35626Q366.00372 431.48126 366.70685 430.6375Q367.4256 429.79376 368.78497 428.6844Q370.87872 426.96564 371.6131 425.96564Q372.3631 424.95 372.3631 424.0594Q372.3631 423.10626 371.69122 422.46564Q371.01935 421.825 369.94122 421.825Q368.78497 421.825 368.09747 422.5125Q367.4256 423.2 367.40997 424.40314L365.78497 424.23126Q365.95685 422.41876 367.03497 421.46564Q368.12872 420.5125 369.97247 420.5125Q371.81622 420.5125 372.89435 421.54376Q373.9881 422.575 373.9881 424.09064Q373.9881 424.85626 373.65997 425.60626Q373.34747 426.35626 372.6131 427.1844Q371.87872 428.0125 370.1756 429.45Q368.75372 430.65314 368.34747 431.075Q367.94122 431.4969 367.69122 431.9344L374.00372 431.9344ZM375.69122 427.09064Q375.69122 424.8094 376.15997 423.41876Q376.62872 422.02814 377.5506 421.27814Q378.4881 420.5125 379.89435 420.5125Q380.9256 420.5125 381.70685 420.9344Q382.4881 421.34064 382.9881 422.1375Q383.50372 422.91876 383.8006 424.0594Q384.09747 425.1844 384.09747 427.09064Q384.09747 429.35626 383.62872 430.7625Q383.15997 432.15314 382.22247 432.91876Q381.3006 433.66876 379.89435 433.66876Q378.01935 433.66876 376.95685 432.34064Q375.69122 430.73126 375.69122 427.09064ZM377.31622 427.09064Q377.31622 430.2625 378.0506 431.325Q378.8006 432.3719 379.89435 432.3719Q380.97247 432.3719 381.72247 431.325Q382.47247 430.2625 382.47247 427.09064Q382.47247 423.91876 381.72247 422.8719Q380.97247 421.825 379.87872 421.825Q378.78497 421.825 378.12872 422.7469Q377.31622 423.91876 377.31622 427.09064ZM394.00372 431.9344L394.00372 433.45L385.4881 433.45Q385.47247 432.8719 385.6756 432.35626Q386.00372 431.48126 386.70685 430.6375Q387.4256 429.79376 388.78497 428.6844Q390.87872 426.96564 391.6131 425.96564Q392.3631 424.95 392.3631 424.0594Q392.3631 423.10626 391.69122 422.46564Q391.01935 421.825 389.94122 421.825Q388.78497 421.825 388.09747 422.5125Q387.4256 423.2 387.40997 424.40314L385.78497 424.23126Q385.95685 422.41876 387.03497 421.46564Q388.12872 420.5125 389.97247 420.5125Q391.81622 420.5125 392.89435 421.54376Q393.9881 422.575 393.9881 424.09064Q393.9881 424.85626 393.65997 425.60626Q393.34747 426.35626 392.6131 427.1844Q391.87872 428.0125 390.1756 429.45Q388.75372 430.65314 388.34747 431.075Q387.94122 431.4969 387.69122 431.9344L394.00372 431.9344ZM404.00372 431.9344L404.00372 433.45L395.4881 433.45Q395.47247 432.8719 395.6756 432.35626Q396.00372 431.48126 396.70685 430.6375Q397.4256 429.79376 398.78497 428.6844Q400.87872 426.96564 401.6131 425.96564Q402.3631 424.95 402.3631 424.0594Q402.3631 423.10626 401.69122 422.46564Q401.01935 421.825 399.94122 421.825Q398.78497 421.825 398.09747 422.5125Q397.4256 423.2 397.40997 424.40314L395.78497 424.23126Q395.95685 422.41876 397.03497 421.46564Q398.12872 420.5125 399.97247 420.5125Q401.81622 420.5125 402.89435 421.54376Q403.9881 422.575 403.9881 424.09064Q403.9881 424.85626 403.65997 425.60626Q403.34747 426.35626 402.6131 427.1844Q401.87872 428.0125 400.1756 429.45Q398.75372 430.65314 398.34747 431.075Q397.94122 431.4969 397.69122 431.9344L404.00372 431.9344Z" fill-rule="nonzero"/><path fill="#000000" d="M410.56622 422.48126Q409.2381 424.79376 407.26935 426.34064L406.28497 425.075Q409.15997 422.96564 410.22247 418.96564L411.83185 419.3875Q412.1131 419.66876 411.62872 419.73126L411.06622 421.1375L420.97247 421.1375L420.97247 422.48126L415.84747 422.48126L415.84747 424.8719L420.06622 424.8719L420.06622 426.2L415.84747 426.2L415.84747 429.3719L421.75372 429.3719L421.75372 430.7L415.84747 430.7L415.84747 434.9344L414.44122 434.9344L414.44122 430.7L406.34747 430.7L406.34747 429.3719L409.51935 429.3719L409.51935 424.8719L414.44122 424.8719L414.44122 422.48126L410.56622 422.48126ZM410.9256 429.3719L414.44122 429.3719L414.44122 426.2L410.9256 426.2L410.9256 429.3719Z" fill-rule="nonzero"/><path fill="#000000" d="M423.69122 427.09064Q423.69122 424.8094 424.15997 423.41876Q424.62872 422.02814 425.5506 421.27814Q426.4881 420.5125 427.89435 420.5125Q428.9256 420.5125 429.70685 420.9344Q430.4881 421.34064 430.9881 422.1375Q431.50372 422.91876 431.8006 424.0594Q432.09747 425.1844 432.09747 427.09064Q432.09747 429.35626 431.62872 430.7625Q431.15997 432.15314 430.22247 432.91876Q429.3006 433.66876 427.89435 433.66876Q426.01935 433.66876 424.95685 432.34064Q423.69122 430.73126 423.69122 427.09064ZM425.31622 427.09064Q425.31622 430.2625 426.0506 431.325Q426.8006 432.3719 427.89435 432.3719Q428.97247 432.3719 429.72247 431.325Q430.47247 430.2625 430.47247 427.09064Q430.47247 423.91876 429.72247 422.8719Q428.97247 421.825 427.87872 421.825Q426.78497 421.825 426.12872 422.7469Q425.31622 423.91876 425.31622 427.09064ZM439.64435 433.45L438.06622 433.45L438.06622 423.3719Q437.4881 423.91876 436.56622 424.46564Q435.64435 424.9969 434.89435 425.27814L434.89435 423.7469Q436.22247 423.1219 437.22247 422.23126Q438.22247 421.34064 438.62872 420.5125L439.64435 420.5125L439.64435 433.45Z" fill-rule="nonzero"/><path fill="#000000" d="M455.6756 429.3719L448.9881 429.3719Q448.9881 432.3875 445.89435 435.075L444.70685 433.73126Q447.58185 431.90314 447.58185 428.2469L447.58185 419.66876L457.08185 419.66876L457.08185 433.52814Q457.08185 434.65314 455.87872 434.65314L454.19122 434.65314L453.90997 433.09064L455.39435 433.09064Q455.6756 433.09064 455.6756 432.8094L455.6756 429.3719ZM448.9881 427.825L455.6756 427.825L455.6756 425.29376L448.9881 425.29376L448.9881 427.825ZM448.9881 423.7469L455.6756 423.7469L455.6756 421.21564L448.9881 421.21564L448.9881 423.7469Z" fill-rule="nonzero"/><path fill="#000000" d="M523.99384 431.9344L523.99384 433.45L515.4782 433.45Q515.4626 432.8719 515.6657 432.35626Q515.99384 431.48126 516.69696 430.6375Q517.4157 429.79376 518.7751 428.6844Q520.86884 426.96564 521.6032 425.96564Q522.3532 424.95 522.3532 424.0594Q522.3532 423.10626 521.68134 422.46564Q521.00946 421.825 519.93134 421.825Q518.7751 421.825 518.0876 422.5125Q517.4157 423.2 517.4001 424.40314L515.7751 424.23126Q515.94696 422.41876 517.0251 421.46564Q518.11884 420.5125 519.9626 420.5125Q521.80634 420.5125 522.88446 421.54376Q523.9782 422.575 523.9782 424.09064Q523.9782 424.85626 523.6501 425.60626Q523.3376 426.35626 522.6032 427.1844Q521.86884 428.0125 520.1657 429.45Q518.74384 430.65314 518.3376 431.075Q517.93134 431.4969 517.68134 431.9344L523.99384 431.9344ZM525.68134 427.09064Q525.68134 424.8094 526.1501 423.41876Q526.61884 422.02814 527.5407 421.27814Q528.4782 420.5125 529.88446 420.5125Q530.9157 420.5125 531.69696 420.9344Q532.4782 421.34064 532.9782 422.1375Q533.49384 422.91876 533.7907 424.0594Q534.0876 425.1844 534.0876 427.09064Q534.0876 429.35626 533.61884 430.7625Q533.1501 432.15314 532.2126 432.91876Q531.2907 433.66876 529.88446 433.66876Q528.00946 433.66876 526.94696 432.34064Q525.68134 430.73126 525.68134 427.09064ZM527.30634 427.09064Q527.30634 430.2625 528.0407 431.325Q528.7907 432.3719 529.88446 432.3719Q530.9626 432.3719 531.7126 431.325Q532.4626 430.2625 532.4626 427.09064Q532.4626 423.91876 531.7126 422.8719Q530.9626 421.825 529.86884 421.825Q528.7751 421.825 528.11884 422.7469Q527.30634 423.91876 527.30634 427.09064ZM543.99384 431.9344L543.99384 433.45L535.4782 433.45Q535.4626 432.8719 535.6657 432.35626Q535.99384 431.48126 536.69696 430.6375Q537.4157 429.79376 538.7751 428.6844Q540.86884 426.96564 541.6032 425.96564Q542.3532 424.95 542.3532 424.0594Q542.3532 423.10626 541.68134 422.46564Q541.00946 421.825 539.93134 421.825Q538.7751 421.825 538.0876 422.5125Q537.4157 423.2 537.4001 424.40314L535.7751 424.23126Q535.94696 422.41876 537.0251 421.46564Q538.11884 420.5125 539.9626 420.5125Q541.80634 420.5125 542.88446 421.54376Q543.9782 422.575 543.9782 424.09064Q543.9782 424.85626 543.6501 425.60626Q543.3376 426.35626 542.6032 427.1844Q541.86884 428.0125 540.1657 429.45Q538.74384 430.65314 538.3376 431.075Q537.93134 431.4969 537.68134 431.9344L543.99384 431.9344ZM545.68134 430.04376L547.2751 429.84064Q547.5407 431.1844 548.19696 431.77814Q548.8532 432.3719 549.7907 432.3719Q550.9157 432.3719 551.68134 431.60626Q552.44696 430.825 552.44696 429.6844Q552.44696 428.59064 551.7282 427.8875Q551.0251 427.16876 549.93134 427.16876Q549.4782 427.16876 548.80634 427.35626L548.9782 425.96564Q549.13446 425.98126 549.24384 425.98126Q550.24384 425.98126 551.05634 425.45Q551.86884 424.91876 551.86884 423.825Q551.86884 422.95 551.2751 422.3875Q550.68134 421.8094 549.75946 421.8094Q548.8376 421.8094 548.2126 422.3875Q547.6032 422.96564 547.43134 424.1375L545.8532 423.85626Q546.13446 422.2625 547.1657 421.3875Q548.19696 420.5125 549.7282 420.5125Q550.7751 420.5125 551.6657 420.96564Q552.55634 421.41876 553.0251 422.2Q553.49384 422.98126 553.49384 423.85626Q553.49384 424.7 553.0407 425.3875Q552.6032 426.0594 551.7126 426.46564Q552.8532 426.73126 553.4782 427.575Q554.11884 428.40314 554.11884 429.6375Q554.11884 431.325 552.88446 432.5125Q551.6657 433.6844 549.7907 433.6844Q548.0876 433.6844 546.9626 432.66876Q545.8532 431.65314 545.68134 430.04376Z" fill-rule="nonzero"/><path fill="#000000" d="M560.55634 422.48126Q559.2282 424.79376 557.25946 426.34064L556.2751 425.075Q559.1501 422.96564 560.2126 418.96564L561.82196 419.3875Q562.1032 419.66876 561.61884 419.73126L561.05634 421.1375L570.9626 421.1375L570.9626 422.48126L565.8376 422.48126L565.8376 424.8719L570.05634 424.8719L570.05634 426.2L565.8376 426.2L565.8376 429.3719L571.74384 429.3719L571.74384 430.7L565.8376 430.7L565.8376 434.9344L564.43134 434.9344L564.43134 430.7L556.3376 430.7L556.3376 429.3719L559.50946 429.3719L559.50946 424.8719L564.43134 424.8719L564.43134 422.48126L560.55634 422.48126ZM560.9157 429.3719L564.43134 429.3719L564.43134 426.2L560.9157 426.2L560.9157 429.3719Z" fill-rule="nonzero"/><path fill="#000000" d="M573.68134 427.09064Q573.68134 424.8094 574.1501 423.41876Q574.61884 422.02814 575.5407 421.27814Q576.4782 420.5125 577.88446 420.5125Q578.9157 420.5125 579.69696 420.9344Q580.4782 421.34064 580.9782 422.1375Q581.49384 422.91876 581.7907 424.0594Q582.0876 425.1844 582.0876 427.09064Q582.0876 429.35626 581.61884 430.7625Q581.1501 432.15314 580.2126 432.91876Q579.2907 433.66876 577.88446 433.66876Q576.00946 433.66876 574.94696 432.34064Q573.68134 430.73126 573.68134 427.09064ZM575.30634 427.09064Q575.30634 430.2625 576.0407 431.325Q576.7907 432.3719 577.88446 432.3719Q578.9626 432.3719 579.7126 431.325Q580.4626 430.2625 580.4626 427.09064Q580.4626 423.91876 579.7126 422.8719Q578.9626 421.825 577.86884 421.825Q576.7751 421.825 576.11884 422.7469Q575.30634 423.91876 575.30634 427.09064ZM589.63446 433.45L588.05634 433.45L588.05634 423.3719Q587.4782 423.91876 586.55634 424.46564Q585.63446 424.9969 584.88446 425.27814L584.88446 423.7469Q586.2126 423.1219 587.2126 422.23126Q588.2126 421.34064 588.61884 420.5125L589.63446 420.5125L589.63446 433.45Z" fill-rule="nonzero"/><path fill="#000000" d="M605.6657 429.3719L598.9782 429.3719Q598.9782 432.3875 595.88446 435.075L594.69696 433.73126Q597.57196 431.90314 597.57196 428.2469L597.57196 419.66876L607.07196 419.66876L607.07196 433.52814Q607.07196 434.65314 605.86884 434.65314L604.18134 434.65314L603.9001 433.09064L605.38446 433.09064Q605.6657 433.09064 605.6657 432.8094L605.6657 429.3719ZM598.9782 427.825L605.6657 427.825L605.6657 425.29376L598.9782 425.29376L598.9782 427.825ZM598.9782 423.7469L605.6657 423.7469L605.6657 421.21564L598.9782 421.21564L598.9782 423.7469Z" fill-rule="nonzero"/><path fill="#000000" d="M673.984 431.9344L673.984 433.45L665.4684 433.45Q665.45276 432.8719 665.6559 432.35626Q665.984 431.48126 666.68713 430.6375Q667.4059 429.79376 668.76526 428.6844Q670.859 426.96564 671.5934 425.96564Q672.3434 424.95 672.3434 424.0594Q672.3434 423.10626 671.6715 422.46564Q670.99963 421.825 669.9215 421.825Q668.76526 421.825 668.07776 422.5125Q667.4059 423.2 667.39026 424.40314L665.76526 424.23126Q665.93713 422.41876 667.01526 421.46564Q668.109 420.5125 669.95276 420.5125Q671.7965 420.5125 672.87463 421.54376Q673.9684 422.575 673.9684 424.09064Q673.9684 424.85626 673.64026 425.60626Q673.32776 426.35626 672.5934 427.1844Q671.859 428.0125 670.1559 429.45Q668.734 430.65314 668.32776 431.075Q667.9215 431.4969 667.6715 431.9344L673.984 431.9344ZM675.6715 427.09064Q675.6715 424.8094 676.14026 423.41876Q676.609 422.02814 677.5309 421.27814Q678.4684 420.5125 679.87463 420.5125Q680.9059 420.5125 681.68713 420.9344Q682.4684 421.34064 682.9684 422.1375Q683.484 422.91876 683.7809 424.0594Q684.07776 425.1844 684.07776 427.09064Q684.07776 429.35626 683.609 430.7625Q683.14026 432.15314 682.20276 432.91876Q681.2809 433.66876 679.87463 433.66876Q677.99963 433.66876 676.93713 432.34064Q675.6715 430.73126 675.6715 427.09064ZM677.2965 427.09064Q677.2965 430.2625 678.0309 431.325Q678.7809 432.3719 679.87463 432.3719Q680.95276 432.3719 681.70276 431.325Q682.45276 430.2625 682.45276 427.09064Q682.45276 423.91876 681.70276 422.8719Q680.95276 421.825 679.859 421.825Q678.76526 421.825 678.109 422.7469Q677.2965 423.91876 677.2965 427.09064ZM693.984 431.9344L693.984 433.45L685.4684 433.45Q685.45276 432.8719 685.6559 432.35626Q685.984 431.48126 686.68713 430.6375Q687.4059 429.79376 688.76526 428.6844Q690.859 426.96564 691.5934 425.96564Q692.3434 424.95 692.3434 424.0594Q692.3434 423.10626 691.6715 422.46564Q690.99963 421.825 689.9215 421.825Q688.76526 421.825 688.07776 422.5125Q687.4059 423.2 687.39026 424.40314L685.76526 424.23126Q685.93713 422.41876 687.01526 421.46564Q688.109 420.5125 689.95276 420.5125Q691.7965 420.5125 692.87463 421.54376Q693.9684 422.575 693.9684 424.09064Q693.9684 424.85626 693.64026 425.60626Q693.32776 426.35626 692.5934 427.1844Q691.859 428.0125 690.1559 429.45Q688.734 430.65314 688.32776 431.075Q687.9215 431.4969 687.6715 431.9344L693.984 431.9344ZM700.734 433.45L700.734 430.3719L695.1559 430.3719L695.1559 428.91876L701.0309 420.5594L702.32776 420.5594L702.32776 428.91876L704.06213 428.91876L704.06213 430.3719L702.32776 430.3719L702.32776 433.45L700.734 433.45ZM700.734 428.91876L700.734 423.10626L696.70276 428.91876L700.734 428.91876Z" fill-rule="nonzero"/><path fill="#000000" d="M710.5465 422.48126Q709.2184 424.79376 707.24963 426.34064L706.26526 425.075Q709.14026 422.96564 710.20276 418.96564L711.81213 419.3875Q712.0934 419.66876 711.609 419.73126L711.0465 421.1375L720.95276 421.1375L720.95276 422.48126L715.82776 422.48126L715.82776 424.8719L720.0465 424.8719L720.0465 426.2L715.82776 426.2L715.82776 429.3719L721.734 429.3719L721.734 430.7L715.82776 430.7L715.82776 434.9344L714.4215 434.9344L714.4215 430.7L706.32776 430.7L706.32776 429.3719L709.49963 429.3719L709.49963 424.8719L714.4215 424.8719L714.4215 422.48126L710.5465 422.48126ZM710.9059 429.3719L714.4215 429.3719L714.4215 426.2L710.9059 426.2L710.9059 429.3719Z" fill-rule="nonzero"/><path fill="#000000" d="M723.6715 427.09064Q723.6715 424.8094 724.14026 423.41876Q724.609 422.02814 725.5309 421.27814Q726.4684 420.5125 727.87463 420.5125Q728.9059 420.5125 729.68713 420.9344Q730.4684 421.34064 730.9684 422.1375Q731.484 422.91876 731.7809 424.0594Q732.07776 425.1844 732.07776 427.09064Q732.07776 429.35626 731.609 430.7625Q731.14026 432.15314 730.20276 432.91876Q729.2809 433.66876 727.87463 433.66876Q725.99963 433.66876 724.93713 432.34064Q723.6715 430.73126 723.6715 427.09064ZM725.2965 427.09064Q725.2965 430.2625 726.0309 431.325Q726.7809 432.3719 727.87463 432.3719Q728.95276 432.3719 729.70276 431.325Q730.45276 430.2625 730.45276 427.09064Q730.45276 423.91876 729.70276 422.8719Q728.95276 421.825 727.859 421.825Q726.76526 421.825 726.109 422.7469Q725.2965 423.91876 725.2965 427.09064ZM739.62463 433.45L738.0465 433.45L738.0465 423.3719Q737.4684 423.91876 736.5465 424.46564Q735.62463 424.9969 734.87463 425.27814L734.87463 423.7469Q736.20276 423.1219 737.20276 422.23126Q738.20276 421.34064 738.609 420.5125L739.62463 420.5125L739.62463 433.45Z" fill-rule="nonzero"/><path fill="#000000" d="M755.6559 429.3719L748.9684 429.3719Q748.9684 432.3875 745.87463 435.075L744.68713 433.73126Q747.56213 431.90314 747.56213 428.2469L747.56213 419.66876L757.06213 419.66876L757.06213 433.52814Q757.06213 434.65314 755.859 434.65314L754.1715 434.65314L753.89026 433.09064L755.37463 433.09064Q755.6559 433.09064 755.6559 432.8094L755.6559 429.3719ZM748.9684 427.825L755.6559 427.825L755.6559 425.29376L748.9684 425.29376L748.9684 427.825ZM748.9684 423.7469L755.6559 423.7469L755.6559 421.21564L748.9684 421.21564L748.9684 423.7469Z" fill-rule="nonzero"/><path fill="#757575" d="M99.265625 44.4875L99.265625 47.55L87.71875 47.55Q87.90625 45.815624 88.84375 44.26875Q89.78125 42.70625 92.546875 40.14375Q94.78125 38.065624 95.28125 37.33125Q95.96875 36.315624 95.96875 35.315624Q95.96875 34.20625 95.375 33.628124Q94.78125 33.034374 93.734375 33.034374Q92.703125 33.034374 92.09375 33.659374Q91.484375 34.26875 91.390625 35.70625L88.109375 35.378124Q88.40625 32.659374 89.953125 31.4875Q91.5 30.3 93.8125 30.3Q96.359375 30.3 97.8125 31.675Q99.265625 33.034374 99.265625 35.08125Q99.265625 36.2375 98.84375 37.284374Q98.4375 38.33125 97.53125 39.4875Q96.9375 40.253124 95.375 41.690624Q93.8125 43.1125 93.390625 43.58125Q92.984375 44.05 92.734375 44.4875L99.265625 44.4875ZM106.71875 30.3Q109.203125 30.3 110.609375 32.08125Q112.296875 34.190624 112.296875 39.08125Q112.296875 43.95625 110.609375 46.08125Q109.203125 47.846874 106.71875 47.846874Q104.203125 47.846874 102.671875 45.925Q101.140625 43.9875 101.140625 39.034374Q101.140625 34.190624 102.828125 32.05Q104.21875 30.3 106.71875 30.3ZM106.71875 33.034374Q106.109375 33.034374 105.640625 33.409374Q105.171875 33.784374 104.921875 34.76875Q104.578125 36.05 104.578125 39.08125Q104.578125 42.096874 104.875 43.2375Q105.1875 44.3625 105.640625 44.7375Q106.109375 45.1125 106.71875 45.1125Q107.3125 45.1125 107.78125 44.7375Q108.25 44.346874 108.5 43.3625Q108.84375 42.096874 108.84375 39.08125Q108.84375 36.05 108.53125 34.925Q108.234375 33.784374 107.765625 33.409374Q107.3125 33.034374 106.71875 33.034374ZM125.265625 44.4875L125.265625 47.55L113.71875 47.55Q113.90625 45.815624 114.84375 44.26875Q115.78125 42.70625 118.546875 40.14375Q120.78125 38.065624 121.28125 37.33125Q121.96875 36.315624 121.96875 35.315624Q121.96875 34.20625 121.375 33.628124Q120.78125 33.034374 119.734375 33.034374Q118.703125 33.034374 118.09375 33.659374Q117.484375 34.26875 117.390625 35.70625L114.109375 35.378124Q114.40625 32.659374 115.953125 31.4875Q117.5 30.3 119.8125 30.3Q122.359375 30.3 123.8125 31.675Q125.265625 33.034374 125.265625 35.08125Q125.265625 36.2375 124.84375 37.284374Q124.4375 38.33125 123.53125 39.4875Q122.9375 40.253124 121.375 41.690624Q119.8125 43.1125 119.390625 43.58125Q118.984375 44.05 118.734375 44.4875L125.265625 44.4875ZM127.03125 42.9875L130.21875 42.596874Q130.375 43.815624 131.03125 44.471874Q131.70312 45.1125 132.65625 45.1125Q133.67188 45.1125 134.35938 44.346874Q135.0625 43.565624 135.0625 42.253124Q135.0625 41.003124 134.39062 40.284374Q133.73438 39.55 132.76562 39.55Q132.14062 39.55 131.26562 39.8L131.625 37.1125Q132.95312 37.159374 133.65625 36.55Q134.35938 35.925 134.35938 34.909374Q134.35938 34.034374 133.84375 33.51875Q133.32812 33.003124 132.48438 33.003124Q131.64062 33.003124 131.03125 33.596874Q130.4375 34.175 130.3125 35.3L127.28125 34.784374Q127.59375 33.221874 128.23438 32.3Q128.875 31.3625 130.01562 30.83125Q131.15625 30.3 132.57812 30.3Q135.0 30.3 136.46875 31.846874Q137.67188 33.1125 137.67188 34.70625Q137.67188 36.971874 135.20312 38.315624Q136.67188 38.628124 137.54688 39.7375Q138.4375 40.83125 138.4375 42.39375Q138.4375 44.659374 136.78125 46.253124Q135.14062 47.846874 132.67188 47.846874Q130.34375 47.846874 128.8125 46.503124Q127.28125 45.159374 127.03125 42.9875Z" fill-rule="nonzero"/><path fill="#757575" d="M147.21875 32.925Q145.5 35.89375 142.53125 38.2375L140.75 35.940624Q144.79688 32.9875 146.26562 27.409374L148.875 28.08125Q149.85938 29.065624 148.67188 29.2375L148.20312 30.39375L161.25 30.39375L161.25 32.925L154.40625 32.925L154.40625 35.3625L160.03125 35.3625L160.03125 37.89375L154.40625 37.89375L154.40625 41.3625L162.28125 41.3625L162.28125 43.89375L154.40625 43.89375L154.40625 49.51875L151.78125 49.51875L151.78125 43.89375L141.0 43.89375L141.0 41.3625L145.21875 41.3625L145.21875 35.3625L151.78125 35.3625L151.78125 32.925L147.21875 32.925ZM147.84375 41.3625L151.78125 41.3625L151.78125 37.89375L147.84375 37.89375L147.84375 41.3625ZM174.46875 42.39375Q174.46875 48.440624 166.125 49.45625L165.46875 46.753124Q171.84375 46.175 171.84375 42.3L171.84375 39.20625L174.03125 39.20625Q175.90625 39.58125 174.46875 40.534374L174.46875 42.39375ZM186.28125 29.45625L186.28125 31.9875L177.5625 31.9875L177.5625 33.20625L184.5 33.20625L184.5 35.7375L167.71875 35.7375L167.71875 33.20625L174.65625 33.20625L174.65625 31.9875L165.9375 31.9875L165.9375 29.45625L174.65625 29.45625L174.65625 27.20625L177.125 27.20625Q179.0 27.58125 177.5625 28.534374L177.5625 29.45625L186.28125 29.45625ZM168.75 41.55L165.84375 41.55L165.84375 36.4875L186.375 36.4875L186.375 41.55L183.46875 41.55L183.46875 39.01875L168.75 39.01875L168.75 41.55ZM180.0 46.2375Q180.0 46.51875 180.1875 46.51875L183.84375 46.51875Q184.32812 46.51875 184.42188 44.128124L187.04688 45.034374Q186.82812 49.05 184.59375 49.05L179.4375 49.05Q177.375 49.05 177.375 46.9875L177.375 39.20625L179.5625 39.20625Q181.4375 39.58125 180.0 40.534374L180.0 46.2375ZM198.65625 44.83125L198.65625 28.2375L201.125 28.2375Q203.0 28.6125 201.5625 29.565624L201.5625 34.425L209.15625 34.425L209.15625 37.2375L201.5625 37.2375L201.5625 44.83125L211.3125 44.83125L211.3125 47.64375L190.21875 47.64375L190.21875 44.83125L198.65625 44.83125Z" fill-rule="nonzero"/><path fill="#757575" d="M218.98438 47.55L218.98438 33.26875L213.89062 33.26875L213.89062 30.3625L227.54688 30.3625L227.54688 33.26875L222.45312 33.26875L222.45312 47.55L218.98438 47.55ZM229.42188 39.065624Q229.42188 36.440624 230.20312 34.659374Q230.79688 33.346874 231.79688 32.3Q232.8125 31.253124 234.03125 30.753124Q235.625 30.08125 237.73438 30.08125Q241.53125 30.08125 243.79688 32.440624Q246.07812 34.784374 246.07812 38.9875Q246.07812 43.14375 243.8125 45.503124Q241.5625 47.846874 237.78125 47.846874Q233.9375 47.846874 231.67188 45.503124Q229.42188 43.159374 229.42188 39.065624ZM233.0 38.940624Q233.0 41.8625 234.34375 43.378124Q235.6875 44.878124 237.76562 44.878124Q239.84375 44.878124 241.17188 43.39375Q242.5 41.89375 242.5 38.89375Q242.5 35.940624 241.20312 34.4875Q239.90625 33.034374 237.76562 33.034374Q235.625 33.034374 234.3125 34.51875Q233.0 35.9875 233.0 38.940624ZM248.125 47.55L248.125 30.3625L253.6875 30.3625Q256.85938 30.3625 257.8125 30.628124Q259.29688 31.01875 260.28125 32.315624Q261.28125 33.596874 261.28125 35.659374Q261.28125 37.2375 260.70312 38.315624Q260.14062 39.39375 259.25 40.01875Q258.35938 40.628124 257.45312 40.815624Q256.20312 41.065624 253.85938 41.065624L251.59375 41.065624L251.59375 47.55L248.125 47.55ZM251.59375 33.26875L251.59375 38.14375L253.48438 38.14375Q255.54688 38.14375 256.23438 37.878124Q256.92188 37.6125 257.3125 37.034374Q257.70312 36.45625 257.70312 35.70625Q257.70312 34.76875 257.15625 34.159374Q256.60938 33.55 255.76562 33.39375Q255.14062 33.26875 253.26562 33.26875L251.59375 33.26875ZM271.82812 47.55L268.53125 47.55L268.53125 35.14375Q266.71875 36.83125 264.28125 37.628124L264.28125 34.64375Q265.5625 34.221874 267.07812 33.05Q268.59375 31.8625 269.15625 30.3L271.82812 30.3L271.82812 47.55ZM281.96875 30.3Q284.45312 30.3 285.85938 32.08125Q287.54688 34.190624 287.54688 39.08125Q287.54688 43.95625 285.85938 46.08125Q284.45312 47.846874 281.96875 47.846874Q279.45312 47.846874 277.92188 45.925Q276.39062 43.9875 276.39062 39.034374Q276.39062 34.190624 278.07812 32.05Q279.46875 30.3 281.96875 30.3ZM281.96875 33.034374Q281.35938 33.034374 280.89062 33.409374Q280.42188 33.784374 280.17188 34.76875Q279.82812 36.05 279.82812 39.08125Q279.82812 42.096874 280.125 43.2375Q280.4375 44.3625 280.89062 44.7375Q281.35938 45.1125 281.96875 45.1125Q282.5625 45.1125 283.03125 44.7375Q283.5 44.346874 283.75 43.3625Q284.09375 42.096874 284.09375 39.08125Q284.09375 36.05 283.78125 34.925Q283.48438 33.784374 283.01562 33.409374Q282.5625 33.034374 281.96875 33.034374ZM294.96875 30.3Q297.45312 30.3 298.85938 32.08125Q300.54688 34.190624 300.54688 39.08125Q300.54688 43.95625 298.85938 46.08125Q297.45312 47.846874 294.96875 47.846874Q292.45312 47.846874 290.92188 45.925Q289.39062 43.9875 289.39062 39.034374Q289.39062 34.190624 291.07812 32.05Q292.46875 30.3 294.96875 30.3ZM294.96875 33.034374Q294.35938 33.034374 293.89062 33.409374Q293.42188 33.784374 293.17188 34.76875Q292.82812 36.05 292.82812 39.08125Q292.82812 42.096874 293.125 43.2375Q293.4375 44.3625 293.89062 44.7375Q294.35938 45.1125 294.96875 45.1125Q295.5625 45.1125 296.03125 44.7375Q296.5 44.346874 296.75 43.3625Q297.09375 42.096874 297.09375 39.08125Q297.09375 36.05 296.78125 34.925Q296.48438 33.784374 296.01562 33.409374Q295.5625 33.034374 294.96875 33.034374Z" fill-rule="nonzero"/><path fill="#757575" d="M312.53125 49.2375Q309.48438 49.2375 307.21875 47.159374Q306.29688 48.221874 303.5 49.784374L302.5 46.628124Q303.84375 46.26875 305.78125 45.003124L305.78125 39.4875L302.875 39.4875L302.875 36.95625L308.40625 36.95625L308.40625 44.940624Q310.04688 46.425 312.90625 46.425L324.98438 46.425L324.46875 49.2375L312.53125 49.2375ZM313.73438 30.26875Q316.3125 30.878124 316.79688 31.096874L317.48438 30.58125L309.625 30.58125L309.625 28.05L320.57812 28.05L321.17188 27.690624L322.79688 28.878124Q324.0625 29.940624 322.21875 30.096874L319.20312 32.1125L320.29688 32.628124L319.4375 33.4875L323.125 33.4875L323.125 44.55Q323.125 46.2375 321.4375 46.2375L319.01562 46.2375L318.89062 43.70625L320.5 43.70625Q320.5 43.70625 320.5 43.70625L320.5 42.3L317.6875 42.3L317.6875 45.95625L315.0625 45.95625L315.0625 42.3L312.4375 42.3L312.4375 46.33125L309.8125 46.33125L309.8125 33.4875L315.20312 33.4875Q313.07812 32.628124 311.70312 32.284374L313.73438 30.26875ZM317.6875 35.7375L317.6875 36.76875L320.5 36.76875L320.5 35.7375L317.6875 35.7375ZM312.4375 35.7375L312.4375 36.76875L315.0625 36.76875L315.0625 35.7375L312.4375 35.7375ZM315.0625 39.01875L312.4375 39.01875L312.4375 40.05L315.0625 40.05L315.0625 39.01875ZM320.5 39.01875L317.6875 39.01875L317.6875 40.05L320.5 40.05L320.5 39.01875ZM305.51562 27.7375Q308.39062 29.565624 309.53125 31.378124L307.4375 33.596874Q305.70312 31.409374 303.75 29.89375L305.51562 27.7375ZM342.85938 36.76875Q343.17188 39.753124 343.875 41.20625Q344.625 39.909374 345.42188 36.76875L342.85938 36.76875ZM337.70312 47.33125Q340.96875 45.3 342.26562 43.675Q340.75 41.190624 340.48438 36.76875L340.09375 36.76875L340.09375 40.05Q340.09375 46.425 335.89062 49.471874L334.23438 47.3Q337.46875 44.7375 337.46875 40.05L337.46875 28.14375L349.09375 28.14375L349.09375 30.675L340.09375 30.675L340.09375 34.2375L346.03125 34.2375L346.51562 33.753124L348.40625 35.08125Q349.32812 36.003124 348.1875 36.159374Q347.01562 41.221874 345.53125 43.659374Q346.70312 45.003124 349.95312 46.628124L348.71875 49.3625Q345.57812 47.95625 343.84375 45.89375Q342.03125 48.128124 339.21875 49.7375L337.70312 47.33125ZM334.07812 43.034374Q335.5 44.096874 336.35938 45.471874L334.46875 47.096874Q333.89062 46.096874 332.32812 44.534374L334.07812 43.034374ZM332.07812 44.1125Q333.5625 44.70625 332.03125 45.14375Q330.75 48.14375 329.15625 49.7375L327.1875 48.284374Q329.17188 45.690624 330.03125 43.190624L332.07812 44.1125ZM336.4375 43.425L328.5625 43.425L328.5625 28.33125L336.4375 28.33125L336.4375 43.425ZM330.90625 30.58125L330.90625 32.55L334.09375 32.55L334.09375 30.58125L330.90625 30.58125ZM330.90625 34.8L330.90625 36.76875L334.09375 36.76875L334.09375 34.8L330.90625 34.8ZM330.90625 39.01875L330.90625 41.175L334.09375 41.175L334.09375 39.01875L330.90625 39.01875ZM368.59375 34.33125L374.125 34.33125L374.125 37.14375L368.6875 37.14375L368.6875 38.55Q368.6875 45.83125 360.79688 49.034374L358.75 46.721874Q365.78125 44.378124 365.78125 38.7375L365.78125 37.14375L360.34375 37.14375L360.4375 41.925L357.625 41.925L357.53125 37.14375L352.28125 37.14375L352.28125 34.33125L357.53125 34.33125L357.4375 29.3625L359.79688 29.3625Q361.54688 29.534374 360.25 30.83125L360.32812 34.33125L365.6875 34.33125L365.6875 28.6125L368.14062 28.6125Q369.89062 28.784374 368.59375 30.08125L368.59375 34.33125ZM376.78125 40.190624Q387.0 35.909374 392.23438 28.14375L394.32812 29.909374Q395.73438 30.971874 393.65625 31.39375Q391.9375 33.659374 389.21875 36.003124L389.21875 48.95625L386.3125 48.95625L386.3125 38.378124Q383.60938 40.471874 378.90625 42.675L376.78125 40.190624ZM402.28125 35.64375Q406.64062 36.878124 411.70312 39.315624L410.21875 42.14375Q404.95312 39.471874 402.28125 38.753124L402.28125 48.39375L399.375 48.39375L399.375 28.89375L401.64062 28.89375Q403.73438 29.065624 402.28125 30.20625L402.28125 35.64375Z" fill-rule="nonzero"/><path fill="#757575" d="M433.57812 38.565624Q437.34375 41.45625 441.57812 45.8L439.125 47.878124Q434.96875 43.51875 431.60938 40.925Q428.15625 44.64375 423.1875 47.925L420.82812 45.815624Q431.07812 39.14375 433.59375 33.33125L423.64062 33.971874L423.26562 30.971874L434.51562 30.4875L435.79688 30.159374L437.45312 31.815624Q438.60938 32.971874 437.04688 33.26875Q435.34375 36.221874 433.57812 38.565624ZM456.32812 42.096874Q458.04688 43.721874 459.53125 45.425L457.09375 47.6125Q453.29688 43.14375 448.4375 39.565624L450.1875 37.3Q452.1875 38.534374 454.01562 40.190624Q456.5625 37.64375 459.0 34.175L444.71875 34.815624L444.21875 31.721874L461.0 31.33125L462.10938 31.003124L463.70312 32.690624Q464.60938 34.128124 463.20312 33.971874Q460.98438 36.909374 456.32812 42.096874ZM472.92188 39.721874Q471.57812 42.659374 469.21875 46.3625L466.48438 44.8625Q469.04688 41.175 470.78125 37.08125L473.25 38.425Q474.4375 39.425 472.92188 39.721874ZM475.46875 27.95625L477.84375 27.95625Q479.82812 28.315624 478.375 29.284374L478.375 33.20625L487.0 33.20625L487.0 36.01875L478.375 36.01875L478.375 49.05L475.46875 49.05L475.46875 36.01875L467.03125 36.01875L467.03125 33.20625L475.46875 33.20625L475.46875 27.95625ZM485.375 46.128124Q483.23438 42.33125 480.17188 39.08125L482.53125 37.096874Q486.17188 40.95625 488.0625 44.284374L485.375 46.128124Z" fill-rule="nonzero"/><path fill="#757575" d="M497.01562 47.55L497.01562 30.3625L500.48438 30.3625L500.48438 47.55L497.01562 47.55ZM504.15625 47.55L504.15625 30.3625L507.53125 30.3625L514.5625 41.846874L514.5625 30.3625L517.78125 30.3625L517.78125 47.55L514.3125 47.55L507.375 36.346874L507.375 47.55L504.15625 47.55ZM521.125 47.55L521.125 30.3625L526.6875 30.3625Q529.8594 30.3625 530.8125 30.628124Q532.2969 31.01875 533.28125 32.315624Q534.28125 33.596874 534.28125 35.659374Q534.28125 37.2375 533.7031 38.315624Q533.1406 39.39375 532.25 40.01875Q531.3594 40.628124 530.4531 40.815624Q529.2031 41.065624 526.8594 41.065624L524.59375 41.065624L524.59375 47.55L521.125 47.55ZM524.59375 33.26875L524.59375 38.14375L526.4844 38.14375Q528.5469 38.14375 529.2344 37.878124Q529.9219 37.6125 530.3125 37.034374Q530.7031 36.45625 530.7031 35.70625Q530.7031 34.76875 530.15625 34.159374Q529.6094 33.55 528.7656 33.39375Q528.1406 33.26875 526.2656 33.26875L524.59375 33.26875ZM544.0 35.096874L547.0781 35.096874L547.0781 36.925Q547.6719 35.9875 548.6875 35.409374Q549.71875 34.815624 550.9531 34.815624Q553.125 34.815624 554.625 36.51875Q556.1406 38.221874 556.1406 41.253124Q556.1406 44.378124 554.6094 46.1125Q553.09375 47.83125 550.9375 47.83125Q549.90625 47.83125 549.0625 47.425Q548.21875 47.003124 547.2969 46.01875L547.2969 52.284374L544.0 52.284374L544.0 35.096874ZM547.2656 41.1125Q547.2656 43.20625 548.09375 44.221874Q548.9219 45.221874 550.125 45.221874Q551.2656 45.221874 552.03125 44.3Q552.7969 43.378124 552.7969 41.284374Q552.7969 39.315624 552.0 38.378124Q551.21875 37.425 550.0625 37.425Q548.8594 37.425 548.0625 38.3625Q547.2656 39.284374 547.2656 41.1125ZM558.3906 33.659374L558.3906 30.596874L569.65625 30.596874L569.65625 32.9875Q568.2656 34.3625 566.8125 36.940624Q565.375 39.503124 564.625 42.39375Q563.875 45.26875 563.875 47.55L560.7031 47.55Q560.78125 43.9875 562.1719 40.284374Q563.5625 36.58125 565.8906 33.659374L558.3906 33.659374ZM571.4375 43.128124L574.71875 42.784374Q574.8594 43.909374 575.5469 44.565624Q576.25 45.20625 577.15625 45.20625Q578.1875 45.20625 578.8906 44.378124Q579.6094 43.534374 579.6094 41.846874Q579.6094 40.253124 578.8906 39.471874Q578.1875 38.675 577.0625 38.675Q575.6406 38.675 574.5156 39.925L571.84375 39.55L573.53125 30.596874L582.2344 30.596874L582.2344 33.690624L576.03125 33.690624L575.5156 36.596874Q576.6094 36.05 577.7656 36.05Q579.9531 36.05 581.46875 37.64375Q583.0 39.2375 583.0 41.784374Q583.0 43.909374 581.7656 45.565624Q580.09375 47.846874 577.1094 47.846874Q574.7344 47.846874 573.2344 46.565624Q571.7344 45.284374 571.4375 43.128124Z" fill-rule="nonzero"/><path fill="#757575" d="M605.6094 37.909374Q607.0 35.034374 607.9375 31.971874L610.4844 32.8625Q612.2344 33.7375 610.4531 34.096874Q609.75 36.253124 608.375 39.034374L605.6094 37.909374ZM601.4375 41.55L592.25 41.55L592.25 39.01875L601.4375 39.01875L601.4375 31.425L593.375 31.425L593.375 28.89375L612.03125 28.89375L612.03125 31.425L604.0625 31.425L604.0625 39.01875L613.34375 39.01875L613.34375 41.55L604.0625 41.55L604.0625 49.14375L601.4375 49.14375L601.4375 41.55ZM596.7656 32.08125Q598.96875 35.003124 599.6406 37.440624L596.90625 38.690624Q595.7656 35.440624 594.21875 33.346874L596.7656 32.08125ZM625.125 43.878124L618.78125 45.8Q618.09375 47.51875 617.4844 45.690624L616.8125 43.2375L619.625 42.64375L619.625 36.01875L617.1875 36.01875L617.1875 33.20625L619.625 33.20625L619.625 28.33125L621.7969 28.33125Q623.53125 28.55 622.25 29.45625L622.25 33.20625L624.875 33.20625L624.875 36.01875L622.25 36.01875L622.25 42.003124L624.59375 41.3625L625.125 43.878124ZM636.9531 46.909374Q636.21875 49.33125 633.21875 49.33125L630.7344 49.33125L630.3594 46.51875L633.3125 46.51875Q634.3125 46.51875 634.53125 45.409374Q634.90625 43.58125 634.90625 37.89375L634.90625 34.2375L628.21875 34.2375Q627.25 36.409374 624.9531 39.05L623.1719 36.753124Q626.6875 32.753124 627.5781 27.76875L629.96875 28.440624Q631.7656 29.128124 629.96875 29.659374Q629.6406 30.89375 629.28125 31.70625L637.53125 31.70625L637.53125 36.8625Q637.53125 44.9875 636.9531 46.909374ZM630.8594 41.175Q628.2344 38.95625 626.1094 37.95625L627.71875 35.471874Q629.9375 36.253124 632.59375 38.58125L630.8594 41.175ZM633.8281 43.065624Q630.9219 44.51875 626.4844 45.971874Q625.8906 47.76875 625.2656 45.675L624.8125 43.128124Q629.53125 42.221874 633.3125 40.33125L633.8281 43.065624ZM647.2344 28.940624Q646.8906 31.14375 646.09375 33.628124Q647.25 33.76875 646.25 34.76875L646.25 49.51875L643.625 49.51875L643.6406 38.7375Q643.6406 38.76875 642.84375 39.721874L640.7344 38.14375Q644.1094 34.08125 644.6875 27.221874L647.375 27.8Q648.3594 28.784374 647.2344 28.940624ZM656.46875 32.45625L656.46875 33.4875L661.0625 33.4875L661.0625 45.3L651.59375 45.3L651.59375 33.4875L653.84375 33.4875L653.84375 32.45625L647.09375 32.45625L647.09375 29.925L653.84375 29.925L653.84375 27.3L656.0156 27.3Q657.75 27.51875 656.46875 28.425L656.46875 29.925L662.5625 29.925L662.5625 32.45625L656.46875 32.45625ZM653.9375 35.7375L653.9375 36.675L658.71875 36.675L658.71875 35.7375L653.9375 35.7375ZM653.9375 38.925L653.9375 39.76875L658.71875 39.76875L658.71875 38.925L653.9375 38.925ZM653.9375 42.01875L653.9375 43.05L658.71875 43.05L658.71875 42.01875L653.9375 42.01875ZM647.75 49.51875L647.75 33.76875L649.9219 33.76875Q651.65625 33.9875 650.375 34.89375L650.375 46.14375L663.3125 46.14375L663.3125 48.675L650.375 48.675L650.375 49.51875L647.75 49.51875ZM678.28125 34.20625Q676.6875 43.51875 674.3594 45.846874Q673.03125 47.175 671.5625 47.175Q669.90625 47.175 668.9531 46.221874Q666.59375 43.8625 666.59375 40.33125Q666.59375 36.05 669.6094 33.034374Q672.90625 29.7375 677.65625 29.7375Q681.9375 29.7375 684.3906 32.190624Q687.125 34.925 687.125 38.64375Q687.125 42.64375 684.5781 45.190624Q682.9375 46.83125 679.3594 48.471874L676.7656 45.878124Q680.5469 44.690624 682.3594 42.878124Q684.03125 41.20625 684.03125 38.83125Q684.03125 35.9875 682.1719 34.128124Q680.3281 32.26875 677.7031 32.39375L678.09375 32.58125Q679.96875 33.3625 678.28125 34.20625ZM675.34375 32.659374Q673.53125 33.08125 671.8281 34.784374Q669.5 37.1125 669.5 40.51875Q669.5 42.51875 670.7969 43.815624Q670.96875 43.9875 671.375 43.9875Q671.78125 43.9875 672.3281 43.440624Q674.3906 41.378124 675.34375 32.659374ZM697.1094 35.89375Q700.3906 32.815624 702.15625 27.01875L704.4531 27.70625Q705.65625 28.675 704.3594 28.8625Q703.6875 30.55 703.1875 31.6125L705.1719 31.6125Q706.09375 29.690624 706.7656 27.659374L708.9844 28.471874Q709.9531 29.440624 708.7656 29.6125Q708.1875 30.940624 707.8125 31.6125L712.34375 31.6125L712.34375 34.14375L707.5625 34.14375L707.5625 36.3L711.40625 36.3L711.40625 38.83125L707.5625 38.83125L707.5625 41.08125L711.40625 41.08125L711.40625 43.6125L707.5625 43.6125L707.5625 46.33125L712.90625 46.33125L712.90625 48.8625L702.59375 48.8625L702.59375 49.70625L699.96875 49.70625L699.9844 36.878124Q699.96875 36.909374 698.9219 37.971874L697.1094 35.89375ZM692.6406 49.51875L692.09375 46.9875L694.15625 46.9875Q694.15625 46.9875 694.15625 46.9875L694.15625 41.64375L692.4219 42.05Q692.2656 43.190624 691.28125 42.20625L690.8125 39.565624L694.15625 38.89375L694.15625 34.6125L691.25 34.6125L691.25 32.08125L694.15625 32.08125L694.15625 27.3L696.3281 27.3Q698.0625 27.51875 696.78125 28.425L696.78125 32.08125L699.21875 32.08125L699.21875 34.6125L696.78125 34.6125L696.78125 38.346874L699.1406 37.70625L699.5469 40.128124L696.78125 40.9875L696.78125 47.64375Q696.78125 49.51875 694.90625 49.51875L692.6406 49.51875ZM702.59375 46.33125L704.9375 46.33125L704.9375 43.6125L702.59375 43.6125L702.59375 46.33125ZM702.59375 41.08125L704.9375 41.08125L704.9375 38.83125L702.59375 38.83125L702.59375 41.08125ZM702.59375 36.3L704.9375 36.3L704.9375 34.14375L702.59375 34.14375L702.59375 36.3ZM734.28125 29.925L734.6875 29.39375L736.8125 31.1125L736.2656 31.659374Q733.8125 35.909374 732.1094 36.940624L732.25 36.971874Q733.78125 37.628124 732.34375 38.175Q732.1875 38.70625 732.1094 38.70625L735.40625 38.64375L735.7969 38.128124L738.1406 39.815624L737.5156 40.440624Q734.4531 48.55 724.7656 49.64375L723.7031 47.14375Q728.5156 46.628124 730.6094 45.065624Q729.625 44.08125 728.5781 43.33125Q727.5469 44.221874 725.09375 45.221874L723.9219 42.8625Q728.7344 40.89375 729.5469 38.675Q729.21875 38.9875 725.1719 40.01875L723.9844 37.628124Q727.9375 36.784374 729.3281 35.846874Q728.6875 35.08125 727.6719 34.440624Q727.21875 34.89375 726.2656 35.58125L724.4531 33.64375Q727.7656 30.83125 728.6875 27.565624L730.7656 28.26875Q732.28125 28.909374 730.8594 29.45625Q730.7969 29.878124 730.7344 29.940624L734.28125 29.925ZM722.09375 33.58125L725.1875 33.58125L725.1875 36.1125L722.09375 36.1125L722.09375 37.83125Q723.8125 38.6125 725.7656 40.565624L724.1094 42.878124Q722.3125 41.08125 722.09375 40.909374L722.09375 49.6125L719.46875 49.6125L719.84375 39.95625Q719.6094 42.01875 716.7344 45.33125L714.84375 42.925Q718.46875 39.4875 719.1875 36.1125L715.625 36.1125L715.625 33.58125L719.46875 33.58125L719.46875 31.3Q718.0156 31.51875 716.1875 31.7375L715.53125 29.221874Q719.6875 28.8 723.9375 27.6125L725.125 29.2375Q726.0156 30.58125 724.3594 30.221874Q723.125 30.565624 722.09375 30.784374L722.09375 33.58125ZM729.1875 32.7375Q730.1875 33.26875 731.2656 34.20625Q732.3906 33.159374 732.96875 32.175L729.53125 32.175Q729.2344 32.690624 729.1875 32.7375ZM730.25 41.675Q731.125 42.175 732.6094 43.503124Q733.6875 42.721874 734.46875 40.89375L730.90625 40.89375Q730.4375 41.534374 730.25 41.675Z" fill-rule="nonzero"/></svg>