<svg version="1.1" viewBox="0.0 0.0 826.0 511.0" fill="none" stroke="none" stroke-linecap="square" stroke-miterlimit="10" width="826" height="511" xmlns:xlink="http://www.w3.org/1999/xlink" xmlns="http://www.w3.org/2000/svg"><path fill="#ffffff" d="M0 0L826.0 0L826.0 511.0L0 511.0L0 0Z" fill-rule="nonzero"/><path stroke="#cccccc" stroke-width="1.0" stroke-linecap="butt" d="M122.5 81.5L122.5 407.5" fill-rule="nonzero"/><path stroke="#cccccc" stroke-width="1.0" stroke-linecap="butt" d="M270.5 81.5L270.5 407.5" fill-rule="nonzero"/><path stroke="#cccccc" stroke-width="1.0" stroke-linecap="butt" d="M418.5 81.5L418.5 407.5" fill-rule="nonzero"/><path stroke="#cccccc" stroke-width="1.0" stroke-linecap="butt" d="M566.5 81.5L566.5 407.5" fill-rule="nonzero"/><path stroke="#cccccc" stroke-width="1.0" stroke-linecap="butt" d="M714.5 81.5L714.5 407.5" fill-rule="nonzero"/><path stroke="#333333" stroke-width="1.0" stroke-linecap="butt" d="M122.5 407.5L800.5 407.5" fill-rule="nonzero"/><path stroke="#cccccc" stroke-width="1.0" stroke-linecap="butt" d="M122.5 298.5L800.5 298.5" fill-rule="nonzero"/><path stroke="#cccccc" stroke-width="1.0" stroke-linecap="butt" d="M122.5 189.5L800.5 189.5" fill-rule="nonzero"/><path stroke="#cccccc" stroke-width="1.0" stroke-linecap="butt" d="M122.5 81.5L800.5 81.5" fill-rule="nonzero"/><path stroke="#000000" stroke-width="1.0" stroke-linecap="butt" d="M800.5 81.5L800.5 407.5" fill-rule="nonzero"/><clipPath id="id_0"><path d="M122.55 81.083336L800.45 81.083336L800.45 407.45L122.55 407.45L122.55 81.083336Z" clip-rule="nonzero"/></clipPath><path stroke="#ea4335" stroke-width="2.0" stroke-linecap="butt" clip-path="url(#id_0)" d="M122.55 134.67618L135.1037 132.75806L146.84749 125.40049L159.4012 114.40709L171.54994 117.64537L184.10364 110.579704L196.2524 110.27872L208.80609 104.50625L221.3598 92.9613L233.50854 93.96039L246.06224 97.734695L258.211 96.29157L270.7647 94.1824L283.3184 92.850296L294.65723 90.63011L307.21094 90.075066L319.35968 95.292496L331.9134 89.52002L344.06213 94.071396L356.61584 100.86313L369.16953 93.17099L381.31827 89.764465L393.87198 96.02807L406.02072 101.962006L418.57443 99.17781L431.12814 105.258644L442.46698 107.34651L455.02066 104.81909L467.1694 116.02764L479.7231 115.25843L491.87186 110.0567L504.42557 105.14876L516.97925 104.489426L529.128 106.90696L541.6817 111.082695L553.83044 112.401344L566.38416 113.38697L578.93787 116.79686L590.2767 122.489716L602.8304 120.33706L614.9791 112.81342L627.53284 99.87414L639.6816 94.84846L652.2353 97.62369L664.789 101.62001L676.93774 109.68247L689.49146 112.72092L701.6402 123.15577L714.1939 130.26035L726.7476 133.70163L738.4914 145.4686L751.0451 141.13924L763.19385 129.7053L775.74756 148.82405L787.8963 151.2295L800.45 155.90344" fill-rule="nonzero"/><path fill="#000000" fill-opacity="0.0" clip-path="url(#id_0)" d="M125.55 134.67618C125.55 136.33302 124.206856 137.67618 122.55 137.67618C120.89314 137.67618 119.55 136.33302 119.55 134.67618C119.55 133.01932 120.89314 131.67618 122.55 131.67618C124.206856 131.67618 125.55 133.01932 125.55 134.67618Z" fill-rule="nonzero"/><path fill="#000000" fill-opacity="0.0" clip-path="url(#id_0)" d="M138.1037 132.75806C138.1037 134.41492 136.76056 135.75806 135.1037 135.75806C133.44685 135.75806 132.1037 134.41492 132.1037 132.75806C132.1037 131.1012 133.44685 129.75806 135.1037 129.75806C136.76056 129.75806 138.1037 131.1012 138.1037 132.75806Z" fill-rule="nonzero"/><path fill="#000000" fill-opacity="0.0" clip-path="url(#id_0)" d="M149.84749 125.40049C149.84749 127.05734 148.50435 128.4005 146.84749 128.4005C145.19064 128.4005 143.84749 127.05734 143.84749 125.40049C143.84749 123.74364 145.19064 122.40049 146.84749 122.40049C148.50435 122.40049 149.84749 123.74364 149.84749 125.40049Z" fill-rule="nonzero"/><path fill="#000000" fill-opacity="0.0" clip-path="url(#id_0)" d="M162.4012 114.40709C162.4012 116.06394 161.05804 117.40709 159.4012 117.40709C157.74434 117.40709 156.4012 116.06394 156.4012 114.40709C156.4012 112.75024 157.74434 111.40709 159.4012 111.40709C161.05804 111.40709 162.4012 112.75024 162.4012 114.40709Z" fill-rule="nonzero"/><path fill="#000000" fill-opacity="0.0" clip-path="url(#id_0)" d="M174.54994 117.64537C174.54994 119.30222 173.20679 120.64537 171.54994 120.64537C169.89308 120.64537 168.54994 119.30222 168.54994 117.64537C168.54994 115.98852 169.89308 114.64537 171.54994 114.64537C173.20679 114.64537 174.54994 115.98852 174.54994 117.64537Z" fill-rule="nonzero"/><path fill="#000000" fill-opacity="0.0" clip-path="url(#id_0)" d="M187.10364 110.579704C187.10364 112.23656 185.7605 113.579704 184.10364 113.579704C182.4468 113.579704 181.10364 112.23656 181.10364 110.579704C181.10364 108.92285 182.4468 107.579704 184.10364 107.579704C185.7605 107.579704 187.10364 108.92285 187.10364 110.579704Z" fill-rule="nonzero"/><path fill="#000000" fill-opacity="0.0" clip-path="url(#id_0)" d="M199.2524 110.27872C199.2524 111.93557 197.90924 113.27872 196.2524 113.27872C194.59554 113.27872 193.2524 111.93557 193.2524 110.27872C193.2524 108.621864 194.59554 107.27872 196.2524 107.27872C197.90924 107.27872 199.2524 108.621864 199.2524 110.27872Z" fill-rule="nonzero"/><path fill="#000000" fill-opacity="0.0" clip-path="url(#id_0)" d="M211.80609 104.50625C211.80609 106.1631 210.46295 107.50625 208.80609 107.50625C207.14925 107.50625 205.80609 106.1631 205.80609 104.50625C205.80609 102.849396 207.14925 101.50625 208.80609 101.50625C210.46295 101.50625 211.80609 102.849396 211.80609 104.50625Z" fill-rule="nonzero"/><path fill="#000000" fill-opacity="0.0" clip-path="url(#id_0)" d="M224.3598 92.9613C224.3598 94.61816 223.01665 95.9613 221.3598 95.9613C219.70294 95.9613 218.3598 94.61816 218.3598 92.9613C218.3598 91.30445 219.70294 89.9613 221.3598 89.9613C223.01665 89.9613 224.3598 91.30445 224.3598 92.9613Z" fill-rule="nonzero"/><path fill="#000000" fill-opacity="0.0" clip-path="url(#id_0)" d="M236.50854 93.96039C236.50854 95.61724 235.16539 96.96039 233.50854 96.96039C231.85168 96.96039 230.50854 95.61724 230.50854 93.96039C230.50854 92.30353 231.85168 90.96039 233.50854 90.96039C235.16539 90.96039 236.50854 92.30353 236.50854 93.96039Z" fill-rule="nonzero"/><path fill="#000000" fill-opacity="0.0" clip-path="url(#id_0)" d="M249.06224 97.734695C249.06224 99.39155 247.7191 100.734695 246.06224 100.734695C244.4054 100.734695 243.06224 99.39155 243.06224 97.734695C243.06224 96.07784 244.4054 94.734695 246.06224 94.734695C247.7191 94.734695 249.06224 96.07784 249.06224 97.734695Z" fill-rule="nonzero"/><path fill="#000000" fill-opacity="0.0" clip-path="url(#id_0)" d="M261.211 96.29157C261.211 97.94843 259.86786 99.29157 258.211 99.29157C256.55414 99.29157 255.211 97.94843 255.211 96.29157C255.211 94.63472 256.55414 93.29157 258.211 93.29157C259.86786 93.29157 261.211 94.63472 261.211 96.29157Z" fill-rule="nonzero"/><path fill="#000000" fill-opacity="0.0" clip-path="url(#id_0)" d="M273.7647 94.1824C273.7647 95.83926 272.42154 97.1824 270.7647 97.1824C269.10785 97.1824 267.7647 95.83926 267.7647 94.1824C267.7647 92.52555 269.10785 91.1824 270.7647 91.1824C272.42154 91.1824 273.7647 92.52555 273.7647 94.1824Z" fill-rule="nonzero"/><path fill="#000000" fill-opacity="0.0" clip-path="url(#id_0)" d="M286.3184 92.850296C286.3184 94.50715 284.97525 95.850296 283.3184 95.850296C281.66153 95.850296 280.3184 94.50715 280.3184 92.850296C280.3184 91.19344 281.66153 89.850296 283.3184 89.850296C284.97525 89.850296 286.3184 91.19344 286.3184 92.850296Z" fill-rule="nonzero"/><path fill="#000000" fill-opacity="0.0" clip-path="url(#id_0)" d="M297.65723 90.63011C297.65723 92.286964 296.3141 93.63011 294.65723 93.63011C293.00037 93.63011 291.65723 92.286964 291.65723 90.63011C291.65723 88.97326 293.00037 87.63011 294.65723 87.63011C296.3141 87.63011 297.65723 88.97326 297.65723 90.63011Z" fill-rule="nonzero"/><path fill="#000000" fill-opacity="0.0" clip-path="url(#id_0)" d="M310.21094 90.075066C310.21094 91.731926 308.8678 93.075066 307.21094 93.075066C305.55408 93.075066 304.21094 91.731926 304.21094 90.075066C304.21094 88.41821 305.55408 87.075066 307.21094 87.075066C308.8678 87.075066 310.21094 88.41821 310.21094 90.075066Z" fill-rule="nonzero"/><path fill="#000000" fill-opacity="0.0" clip-path="url(#id_0)" d="M322.35968 95.292496C322.35968 96.94935 321.01654 98.292496 319.35968 98.292496C317.70282 98.292496 316.35968 96.94935 316.35968 95.292496C316.35968 93.63564 317.70282 92.292496 319.35968 92.292496C321.01654 92.292496 322.35968 93.63564 322.35968 95.292496Z" fill-rule="nonzero"/><path fill="#000000" fill-opacity="0.0" clip-path="url(#id_0)" d="M334.9134 89.52002C334.9134 91.17688 333.57022 92.52002 331.9134 92.52002C330.25653 92.52002 328.9134 91.17688 328.9134 89.52002C328.9134 87.86317 330.25653 86.52002 331.9134 86.52002C333.57022 86.52002 334.9134 87.86317 334.9134 89.52002Z" fill-rule="nonzero"/><path fill="#000000" fill-opacity="0.0" clip-path="url(#id_0)" d="M347.06213 94.071396C347.06213 95.72825 345.719 97.071396 344.06213 97.071396C342.40527 97.071396 341.06213 95.72825 341.06213 94.071396C341.06213 92.41454 342.40527 91.071396 344.06213 91.071396C345.719 91.071396 347.06213 92.41454 347.06213 94.071396Z" fill-rule="nonzero"/><path fill="#000000" fill-opacity="0.0" clip-path="url(#id_0)" d="M359.61584 100.86313C359.61584 102.51999 358.27267 103.86313 356.61584 103.86313C354.95898 103.86313 353.61584 102.51999 353.61584 100.86313C353.61584 99.206276 354.95898 97.86313 356.61584 97.86313C358.27267 97.86313 359.61584 99.206276 359.61584 100.86313Z" fill-rule="nonzero"/><path fill="#000000" fill-opacity="0.0" clip-path="url(#id_0)" d="M372.16953 93.17099C372.16953 94.82784 370.8264 96.17099 369.16953 96.17099C367.51266 96.17099 366.16953 94.82784 366.16953 93.17099C366.16953 91.51413 367.51266 90.17099 369.16953 90.17099C370.8264 90.17099 372.16953 91.51413 372.16953 93.17099Z" fill-rule="nonzero"/><path fill="#000000" fill-opacity="0.0" clip-path="url(#id_0)" d="M384.31827 89.764465C384.31827 91.42132 382.97513 92.764465 381.31827 92.764465C379.66144 92.764465 378.31827 91.42132 378.31827 89.764465C378.31827 88.10761 379.66144 86.764465 381.31827 86.764465C382.97513 86.764465 384.31827 88.10761 384.31827 89.764465Z" fill-rule="nonzero"/><path fill="#000000" fill-opacity="0.0" clip-path="url(#id_0)" d="M396.87198 96.02807C396.87198 97.68492 395.52884 99.02807 393.87198 99.02807C392.21512 99.02807 390.87198 97.68492 390.87198 96.02807C390.87198 94.371216 392.21512 93.02807 393.87198 93.02807C395.52884 93.02807 396.87198 94.371216 396.87198 96.02807Z" fill-rule="nonzero"/><path fill="#000000" fill-opacity="0.0" clip-path="url(#id_0)" d="M409.02072 101.962006C409.02072 103.618866 407.67758 104.962006 406.02072 104.962006C404.36386 104.962006 403.02072 103.618866 403.02072 101.962006C403.02072 100.30515 404.36386 98.962006 406.02072 98.962006C407.67758 98.962006 409.02072 100.30515 409.02072 101.962006Z" fill-rule="nonzero"/><path fill="#000000" fill-opacity="0.0" clip-path="url(#id_0)" d="M421.57443 99.17781C421.57443 100.83466 420.2313 102.17781 418.57443 102.17781C416.91757 102.17781 415.57443 100.83466 415.57443 99.17781C415.57443 97.52096 416.91757 96.17781 418.57443 96.17781C420.2313 96.17781 421.57443 97.52096 421.57443 99.17781Z" fill-rule="nonzero"/><path fill="#000000" fill-opacity="0.0" clip-path="url(#id_0)" d="M434.12814 105.258644C434.12814 106.9155 432.785 108.258644 431.12814 108.258644C429.47128 108.258644 428.12814 106.9155 428.12814 105.258644C428.12814 103.60179 429.47128 102.258644 431.12814 102.258644C432.785 102.258644 434.12814 103.60179 434.12814 105.258644Z" fill-rule="nonzero"/><path fill="#000000" fill-opacity="0.0" clip-path="url(#id_0)" d="M445.46698 107.34651C445.46698 109.003365 444.1238 110.34651 442.46698 110.34651C440.81012 110.34651 439.46698 109.003365 439.46698 107.34651C439.46698 105.68965 440.81012 104.34651 442.46698 104.34651C444.1238 104.34651 445.46698 105.68965 445.46698 107.34651Z" fill-rule="nonzero"/><path fill="#000000" fill-opacity="0.0" clip-path="url(#id_0)" d="M458.02066 104.81909C458.02066 106.475945 456.67752 107.81909 455.02066 107.81909C453.3638 107.81909 452.02066 106.475945 452.02066 104.81909C452.02066 103.16224 453.3638 101.81909 455.02066 101.81909C456.67752 101.81909 458.02066 103.16224 458.02066 104.81909Z" fill-rule="nonzero"/><path fill="#000000" fill-opacity="0.0" clip-path="url(#id_0)" d="M470.1694 116.02764C470.1694 117.684494 468.82626 119.02764 467.1694 119.02764C465.51257 119.02764 464.1694 117.684494 464.1694 116.02764C464.1694 114.37079 465.51257 113.02764 467.1694 113.02764C468.82626 113.02764 470.1694 114.37079 470.1694 116.02764Z" fill-rule="nonzero"/><path fill="#000000" fill-opacity="0.0" clip-path="url(#id_0)" d="M482.7231 115.25843C482.7231 116.91528 481.37997 118.25843 479.7231 118.25843C478.06625 118.25843 476.7231 116.91528 476.7231 115.25843C476.7231 113.60158 478.06625 112.25843 479.7231 112.25843C481.37997 112.25843 482.7231 113.60158 482.7231 115.25843Z" fill-rule="nonzero"/><path fill="#000000" fill-opacity="0.0" clip-path="url(#id_0)" d="M494.87186 110.0567C494.87186 111.713554 493.52872 113.0567 491.87186 113.0567C490.215 113.0567 488.87186 111.713554 488.87186 110.0567C488.87186 108.39985 490.215 107.0567 491.87186 107.0567C493.52872 107.0567 494.87186 108.39985 494.87186 110.0567Z" fill-rule="nonzero"/><path fill="#000000" fill-opacity="0.0" clip-path="url(#id_0)" d="M507.42557 105.14876C507.42557 106.80561 506.08243 108.14876 504.42557 108.14876C502.7687 108.14876 501.42557 106.80561 501.42557 105.14876C501.42557 103.4919 502.7687 102.14876 504.42557 102.14876C506.08243 102.14876 507.42557 103.4919 507.42557 105.14876Z" fill-rule="nonzero"/><path fill="#000000" fill-opacity="0.0" clip-path="url(#id_0)" d="M519.97925 104.489426C519.97925 106.14628 518.6361 107.489426 516.97925 107.489426C515.3224 107.489426 513.97925 106.14628 513.97925 104.489426C513.97925 102.83257 515.3224 101.489426 516.97925 101.489426C518.6361 101.489426 519.97925 102.83257 519.97925 104.489426Z" fill-rule="nonzero"/><path fill="#000000" fill-opacity="0.0" clip-path="url(#id_0)" d="M532.128 106.90696C532.128 108.56381 530.78485 109.90696 529.128 109.90696C527.4712 109.90696 526.128 108.56381 526.128 106.90696C526.128 105.25011 527.4712 103.90696 529.128 103.90696C530.78485 103.90696 532.128 105.25011 532.128 106.90696Z" fill-rule="nonzero"/><path fill="#000000" fill-opacity="0.0" clip-path="url(#id_0)" d="M544.6817 111.082695C544.6817 112.73955 543.33856 114.082695 541.6817 114.082695C540.02484 114.082695 538.6817 112.73955 538.6817 111.082695C538.6817 109.42584 540.02484 108.082695 541.6817 108.082695C543.33856 108.082695 544.6817 109.42584 544.6817 111.082695Z" fill-rule="nonzero"/><path fill="#000000" fill-opacity="0.0" clip-path="url(#id_0)" d="M556.83044 112.401344C556.83044 114.058205 555.4873 115.401344 553.83044 115.401344C552.1736 115.401344 550.83044 114.058205 550.83044 112.401344C550.83044 110.74449 552.1736 109.401344 553.83044 109.401344C555.4873 109.401344 556.83044 110.74449 556.83044 112.401344Z" fill-rule="nonzero"/><path fill="#000000" fill-opacity="0.0" clip-path="url(#id_0)" d="M569.38416 113.38697C569.38416 115.04382 568.041 116.38697 566.38416 116.38697C564.7273 116.38697 563.38416 115.04382 563.38416 113.38697C563.38416 111.73012 564.7273 110.38697 566.38416 110.38697C568.041 110.38697 569.38416 111.73012 569.38416 113.38697Z" fill-rule="nonzero"/><path fill="#000000" fill-opacity="0.0" clip-path="url(#id_0)" d="M581.93787 116.79686C581.93787 118.45371 580.5947 119.79686 578.93787 119.79686C577.281 119.79686 575.93787 118.45371 575.93787 116.79686C575.93787 115.14001 577.281 113.79686 578.93787 113.79686C580.5947 113.79686 581.93787 115.14001 581.93787 116.79686Z" fill-rule="nonzero"/><path fill="#000000" fill-opacity="0.0" clip-path="url(#id_0)" d="M593.2767 122.489716C593.2767 124.14657 591.93353 125.489716 590.2767 125.489716C588.6199 125.489716 587.2767 124.14657 587.2767 122.489716C587.2767 120.83286 588.6199 119.489716 590.2767 119.489716C591.93353 119.489716 593.2767 120.83286 593.2767 122.489716Z" fill-rule="nonzero"/><path fill="#000000" fill-opacity="0.0" clip-path="url(#id_0)" d="M605.8304 120.33706C605.8304 121.99391 604.48724 123.33706 602.8304 123.33706C601.1735 123.33706 599.8304 121.99391 599.8304 120.33706C599.8304 118.6802 601.1735 117.33706 602.8304 117.33706C604.48724 117.33706 605.8304 118.6802 605.8304 120.33706Z" fill-rule="nonzero"/><path fill="#000000" fill-opacity="0.0" clip-path="url(#id_0)" d="M617.9791 112.81342C617.9791 114.47028 616.636 115.81342 614.9791 115.81342C613.3223 115.81342 611.9791 114.47028 611.9791 112.81342C611.9791 111.15657 613.3223 109.81342 614.9791 109.81342C616.636 109.81342 617.9791 111.15657 617.9791 112.81342Z" fill-rule="nonzero"/><path fill="#000000" fill-opacity="0.0" clip-path="url(#id_0)" d="M630.53284 99.87414C630.53284 101.531 629.1897 102.87414 627.53284 102.87414C625.876 102.87414 624.53284 101.531 624.53284 99.87414C624.53284 98.217285 625.876 96.87414 627.53284 96.87414C629.1897 96.87414 630.53284 98.217285 630.53284 99.87414Z" fill-rule="nonzero"/><path fill="#000000" fill-opacity="0.0" clip-path="url(#id_0)" d="M642.6816 94.84846C642.6816 96.50531 641.33844 97.84846 639.6816 97.84846C638.0247 97.84846 636.6816 96.50531 636.6816 94.84846C636.6816 93.191605 638.0247 91.84846 639.6816 91.84846C641.33844 91.84846 642.6816 93.191605 642.6816 94.84846Z" fill-rule="nonzero"/><path fill="#000000" fill-opacity="0.0" clip-path="url(#id_0)" d="M655.2353 97.62369C655.2353 99.28054 653.89215 100.62369 652.2353 100.62369C650.5784 100.62369 649.2353 99.28054 649.2353 97.62369C649.2353 95.96683 650.5784 94.62369 652.2353 94.62369C653.89215 94.62369 655.2353 95.96683 655.2353 97.62369Z" fill-rule="nonzero"/><path fill="#000000" fill-opacity="0.0" clip-path="url(#id_0)" d="M667.789 101.62001C667.789 103.27686 666.44586 104.62001 664.789 104.62001C663.13214 104.62001 661.789 103.27686 661.789 101.62001C661.789 99.96316 663.13214 98.62001 664.789 98.62001C666.44586 98.62001 667.789 99.96316 667.789 101.62001Z" fill-rule="nonzero"/><path fill="#000000" fill-opacity="0.0" clip-path="url(#id_0)" d="M679.93774 109.68247C679.93774 111.339325 678.5946 112.68247 676.93774 112.68247C675.2809 112.68247 673.93774 111.339325 673.93774 109.68247C673.93774 108.02562 675.2809 106.68247 676.93774 106.68247C678.5946 106.68247 679.93774 108.02562 679.93774 109.68247Z" fill-rule="nonzero"/><path fill="#000000" fill-opacity="0.0" clip-path="url(#id_0)" d="M692.49146 112.72092C692.49146 114.37777 691.1483 115.72092 689.49146 115.72092C687.8346 115.72092 686.49146 114.37777 686.49146 112.72092C686.49146 111.064064 687.8346 109.72092 689.49146 109.72092C691.1483 109.72092 692.49146 111.064064 692.49146 112.72092Z" fill-rule="nonzero"/><path fill="#000000" fill-opacity="0.0" clip-path="url(#id_0)" d="M704.6402 123.15577C704.6402 124.81262 703.29706 126.15577 701.6402 126.15577C699.98334 126.15577 698.6402 124.81262 698.6402 123.15577C698.6402 121.49892 699.98334 120.15577 701.6402 120.15577C703.29706 120.15577 704.6402 121.49892 704.6402 123.15577Z" fill-rule="nonzero"/><path fill="#000000" fill-opacity="0.0" clip-path="url(#id_0)" d="M717.1939 130.26035C717.1939 131.9172 715.85077 133.26035 714.1939 133.26035C712.53705 133.26035 711.1939 131.9172 711.1939 130.26035C711.1939 128.6035 712.53705 127.26035 714.1939 127.26035C715.85077 127.26035 717.1939 128.6035 717.1939 130.26035Z" fill-rule="nonzero"/><path fill="#000000" fill-opacity="0.0" clip-path="url(#id_0)" d="M729.7476 133.70163C729.7476 135.35849 728.4045 136.70163 726.7476 136.70163C725.09076 136.70163 723.7476 135.35849 723.7476 133.70163C723.7476 132.04478 725.09076 130.70163 726.7476 130.70163C728.4045 130.70163 729.7476 132.04478 729.7476 133.70163Z" fill-rule="nonzero"/><path fill="#000000" fill-opacity="0.0" clip-path="url(#id_0)" d="M741.4914 145.4686C741.4914 147.12544 740.14825 148.4686 738.4914 148.4686C736.83453 148.4686 735.4914 147.12544 735.4914 145.4686C735.4914 143.81174 736.83453 142.4686 738.4914 142.4686C740.14825 142.4686 741.4914 143.81174 741.4914 145.4686Z" fill-rule="nonzero"/><path fill="#000000" fill-opacity="0.0" clip-path="url(#id_0)" d="M754.0451 141.13924C754.0451 142.7961 752.70197 144.13924 751.0451 144.13924C749.38824 144.13924 748.0451 142.7961 748.0451 141.13924C748.0451 139.48239 749.38824 138.13924 751.0451 138.13924C752.70197 138.13924 754.0451 139.48239 754.0451 141.13924Z" fill-rule="nonzero"/><path fill="#000000" fill-opacity="0.0" clip-path="url(#id_0)" d="M766.19385 129.7053C766.19385 131.36217 764.8507 132.7053 763.19385 132.7053C761.537 132.7053 760.19385 131.36217 760.19385 129.7053C760.19385 128.04845 761.537 126.70531 763.19385 126.70531C764.8507 126.70531 766.19385 128.04845 766.19385 129.7053Z" fill-rule="nonzero"/><path fill="#000000" fill-opacity="0.0" clip-path="url(#id_0)" d="M778.74756 148.82405C778.74756 150.4809 777.4044 151.82405 775.74756 151.82405C774.0907 151.82405 772.74756 150.4809 772.74756 148.82405C772.74756 147.16719 774.0907 145.82405 775.74756 145.82405C777.4044 145.82405 778.74756 147.16719 778.74756 148.82405Z" fill-rule="nonzero"/><path fill="#000000" fill-opacity="0.0" clip-path="url(#id_0)" d="M790.8963 151.2295C790.8963 152.88635 789.55316 154.2295 787.8963 154.2295C786.23944 154.2295 784.8963 152.88635 784.8963 151.2295C784.8963 149.57265 786.23944 148.2295 787.8963 148.2295C789.55316 148.2295 790.8963 149.57265 790.8963 151.2295Z" fill-rule="nonzero"/><path fill="#000000" fill-opacity="0.0" clip-path="url(#id_0)" d="M803.45 155.90344C803.45 157.5603 802.1069 158.90344 800.45 158.90344C798.79315 158.90344 797.45 157.5603 797.45 155.90344C797.45 154.2466 798.79315 152.90344 800.45 152.90344C802.1069 152.90344 803.45 154.2466 803.45 155.90344Z" fill-rule="nonzero"/><path fill="#000000" d="M449.125 470.48126Q447.79688 472.79376 445.82812 474.34064L444.84375 473.075Q447.71875 470.96564 448.78125 466.96564L450.39062 467.3875Q450.67188 467.66876 450.1875 467.73126L449.625 469.1375L459.53125 469.1375L459.53125 470.48126L454.40625 470.48126L454.40625 472.8719L458.625 472.8719L458.625 474.2L454.40625 474.2L454.40625 477.3719L460.3125 477.3719L460.3125 478.7L454.40625 478.7L454.40625 482.9344L453.0 482.9344L453.0 478.7L444.90625 478.7L444.90625 477.3719L448.07812 477.3719L448.07812 472.8719L453.0 472.8719L453.0 470.48126L449.125 470.48126ZM449.48438 477.3719L453.0 477.3719L453.0 474.2L449.48438 474.2L449.48438 477.3719ZM474.23438 477.3719L467.54688 477.3719Q467.54688 480.3875 464.45312 483.075L463.26562 481.73126Q466.14062 479.90314 466.14062 476.2469L466.14062 467.66876L475.64062 467.66876L475.64062 481.52814Q475.64062 482.65314 474.4375 482.65314L472.75 482.65314L472.46875 481.09064L473.95312 481.09064Q474.23438 481.09064 474.23438 480.8094L474.23438 477.3719ZM467.54688 475.825L474.23438 475.825L474.23438 473.29376L467.54688 473.29376L467.54688 475.825ZM467.54688 471.7469L474.23438 471.7469L474.23438 469.21564L467.54688 469.21564L467.54688 471.7469Z" fill-rule="nonzero"/><path fill="#ea4335" d="M42.55001 270.20416L29.659388 270.20416L29.659388 268.4854L41.034386 268.4854L41.034386 262.14166L42.55001 262.14166L42.55001 270.20416ZM38.034386 250.93854L38.45626 249.23541Q40.565636 249.76666 41.67501 251.15729Q42.76876 252.54791 42.76876 254.56354Q42.76876 256.64166 41.92501 257.95416Q41.065636 259.25104 39.471886 259.93854Q37.86251 260.62604 36.003136 260.62604Q34.003136 260.62604 32.503136 259.8604Q31.003138 259.07916 30.221888 257.6573Q29.440638 256.2354 29.440638 254.53229Q29.440638 252.61041 30.425013 251.29791Q31.409388 249.96979 33.190636 249.45416L33.596886 251.12604Q32.190636 251.57916 31.550013 252.43854Q30.909388 253.28229 30.909388 254.57916Q30.909388 256.06354 31.628138 257.06354Q32.33126 258.0479 33.534386 258.45416Q34.721886 258.8604 36.003136 258.8604Q37.64376 258.8604 38.878136 258.39166Q40.096886 257.9073 40.70626 256.89166Q41.315636 255.87604 41.315636 254.70416Q41.315636 253.26666 40.48751 252.28229Q39.659386 251.28229 38.034386 250.93854ZM42.55001 247.12604L29.659388 247.12604L29.659388 242.26666Q29.659388 240.98541 29.784388 240.31354Q29.940638 239.36041 30.393763 238.71979Q30.831263 238.07916 31.643763 237.68854Q32.440636 237.29791 33.39376 237.29791Q35.034386 237.29791 36.17501 238.34479Q37.315636 239.39166 37.315636 242.11041L37.315636 245.42291L42.55001 245.42291L42.55001 247.12604ZM35.784386 245.42291L35.784386 242.09479Q35.784386 240.43854 35.17501 239.75104Q34.565636 239.04791 33.440636 239.04791Q32.628136 239.04791 32.065636 239.45416Q31.487513 239.86041 31.300013 240.53229Q31.190638 240.96979 31.190638 242.12604L31.190638 245.42291L35.784386 245.42291Z" fill-rule="nonzero"/><path fill="#ea4335" d="M104.3 407.59064Q104.3 405.3094 104.76875 403.91876Q105.2375 402.52814 106.15938 401.77814Q107.09688 401.0125 108.50313 401.0125Q109.53438 401.0125 110.31563 401.4344Q111.09688 401.84064 111.59688 402.6375Q112.1125 403.41876 112.40938 404.5594Q112.70625 405.6844 112.70625 407.59064Q112.70625 409.85626 112.2375 411.2625Q111.76875 412.65314 110.83125 413.41876Q109.90938 414.16876 108.50313 414.16876Q106.62813 414.16876 105.56563 412.84064Q104.3 411.23126 104.3 407.59064ZM105.925 407.59064Q105.925 410.7625 106.65938 411.825Q107.40938 412.8719 108.50313 412.8719Q109.58125 412.8719 110.33125 411.825Q111.08125 410.7625 111.08125 407.59064Q111.08125 404.41876 110.33125 403.3719Q109.58125 402.325 108.4875 402.325Q107.39375 402.325 106.7375 403.2469Q105.925 404.41876 105.925 407.59064Z" fill-rule="nonzero"/><path fill="#ea4335" d="M80.25313 305.1611L78.675 305.1611L78.675 295.08298Q78.09688 295.62985 77.175 296.17673Q76.25313 296.70798 75.50313 296.98923L75.50313 295.45798Q76.83125 294.83298 77.83125 293.94235Q78.83125 293.05173 79.2375 292.2236L80.25313 292.2236L80.25313 305.1611ZM84.3 298.80173Q84.3 296.52048 84.76875 295.12985Q85.2375 293.73923 86.15938 292.98923Q87.09688 292.2236 88.50313 292.2236Q89.53438 292.2236 90.31563 292.64548Q91.09688 293.05173 91.59688 293.8486Q92.1125 294.62985 92.40938 295.77048Q92.70625 296.89548 92.70625 298.80173Q92.70625 301.06735 92.2375 302.4736Q91.76875 303.86423 90.83125 304.62985Q89.90938 305.37985 88.50313 305.37985Q86.62813 305.37985 85.56563 304.05173Q84.3 302.44235 84.3 298.80173ZM85.925 298.80173Q85.925 301.9736 86.65938 303.0361Q87.40938 304.08298 88.50313 304.08298Q89.58125 304.08298 90.33125 303.0361Q91.08125 301.9736 91.08125 298.80173Q91.08125 295.62985 90.33125 294.58298Q89.58125 293.5361 88.4875 293.5361Q87.39375 293.5361 86.7375 294.45798Q85.925 295.62985 85.925 298.80173ZM94.3 298.80173Q94.3 296.52048 94.76875 295.12985Q95.2375 293.73923 96.15938 292.98923Q97.09688 292.2236 98.50313 292.2236Q99.53438 292.2236 100.31563 292.64548Q101.09688 293.05173 101.59688 293.8486Q102.1125 294.62985 102.40938 295.77048Q102.70625 296.89548 102.70625 298.80173Q102.70625 301.06735 102.2375 302.4736Q101.76875 303.86423 100.83125 304.62985Q99.90938 305.37985 98.50313 305.37985Q96.62813 305.37985 95.56563 304.05173Q94.3 302.44235 94.3 298.80173ZM95.925 298.80173Q95.925 301.9736 96.65938 303.0361Q97.40938 304.08298 98.50313 304.08298Q99.58125 304.08298 100.33125 303.0361Q101.08125 301.9736 101.08125 298.80173Q101.08125 295.62985 100.33125 294.58298Q99.58125 293.5361 98.4875 293.5361Q97.39375 293.5361 96.7375 294.45798Q95.925 295.62985 95.925 298.80173ZM104.3 298.80173Q104.3 296.52048 104.76875 295.12985Q105.2375 293.73923 106.15938 292.98923Q107.09688 292.2236 108.50313 292.2236Q109.53438 292.2236 110.31563 292.64548Q111.09688 293.05173 111.59688 293.8486Q112.1125 294.62985 112.40938 295.77048Q112.70625 296.89548 112.70625 298.80173Q112.70625 301.06735 112.2375 302.4736Q111.76875 303.86423 110.83125 304.62985Q109.90938 305.37985 108.50313 305.37985Q106.62813 305.37985 105.56563 304.05173Q104.3 302.44235 104.3 298.80173ZM105.925 298.80173Q105.925 301.9736 106.65938 303.0361Q107.40938 304.08298 108.50313 304.08298Q109.58125 304.08298 110.33125 303.0361Q111.08125 301.9736 111.08125 298.80173Q111.08125 295.62985 110.33125 294.58298Q109.58125 293.5361 108.4875 293.5361Q107.39375 293.5361 106.7375 294.45798Q105.925 295.62985 105.925 298.80173Z" fill-rule="nonzero"/><path fill="#ea4335" d="M82.6125 194.8566L82.6125 196.37222L74.09688 196.37222Q74.08125 195.7941 74.28438 195.27847Q74.6125 194.40347 75.31563 193.55972Q76.03438 192.71597 77.39375 191.6066Q79.4875 189.88785 80.22188 188.88785Q80.97188 187.87222 80.97188 186.9816Q80.97188 186.02847 80.3 185.38785Q79.62813 184.74722 78.55 184.74722Q77.39375 184.74722 76.70625 185.43472Q76.03438 186.12222 76.01875 187.32535L74.39375 187.15347Q74.56563 185.34097 75.64375 184.38785Q76.7375 183.43472 78.58125 183.43472Q80.425 183.43472 81.50313 184.46597Q82.59688 185.49722 82.59688 187.01285Q82.59688 187.77847 82.26875 188.52847Q81.95625 189.27847 81.22188 190.1066Q80.4875 190.93472 78.78438 192.37222Q77.3625 193.57535 76.95625 193.99722Q76.55 194.4191 76.3 194.8566L82.6125 194.8566ZM84.3 190.01285Q84.3 187.7316 84.76875 186.34097Q85.2375 184.95035 86.15938 184.20035Q87.09688 183.43472 88.50313 183.43472Q89.53438 183.43472 90.31563 183.8566Q91.09688 184.26285 91.59688 185.05972Q92.1125 185.84097 92.40938 186.9816Q92.70625 188.1066 92.70625 190.01285Q92.70625 192.27847 92.2375 193.68472Q91.76875 195.07535 90.83125 195.84097Q89.90938 196.59097 88.50313 196.59097Q86.62813 196.59097 85.56563 195.26285Q84.3 193.65347 84.3 190.01285ZM85.925 190.01285Q85.925 193.18472 86.65938 194.24722Q87.40938 195.2941 88.50313 195.2941Q89.58125 195.2941 90.33125 194.24722Q91.08125 193.18472 91.08125 190.01285Q91.08125 186.84097 90.33125 185.7941Q89.58125 184.74722 88.4875 184.74722Q87.39375 184.74722 86.7375 185.6691Q85.925 186.84097 85.925 190.01285ZM94.3 190.01285Q94.3 187.7316 94.76875 186.34097Q95.2375 184.95035 96.15938 184.20035Q97.09688 183.43472 98.50313 183.43472Q99.53438 183.43472 100.31563 183.8566Q101.09688 184.26285 101.59688 185.05972Q102.1125 185.84097 102.40938 186.9816Q102.70625 188.1066 102.70625 190.01285Q102.70625 192.27847 102.2375 193.68472Q101.76875 195.07535 100.83125 195.84097Q99.90938 196.59097 98.50313 196.59097Q96.62813 196.59097 95.56563 195.26285Q94.3 193.65347 94.3 190.01285ZM95.925 190.01285Q95.925 193.18472 96.65938 194.24722Q97.40938 195.2941 98.50313 195.2941Q99.58125 195.2941 100.33125 194.24722Q101.08125 193.18472 101.08125 190.01285Q101.08125 186.84097 100.33125 185.7941Q99.58125 184.74722 98.4875 184.74722Q97.39375 184.74722 96.7375 185.6691Q95.925 186.84097 95.925 190.01285ZM104.3 190.01285Q104.3 187.7316 104.76875 186.34097Q105.2375 184.95035 106.15938 184.20035Q107.09688 183.43472 108.50313 183.43472Q109.53438 183.43472 110.31563 183.8566Q111.09688 184.26285 111.59688 185.05972Q112.1125 185.84097 112.40938 186.9816Q112.70625 188.1066 112.70625 190.01285Q112.70625 192.27847 112.2375 193.68472Q111.76875 195.07535 110.83125 195.84097Q109.90938 196.59097 108.50313 196.59097Q106.62813 196.59097 105.56563 195.26285Q104.3 193.65347 104.3 190.01285ZM105.925 190.01285Q105.925 193.18472 106.65938 194.24722Q107.40938 195.2941 108.50313 195.2941Q109.58125 195.2941 110.33125 194.24722Q111.08125 193.18472 111.08125 190.01285Q111.08125 186.84097 110.33125 185.7941Q109.58125 184.74722 108.4875 184.74722Q107.39375 184.74722 106.7375 185.6691Q105.925 186.84097 105.925 190.01285Z" fill-rule="nonzero"/><path fill="#ea4335" d="M74.3 84.177086L75.89375 83.97396Q76.15938 85.31771 76.81563 85.91146Q77.47188 86.50521 78.40938 86.50521Q79.53438 86.50521 80.3 85.739586Q81.06563 84.958336 81.06563 83.81771Q81.06563 82.72396 80.34688 82.020836Q79.64375 81.302086 78.55 81.302086Q78.09688 81.302086 77.425 81.489586L77.59688 80.09896Q77.75313 80.114586 77.8625 80.114586Q78.8625 80.114586 79.675 79.583336Q80.4875 79.052086 80.4875 77.958336Q80.4875 77.083336 79.89375 76.520836Q79.3 75.94271 78.37813 75.94271Q77.45625 75.94271 76.83125 76.520836Q76.22188 77.09896 76.05 78.270836L74.47188 77.989586Q74.75313 76.395836 75.78438 75.520836Q76.81563 74.645836 78.34688 74.645836Q79.39375 74.645836 80.28438 75.09896Q81.175 75.552086 81.64375 76.333336Q82.1125 77.114586 82.1125 77.989586Q82.1125 78.833336 81.65938 79.520836Q81.22188 80.19271 80.33125 80.59896Q81.47188 80.864586 82.09688 81.708336Q82.7375 82.53646 82.7375 83.770836Q82.7375 85.458336 81.50313 86.645836Q80.28438 87.81771 78.40938 87.81771Q76.70625 87.81771 75.58125 86.802086Q74.47188 85.78646 74.3 84.177086ZM84.3 81.22396Q84.3 78.94271 84.76875 77.552086Q85.2375 76.16146 86.15938 75.41146Q87.09688 74.645836 88.50313 74.645836Q89.53438 74.645836 90.31563 75.06771Q91.09688 75.47396 91.59688 76.270836Q92.1125 77.052086 92.40938 78.19271Q92.70625 79.31771 92.70625 81.22396Q92.70625 83.489586 92.2375 84.895836Q91.76875 86.28646 90.83125 87.052086Q89.90938 87.802086 88.50313 87.802086Q86.62813 87.802086 85.56563 86.47396Q84.3 84.864586 84.3 81.22396ZM85.925 81.22396Q85.925 84.395836 86.65938 85.458336Q87.40938 86.50521 88.50313 86.50521Q89.58125 86.50521 90.33125 85.458336Q91.08125 84.395836 91.08125 81.22396Q91.08125 78.052086 90.33125 77.00521Q89.58125 75.958336 88.4875 75.958336Q87.39375 75.958336 86.7375 76.88021Q85.925 78.052086 85.925 81.22396ZM94.3 81.22396Q94.3 78.94271 94.76875 77.552086Q95.2375 76.16146 96.15938 75.41146Q97.09688 74.645836 98.50313 74.645836Q99.53438 74.645836 100.31563 75.06771Q101.09688 75.47396 101.59688 76.270836Q102.1125 77.052086 102.40938 78.19271Q102.70625 79.31771 102.70625 81.22396Q102.70625 83.489586 102.2375 84.895836Q101.76875 86.28646 100.83125 87.052086Q99.90938 87.802086 98.50313 87.802086Q96.62813 87.802086 95.56563 86.47396Q94.3 84.864586 94.3 81.22396ZM95.925 81.22396Q95.925 84.395836 96.65938 85.458336Q97.40938 86.50521 98.50313 86.50521Q99.58125 86.50521 100.33125 85.458336Q101.08125 84.395836 101.08125 81.22396Q101.08125 78.052086 100.33125 77.00521Q99.58125 75.958336 98.4875 75.958336Q97.39375 75.958336 96.7375 76.88021Q95.925 78.052086 95.925 81.22396ZM104.3 81.22396Q104.3 78.94271 104.76875 77.552086Q105.2375 76.16146 106.15938 75.41146Q107.09688 74.645836 108.50313 74.645836Q109.53438 74.645836 110.31563 75.06771Q111.09688 75.47396 111.59688 76.270836Q112.1125 77.052086 112.40938 78.19271Q112.70625 79.31771 112.70625 81.22396Q112.70625 83.489586 112.2375 84.895836Q111.76875 86.28646 110.83125 87.052086Q109.90938 87.802086 108.50313 87.802086Q106.62813 87.802086 105.56563 86.47396Q104.3 84.864586 104.3 81.22396ZM105.925 81.22396Q105.925 84.395836 106.65938 85.458336Q107.40938 86.50521 108.50313 86.50521Q109.58125 86.50521 110.33125 85.458336Q111.08125 84.395836 111.08125 81.22396Q111.08125 78.052086 110.33125 77.00521Q109.58125 75.958336 108.4875 75.958336Q107.39375 75.958336 106.7375 76.88021Q105.925 78.052086 105.925 81.22396Z" fill-rule="nonzero"/><path fill="#000000" d="M83.6125 431.9344L83.6125 433.45L75.09688 433.45Q75.08125 432.8719 75.28438 432.35626Q75.6125 431.48126 76.31563 430.6375Q77.03438 429.79376 78.39375 428.6844Q80.4875 426.96564 81.22188 425.96564Q81.97188 424.95 81.97188 424.0594Q81.97188 423.10626 81.3 422.46564Q80.62813 421.825 79.55 421.825Q78.39375 421.825 77.70625 422.5125Q77.03438 423.2 77.01875 424.40314L75.39375 424.23126Q75.56563 422.41876 76.64375 421.46564Q77.7375 420.5125 79.58125 420.5125Q81.425 420.5125 82.50313 421.54376Q83.59688 422.575 83.59688 424.09064Q83.59688 424.85626 83.26875 425.60626Q82.95625 426.35626 82.22188 427.1844Q81.4875 428.0125 79.78438 429.45Q78.3625 430.65314 77.95625 431.075Q77.55 431.4969 77.3 431.9344L83.6125 431.9344ZM85.3 427.09064Q85.3 424.8094 85.76875 423.41876Q86.2375 422.02814 87.15938 421.27814Q88.09688 420.5125 89.50313 420.5125Q90.53438 420.5125 91.31563 420.9344Q92.09688 421.34064 92.59688 422.1375Q93.1125 422.91876 93.40938 424.0594Q93.70625 425.1844 93.70625 427.09064Q93.70625 429.35626 93.2375 430.7625Q92.76875 432.15314 91.83125 432.91876Q90.90938 433.66876 89.50313 433.66876Q87.62813 433.66876 86.56563 432.34064Q85.3 430.73126 85.3 427.09064ZM86.925 427.09064Q86.925 430.2625 87.65938 431.325Q88.40938 432.3719 89.50313 432.3719Q90.58125 432.3719 91.33125 431.325Q92.08125 430.2625 92.08125 427.09064Q92.08125 423.91876 91.33125 422.8719Q90.58125 421.825 89.4875 421.825Q88.39375 421.825 87.7375 422.7469Q86.925 423.91876 86.925 427.09064ZM103.6125 431.9344L103.6125 433.45L95.09688 433.45Q95.08125 432.8719 95.28438 432.35626Q95.6125 431.48126 96.31563 430.6375Q97.03438 429.79376 98.39375 428.6844Q100.4875 426.96564 101.22188 425.96564Q101.97188 424.95 101.97188 424.0594Q101.97188 423.10626 101.3 422.46564Q100.62813 421.825 99.55 421.825Q98.39375 421.825 97.70625 422.5125Q97.03438 423.2 97.01875 424.40314L95.39375 424.23126Q95.56563 422.41876 96.64375 421.46564Q97.7375 420.5125 99.58125 420.5125Q101.425 420.5125 102.50313 421.54376Q103.59688 422.575 103.59688 424.09064Q103.59688 424.85626 103.26875 425.60626Q102.95625 426.35626 102.22188 427.1844Q101.4875 428.0125 99.78438 429.45Q98.3625 430.65314 97.95625 431.075Q97.55 431.4969 97.3 431.9344L103.6125 431.9344ZM105.3 427.09064Q105.3 424.8094 105.76875 423.41876Q106.2375 422.02814 107.15938 421.27814Q108.09688 420.5125 109.50313 420.5125Q110.53438 420.5125 111.31563 420.9344Q112.09688 421.34064 112.59688 422.1375Q113.1125 422.91876 113.40938 424.0594Q113.70625 425.1844 113.70625 427.09064Q113.70625 429.35626 113.2375 430.7625Q112.76875 432.15314 111.83125 432.91876Q110.90938 433.66876 109.50313 433.66876Q107.62813 433.66876 106.56563 432.34064Q105.3 430.73126 105.3 427.09064ZM106.925 427.09064Q106.925 430.2625 107.65938 431.325Q108.40938 432.3719 109.50313 432.3719Q110.58125 432.3719 111.33125 431.325Q112.08125 430.2625 112.08125 427.09064Q112.08125 423.91876 111.33125 422.8719Q110.58125 421.825 109.4875 421.825Q108.39375 421.825 107.7375 422.7469Q106.925 423.91876 106.925 427.09064Z" fill-rule="nonzero"/><path fill="#000000" d="M120.175 422.48126Q118.84688 424.79376 116.87813 426.34064L115.89375 425.075Q118.76875 422.96564 119.83125 418.96564L121.44063 419.3875Q121.72188 419.66876 121.2375 419.73126L120.675 421.1375L130.58125 421.1375L130.58125 422.48126L125.45625 422.48126L125.45625 424.8719L129.675 424.8719L129.675 426.2L125.45625 426.2L125.45625 429.3719L131.3625 429.3719L131.3625 430.7L125.45625 430.7L125.45625 434.9344L124.05 434.9344L124.05 430.7L115.95625 430.7L115.95625 429.3719L119.12813 429.3719L119.12813 424.8719L124.05 424.8719L124.05 422.48126L120.175 422.48126ZM120.53438 429.3719L124.05 429.3719L124.05 426.2L120.53438 426.2L120.53438 429.3719Z" fill-rule="nonzero"/><path fill="#000000" d="M133.3 427.09064Q133.3 424.8094 133.76875 423.41876Q134.2375 422.02814 135.15938 421.27814Q136.09688 420.5125 137.50313 420.5125Q138.53438 420.5125 139.31563 420.9344Q140.09688 421.34064 140.59688 422.1375Q141.1125 422.91876 141.40938 424.0594Q141.70625 425.1844 141.70625 427.09064Q141.70625 429.35626 141.2375 430.7625Q140.76875 432.15314 139.83125 432.91876Q138.90938 433.66876 137.50313 433.66876Q135.62813 433.66876 134.56563 432.34064Q133.3 430.73126 133.3 427.09064ZM134.925 427.09064Q134.925 430.2625 135.65938 431.325Q136.40938 432.3719 137.50313 432.3719Q138.58125 432.3719 139.33125 431.325Q140.08125 430.2625 140.08125 427.09064Q140.08125 423.91876 139.33125 422.8719Q138.58125 421.825 137.4875 421.825Q136.39375 421.825 135.7375 422.7469Q134.925 423.91876 134.925 427.09064ZM149.25313 433.45L147.675 433.45L147.675 423.3719Q147.09688 423.91876 146.175 424.46564Q145.25313 424.9969 144.50313 425.27814L144.50313 423.7469Q145.83125 423.1219 146.83125 422.23126Q147.83125 421.34064 148.2375 420.5125L149.25313 420.5125L149.25313 433.45Z" fill-rule="nonzero"/><path fill="#000000" d="M165.28438 429.3719L158.59688 429.3719Q158.59688 432.3875 155.50313 435.075L154.31563 433.73126Q157.19063 431.90314 157.19063 428.2469L157.19063 419.66876L166.69063 419.66876L166.69063 433.52814Q166.69063 434.65314 165.4875 434.65314L163.8 434.65314L163.51875 433.09064L165.00313 433.09064Q165.28438 433.09064 165.28438 432.8094L165.28438 429.3719ZM158.59688 427.825L165.28438 427.825L165.28438 425.29376L158.59688 425.29376L158.59688 427.825ZM158.59688 423.7469L165.28438 423.7469L165.28438 421.21564L158.59688 421.21564L158.59688 423.7469Z" fill-rule="nonzero"/><path fill="#000000" d="M231.8272 431.9344L231.8272 433.45L223.31157 433.45Q223.29594 432.8719 223.49907 432.35626Q223.8272 431.48126 224.53032 430.6375Q225.24907 429.79376 226.60844 428.6844Q228.7022 426.96564 229.43657 425.96564Q230.18657 424.95 230.18657 424.0594Q230.18657 423.10626 229.5147 422.46564Q228.84282 421.825 227.7647 421.825Q226.60844 421.825 225.92094 422.5125Q225.24907 423.2 225.23344 424.40314L223.60844 424.23126Q223.78032 422.41876 224.85844 421.46564Q225.9522 420.5125 227.79594 420.5125Q229.6397 420.5125 230.71782 421.54376Q231.81157 422.575 231.81157 424.09064Q231.81157 424.85626 231.48344 425.60626Q231.17094 426.35626 230.43657 427.1844Q229.7022 428.0125 227.99907 429.45Q226.5772 430.65314 226.17094 431.075Q225.7647 431.4969 225.5147 431.9344L231.8272 431.9344ZM233.5147 427.09064Q233.5147 424.8094 233.98344 423.41876Q234.4522 422.02814 235.37407 421.27814Q236.31157 420.5125 237.71782 420.5125Q238.74907 420.5125 239.53032 420.9344Q240.31157 421.34064 240.81157 422.1375Q241.3272 422.91876 241.62407 424.0594Q241.92094 425.1844 241.92094 427.09064Q241.92094 429.35626 241.4522 430.7625Q240.98344 432.15314 240.04594 432.91876Q239.12407 433.66876 237.71782 433.66876Q235.84282 433.66876 234.78032 432.34064Q233.5147 430.73126 233.5147 427.09064ZM235.1397 427.09064Q235.1397 430.2625 235.87407 431.325Q236.62407 432.3719 237.71782 432.3719Q238.79594 432.3719 239.54594 431.325Q240.29594 430.2625 240.29594 427.09064Q240.29594 423.91876 239.54594 422.8719Q238.79594 421.825 237.7022 421.825Q236.60844 421.825 235.9522 422.7469Q235.1397 423.91876 235.1397 427.09064ZM251.8272 431.9344L251.8272 433.45L243.31157 433.45Q243.29594 432.8719 243.49907 432.35626Q243.8272 431.48126 244.53032 430.6375Q245.24907 429.79376 246.60844 428.6844Q248.7022 426.96564 249.43657 425.96564Q250.18657 424.95 250.18657 424.0594Q250.18657 423.10626 249.5147 422.46564Q248.84282 421.825 247.7647 421.825Q246.60844 421.825 245.92094 422.5125Q245.24907 423.2 245.23344 424.40314L243.60844 424.23126Q243.78032 422.41876 244.85844 421.46564Q245.9522 420.5125 247.79594 420.5125Q249.6397 420.5125 250.71782 421.54376Q251.81157 422.575 251.81157 424.09064Q251.81157 424.85626 251.48344 425.60626Q251.17094 426.35626 250.43657 427.1844Q249.7022 428.0125 247.99907 429.45Q246.5772 430.65314 246.17094 431.075Q245.7647 431.4969 245.5147 431.9344L251.8272 431.9344ZM259.46783 433.45L257.8897 433.45L257.8897 423.3719Q257.31158 423.91876 256.3897 424.46564Q255.46782 424.9969 254.71782 425.27814L254.71782 423.7469Q256.04596 423.1219 257.04596 422.23126Q258.04596 421.34064 258.4522 420.5125L259.46783 420.5125L259.46783 433.45Z" fill-rule="nonzero"/><path fill="#000000" d="M268.3897 422.48126Q267.06158 424.79376 265.09283 426.34064L264.10846 425.075Q266.98346 422.96564 268.04596 418.96564L269.65533 419.3875Q269.93658 419.66876 269.4522 419.73126L268.8897 421.1375L278.79596 421.1375L278.79596 422.48126L273.67096 422.48126L273.67096 424.8719L277.8897 424.8719L277.8897 426.2L273.67096 426.2L273.67096 429.3719L279.5772 429.3719L279.5772 430.7L273.67096 430.7L273.67096 434.9344L272.2647 434.9344L272.2647 430.7L264.17096 430.7L264.17096 429.3719L267.34283 429.3719L267.34283 424.8719L272.2647 424.8719L272.2647 422.48126L268.3897 422.48126ZM268.74908 429.3719L272.2647 429.3719L272.2647 426.2L268.74908 426.2L268.74908 429.3719Z" fill-rule="nonzero"/><path fill="#000000" d="M281.5147 427.09064Q281.5147 424.8094 281.98346 423.41876Q282.4522 422.02814 283.37408 421.27814Q284.31158 420.5125 285.71783 420.5125Q286.74908 420.5125 287.53033 420.9344Q288.31158 421.34064 288.81158 422.1375Q289.3272 422.91876 289.62408 424.0594Q289.92096 425.1844 289.92096 427.09064Q289.92096 429.35626 289.4522 430.7625Q288.98346 432.15314 288.04596 432.91876Q287.12408 433.66876 285.71783 433.66876Q283.84283 433.66876 282.78033 432.34064Q281.5147 430.73126 281.5147 427.09064ZM283.1397 427.09064Q283.1397 430.2625 283.87408 431.325Q284.62408 432.3719 285.71783 432.3719Q286.79596 432.3719 287.54596 431.325Q288.29596 430.2625 288.29596 427.09064Q288.29596 423.91876 287.54596 422.8719Q286.79596 421.825 285.7022 421.825Q284.60846 421.825 283.9522 422.7469Q283.1397 423.91876 283.1397 427.09064ZM297.46783 433.45L295.8897 433.45L295.8897 423.3719Q295.31158 423.91876 294.3897 424.46564Q293.46783 424.9969 292.71783 425.27814L292.71783 423.7469Q294.04596 423.1219 295.04596 422.23126Q296.04596 421.34064 296.4522 420.5125L297.46783 420.5125L297.46783 433.45Z" fill-rule="nonzero"/><path fill="#000000" d="M313.49908 429.3719L306.81158 429.3719Q306.81158 432.3875 303.71783 435.075L302.53033 433.73126Q305.40533 431.90314 305.40533 428.2469L305.40533 419.66876L314.90533 419.66876L314.90533 433.52814Q314.90533 434.65314 313.7022 434.65314L312.0147 434.65314L311.73346 433.09064L313.21783 433.09064Q313.49908 433.09064 313.49908 432.8094L313.49908 429.3719ZM306.81158 427.825L313.49908 427.825L313.49908 425.29376L306.81158 425.29376L306.81158 427.825ZM306.81158 423.7469L313.49908 423.7469L313.49908 421.21564L306.81158 421.21564L306.81158 423.7469Z" fill-rule="nonzero"/><path fill="#000000" d="M379.63693 431.9344L379.63693 433.45L371.1213 433.45Q371.10568 432.8719 371.3088 432.35626Q371.63693 431.48126 372.34006 430.6375Q373.0588 429.79376 374.41818 428.6844Q376.51193 426.96564 377.2463 425.96564Q377.9963 424.95 377.9963 424.0594Q377.9963 423.10626 377.32443 422.46564Q376.65256 421.825 375.57443 421.825Q374.41818 421.825 373.73068 422.5125Q373.0588 423.2 373.04318 424.40314L371.41818 424.23126Q371.59006 422.41876 372.66818 421.46564Q373.76193 420.5125 375.60568 420.5125Q377.44943 420.5125 378.52756 421.54376Q379.6213 422.575 379.6213 424.09064Q379.6213 424.85626 379.29318 425.60626Q378.98068 426.35626 378.2463 427.1844Q377.51193 428.0125 375.8088 429.45Q374.38693 430.65314 373.98068 431.075Q373.57443 431.4969 373.32443 431.9344L379.63693 431.9344ZM381.32443 427.09064Q381.32443 424.8094 381.79318 423.41876Q382.26193 422.02814 383.1838 421.27814Q384.1213 420.5125 385.52756 420.5125Q386.5588 420.5125 387.34006 420.9344Q388.1213 421.34064 388.6213 422.1375Q389.13693 422.91876 389.4338 424.0594Q389.73068 425.1844 389.73068 427.09064Q389.73068 429.35626 389.26193 430.7625Q388.79318 432.15314 387.85568 432.91876Q386.9338 433.66876 385.52756 433.66876Q383.65256 433.66876 382.59006 432.34064Q381.32443 430.73126 381.32443 427.09064ZM382.94943 427.09064Q382.94943 430.2625 383.6838 431.325Q384.4338 432.3719 385.52756 432.3719Q386.60568 432.3719 387.35568 431.325Q388.10568 430.2625 388.10568 427.09064Q388.10568 423.91876 387.35568 422.8719Q386.60568 421.825 385.51193 421.825Q384.41818 421.825 383.76193 422.7469Q382.94943 423.91876 382.94943 427.09064ZM399.63693 431.9344L399.63693 433.45L391.1213 433.45Q391.10568 432.8719 391.3088 432.35626Q391.63693 431.48126 392.34006 430.6375Q393.0588 429.79376 394.41818 428.6844Q396.51193 426.96564 397.2463 425.96564Q397.9963 424.95 397.9963 424.0594Q397.9963 423.10626 397.32443 422.46564Q396.65256 421.825 395.57443 421.825Q394.41818 421.825 393.73068 422.5125Q393.0588 423.2 393.04318 424.40314L391.41818 424.23126Q391.59006 422.41876 392.66818 421.46564Q393.76193 420.5125 395.60568 420.5125Q397.44943 420.5125 398.52756 421.54376Q399.6213 422.575 399.6213 424.09064Q399.6213 424.85626 399.29318 425.60626Q398.98068 426.35626 398.2463 427.1844Q397.51193 428.0125 395.8088 429.45Q394.38693 430.65314 393.98068 431.075Q393.57443 431.4969 393.32443 431.9344L399.63693 431.9344ZM409.63693 431.9344L409.63693 433.45L401.1213 433.45Q401.10568 432.8719 401.3088 432.35626Q401.63693 431.48126 402.34006 430.6375Q403.0588 429.79376 404.41818 428.6844Q406.51193 426.96564 407.2463 425.96564Q407.9963 424.95 407.9963 424.0594Q407.9963 423.10626 407.32443 422.46564Q406.65256 421.825 405.57443 421.825Q404.41818 421.825 403.73068 422.5125Q403.0588 423.2 403.04318 424.40314L401.41818 424.23126Q401.59006 422.41876 402.66818 421.46564Q403.76193 420.5125 405.60568 420.5125Q407.44943 420.5125 408.52756 421.54376Q409.6213 422.575 409.6213 424.09064Q409.6213 424.85626 409.29318 425.60626Q408.98068 426.35626 408.2463 427.1844Q407.51193 428.0125 405.8088 429.45Q404.38693 430.65314 403.98068 431.075Q403.57443 431.4969 403.32443 431.9344L409.63693 431.9344Z" fill-rule="nonzero"/><path fill="#000000" d="M416.19943 422.48126Q414.8713 424.79376 412.90256 426.34064L411.91818 425.075Q414.79318 422.96564 415.85568 418.96564L417.46506 419.3875Q417.7463 419.66876 417.26193 419.73126L416.69943 421.1375L426.60568 421.1375L426.60568 422.48126L421.48068 422.48126L421.48068 424.8719L425.69943 424.8719L425.69943 426.2L421.48068 426.2L421.48068 429.3719L427.38693 429.3719L427.38693 430.7L421.48068 430.7L421.48068 434.9344L420.07443 434.9344L420.07443 430.7L411.98068 430.7L411.98068 429.3719L415.15256 429.3719L415.15256 424.8719L420.07443 424.8719L420.07443 422.48126L416.19943 422.48126ZM416.5588 429.3719L420.07443 429.3719L420.07443 426.2L416.5588 426.2L416.5588 429.3719Z" fill-rule="nonzero"/><path fill="#000000" d="M429.32443 427.09064Q429.32443 424.8094 429.79318 423.41876Q430.26193 422.02814 431.1838 421.27814Q432.1213 420.5125 433.52756 420.5125Q434.5588 420.5125 435.34006 420.9344Q436.1213 421.34064 436.6213 422.1375Q437.13693 422.91876 437.4338 424.0594Q437.73068 425.1844 437.73068 427.09064Q437.73068 429.35626 437.26193 430.7625Q436.79318 432.15314 435.85568 432.91876Q434.9338 433.66876 433.52756 433.66876Q431.65256 433.66876 430.59006 432.34064Q429.32443 430.73126 429.32443 427.09064ZM430.94943 427.09064Q430.94943 430.2625 431.6838 431.325Q432.4338 432.3719 433.52756 432.3719Q434.60568 432.3719 435.35568 431.325Q436.10568 430.2625 436.10568 427.09064Q436.10568 423.91876 435.35568 422.8719Q434.60568 421.825 433.51193 421.825Q432.41818 421.825 431.76193 422.7469Q430.94943 423.91876 430.94943 427.09064ZM445.27756 433.45L443.69943 433.45L443.69943 423.3719Q443.1213 423.91876 442.19943 424.46564Q441.27756 424.9969 440.52756 425.27814L440.52756 423.7469Q441.85568 423.1219 442.85568 422.23126Q443.85568 421.34064 444.26193 420.5125L445.27756 420.5125L445.27756 433.45Z" fill-rule="nonzero"/><path fill="#000000" d="M461.3088 429.3719L454.6213 429.3719Q454.6213 432.3875 451.52756 435.075L450.34006 433.73126Q453.21506 431.90314 453.21506 428.2469L453.21506 419.66876L462.71506 419.66876L462.71506 433.52814Q462.71506 434.65314 461.51193 434.65314L459.82443 434.65314L459.54318 433.09064L461.02756 433.09064Q461.3088 433.09064 461.3088 432.8094L461.3088 429.3719ZM454.6213 427.825L461.3088 427.825L461.3088 425.29376L454.6213 425.29376L454.6213 427.825ZM454.6213 423.7469L461.3088 423.7469L461.3088 421.21564L454.6213 421.21564L454.6213 423.7469Z" fill-rule="nonzero"/><path fill="#000000" d="M527.44666 431.9344L527.44666 433.45L518.931 433.45Q518.9154 432.8719 519.1185 432.35626Q519.44666 431.48126 520.1498 430.6375Q520.8685 429.79376 522.2279 428.6844Q524.32166 426.96564 525.056 425.96564Q525.806 424.95 525.806 424.0594Q525.806 423.10626 525.13416 422.46564Q524.4623 421.825 523.38416 421.825Q522.2279 421.825 521.5404 422.5125Q520.8685 423.2 520.8529 424.40314L519.2279 424.23126Q519.3998 422.41876 520.4779 421.46564Q521.57166 420.5125 523.4154 420.5125Q525.25916 420.5125 526.3373 421.54376Q527.431 422.575 527.431 424.09064Q527.431 424.85626 527.1029 425.60626Q526.7904 426.35626 526.056 427.1844Q525.32166 428.0125 523.6185 429.45Q522.19666 430.65314 521.7904 431.075Q521.38416 431.4969 521.13416 431.9344L527.44666 431.9344ZM529.13416 427.09064Q529.13416 424.8094 529.6029 423.41876Q530.07166 422.02814 530.9935 421.27814Q531.931 420.5125 533.3373 420.5125Q534.3685 420.5125 535.1498 420.9344Q535.931 421.34064 536.431 422.1375Q536.94666 422.91876 537.2435 424.0594Q537.5404 425.1844 537.5404 427.09064Q537.5404 429.35626 537.07166 430.7625Q536.6029 432.15314 535.6654 432.91876Q534.7435 433.66876 533.3373 433.66876Q531.4623 433.66876 530.3998 432.34064Q529.13416 430.73126 529.13416 427.09064ZM530.75916 427.09064Q530.75916 430.2625 531.4935 431.325Q532.2435 432.3719 533.3373 432.3719Q534.4154 432.3719 535.1654 431.325Q535.9154 430.2625 535.9154 427.09064Q535.9154 423.91876 535.1654 422.8719Q534.4154 421.825 533.32166 421.825Q532.2279 421.825 531.57166 422.7469Q530.75916 423.91876 530.75916 427.09064ZM547.44666 431.9344L547.44666 433.45L538.931 433.45Q538.9154 432.8719 539.1185 432.35626Q539.44666 431.48126 540.1498 430.6375Q540.8685 429.79376 542.2279 428.6844Q544.32166 426.96564 545.056 425.96564Q545.806 424.95 545.806 424.0594Q545.806 423.10626 545.13416 422.46564Q544.4623 421.825 543.38416 421.825Q542.2279 421.825 541.5404 422.5125Q540.8685 423.2 540.8529 424.40314L539.2279 424.23126Q539.3998 422.41876 540.4779 421.46564Q541.57166 420.5125 543.4154 420.5125Q545.25916 420.5125 546.3373 421.54376Q547.431 422.575 547.431 424.09064Q547.431 424.85626 547.1029 425.60626Q546.7904 426.35626 546.056 427.1844Q545.32166 428.0125 543.6185 429.45Q542.19666 430.65314 541.7904 431.075Q541.38416 431.4969 541.13416 431.9344L547.44666 431.9344ZM549.13416 430.04376L550.7279 429.84064Q550.9935 431.1844 551.6498 431.77814Q552.306 432.3719 553.2435 432.3719Q554.3685 432.3719 555.13416 431.60626Q555.8998 430.825 555.8998 429.6844Q555.8998 428.59064 555.181 427.8875Q554.4779 427.16876 553.38416 427.16876Q552.931 427.16876 552.25916 427.35626L552.431 425.96564Q552.5873 425.98126 552.69666 425.98126Q553.69666 425.98126 554.50916 425.45Q555.32166 424.91876 555.32166 423.825Q555.32166 422.95 554.7279 422.3875Q554.13416 421.8094 553.2123 421.8094Q552.2904 421.8094 551.6654 422.3875Q551.056 422.96564 550.88416 424.1375L549.306 423.85626Q549.5873 422.2625 550.6185 421.3875Q551.6498 420.5125 553.181 420.5125Q554.2279 420.5125 555.1185 420.96564Q556.00916 421.41876 556.4779 422.2Q556.94666 422.98126 556.94666 423.85626Q556.94666 424.7 556.4935 425.3875Q556.056 426.0594 555.1654 426.46564Q556.306 426.73126 556.931 427.575Q557.57166 428.40314 557.57166 429.6375Q557.57166 431.325 556.3373 432.5125Q555.1185 433.6844 553.2435 433.6844Q551.5404 433.6844 550.4154 432.66876Q549.306 431.65314 549.13416 430.04376Z" fill-rule="nonzero"/><path fill="#000000" d="M564.00916 422.48126Q562.681 424.79376 560.7123 426.34064L559.7279 425.075Q562.6029 422.96564 563.6654 418.96564L565.2748 419.3875Q565.556 419.66876 565.07166 419.73126L564.50916 421.1375L574.4154 421.1375L574.4154 422.48126L569.2904 422.48126L569.2904 424.8719L573.50916 424.8719L573.50916 426.2L569.2904 426.2L569.2904 429.3719L575.19666 429.3719L575.19666 430.7L569.2904 430.7L569.2904 434.9344L567.88416 434.9344L567.88416 430.7L559.7904 430.7L559.7904 429.3719L562.9623 429.3719L562.9623 424.8719L567.88416 424.8719L567.88416 422.48126L564.00916 422.48126ZM564.3685 429.3719L567.88416 429.3719L567.88416 426.2L564.3685 426.2L564.3685 429.3719Z" fill-rule="nonzero"/><path fill="#000000" d="M577.13416 427.09064Q577.13416 424.8094 577.6029 423.41876Q578.07166 422.02814 578.9935 421.27814Q579.931 420.5125 581.3373 420.5125Q582.3685 420.5125 583.1498 420.9344Q583.931 421.34064 584.431 422.1375Q584.94666 422.91876 585.2435 424.0594Q585.5404 425.1844 585.5404 427.09064Q585.5404 429.35626 585.07166 430.7625Q584.6029 432.15314 583.6654 432.91876Q582.7435 433.66876 581.3373 433.66876Q579.4623 433.66876 578.3998 432.34064Q577.13416 430.73126 577.13416 427.09064ZM578.75916 427.09064Q578.75916 430.2625 579.4935 431.325Q580.2435 432.3719 581.3373 432.3719Q582.4154 432.3719 583.1654 431.325Q583.9154 430.2625 583.9154 427.09064Q583.9154 423.91876 583.1654 422.8719Q582.4154 421.825 581.32166 421.825Q580.2279 421.825 579.57166 422.7469Q578.75916 423.91876 578.75916 427.09064ZM593.0873 433.45L591.50916 433.45L591.50916 423.3719Q590.931 423.91876 590.00916 424.46564Q589.0873 424.9969 588.3373 425.27814L588.3373 423.7469Q589.6654 423.1219 590.6654 422.23126Q591.6654 421.34064 592.07166 420.5125L593.0873 420.5125L593.0873 433.45Z" fill-rule="nonzero"/><path fill="#000000" d="M609.1185 429.3719L602.431 429.3719Q602.431 432.3875 599.3373 435.075L598.1498 433.73126Q601.0248 431.90314 601.0248 428.2469L601.0248 419.66876L610.5248 419.66876L610.5248 433.52814Q610.5248 434.65314 609.32166 434.65314L607.63416 434.65314L607.3529 433.09064L608.8373 433.09064Q609.1185 433.09064 609.1185 432.8094L609.1185 429.3719ZM602.431 427.825L609.1185 427.825L609.1185 425.29376L602.431 425.29376L602.431 427.825ZM602.431 423.7469L609.1185 423.7469L609.1185 421.21564L602.431 421.21564L602.431 423.7469Z" fill-rule="nonzero"/><path fill="#000000" d="M675.2564 431.9344L675.2564 433.45L666.7408 433.45Q666.72516 432.8719 666.9283 432.35626Q667.2564 431.48126 667.95953 430.6375Q668.6783 429.79376 670.03766 428.6844Q672.1314 426.96564 672.8658 425.96564Q673.6158 424.95 673.6158 424.0594Q673.6158 423.10626 672.9439 422.46564Q672.27203 421.825 671.1939 421.825Q670.03766 421.825 669.35016 422.5125Q668.6783 423.2 668.66266 424.40314L667.03766 424.23126Q667.20953 422.41876 668.28766 421.46564Q669.3814 420.5125 671.22516 420.5125Q673.0689 420.5125 674.14703 421.54376Q675.2408 422.575 675.2408 424.09064Q675.2408 424.85626 674.91266 425.60626Q674.60016 426.35626 673.8658 427.1844Q673.1314 428.0125 671.4283 429.45Q670.0064 430.65314 669.60016 431.075Q669.1939 431.4969 668.9439 431.9344L675.2564 431.9344ZM676.9439 427.09064Q676.9439 424.8094 677.41266 423.41876Q677.8814 422.02814 678.8033 421.27814Q679.7408 420.5125 681.14703 420.5125Q682.1783 420.5125 682.95953 420.9344Q683.7408 421.34064 684.2408 422.1375Q684.7564 422.91876 685.0533 424.0594Q685.35016 425.1844 685.35016 427.09064Q685.35016 429.35626 684.8814 430.7625Q684.41266 432.15314 683.47516 432.91876Q682.5533 433.66876 681.14703 433.66876Q679.27203 433.66876 678.20953 432.34064Q676.9439 430.73126 676.9439 427.09064ZM678.5689 427.09064Q678.5689 430.2625 679.3033 431.325Q680.0533 432.3719 681.14703 432.3719Q682.22516 432.3719 682.97516 431.325Q683.72516 430.2625 683.72516 427.09064Q683.72516 423.91876 682.97516 422.8719Q682.22516 421.825 681.1314 421.825Q680.03766 421.825 679.3814 422.7469Q678.5689 423.91876 678.5689 427.09064ZM695.2564 431.9344L695.2564 433.45L686.7408 433.45Q686.72516 432.8719 686.9283 432.35626Q687.2564 431.48126 687.95953 430.6375Q688.6783 429.79376 690.03766 428.6844Q692.1314 426.96564 692.8658 425.96564Q693.6158 424.95 693.6158 424.0594Q693.6158 423.10626 692.9439 422.46564Q692.27203 421.825 691.1939 421.825Q690.03766 421.825 689.35016 422.5125Q688.6783 423.2 688.66266 424.40314L687.03766 424.23126Q687.20953 422.41876 688.28766 421.46564Q689.3814 420.5125 691.22516 420.5125Q693.0689 420.5125 694.14703 421.54376Q695.2408 422.575 695.2408 424.09064Q695.2408 424.85626 694.91266 425.60626Q694.60016 426.35626 693.8658 427.1844Q693.1314 428.0125 691.4283 429.45Q690.0064 430.65314 689.60016 431.075Q689.1939 431.4969 688.9439 431.9344L695.2564 431.9344ZM702.0064 433.45L702.0064 430.3719L696.4283 430.3719L696.4283 428.91876L702.3033 420.5594L703.60016 420.5594L703.60016 428.91876L705.33453 428.91876L705.33453 430.3719L703.60016 430.3719L703.60016 433.45L702.0064 433.45ZM702.0064 428.91876L702.0064 423.10626L697.97516 428.91876L702.0064 428.91876Z" fill-rule="nonzero"/><path fill="#000000" d="M711.8189 422.48126Q710.4908 424.79376 708.52203 426.34064L707.53766 425.075Q710.41266 422.96564 711.47516 418.96564L713.08453 419.3875Q713.3658 419.66876 712.8814 419.73126L712.3189 421.1375L722.22516 421.1375L722.22516 422.48126L717.10016 422.48126L717.10016 424.8719L721.3189 424.8719L721.3189 426.2L717.10016 426.2L717.10016 429.3719L723.0064 429.3719L723.0064 430.7L717.10016 430.7L717.10016 434.9344L715.6939 434.9344L715.6939 430.7L707.60016 430.7L707.60016 429.3719L710.77203 429.3719L710.77203 424.8719L715.6939 424.8719L715.6939 422.48126L711.8189 422.48126ZM712.1783 429.3719L715.6939 429.3719L715.6939 426.2L712.1783 426.2L712.1783 429.3719Z" fill-rule="nonzero"/><path fill="#000000" d="M724.9439 427.09064Q724.9439 424.8094 725.41266 423.41876Q725.8814 422.02814 726.8033 421.27814Q727.7408 420.5125 729.14703 420.5125Q730.1783 420.5125 730.95953 420.9344Q731.7408 421.34064 732.2408 422.1375Q732.7564 422.91876 733.0533 424.0594Q733.35016 425.1844 733.35016 427.09064Q733.35016 429.35626 732.8814 430.7625Q732.41266 432.15314 731.47516 432.91876Q730.5533 433.66876 729.14703 433.66876Q727.27203 433.66876 726.20953 432.34064Q724.9439 430.73126 724.9439 427.09064ZM726.5689 427.09064Q726.5689 430.2625 727.3033 431.325Q728.0533 432.3719 729.14703 432.3719Q730.22516 432.3719 730.97516 431.325Q731.72516 430.2625 731.72516 427.09064Q731.72516 423.91876 730.97516 422.8719Q730.22516 421.825 729.1314 421.825Q728.03766 421.825 727.3814 422.7469Q726.5689 423.91876 726.5689 427.09064ZM740.89703 433.45L739.3189 433.45L739.3189 423.3719Q738.7408 423.91876 737.8189 424.46564Q736.89703 424.9969 736.14703 425.27814L736.14703 423.7469Q737.47516 423.1219 738.47516 422.23126Q739.47516 421.34064 739.8814 420.5125L740.89703 420.5125L740.89703 433.45Z" fill-rule="nonzero"/><path fill="#000000" d="M756.9283 429.3719L750.2408 429.3719Q750.2408 432.3875 747.14703 435.075L745.95953 433.73126Q748.83453 431.90314 748.83453 428.2469L748.83453 419.66876L758.33453 419.66876L758.33453 433.52814Q758.33453 434.65314 757.1314 434.65314L755.4439 434.65314L755.16266 433.09064L756.64703 433.09064Q756.9283 433.09064 756.9283 432.8094L756.9283 429.3719ZM750.2408 427.825L756.9283 427.825L756.9283 425.29376L750.2408 425.29376L750.2408 427.825ZM750.2408 423.7469L756.9283 423.7469L756.9283 421.21564L750.2408 421.21564L750.2408 423.7469Z" fill-rule="nonzero"/><path fill="#757575" d="M95.265625 44.4875L95.265625 47.55L83.71875 47.55Q83.90625 45.815624 84.84375 44.26875Q85.78125 42.70625 88.546875 40.14375Q90.78125 38.065624 91.28125 37.33125Q91.96875 36.315624 91.96875 35.315624Q91.96875 34.20625 91.375 33.628124Q90.78125 33.034374 89.734375 33.034374Q88.703125 33.034374 88.09375 33.659374Q87.484375 34.26875 87.390625 35.70625L84.109375 35.378124Q84.40625 32.659374 85.953125 31.4875Q87.5 30.3 89.8125 30.3Q92.359375 30.3 93.8125 31.675Q95.265625 33.034374 95.265625 35.08125Q95.265625 36.2375 94.84375 37.284374Q94.4375 38.33125 93.53125 39.4875Q92.9375 40.253124 91.375 41.690624Q89.8125 43.1125 89.390625 43.58125Q88.984375 44.05 88.734375 44.4875L95.265625 44.4875ZM102.71875 30.3Q105.203125 30.3 106.609375 32.08125Q108.296875 34.190624 108.296875 39.08125Q108.296875 43.95625 106.609375 46.08125Q105.203125 47.846874 102.71875 47.846874Q100.203125 47.846874 98.671875 45.925Q97.140625 43.9875 97.140625 39.034374Q97.140625 34.190624 98.828125 32.05Q100.21875 30.3 102.71875 30.3ZM102.71875 33.034374Q102.109375 33.034374 101.640625 33.409374Q101.171875 33.784374 100.921875 34.76875Q100.578125 36.05 100.578125 39.08125Q100.578125 42.096874 100.875 43.2375Q101.1875 44.3625 101.640625 44.7375Q102.109375 45.1125 102.71875 45.1125Q103.3125 45.1125 103.78125 44.7375Q104.25 44.346874 104.5 43.3625Q104.84375 42.096874 104.84375 39.08125Q104.84375 36.05 104.53125 34.925Q104.234375 33.784374 103.765625 33.409374Q103.3125 33.034374 102.71875 33.034374ZM121.265625 44.4875L121.265625 47.55L109.71875 47.55Q109.90625 45.815624 110.84375 44.26875Q111.78125 42.70625 114.546875 40.14375Q116.78125 38.065624 117.28125 37.33125Q117.96875 36.315624 117.96875 35.315624Q117.96875 34.20625 117.375 33.628124Q116.78125 33.034374 115.734375 33.034374Q114.703125 33.034374 114.09375 33.659374Q113.484375 34.26875 113.390625 35.70625L110.109375 35.378124Q110.40625 32.659374 111.953125 31.4875Q113.5 30.3 115.8125 30.3Q118.359375 30.3 119.8125 31.675Q121.265625 33.034374 121.265625 35.08125Q121.265625 36.2375 120.84375 37.284374Q120.4375 38.33125 119.53125 39.4875Q118.9375 40.253124 117.375 41.690624Q115.8125 43.1125 115.390625 43.58125Q114.984375 44.05 114.734375 44.4875L121.265625 44.4875ZM123.03125 42.9875L126.21875 42.596874Q126.375 43.815624 127.03125 44.471874Q127.703125 45.1125 128.65625 45.1125Q129.67188 45.1125 130.35938 44.346874Q131.0625 43.565624 131.0625 42.253124Q131.0625 41.003124 130.39062 40.284374Q129.73438 39.55 128.76562 39.55Q128.14062 39.55 127.265625 39.8L127.625 37.1125Q128.95312 37.159374 129.65625 36.55Q130.35938 35.925 130.35938 34.909374Q130.35938 34.034374 129.84375 33.51875Q129.32812 33.003124 128.48438 33.003124Q127.640625 33.003124 127.03125 33.596874Q126.4375 34.175 126.3125 35.3L123.28125 34.784374Q123.59375 33.221874 124.234375 32.3Q124.875 31.3625 126.015625 30.83125Q127.15625 30.3 128.57812 30.3Q131.0 30.3 132.46875 31.846874Q133.67188 33.1125 133.67188 34.70625Q133.67188 36.971874 131.20312 38.315624Q132.67188 38.628124 133.54688 39.7375Q134.4375 40.83125 134.4375 42.39375Q134.4375 44.659374 132.78125 46.253124Q131.14062 47.846874 128.67188 47.846874Q126.34375 47.846874 124.8125 46.503124Q123.28125 45.159374 123.03125 42.9875Z" fill-rule="nonzero"/><path fill="#757575" d="M143.21875 32.925Q141.5 35.89375 138.53125 38.2375L136.75 35.940624Q140.79688 32.9875 142.26562 27.409374L144.875 28.08125Q145.85938 29.065624 144.67188 29.2375L144.20312 30.39375L157.25 30.39375L157.25 32.925L150.40625 32.925L150.40625 35.3625L156.03125 35.3625L156.03125 37.89375L150.40625 37.89375L150.40625 41.3625L158.28125 41.3625L158.28125 43.89375L150.40625 43.89375L150.40625 49.51875L147.78125 49.51875L147.78125 43.89375L137.0 43.89375L137.0 41.3625L141.21875 41.3625L141.21875 35.3625L147.78125 35.3625L147.78125 32.925L143.21875 32.925ZM143.84375 41.3625L147.78125 41.3625L147.78125 37.89375L143.84375 37.89375L143.84375 41.3625ZM170.46875 42.39375Q170.46875 48.440624 162.125 49.45625L161.46875 46.753124Q167.84375 46.175 167.84375 42.3L167.84375 39.20625L170.03125 39.20625Q171.90625 39.58125 170.46875 40.534374L170.46875 42.39375ZM182.28125 29.45625L182.28125 31.9875L173.5625 31.9875L173.5625 33.20625L180.5 33.20625L180.5 35.7375L163.71875 35.7375L163.71875 33.20625L170.65625 33.20625L170.65625 31.9875L161.9375 31.9875L161.9375 29.45625L170.65625 29.45625L170.65625 27.20625L173.125 27.20625Q175.0 27.58125 173.5625 28.534374L173.5625 29.45625L182.28125 29.45625ZM164.75 41.55L161.84375 41.55L161.84375 36.4875L182.375 36.4875L182.375 41.55L179.46875 41.55L179.46875 39.01875L164.75 39.01875L164.75 41.55ZM176.0 46.2375Q176.0 46.51875 176.1875 46.51875L179.84375 46.51875Q180.32812 46.51875 180.42188 44.128124L183.04688 45.034374Q182.82812 49.05 180.59375 49.05L175.4375 49.05Q173.375 49.05 173.375 46.9875L173.375 39.20625L175.5625 39.20625Q177.4375 39.58125 176.0 40.534374L176.0 46.2375ZM194.65625 44.83125L194.65625 28.2375L197.125 28.2375Q199.0 28.6125 197.5625 29.565624L197.5625 34.425L205.15625 34.425L205.15625 37.2375L197.5625 37.2375L197.5625 44.83125L207.3125 44.83125L207.3125 47.64375L186.21875 47.64375L186.21875 44.83125L194.65625 44.83125Z" fill-rule="nonzero"/><path fill="#757575" d="M214.98438 47.55L214.98438 33.26875L209.89062 33.26875L209.89062 30.3625L223.54688 30.3625L223.54688 33.26875L218.45312 33.26875L218.45312 47.55L214.98438 47.55ZM225.42188 39.065624Q225.42188 36.440624 226.20312 34.659374Q226.79688 33.346874 227.79688 32.3Q228.8125 31.253124 230.03125 30.753124Q231.625 30.08125 233.73438 30.08125Q237.53125 30.08125 239.79688 32.440624Q242.07812 34.784374 242.07812 38.9875Q242.07812 43.14375 239.8125 45.503124Q237.5625 47.846874 233.78125 47.846874Q229.9375 47.846874 227.67188 45.503124Q225.42188 43.159374 225.42188 39.065624ZM229.0 38.940624Q229.0 41.8625 230.34375 43.378124Q231.6875 44.878124 233.76562 44.878124Q235.84375 44.878124 237.17188 43.39375Q238.5 41.89375 238.5 38.89375Q238.5 35.940624 237.20312 34.4875Q235.90625 33.034374 233.76562 33.034374Q231.625 33.034374 230.3125 34.51875Q229.0 35.9875 229.0 38.940624ZM244.125 47.55L244.125 30.3625L249.6875 30.3625Q252.85938 30.3625 253.8125 30.628124Q255.29688 31.01875 256.28125 32.315624Q257.28125 33.596874 257.28125 35.659374Q257.28125 37.2375 256.70312 38.315624Q256.14062 39.39375 255.25 40.01875Q254.35938 40.628124 253.45312 40.815624Q252.20312 41.065624 249.85938 41.065624L247.59375 41.065624L247.59375 47.55L244.125 47.55ZM247.59375 33.26875L247.59375 38.14375L249.48438 38.14375Q251.54688 38.14375 252.23438 37.878124Q252.92188 37.6125 253.3125 37.034374Q253.70312 36.45625 253.70312 35.70625Q253.70312 34.76875 253.15625 34.159374Q252.60938 33.55 251.76562 33.39375Q251.14062 33.26875 249.26562 33.26875L247.59375 33.26875ZM267.82812 47.55L264.53125 47.55L264.53125 35.14375Q262.71875 36.83125 260.28125 37.628124L260.28125 34.64375Q261.5625 34.221874 263.07812 33.05Q264.59375 31.8625 265.15625 30.3L267.82812 30.3L267.82812 47.55ZM277.96875 30.3Q280.45312 30.3 281.85938 32.08125Q283.54688 34.190624 283.54688 39.08125Q283.54688 43.95625 281.85938 46.08125Q280.45312 47.846874 277.96875 47.846874Q275.45312 47.846874 273.92188 45.925Q272.39062 43.9875 272.39062 39.034374Q272.39062 34.190624 274.07812 32.05Q275.46875 30.3 277.96875 30.3ZM277.96875 33.034374Q277.35938 33.034374 276.89062 33.409374Q276.42188 33.784374 276.17188 34.76875Q275.82812 36.05 275.82812 39.08125Q275.82812 42.096874 276.125 43.2375Q276.4375 44.3625 276.89062 44.7375Q277.35938 45.1125 277.96875 45.1125Q278.5625 45.1125 279.03125 44.7375Q279.5 44.346874 279.75 43.3625Q280.09375 42.096874 280.09375 39.08125Q280.09375 36.05 279.78125 34.925Q279.48438 33.784374 279.01562 33.409374Q278.5625 33.034374 277.96875 33.034374ZM290.96875 30.3Q293.45312 30.3 294.85938 32.08125Q296.54688 34.190624 296.54688 39.08125Q296.54688 43.95625 294.85938 46.08125Q293.45312 47.846874 290.96875 47.846874Q288.45312 47.846874 286.92188 45.925Q285.39062 43.9875 285.39062 39.034374Q285.39062 34.190624 287.07812 32.05Q288.46875 30.3 290.96875 30.3ZM290.96875 33.034374Q290.35938 33.034374 289.89062 33.409374Q289.42188 33.784374 289.17188 34.76875Q288.82812 36.05 288.82812 39.08125Q288.82812 42.096874 289.125 43.2375Q289.4375 44.3625 289.89062 44.7375Q290.35938 45.1125 290.96875 45.1125Q291.5625 45.1125 292.03125 44.7375Q292.5 44.346874 292.75 43.3625Q293.09375 42.096874 293.09375 39.08125Q293.09375 36.05 292.78125 34.925Q292.48438 33.784374 292.01562 33.409374Q291.5625 33.034374 290.96875 33.034374Z" fill-rule="nonzero"/><path fill="#757575" d="M308.53125 49.2375Q305.48438 49.2375 303.21875 47.159374Q302.29688 48.221874 299.5 49.784374L298.5 46.628124Q299.84375 46.26875 301.78125 45.003124L301.78125 39.4875L298.875 39.4875L298.875 36.95625L304.40625 36.95625L304.40625 44.940624Q306.04688 46.425 308.90625 46.425L320.98438 46.425L320.46875 49.2375L308.53125 49.2375ZM309.73438 30.26875Q312.3125 30.878124 312.79688 31.096874L313.48438 30.58125L305.625 30.58125L305.625 28.05L316.57812 28.05L317.17188 27.690624L318.79688 28.878124Q320.0625 29.940624 318.21875 30.096874L315.20312 32.1125L316.29688 32.628124L315.4375 33.4875L319.125 33.4875L319.125 44.55Q319.125 46.2375 317.4375 46.2375L315.01562 46.2375L314.89062 43.70625L316.5 43.70625Q316.5 43.70625 316.5 43.70625L316.5 42.3L313.6875 42.3L313.6875 45.95625L311.0625 45.95625L311.0625 42.3L308.4375 42.3L308.4375 46.33125L305.8125 46.33125L305.8125 33.4875L311.20312 33.4875Q309.07812 32.628124 307.70312 32.284374L309.73438 30.26875ZM313.6875 35.7375L313.6875 36.76875L316.5 36.76875L316.5 35.7375L313.6875 35.7375ZM308.4375 35.7375L308.4375 36.76875L311.0625 36.76875L311.0625 35.7375L308.4375 35.7375ZM311.0625 39.01875L308.4375 39.01875L308.4375 40.05L311.0625 40.05L311.0625 39.01875ZM316.5 39.01875L313.6875 39.01875L313.6875 40.05L316.5 40.05L316.5 39.01875ZM301.51562 27.7375Q304.39062 29.565624 305.53125 31.378124L303.4375 33.596874Q301.70312 31.409374 299.75 29.89375L301.51562 27.7375ZM338.85938 36.76875Q339.17188 39.753124 339.875 41.20625Q340.625 39.909374 341.42188 36.76875L338.85938 36.76875ZM333.70312 47.33125Q336.96875 45.3 338.26562 43.675Q336.75 41.190624 336.48438 36.76875L336.09375 36.76875L336.09375 40.05Q336.09375 46.425 331.89062 49.471874L330.23438 47.3Q333.46875 44.7375 333.46875 40.05L333.46875 28.14375L345.09375 28.14375L345.09375 30.675L336.09375 30.675L336.09375 34.2375L342.03125 34.2375L342.51562 33.753124L344.40625 35.08125Q345.32812 36.003124 344.1875 36.159374Q343.01562 41.221874 341.53125 43.659374Q342.70312 45.003124 345.95312 46.628124L344.71875 49.3625Q341.57812 47.95625 339.84375 45.89375Q338.03125 48.128124 335.21875 49.7375L333.70312 47.33125ZM330.07812 43.034374Q331.5 44.096874 332.35938 45.471874L330.46875 47.096874Q329.89062 46.096874 328.32812 44.534374L330.07812 43.034374ZM328.07812 44.1125Q329.5625 44.70625 328.03125 45.14375Q326.75 48.14375 325.15625 49.7375L323.1875 48.284374Q325.17188 45.690624 326.03125 43.190624L328.07812 44.1125ZM332.4375 43.425L324.5625 43.425L324.5625 28.33125L332.4375 28.33125L332.4375 43.425ZM326.90625 30.58125L326.90625 32.55L330.09375 32.55L330.09375 30.58125L326.90625 30.58125ZM326.90625 34.8L326.90625 36.76875L330.09375 36.76875L330.09375 34.8L326.90625 34.8ZM326.90625 39.01875L326.90625 41.175L330.09375 41.175L330.09375 39.01875L326.90625 39.01875ZM364.59375 34.33125L370.125 34.33125L370.125 37.14375L364.6875 37.14375L364.6875 38.55Q364.6875 45.83125 356.79688 49.034374L354.75 46.721874Q361.78125 44.378124 361.78125 38.7375L361.78125 37.14375L356.34375 37.14375L356.4375 41.925L353.625 41.925L353.53125 37.14375L348.28125 37.14375L348.28125 34.33125L353.53125 34.33125L353.4375 29.3625L355.79688 29.3625Q357.54688 29.534374 356.25 30.83125L356.32812 34.33125L361.6875 34.33125L361.6875 28.6125L364.14062 28.6125Q365.89062 28.784374 364.59375 30.08125L364.59375 34.33125ZM372.78125 40.190624Q383.0 35.909374 388.23438 28.14375L390.32812 29.909374Q391.73438 30.971874 389.65625 31.39375Q387.9375 33.659374 385.21875 36.003124L385.21875 48.95625L382.3125 48.95625L382.3125 38.378124Q379.60938 40.471874 374.90625 42.675L372.78125 40.190624ZM398.28125 35.64375Q402.64062 36.878124 407.70312 39.315624L406.21875 42.14375Q400.95312 39.471874 398.28125 38.753124L398.28125 48.39375L395.375 48.39375L395.375 28.89375L397.64062 28.89375Q399.73438 29.065624 398.28125 30.20625L398.28125 35.64375Z" fill-rule="nonzero"/><path fill="#757575" d="M429.57812 38.565624Q433.34375 41.45625 437.57812 45.8L435.125 47.878124Q430.96875 43.51875 427.60938 40.925Q424.15625 44.64375 419.1875 47.925L416.82812 45.815624Q427.07812 39.14375 429.59375 33.33125L419.64062 33.971874L419.26562 30.971874L430.51562 30.4875L431.79688 30.159374L433.45312 31.815624Q434.60938 32.971874 433.04688 33.26875Q431.34375 36.221874 429.57812 38.565624ZM452.32812 42.096874Q454.04688 43.721874 455.53125 45.425L453.09375 47.6125Q449.29688 43.14375 444.4375 39.565624L446.1875 37.3Q448.1875 38.534374 450.01562 40.190624Q452.5625 37.64375 455.0 34.175L440.71875 34.815624L440.21875 31.721874L457.0 31.33125L458.10938 31.003124L459.70312 32.690624Q460.60938 34.128124 459.20312 33.971874Q456.98438 36.909374 452.32812 42.096874ZM468.92188 39.721874Q467.57812 42.659374 465.21875 46.3625L462.48438 44.8625Q465.04688 41.175 466.78125 37.08125L469.25 38.425Q470.4375 39.425 468.92188 39.721874ZM471.46875 27.95625L473.84375 27.95625Q475.82812 28.315624 474.375 29.284374L474.375 33.20625L483.0 33.20625L483.0 36.01875L474.375 36.01875L474.375 49.05L471.46875 49.05L471.46875 36.01875L463.03125 36.01875L463.03125 33.20625L471.46875 33.20625L471.46875 27.95625ZM481.375 46.128124Q479.23438 42.33125 476.17188 39.08125L478.53125 37.096874Q482.17188 40.95625 484.0625 44.284374L481.375 46.128124Z" fill-rule="nonzero"/><path fill="#757575" d="M493.21875 47.55L493.21875 30.503124L496.6875 30.503124L496.6875 44.659374L505.3125 44.659374L505.3125 47.55L493.21875 47.55ZM519.1094 41.2375L522.4844 42.3Q521.7031 45.1125 519.90625 46.4875Q518.1094 47.846874 515.34375 47.846874Q511.92188 47.846874 509.71875 45.503124Q507.51562 43.159374 507.51562 39.1125Q507.51562 34.815624 509.71875 32.45625Q511.9375 30.08125 515.5469 30.08125Q518.7031 30.08125 520.6719 31.940624Q521.84375 33.034374 522.4375 35.096874L519.0 35.925Q518.6875 34.58125 517.71875 33.815624Q516.7656 33.034374 515.375 33.034374Q513.46875 33.034374 512.28125 34.409374Q511.09375 35.784374 511.09375 38.846874Q511.09375 42.1125 512.2656 43.503124Q513.4375 44.878124 515.3125 44.878124Q516.6875 44.878124 517.6875 44.003124Q518.6875 43.1125 519.1094 41.2375ZM525.125 47.55L525.125 30.3625L530.6875 30.3625Q533.8594 30.3625 534.8125 30.628124Q536.2969 31.01875 537.28125 32.315624Q538.28125 33.596874 538.28125 35.659374Q538.28125 37.2375 537.7031 38.315624Q537.1406 39.39375 536.25 40.01875Q535.3594 40.628124 534.4531 40.815624Q533.2031 41.065624 530.8594 41.065624L528.59375 41.065624L528.59375 47.55L525.125 47.55ZM528.59375 33.26875L528.59375 38.14375L530.4844 38.14375Q532.5469 38.14375 533.2344 37.878124Q533.9219 37.6125 534.3125 37.034374Q534.7031 36.45625 534.7031 35.70625Q534.7031 34.76875 534.15625 34.159374Q533.6094 33.55 532.7656 33.39375Q532.1406 33.26875 530.2656 33.26875L528.59375 33.26875ZM548.0 35.096874L551.0781 35.096874L551.0781 36.925Q551.6719 35.9875 552.6875 35.409374Q553.71875 34.815624 554.9531 34.815624Q557.125 34.815624 558.625 36.51875Q560.1406 38.221874 560.1406 41.253124Q560.1406 44.378124 558.6094 46.1125Q557.09375 47.83125 554.9375 47.83125Q553.90625 47.83125 553.0625 47.425Q552.21875 47.003124 551.2969 46.01875L551.2969 52.284374L548.0 52.284374L548.0 35.096874ZM551.2656 41.1125Q551.2656 43.20625 552.09375 44.221874Q552.9219 45.221874 554.125 45.221874Q555.2656 45.221874 556.03125 44.3Q556.7969 43.378124 556.7969 41.284374Q556.7969 39.315624 556.0 38.378124Q555.21875 37.425 554.0625 37.425Q552.8594 37.425 552.0625 38.3625Q551.2656 39.284374 551.2656 41.1125ZM562.3906 33.659374L562.3906 30.596874L573.65625 30.596874L573.65625 32.9875Q572.2656 34.3625 570.8125 36.940624Q569.375 39.503124 568.625 42.39375Q567.875 45.26875 567.875 47.55L564.7031 47.55Q564.78125 43.9875 566.1719 40.284374Q567.5625 36.58125 569.8906 33.659374L562.3906 33.659374ZM575.4375 43.128124L578.71875 42.784374Q578.8594 43.909374 579.5469 44.565624Q580.25 45.20625 581.15625 45.20625Q582.1875 45.20625 582.8906 44.378124Q583.6094 43.534374 583.6094 41.846874Q583.6094 40.253124 582.8906 39.471874Q582.1875 38.675 581.0625 38.675Q579.6406 38.675 578.5156 39.925L575.84375 39.55L577.53125 30.596874L586.2344 30.596874L586.2344 33.690624L580.03125 33.690624L579.5156 36.596874Q580.6094 36.05 581.7656 36.05Q583.9531 36.05 585.46875 37.64375Q587.0 39.2375 587.0 41.784374Q587.0 43.909374 585.7656 45.565624Q584.09375 47.846874 581.1094 47.846874Q578.7344 47.846874 577.2344 46.565624Q575.7344 45.284374 575.4375 43.128124Z" fill-rule="nonzero"/><path fill="#757575" d="M609.6094 37.909374Q611.0 35.034374 611.9375 31.971874L614.4844 32.8625Q616.2344 33.7375 614.4531 34.096874Q613.75 36.253124 612.375 39.034374L609.6094 37.909374ZM605.4375 41.55L596.25 41.55L596.25 39.01875L605.4375 39.01875L605.4375 31.425L597.375 31.425L597.375 28.89375L616.03125 28.89375L616.03125 31.425L608.0625 31.425L608.0625 39.01875L617.34375 39.01875L617.34375 41.55L608.0625 41.55L608.0625 49.14375L605.4375 49.14375L605.4375 41.55ZM600.7656 32.08125Q602.96875 35.003124 603.6406 37.440624L600.90625 38.690624Q599.7656 35.440624 598.21875 33.346874L600.7656 32.08125ZM629.125 43.878124L622.78125 45.8Q622.09375 47.51875 621.4844 45.690624L620.8125 43.2375L623.625 42.64375L623.625 36.01875L621.1875 36.01875L621.1875 33.20625L623.625 33.20625L623.625 28.33125L625.7969 28.33125Q627.53125 28.55 626.25 29.45625L626.25 33.20625L628.875 33.20625L628.875 36.01875L626.25 36.01875L626.25 42.003124L628.59375 41.3625L629.125 43.878124ZM640.9531 46.909374Q640.21875 49.33125 637.21875 49.33125L634.7344 49.33125L634.3594 46.51875L637.3125 46.51875Q638.3125 46.51875 638.53125 45.409374Q638.90625 43.58125 638.90625 37.89375L638.90625 34.2375L632.21875 34.2375Q631.25 36.409374 628.9531 39.05L627.1719 36.753124Q630.6875 32.753124 631.5781 27.76875L633.96875 28.440624Q635.7656 29.128124 633.96875 29.659374Q633.6406 30.89375 633.28125 31.70625L641.53125 31.70625L641.53125 36.8625Q641.53125 44.9875 640.9531 46.909374ZM634.8594 41.175Q632.2344 38.95625 630.1094 37.95625L631.71875 35.471874Q633.9375 36.253124 636.59375 38.58125L634.8594 41.175ZM637.8281 43.065624Q634.9219 44.51875 630.4844 45.971874Q629.8906 47.76875 629.2656 45.675L628.8125 43.128124Q633.53125 42.221874 637.3125 40.33125L637.8281 43.065624ZM651.2344 28.940624Q650.8906 31.14375 650.09375 33.628124Q651.25 33.76875 650.25 34.76875L650.25 49.51875L647.625 49.51875L647.6406 38.7375Q647.6406 38.76875 646.84375 39.721874L644.7344 38.14375Q648.1094 34.08125 648.6875 27.221874L651.375 27.8Q652.3594 28.784374 651.2344 28.940624ZM660.46875 32.45625L660.46875 33.4875L665.0625 33.4875L665.0625 45.3L655.59375 45.3L655.59375 33.4875L657.84375 33.4875L657.84375 32.45625L651.09375 32.45625L651.09375 29.925L657.84375 29.925L657.84375 27.3L660.0156 27.3Q661.75 27.51875 660.46875 28.425L660.46875 29.925L666.5625 29.925L666.5625 32.45625L660.46875 32.45625ZM657.9375 35.7375L657.9375 36.675L662.71875 36.675L662.71875 35.7375L657.9375 35.7375ZM657.9375 38.925L657.9375 39.76875L662.71875 39.76875L662.71875 38.925L657.9375 38.925ZM657.9375 42.01875L657.9375 43.05L662.71875 43.05L662.71875 42.01875L657.9375 42.01875ZM651.75 49.51875L651.75 33.76875L653.9219 33.76875Q655.65625 33.9875 654.375 34.89375L654.375 46.14375L667.3125 46.14375L667.3125 48.675L654.375 48.675L654.375 49.51875L651.75 49.51875ZM682.28125 34.20625Q680.6875 43.51875 678.3594 45.846874Q677.03125 47.175 675.5625 47.175Q673.90625 47.175 672.9531 46.221874Q670.59375 43.8625 670.59375 40.33125Q670.59375 36.05 673.6094 33.034374Q676.90625 29.7375 681.65625 29.7375Q685.9375 29.7375 688.3906 32.190624Q691.125 34.925 691.125 38.64375Q691.125 42.64375 688.5781 45.190624Q686.9375 46.83125 683.3594 48.471874L680.7656 45.878124Q684.5469 44.690624 686.3594 42.878124Q688.03125 41.20625 688.03125 38.83125Q688.03125 35.9875 686.1719 34.128124Q684.3281 32.26875 681.7031 32.39375L682.09375 32.58125Q683.96875 33.3625 682.28125 34.20625ZM679.34375 32.659374Q677.53125 33.08125 675.8281 34.784374Q673.5 37.1125 673.5 40.51875Q673.5 42.51875 674.7969 43.815624Q674.96875 43.9875 675.375 43.9875Q675.78125 43.9875 676.3281 43.440624Q678.3906 41.378124 679.34375 32.659374ZM701.1094 35.89375Q704.3906 32.815624 706.15625 27.01875L708.4531 27.70625Q709.65625 28.675 708.3594 28.8625Q707.6875 30.55 707.1875 31.6125L709.1719 31.6125Q710.09375 29.690624 710.7656 27.659374L712.9844 28.471874Q713.9531 29.440624 712.7656 29.6125Q712.1875 30.940624 711.8125 31.6125L716.34375 31.6125L716.34375 34.14375L711.5625 34.14375L711.5625 36.3L715.40625 36.3L715.40625 38.83125L711.5625 38.83125L711.5625 41.08125L715.40625 41.08125L715.40625 43.6125L711.5625 43.6125L711.5625 46.33125L716.90625 46.33125L716.90625 48.8625L706.59375 48.8625L706.59375 49.70625L703.96875 49.70625L703.9844 36.878124Q703.96875 36.909374 702.9219 37.971874L701.1094 35.89375ZM696.6406 49.51875L696.09375 46.9875L698.15625 46.9875Q698.15625 46.9875 698.15625 46.9875L698.15625 41.64375L696.4219 42.05Q696.2656 43.190624 695.28125 42.20625L694.8125 39.565624L698.15625 38.89375L698.15625 34.6125L695.25 34.6125L695.25 32.08125L698.15625 32.08125L698.15625 27.3L700.3281 27.3Q702.0625 27.51875 700.78125 28.425L700.78125 32.08125L703.21875 32.08125L703.21875 34.6125L700.78125 34.6125L700.78125 38.346874L703.1406 37.70625L703.5469 40.128124L700.78125 40.9875L700.78125 47.64375Q700.78125 49.51875 698.90625 49.51875L696.6406 49.51875ZM706.59375 46.33125L708.9375 46.33125L708.9375 43.6125L706.59375 43.6125L706.59375 46.33125ZM706.59375 41.08125L708.9375 41.08125L708.9375 38.83125L706.59375 38.83125L706.59375 41.08125ZM706.59375 36.3L708.9375 36.3L708.9375 34.14375L706.59375 34.14375L706.59375 36.3ZM738.28125 29.925L738.6875 29.39375L740.8125 31.1125L740.2656 31.659374Q737.8125 35.909374 736.1094 36.940624L736.25 36.971874Q737.78125 37.628124 736.34375 38.175Q736.1875 38.70625 736.1094 38.70625L739.40625 38.64375L739.7969 38.128124L742.1406 39.815624L741.5156 40.440624Q738.4531 48.55 728.7656 49.64375L727.7031 47.14375Q732.5156 46.628124 734.6094 45.065624Q733.625 44.08125 732.5781 43.33125Q731.5469 44.221874 729.09375 45.221874L727.9219 42.8625Q732.7344 40.89375 733.5469 38.675Q733.21875 38.9875 729.1719 40.01875L727.9844 37.628124Q731.9375 36.784374 733.3281 35.846874Q732.6875 35.08125 731.6719 34.440624Q731.21875 34.89375 730.2656 35.58125L728.4531 33.64375Q731.7656 30.83125 732.6875 27.565624L734.7656 28.26875Q736.28125 28.909374 734.8594 29.45625Q734.7969 29.878124 734.7344 29.940624L738.28125 29.925ZM726.09375 33.58125L729.1875 33.58125L729.1875 36.1125L726.09375 36.1125L726.09375 37.83125Q727.8125 38.6125 729.7656 40.565624L728.1094 42.878124Q726.3125 41.08125 726.09375 40.909374L726.09375 49.6125L723.46875 49.6125L723.84375 39.95625Q723.6094 42.01875 720.7344 45.33125L718.84375 42.925Q722.46875 39.4875 723.1875 36.1125L719.625 36.1125L719.625 33.58125L723.46875 33.58125L723.46875 31.3Q722.0156 31.51875 720.1875 31.7375L719.53125 29.221874Q723.6875 28.8 727.9375 27.6125L729.125 29.2375Q730.0156 30.58125 728.3594 30.221874Q727.125 30.565624 726.09375 30.784374L726.09375 33.58125ZM733.1875 32.7375Q734.1875 33.26875 735.2656 34.20625Q736.3906 33.159374 736.96875 32.175L733.53125 32.175Q733.2344 32.690624 733.1875 32.7375ZM734.25 41.675Q735.125 42.175 736.6094 43.503124Q737.6875 42.721874 738.46875 40.89375L734.90625 40.89375Q734.4375 41.534374 734.25 41.675Z" fill-rule="nonzero"/></svg>