<?xml version="1.0" encoding="UTF-8"?>
<svg xmlns="http://www.w3.org/2000/svg" width="1049.6" height="537.6" viewBox="0 0 1049.6 537.6" style="font-family:system-ui, sans-serif"><rect width="1049.6" height="537.6" fill="#ffffff"></rect><g><path d="M 19.200 49.920 A 30.720 30.720 0 0 1 49.920 19.200 L 487.680 19.200 A 30.720 30.720 0 0 1 518.400 49.920 L 518.400 487.680 A 30.720 30.720 0 0 1 487.680 518.400 L 49.920 518.400 A 30.720 30.720 0 0 1 19.200 487.680 Z" fill="#f59e0b20"></path><text x="35.024" y="48.59904" text-anchor="start" font-size="15.36" font-family="sans-serif" font-weight="600" fill="currentColor" opacity="0.45">作成・編集</text></g><g><path d="M 531.200 49.920 A 30.720 30.720 0 0 1 561.920 19.200 L 743.680 19.200 A 30.720 30.720 0 0 1 774.400 49.920 L 774.400 487.680 A 30.720 30.720 0 0 1 743.680 518.400 L 561.920 518.400 A 30.720 30.720 0 0 1 531.200 487.680 Z" fill="#0891b220"></path><text x="547.024" y="48.59904" text-anchor="start" font-size="15.36" font-family="sans-serif" font-weight="600" fill="currentColor" opacity="0.45">変換</text></g><g><path d="M 787.200 49.920 A 30.720 30.720 0 0 1 817.920 19.200 L 999.680 19.200 A 30.720 30.720 0 0 1 1030.400 49.920 L 1030.400 487.680 A 30.720 30.720 0 0 1 999.680 518.400 L 817.920 518.400 A 30.720 30.720 0 0 1 787.200 487.680 Z" fill="#0369a120"></path><text x="803.024" y="48.59904" text-anchor="start" font-size="15.36" font-family="sans-serif" font-weight="600" fill="currentColor" opacity="0.45">生成物</text></g><g><defs><marker id="marker-0-e" markerWidth="10" markerHeight="7" refX="9" refY="3.5" orient="auto"><polygon points="0 0, 10 3.5, 0 7" fill="#0891b2"></polygon></marker></defs><path d="M198.4,140.8 L339.2,140.8" fill="none" stroke="#0891b2" stroke-width="1.5" marker-end="url(#marker-0-e)"></path><g><rect x="250.24" y="111.10400000000001" width="37.120000000000005" height="20.7872" rx="10.3936" fill="#ffffff" opacity="0.85"></rect><text x="268.8" y="126.07078400000002" text-anchor="middle" font-size="14.848" font-family="sans-serif" font-weight="500" fill="#0891b2">依頼</text></g></g><g><defs><marker id="marker-1-e" markerWidth="10" markerHeight="7" refX="9" refY="3.5" orient="auto"><polygon points="0 0, 10 3.5, 0 7" fill="#0891b2"></polygon></marker></defs><path d="M396.8,198.4 L396.8,339.2" fill="none" stroke="#0891b2" stroke-width="1.5" marker-end="url(#marker-1-e)"></path><g><rect x="378.24" y="258.4064" width="37.120000000000005" height="20.7872" rx="10.3936" fill="#ffffff" opacity="0.85"></rect><text x="396.8" y="273.37318400000004" text-anchor="middle" font-size="14.848" font-family="sans-serif" font-weight="500" fill="#0891b2">生成</text></g></g><g><defs><marker id="marker-2-e" markerWidth="10" markerHeight="7" refX="9" refY="3.5" orient="auto"><polygon points="0 0, 10 3.5, 0 7" fill="#0891b2"></polygon></marker></defs><path d="M198.4,396.8 L339.2,396.8" fill="none" stroke="#0891b2" stroke-width="1.5" marker-end="url(#marker-2-e)"></path><g><rect x="238.3616" y="367.10400000000004" width="60.8768" height="20.7872" rx="10.3936" fill="#ffffff" opacity="0.85"></rect><text x="268.8" y="382.07078400000006" text-anchor="middle" font-size="14.848" font-family="sans-serif" font-weight="500" fill="#0891b2">直接編集</text></g></g><g><defs><marker id="marker-3-e" markerWidth="10" markerHeight="7" refX="9" refY="3.5" orient="auto"><polygon points="0 0, 10 3.5, 0 7" fill="#0891b2"></polygon></marker></defs><path d="M437.5293505963451,356.0706494036549 L612.0706494036548,181.52935059634515" fill="none" stroke="#0891b2" stroke-width="1.5" marker-end="url(#marker-3-e)"></path><g><rect x="506.23999999999995" y="258.4064" width="37.120000000000005" height="20.7872" rx="10.3936" fill="#ffffff" opacity="0.85"></rect><text x="524.8" y="273.37318400000004" text-anchor="middle" font-size="14.848" font-family="sans-serif" font-weight="500" fill="#0891b2">入力</text></g></g><g><defs><marker id="marker-4-e" markerWidth="10" markerHeight="7" refX="9" refY="3.5" orient="auto"><polygon points="0 0, 10 3.5, 0 7" fill="#0891b2"></polygon></marker></defs><path d="M710.4,140.8 L851.1999999999999,140.8" fill="none" stroke="#0891b2" stroke-width="1.5" marker-end="url(#marker-4-e)"></path><g><rect x="762.24" y="111.10400000000001" width="37.120000000000005" height="20.7872" rx="10.3936" fill="#ffffff" opacity="0.85"></rect><text x="780.8" y="126.07078400000002" text-anchor="middle" font-size="14.848" font-family="sans-serif" font-weight="500" fill="#0891b2">出力</text></g></g><g><defs><marker id="marker-5-e" markerWidth="10" markerHeight="7" refX="9" refY="3.5" orient="auto"><polygon points="0 0, 10 3.5, 0 7" fill="#0891b2"></polygon></marker></defs><path d="M693.5293505963451,181.52935059634515 L868.0706494036548,356.07064940365484" fill="none" stroke="#0891b2" stroke-width="1.5" marker-end="url(#marker-5-e)"></path><g><rect x="762.24" y="258.4064" width="37.120000000000005" height="20.7872" rx="10.3936" fill="#ffffff" opacity="0.85"></rect><text x="780.8" y="273.37318400000004" text-anchor="middle" font-size="14.848" font-family="sans-serif" font-weight="500" fill="#0891b2">出力</text></g></g><g><circle cx="140.8" cy="140.8" r="57.6" fill="#0369a1" fill-opacity="0.08235294117647059" stroke="#0369a1" stroke-width="1.5"></circle><svg x="105.08800000000001" y="105.08800000000001" width="71.424" height="71.424" viewBox="0 0 24 24" overflow="hidden" color="#0369a1"><g fill="none" stroke="currentColor" stroke-width="2" stroke-linecap="round" stroke-linejoin="round"><path d="M8 7a4 4 0 1 0 8 0a4 4 0 0 0 -8 0"/><path d="M6 21v-2a4 4 0 0 1 4 -4h4a4 4 0 0 1 4 4v2"/></g></svg><g><line x1="179.3661341310658" y1="98.01667032377397" x2="186.86063370368726" y2="89.70264940365487" stroke="#0369a1" stroke-width="1" opacity="0.7"></line><text x="188.86063370368726" y="84.71064940365487" text-anchor="start" font-size="16.64" font-family="sans-serif" font-weight="600" fill="#0369a1">ユーザー</text></g></g><g><circle cx="396.8" cy="140.8" r="57.6" fill="#0369a1" fill-opacity="0.08235294117647059" stroke="#0369a1" stroke-width="1.5"></circle><svg x="361.088" y="105.08800000000001" width="71.424" height="71.424" viewBox="0 0 24 24" overflow="hidden" color="#0369a1"><g fill="none" stroke="currentColor" stroke-width="2" stroke-linecap="round" stroke-linejoin="round"><path d="M6 6a2 2 0 0 1 2 -2h8a2 2 0 0 1 2 2v4a2 2 0 0 1 -2 2h-8a2 2 0 0 1 -2 -2l0 -4"/><path d="M12 2v2"/><path d="M9 12v9"/><path d="M15 12v9"/><path d="M5 16l4 -2"/><path d="M15 14l4 2"/><path d="M9 18h6"/><path d="M10 8v.01"/><path d="M14 8v.01"/></g></svg><g><line x1="435.3661341310658" y1="98.01667032377397" x2="442.86063370368726" y2="89.70264940365487" stroke="#0369a1" stroke-width="1" opacity="0.7"></line><text x="444.86063370368726" y="84.71064940365487" text-anchor="start" font-size="16.64" font-family="sans-serif" font-weight="600" fill="#0369a1">AIエージェント</text></g></g><g><circle cx="140.8" cy="396.8" r="57.6" fill="#0369a1" fill-opacity="0.08235294117647059" stroke="#0369a1" stroke-width="1.5"></circle><svg x="105.08800000000001" y="361.088" width="71.424" height="71.424" viewBox="0 0 24 24" overflow="hidden" color="#0369a1"><g fill="none" stroke="currentColor" stroke-width="2" stroke-linecap="round" stroke-linejoin="round"><path d="M4 20h4l10.5 -10.5a2.828 2.828 0 1 0 -4 -4l-10.5 10.5v4"/><path d="M13.5 6.5l4 4"/></g></svg><g><line x1="179.36613413106576" y1="354.01667032377395" x2="186.86063370368726" y2="345.70264940365485" stroke="#0369a1" stroke-width="1" opacity="0.7"></line><text x="188.86063370368726" y="340.7106494036549" text-anchor="start" font-size="16.64" font-family="sans-serif" font-weight="600" fill="#0369a1">テキストエディタ</text></g></g><g><circle cx="396.8" cy="396.8" r="57.6" fill="#0369a1" fill-opacity="0.08235294117647059" stroke="#0369a1" stroke-width="1.5"></circle><svg x="361.088" y="361.088" width="71.424" height="71.424" viewBox="0 0 24 24" overflow="hidden" color="#0369a1"><g fill="none" stroke="currentColor" stroke-width="2" stroke-linecap="round" stroke-linejoin="round"><path d="M14 3v4a1 1 0 0 0 1 1h4"/><path d="M17 21h-10a2 2 0 0 1 -2 -2v-14a2 2 0 0 1 2 -2h7l5 5v11a2 2 0 0 1 -2 2"/><path d="M10 13l-1 2l1 2"/><path d="M14 13l1 2l-1 2"/></g></svg><g><line x1="435.3661341310658" y1="439.58332967622607" x2="442.86063370368726" y2="447.8973505963451" stroke="#0369a1" stroke-width="1" opacity="0.7"></line><text x="444.86063370368726" y="467.86535059634514" text-anchor="start" font-size="16.64" font-family="sans-serif" font-weight="600" fill="#0369a1">.ggファイル</text></g></g><g><circle cx="652.8" cy="140.8" r="57.6" fill="#0369a1" fill-opacity="0.08235294117647059" stroke="#0369a1" stroke-width="1.5"></circle><svg x="617.088" y="105.08800000000001" width="71.424" height="71.424" viewBox="0 0 24 24" overflow="hidden" color="#0369a1"><g fill="none" stroke="currentColor" stroke-width="2" stroke-linecap="round" stroke-linejoin="round"><path d="M5 7l5 5l-5 5"/><path d="M12 19l7 0"/></g></svg><g><line x1="691.3661341310657" y1="98.01667032377397" x2="698.8606337036872" y2="89.70264940365487" stroke="#0369a1" stroke-width="1" opacity="0.7"></line><text x="700.8606337036872" y="84.71064940365487" text-anchor="start" font-size="16.64" font-family="sans-serif" font-weight="600" fill="#0369a1">ggコマンド</text></g></g><g><circle cx="908.8" cy="140.8" r="57.6" fill="#0369a1" fill-opacity="0.08235294117647059" stroke="#0369a1" stroke-width="1.5"></circle><svg x="873.088" y="105.08800000000001" width="71.424" height="71.424" viewBox="0 0 24 24" overflow="hidden" color="#0369a1"><g fill="none" stroke="currentColor" stroke-width="2" stroke-linecap="round" stroke-linejoin="round"><path d="M3 4a1 1 0 0 1 1 -1h2a1 1 0 0 1 1 1v2a1 1 0 0 1 -1 1h-2a1 1 0 0 1 -1 -1l0 -2"/><path d="M17 4a1 1 0 0 1 1 -1h2a1 1 0 0 1 1 1v2a1 1 0 0 1 -1 1h-2a1 1 0 0 1 -1 -1l0 -2"/><path d="M17 18a1 1 0 0 1 1 -1h2a1 1 0 0 1 1 1v2a1 1 0 0 1 -1 1h-2a1 1 0 0 1 -1 -1l0 -2"/><path d="M3 18a1 1 0 0 1 1 -1h2a1 1 0 0 1 1 1v2a1 1 0 0 1 -1 1h-2a1 1 0 0 1 -1 -1l0 -2"/><path d="M5 7l0 10"/><path d="M19 7l0 10"/><path d="M7 5l10 0"/><path d="M7 19l10 0"/></g></svg><g><line x1="947.3661341310657" y1="98.01667032377397" x2="954.8606337036872" y2="89.70264940365487" stroke="#0369a1" stroke-width="1" opacity="0.7"></line><text x="956.8606337036872" y="84.71064940365487" text-anchor="start" font-size="16.64" font-family="sans-serif" font-weight="600" fill="#0369a1">SVG</text></g></g><g><circle cx="908.8" cy="396.8" r="57.6" fill="#0369a1" fill-opacity="0.08235294117647059" stroke="#0369a1" stroke-width="1.5"></circle><svg x="873.088" y="361.088" width="71.424" height="71.424" viewBox="0 0 24 24" overflow="hidden" color="#0369a1"><g fill="none" stroke="currentColor" stroke-width="2" stroke-linecap="round" stroke-linejoin="round"><path d="M15 8h.01"/><path d="M3 6a3 3 0 0 1 3 -3h12a3 3 0 0 1 3 3v12a3 3 0 0 1 -3 3h-12a3 3 0 0 1 -3 -3v-12"/><path d="M3 16l5 -5c.928 -.893 2.072 -.893 3 0l5 5"/><path d="M14 14l1 -1c.928 -.893 2.072 -.893 3 0l3 3"/></g></svg><g><line x1="947.3661341310657" y1="354.01667032377395" x2="954.8606337036872" y2="345.70264940365485" stroke="#0369a1" stroke-width="1" opacity="0.7"></line><text x="956.8606337036872" y="340.7106494036549" text-anchor="start" font-size="16.64" font-family="sans-serif" font-weight="600" fill="#0369a1">PNG</text></g></g></svg>