<?xml version="1.0" encoding="utf-8"?>
<!DOCTYPE svg PUBLIC "-//W3C//DTD SVG 1.1//EN" "http://www.w3.org/Graphics/SVG/1.1/DTD/svg11.dtd">
<svg xmlns="http://www.w3.org/2000/svg" width="800" height="186" viewBox="0 0 858 200">
  <defs>
    <style>
      .cls-1 {
        fill: #fff;
      }

      .cls-2 {
        fill: #444;
        fill-rule: evenodd;
      }
    </style>
  </defs>
  <svg width="200" height="200" xmlns="http://www.w3.org/2000/svg"><path d="M7,-114L62,-101L153,-104Z" fill="#a279a6" stroke="#a279a6" stroke-width="1.51"></path><path d="M90,301L-30,308L159,307Z" fill="#819d85" stroke="#819d85" stroke-width="1.51"></path><path d="M205,274L159,307L279,267Z" fill="#4f9b59" stroke="#4f9b59" stroke-width="1.51"></path><path d="M7,-114L153,-104L281,-107Z" fill="#977f97" stroke="#977f97" stroke-width="1.51"></path><path d="M219,-69L221,-22L281,-107Z" fill="#767878" stroke="#767878" stroke-width="1.51"></path><path d="M221,-22L302,36L313,15Z" fill="#7a9282" stroke="#7a9282" stroke-width="1.51"></path><path d="M281,-107L221,-22L313,15Z" fill="#6c7a74" stroke="#6c7a74" stroke-width="1.51"></path><path d="M190,145L302,198L313,137Z" fill="#7eb780" stroke="#7eb780" stroke-width="1.51"></path><path d="M302,36L210,48L313,137Z" fill="#8eb092" stroke="#8eb092" stroke-width="1.51"></path><path d="M210,48L190,145L313,137Z" fill="#a6d0a5" stroke="#a6d0a5" stroke-width="1.51"></path><path d="M313,15L302,36L313,137Z" fill="#7f9782" stroke="#7f9782" stroke-width="1.51"></path><path d="M206,214L279,267L302,198Z" fill="#50a25a" stroke="#50a25a" stroke-width="1.51"></path><path d="M190,145L206,214L302,198Z" fill="#85c684" stroke="#85c684" stroke-width="1.51"></path><path d="M221,-22L210,48L302,36Z" fill="#93ab96" stroke="#93ab96" stroke-width="1.51"></path><path d="M206,214L205,274L279,267Z" fill="#54a65c" stroke="#54a65c" stroke-width="1.51"></path><path d="M153,-104L219,-69L281,-107Z" fill="#797278" stroke="#797278" stroke-width="1.51"></path><path d="M131,36L190,145L210,48Z" fill="#d3e3cf" stroke="#d3e3cf" stroke-width="1.51"></path><path d="M162,-29L131,36L210,48Z" fill="#c6cac7" stroke="#c6cac7" stroke-width="1.51"></path><path d="M219,-69L162,-29L221,-22Z" fill="#9a9d9e" stroke="#9a9d9e" stroke-width="1.51"></path><path d="M162,-29L210,48L221,-22Z" fill="#acb6ae" stroke="#acb6ae" stroke-width="1.51"></path><path d="M153,-104L162,-29L219,-69Z" fill="#9f909f" stroke="#9f909f" stroke-width="1.51"></path><path d="M190,145L110,160L206,214Z" fill="#bce4b5" stroke="#bce4b5" stroke-width="1.51"></path><path d="M116,235L205,274L206,214Z" fill="#85c485" stroke="#85c485" stroke-width="1.51"></path><path d="M131,36L110,160L190,145Z" fill="#e4f3e0" stroke="#e4f3e0" stroke-width="1.51"></path><path d="M116,235L159,307L205,274Z" fill="#7bb47e" stroke="#7bb47e" stroke-width="1.51"></path><path d="M110,160L116,235L206,214Z" fill="#b6dfb0" stroke="#b6dfb0" stroke-width="1.51"></path><path d="M72,110L110,160L131,36Z" fill="#f5f6f4" stroke="#f5f6f4" stroke-width="1.51"></path><path d="M116,235L90,301L159,307Z" fill="#87b58a" stroke="#87b58a" stroke-width="1.51"></path><path d="M64,-9L131,36L162,-29Z" fill="#d2c5d7" stroke="#d2c5d7" stroke-width="1.51"></path><path d="M153,-104L62,-101L162,-29Z" fill="#b290b3" stroke="#b290b3" stroke-width="1.51"></path><path d="M62,-101L64,-9L162,-29Z" fill="#c4a8cb" stroke="#c4a8cb" stroke-width="1.51"></path><path d="M110,160L50,207L116,235Z" fill="#c5e1c2" stroke="#c5e1c2" stroke-width="1.51"></path><path d="M36,81L72,110L131,36Z" fill="#efe5f0" stroke="#efe5f0" stroke-width="1.51"></path><path d="M64,-9L36,81L131,36Z" fill="#e3d2e6" stroke="#e3d2e6" stroke-width="1.51"></path><path d="M50,207L90,301L116,235Z" fill="#a1c6a1" stroke="#a1c6a1" stroke-width="1.51"></path><path d="M72,110L50,207L110,160Z" fill="#dde8d9" stroke="#dde8d9" stroke-width="1.51"></path><path d="M50,207L-30,308L90,301Z" fill="#87a28c" stroke="#87a28c" stroke-width="1.51"></path><path d="M-33,214L-30,308L50,207Z" fill="#8a9e8e" stroke="#8a9e8e" stroke-width="1.51"></path><path d="M7,-114L-33,-35L62,-101Z" fill="#9c68a7" stroke="#9c68a7" stroke-width="1.51"></path><path d="M-29,75L36,81L64,-9Z" fill="#d7c0de" stroke="#d7c0de" stroke-width="1.51"></path><path d="M62,-101L-33,-35L64,-9Z" fill="#b18bbd" stroke="#b18bbd" stroke-width="1.51"></path><path d="M-30,111L50,207L72,110Z" fill="#d8d5d8" stroke="#d8d5d8" stroke-width="1.51"></path><path d="M36,81L-30,111L72,110Z" fill="#e3d6e7" stroke="#e3d6e7" stroke-width="1.51"></path><path d="M-30,111L-33,214L50,207Z" fill="#b8bbb9" stroke="#b8bbb9" stroke-width="1.51"></path><path d="M-33,-35L-29,75L64,-9Z" fill="#bd9fcb" stroke="#bd9fcb" stroke-width="1.51"></path><path d="M-33,-35L-65,-12L-29,75Z" fill="#ab84b9" stroke="#ab84b9" stroke-width="1.51"></path><path d="M-29,75L-30,111L36,81Z" fill="#d3beda" stroke="#d3beda" stroke-width="1.51"></path><path d="M-94,-81L-33,-35L7,-114Z" fill="#874d96" stroke="#874d96" stroke-width="1.51"></path><path d="M-99,147L-85,208L-33,214Z" fill="#988a97" stroke="#988a97" stroke-width="1.51"></path><path d="M-85,208L-104,263L-33,214Z" fill="#7c797c" stroke="#7c797c" stroke-width="1.51"></path><path d="M-99,147L-33,214L-30,111Z" fill="#ae9eb0" stroke="#ae9eb0" stroke-width="1.51"></path><path d="M-86,85L-99,147L-30,111Z" fill="#b795ba" stroke="#b795ba" stroke-width="1.51"></path><path d="M-33,214L-104,263L-30,308Z" fill="#6c7372" stroke="#6c7372" stroke-width="1.51"></path><path d="M-86,85L-30,111L-29,75Z" fill="#c2a4c9" stroke="#c2a4c9" stroke-width="1.51"></path><path d="M-65,-12L-86,85L-29,75Z" fill="#b48bbd" stroke="#b48bbd" stroke-width="1.51"></path><path d="M-94,-81L-65,-12L-33,-35Z" fill="#8b559a" stroke="#8b559a" stroke-width="1.51"></path><path d="M-94,-81L-86,85L-65,-12Z" fill="#9660a3" stroke="#9660a3" stroke-width="1.51"></path><path d="M-94,-81L-99,147L-86,85Z" fill="#a576aa" stroke="#a576aa" stroke-width="1.51"></path><path d="M-99,147L-104,263L-85,208Z" fill="#80767e" stroke="#80767e" stroke-width="1.51"></path></svg>
  <path id="line-logo-type" class="cls-2" d="M231.759,150.225h18.46V79.546h-18.46v70.679Zm9.357-82.038c6.322,0,11-4.291,11-10.1,0-6.058-4.678-10.1-11-10.1-6.449,0-11.127,4.039-11.127,10.1C229.989,63.9,234.667,68.187,241.116,68.187Zm51.129,83.805c7.333,0,14.413-4.039,19.6-9.087h0.38l1.517,7.32h15.046V49.507H310.2V74.371l0.758,11.107c-5.057-4.67-9.988-7.7-17.954-7.7-15.3,0-29.713,14.136-29.713,37.233S274.67,151.992,292.245,151.992Zm4.8-15.272c-9.356,0-14.667-7.32-14.667-21.961,0-14.135,6.7-21.708,14.667-21.708a18.831,18.831,0,0,1,13.15,5.3V129.4C306.153,134.7,301.98,136.72,297.049,136.72Zm80.008,15.272a44.72,44.72,0,0,0,24.782-7.825l-6.322-11.359a29.224,29.224,0,0,1-15.931,4.922c-10.5,0-18.081-6.058-19.6-17.67h43.621a34.4,34.4,0,0,0,.885-8.456c0-19.563-10.115-33.825-29.586-33.825-16.943,0-33,14.262-33,37.233C341.907,138.235,357.333,151.992,377.057,151.992Zm-17.322-44.174c1.391-10.35,7.966-15.651,15.425-15.651,9.1,0,13.4,6.058,13.4,15.651H359.735Zm74.027,44.174c8.092,0,15.173-4.039,21.368-9.34h0.379l1.391,7.573h15.173V108.954c0-20.447-9.23-31.175-27.184-31.175-11.127,0-21.242,4.165-29.587,9.34L422,99.361c6.575-3.786,12.9-6.689,19.472-6.689,8.724,0,11.759,5.3,12.011,12.243-28.448,3.029-40.713,10.98-40.713,26.126C412.773,143.031,421.118,151.992,433.762,151.992Zm6.069-14.514c-5.437,0-9.356-2.4-9.356-7.952,0-6.31,5.816-10.98,23.011-13.252v14.262C449.061,134.953,445.142,137.478,439.831,137.478Zm48.663,12.747h18.46V101.633q7.585-7.951,13.655-7.951c6.7,0,9.862,3.913,9.862,14.767v41.776h18.587V101.633q7.586-7.951,13.655-7.951c6.7,0,9.862,3.913,9.862,14.767v41.776h18.587V106.177c0-17.8-6.954-28.4-22-28.4-9.23,0-16.057,5.553-22.506,12.369-3.413-7.825-9.356-12.369-19.471-12.369-9.23,0-15.8,5.049-21.747,11.233h-0.506l-1.264-9.466H488.494v70.679Zm136.473,1.767c8.092,0,15.173-4.039,21.368-9.34h0.379l1.391,7.573h15.173V108.954c0-20.447-9.23-31.175-27.184-31.175-11.127,0-21.242,4.165-29.587,9.34l6.7,12.243c6.575-3.786,12.9-6.689,19.472-6.689,8.724,0,11.759,5.3,12.011,12.243-28.448,3.029-40.713,10.98-40.713,26.126C603.978,143.031,612.323,151.992,624.967,151.992Zm6.069-14.514c-5.437,0-9.356-2.4-9.356-7.952,0-6.31,5.816-10.98,23.011-13.252v14.262C640.266,134.953,636.347,137.478,631.036,137.478ZM679.7,150.225h18.46V101.633c5.31-5.174,8.977-7.951,14.793-7.951,6.954,0,9.989,3.913,9.989,14.767v41.776h18.586V106.177c0-17.8-6.575-28.4-21.874-28.4-9.609,0-16.816,5.049-23.011,11.107h-0.506l-1.264-9.34H679.7v70.679Zm79.577-53.514c12.771-6.437,19.092-16.155,19.092-29.155,0-10.854-4.3-17.165-12.264-17.165-5.943,0-10.115,4.165-10.115,10.6,0,6.058,4.678,9.718,10.115,9.718a4.3,4.3,0,0,0,1.264-.126c-0.126,8.33-4.172,13.5-12.264,18.049ZM809.8,151.992c18.46,0,28.2-9.971,28.2-22.34,0-13.126-10.368-17.8-19.724-21.33-7.46-2.776-14.414-4.669-14.414-9.844,0-4.039,3.035-6.815,9.357-6.815,5.31,0,10.241,2.524,15.3,6.058l8.344-11.233c-5.942-4.418-13.781-8.709-24.149-8.709-15.931,0-26.3,8.961-26.3,21.709,0,11.737,10.368,17.165,19.345,20.572,7.46,2.9,14.793,5.3,14.793,10.6,0,4.418-3.161,7.447-10.242,7.447-6.574,0-12.643-2.777-18.965-7.7l-8.472,11.611C789.823,147.827,800.317,151.992,809.8,151.992Z"></path>
</svg>