<svg xmlns="http://www.w3.org/2000/svg" xmlns:xlink="http://www.w3.org/1999/xlink" width="196" height="42" viewBox="0 0 196 42"><defs><clipPath id="clip"><path d="M20.994910182069756 41.070713752128356C25.19873758625058 41.31606159137515 29.13104542858308 39.27861532004002 32.58379590385324 37.05439685560852C35.941820863302866 34.89119937802502 38.97339451946381 32.13824519056657 40.37160205048936 28.588492363116416C41.71891510618303 25.16794983077772 40.89953027775924 21.46409204023974 40.130565595657906 17.89474676278599C39.39735048240292 14.491342207582376 38.42614435007578 11.09727800216474 36.02730867925916 8.423349035466487C33.59583342484591 5.713037448190365 30.124005437188785 4.176847724344118 26.604974793464667 2.8180704078025096C22.704840835595903 1.3121404827884247 18.70259525728282 -0.4863325443045331 14.525820615362727 0.12113822487966544C10.119199310583825 0.7620379293192898 5.876050244116506 2.92689570661931 3.2057196972538677 6.2212617959540975C0.6041068603049935 9.43085137942049 0.6142750914585228 13.691129678247878 0.287807691080753 17.68646436488647C-0.018569730290413887 21.43593624903377 -0.4878294368388442 25.345550623424042 1.3694887453477147 28.693206027876855C3.19367105751588 31.981136892176977 7.005853893608049 33.66929069166943 10.312197614998912 35.75456030396782C13.721036215103128 37.904472153736684 16.872881930482926 40.83013995410913 20.994910182069756 41.070713752128356"/></clipPath></defs><g clip-path="url(#clip)"><path d="M26.2,20.5L29.7,23.4L31.7,23.7Z" fill="rgb(202,198,223)" shape-rendering="crispEdges"/><path d="M31.1,34.8L34,25L31.7,23.7Z" fill="rgb(161,152,196)" shape-rendering="crispEdges"/><path d="M31.7,23.7L26,11.7L26.2,20.5Z" fill="rgb(219,208,216)" shape-rendering="crispEdges"/><path d="M36.1,7.8L26,11.7L31.7,23.7Z" fill="rgb(205,169,166)" shape-rendering="crispEdges"/><path d="M34,25L36.1,7.8L31.7,23.7Z" fill="rgb(185,164,192)" shape-rendering="crispEdges"/><path d="M36.1,7.8L33.8,5.3L26,11.7Z" fill="rgb(192,128,110)" shape-rendering="crispEdges"/><path d="M33.8,5.3L24.4,6.5L26,11.7Z" fill="rgb(213,152,124)" shape-rendering="crispEdges"/><path d="M26,11.7L14,16.7L26.2,20.5Z" fill="rgb(246,229,211)" shape-rendering="crispEdges"/><path d="M34,25L41.9,8.6L36.1,7.8Z" fill="rgb(173,114,134)" shape-rendering="crispEdges"/><path d="M36.1,7.8L40.1,5.8L33.8,5.3Z" fill="rgb(156,75,88)" shape-rendering="crispEdges"/><path d="M41.9,8.6L40.1,5.8L36.1,7.8Z" fill="rgb(145,66,73)" shape-rendering="crispEdges"/><path d="M23.7,1.3L22.4,5.1L24.4,6.5Z" fill="rgb(214,157,125)" shape-rendering="crispEdges"/><path d="M24.4,6.5L22.4,5.1L26,11.7Z" fill="rgb(230,173,133)" shape-rendering="crispEdges"/><path d="M41.9,8.6L42.1,5.7L40.1,5.8Z" fill="rgb(130,54,59)" shape-rendering="crispEdges"/><path d="M40.1,5.8L42.7,0.9L33.8,5.3Z" fill="rgb(130,52,68)" shape-rendering="crispEdges"/><path d="M34,25L48.4,17.5L41.9,8.6Z" fill="rgb(148,109,133)" shape-rendering="crispEdges"/><path d="M41.9,8.6L56.8,13.5L42.1,5.7Z" fill="rgb(141,69,70)" shape-rendering="crispEdges"/><path d="M46.9,24.1L48.4,17.5L34,25Z" fill="rgb(138,113,155)" shape-rendering="crispEdges"/><path d="M31.1,34.8L35.6,33.7L34,25Z" fill="rgb(135,120,177)" shape-rendering="crispEdges"/><path d="M34,25L44.8,29L46.9,24.1Z" fill="rgb(123,98,148)" shape-rendering="crispEdges"/><path d="M31.1,34.8L31.7,23.7L29.7,23.4Z" fill="rgb(172,164,205)" shape-rendering="crispEdges"/><path d="M21,37.3L31.1,34.8L29.7,23.4Z" fill="rgb(166,158,200)" shape-rendering="crispEdges"/><path d="M35.6,33.7L44.8,29L34,25Z" fill="rgb(123,95,161)" shape-rendering="crispEdges"/><path d="M22.4,5.1L14,16.7L26,11.7Z" fill="rgb(252,207,163)" shape-rendering="crispEdges"/><path d="M26.2,20.5L16,29.4L29.7,23.4Z" fill="rgb(219,221,236)" shape-rendering="crispEdges"/><path d="M33.8,5.3L23.7,1.3L24.4,6.5Z" fill="rgb(198,138,117)" shape-rendering="crispEdges"/><path d="M22.4,5.1L10.3,7.6L14,16.7Z" fill="rgb(248,183,111)" shape-rendering="crispEdges"/><path d="M39,-10.5L23.7,1.3L33.8,5.3Z" fill="rgb(142,91,94)" shape-rendering="crispEdges"/><path d="M14,16.7L14.4,22.6L26.2,20.5Z" fill="rgb(251,239,223)" shape-rendering="crispEdges"/><path d="M14.4,22.6L16,29.4L26.2,20.5Z" fill="rgb(236,229,228)" shape-rendering="crispEdges"/><path d="M53.7,-4.6L42.7,0.9L57.4,-0.8Z" fill="rgb(92,28,48)" shape-rendering="crispEdges"/><path d="M42.1,5.7L42.7,0.9L40.1,5.8Z" fill="rgb(117,42,54)" shape-rendering="crispEdges"/><path d="M14.9,-10.1L20.1,-0.4L23.8,-14.4Z" fill="rgb(194,147,116)" shape-rendering="crispEdges"/><path d="M23.7,1.3L20.1,-0.4L22.4,5.1Z" fill="rgb(203,152,124)" shape-rendering="crispEdges"/><path d="M16,29.4L21,37.3L29.7,23.4Z" fill="rgb(198,193,220)" shape-rendering="crispEdges"/><path d="M31.1,42.3L41.2,39.4L35.6,33.7Z" fill="rgb(83,42,129)" shape-rendering="crispEdges"/><path d="M20.1,-0.4L10.3,7.6L22.4,5.1Z" fill="rgb(222,158,106)" shape-rendering="crispEdges"/><path d="M14,16.7L6.8,15.3L14.4,22.6Z" fill="rgb(254,205,149)" shape-rendering="crispEdges"/><path d="M14.4,22.6L2,29.8L16,29.4Z" fill="rgb(225,176,148)" shape-rendering="crispEdges"/><path d="M31.1,42.3L35.6,33.7L31.1,34.8Z" fill="rgb(109,80,155)" shape-rendering="crispEdges"/><path d="M35.6,33.7L41.2,39.4L44.8,29Z" fill="rgb(83,50,121)" shape-rendering="crispEdges"/><path d="M52.7,31.3L55.4,22.8L46.9,24.1Z" fill="rgb(123,98,148)" shape-rendering="crispEdges"/><path d="M46.9,24.1L55.4,22.8L48.4,17.5Z" fill="rgb(141,115,157)" shape-rendering="crispEdges"/><path d="M48.4,17.5L56.8,13.5L41.9,8.6Z" fill="rgb(150,92,100)" shape-rendering="crispEdges"/><path d="M52.7,31.3L46.9,24.1L44.8,29Z" fill="rgb(114,87,142)" shape-rendering="crispEdges"/><path d="M21,37.3L31.1,42.3L31.1,34.8Z" fill="rgb(131,104,167)" shape-rendering="crispEdges"/><path d="M10.3,7.6L6.8,15.3L14,16.7Z" fill="rgb(247,175,91)" shape-rendering="crispEdges"/><path d="M16,29.4L15.1,39.1L21,37.3Z" fill="rgb(180,147,175)" shape-rendering="crispEdges"/><path d="M47.5,40.9L52.7,31.3L44.8,29Z" fill="rgb(82,51,118)" shape-rendering="crispEdges"/><path d="M55.4,22.8L56.8,13.5L48.4,17.5Z" fill="rgb(147,111,139)" shape-rendering="crispEdges"/><path d="M6.7,39.5L15.1,39.1L16,29.4Z" fill="rgb(180,119,130)" shape-rendering="crispEdges"/><path d="M21,37.3L24.5,44.8L31.1,42.3Z" fill="rgb(126,101,149)" shape-rendering="crispEdges"/><path d="M10.3,7.6L7.4,4.7L6.8,15.3Z" fill="rgb(227,136,32)" shape-rendering="crispEdges"/><path d="M7.1,2.7L7.4,4.7L10.3,7.6Z" fill="rgb(207,114,15)" shape-rendering="crispEdges"/><path d="M41.2,39.4L47.5,40.9L44.8,29Z" fill="rgb(67,25,107)" shape-rendering="crispEdges"/><path d="M39.5,49.3L47.5,40.9L41.2,39.4Z" fill="rgb(45,0,75)" shape-rendering="crispEdges"/><path d="M15.1,39.1L24.5,44.8L21,37.3Z" fill="rgb(149,121,161)" shape-rendering="crispEdges"/><path d="M31.1,42.3L39.5,49.3L41.2,39.4Z" fill="rgb(63,18,103)" shape-rendering="crispEdges"/><path d="M20.1,-0.4L7.1,2.7L10.3,7.6Z" fill="rgb(212,133,57)" shape-rendering="crispEdges"/><path d="M7.4,4.7L-0.8,13.4L6.8,15.3Z" fill="rgb(214,129,45)" shape-rendering="crispEdges"/><path d="M42.3,-10L39,-10.5L42.7,0.9Z" fill="rgb(92,28,48)" shape-rendering="crispEdges"/><path d="M42.7,0.9L39,-10.5L33.8,5.3Z" fill="rgb(107,40,65)" shape-rendering="crispEdges"/><path d="M20.1,-0.4L14.9,-10.1L7.1,2.7Z" fill="rgb(191,127,70)" shape-rendering="crispEdges"/><path d="M53.7,-4.6L42.3,-10L42.7,0.9Z" fill="rgb(92,28,48)" shape-rendering="crispEdges"/><path d="M57.4,-0.8L42.7,0.9L42.1,5.7Z" fill="rgb(104,34,51)" shape-rendering="crispEdges"/><path d="M56.8,13.5L57.4,-0.8L42.1,5.7Z" fill="rgb(127,52,58)" shape-rendering="crispEdges"/><path d="M47.5,40.9L54.6,39.1L52.7,31.3Z" fill="rgb(64,19,104)" shape-rendering="crispEdges"/><path d="M52.7,31.3L54.6,39.1L55.4,22.8Z" fill="rgb(98,70,130)" shape-rendering="crispEdges"/><path d="M55.4,22.8L58.3,51.5L56.8,13.5Z" fill="rgb(108,81,138)" shape-rendering="crispEdges"/><path d="M-1.7,21.5L2,29.8L6.8,15.3Z" fill="rgb(205,153,124)" shape-rendering="crispEdges"/><path d="M6.8,15.3L2,29.8L14.4,22.6Z" fill="rgb(236,178,135)" shape-rendering="crispEdges"/><path d="M23.8,-14.4L20.1,-0.4L23.7,1.3Z" fill="rgb(187,142,120)" shape-rendering="crispEdges"/><path d="M39,-10.5L23.8,-14.4L23.7,1.3Z" fill="rgb(161,113,107)" shape-rendering="crispEdges"/><path d="M25.2,-17.6L23.8,-14.4L39,-10.5Z" fill="rgb(158,109,105)" shape-rendering="crispEdges"/><path d="M0.5,-0.6L7.4,4.7L7.1,2.7Z" fill="rgb(172,86,8)" shape-rendering="crispEdges"/><path d="M0.5,-0.6L-0.8,13.4L7.4,4.7Z" fill="rgb(177,90,9)" shape-rendering="crispEdges"/><path d="M28.9,59.2L39.5,49.3L31.1,42.3Z" fill="rgb(85,56,121)" shape-rendering="crispEdges"/><path d="M47.5,40.9L58.3,51.5L54.6,39.1Z" fill="rgb(45,0,75)" shape-rendering="crispEdges"/><path d="M15.1,39.1L15.5,54L24.5,44.8Z" fill="rgb(147,112,142)" shape-rendering="crispEdges"/><path d="M40.8,58.3L43.1,52.7L39.5,49.3Z" fill="rgb(45,0,75)" shape-rendering="crispEdges"/><path d="M2,29.8L6.7,39.5L16,29.4Z" fill="rgb(187,122,107)" shape-rendering="crispEdges"/><path d="M-0.8,13.4L-1.7,21.5L6.8,15.3Z" fill="rgb(203,145,96)" shape-rendering="crispEdges"/><path d="M2,29.8L6.2,39.4L6.7,39.5Z" fill="rgb(151,73,87)" shape-rendering="crispEdges"/><path d="M6.7,39.5L6.8,41.2L15.1,39.1Z" fill="rgb(149,76,80)" shape-rendering="crispEdges"/><path d="M6.8,41.2L6.2,39.4L-0.9,40.6Z" fill="rgb(121,45,58)" shape-rendering="crispEdges"/><path d="M-0.9,40.6L6.2,39.4L-2.6,38.2Z" fill="rgb(108,39,61)" shape-rendering="crispEdges"/><path d="M6.2,39.4L6.8,41.2L6.7,39.5Z" fill="rgb(136,59,66)" shape-rendering="crispEdges"/><path d="M23.8,-14.4L9,-17.5L14.9,-10.1Z" fill="rgb(192,136,87)" shape-rendering="crispEdges"/><path d="M42,-18.4L25.2,-17.6L39,-10.5Z" fill="rgb(125,62,82)" shape-rendering="crispEdges"/><path d="M-0.2,-2.4L0.5,-0.6L7.1,2.7Z" fill="rgb(142,68,8)" shape-rendering="crispEdges"/><path d="M-0.8,13.4L-8,24.2L-1.7,21.5Z" fill="rgb(194,147,116)" shape-rendering="crispEdges"/><path d="M8.7,-11L7.1,2.7L14.9,-10.1Z" fill="rgb(182,106,35)" shape-rendering="crispEdges"/><path d="M9,-17.5L8.7,-11L14.9,-10.1Z" fill="rgb(184,110,40)" shape-rendering="crispEdges"/><path d="M28.9,59.2L31.1,42.3L24.5,44.8Z" fill="rgb(114,87,142)" shape-rendering="crispEdges"/><path d="M39.5,49.3L43.1,52.7L47.5,40.9Z" fill="rgb(45,0,75)" shape-rendering="crispEdges"/><path d="M54.9,-16.4L42,-18.4L42.3,-10Z" fill="rgb(92,28,48)" shape-rendering="crispEdges"/><path d="M42.3,-10L42,-18.4L39,-10.5Z" fill="rgb(92,28,48)" shape-rendering="crispEdges"/><path d="M54.9,-16.4L42.3,-10L53.7,-4.6Z" fill="rgb(92,28,48)" shape-rendering="crispEdges"/><path d="M8.7,-11L-0.2,-2.4L7.1,2.7Z" fill="rgb(158,79,9)" shape-rendering="crispEdges"/><path d="M0.5,-0.6L-7.5,8L-0.8,13.4Z" fill="rgb(167,87,12)" shape-rendering="crispEdges"/><path d="M-2.6,38.2L6.2,39.4L2,29.8Z" fill="rgb(135,65,83)" shape-rendering="crispEdges"/><path d="M5.1,48.2L15.5,54L15.1,39.1Z" fill="rgb(149,85,89)" shape-rendering="crispEdges"/><path d="M5.1,48.2L15.1,39.1L6.8,41.2Z" fill="rgb(141,67,68)" shape-rendering="crispEdges"/><path d="M-9.5,35.2L-2.6,38.2L2,29.8Z" fill="rgb(130,72,86)" shape-rendering="crispEdges"/><path d="M-5.8,0.4L-7.5,8L0.5,-0.6Z" fill="rgb(143,68,8)" shape-rendering="crispEdges"/><path d="M-1.7,21.5L-8,24.2L2,29.8Z" fill="rgb(178,133,116)" shape-rendering="crispEdges"/><path d="M-14.8,19L-8,24.2L-0.8,13.4Z" fill="rgb(194,145,110)" shape-rendering="crispEdges"/><path d="M-0.9,40.6L5.1,48.2L6.8,41.2Z" fill="rgb(115,40,53)" shape-rendering="crispEdges"/><path d="M57.4,-0.8L54.9,-16.4L53.7,-4.6Z" fill="rgb(92,28,48)" shape-rendering="crispEdges"/><path d="M-0.2,-2.4L-5.8,0.4L0.5,-0.6Z" fill="rgb(127,59,8)" shape-rendering="crispEdges"/><path d="M-13.5,-8.8L-5.8,0.4L-0.2,-2.4Z" fill="rgb(127,59,8)" shape-rendering="crispEdges"/><path d="M25.2,-17.6L9,-17.5L23.8,-14.4Z" fill="rgb(194,146,114)" shape-rendering="crispEdges"/><path d="M8.7,-11L1.3,-11.7L-0.2,-2.4Z" fill="rgb(147,70,8)" shape-rendering="crispEdges"/><path d="M42,-18.4L9,-17.5L25.2,-17.6Z" fill="rgb(177,131,116)" shape-rendering="crispEdges"/><path d="M15.5,54L28.9,59.2L24.5,44.8Z" fill="rgb(136,111,154)" shape-rendering="crispEdges"/><path d="M28.9,59.2L40.8,58.3L39.5,49.3Z" fill="rgb(68,26,107)" shape-rendering="crispEdges"/><path d="M43.1,52.7L58.3,51.5L47.5,40.9Z" fill="rgb(45,0,75)" shape-rendering="crispEdges"/><path d="M5.1,48.2L13.5,55.2L15.5,54Z" fill="rgb(147,82,85)" shape-rendering="crispEdges"/><path d="M15.5,54L13.5,55.2L28.9,59.2Z" fill="rgb(146,115,149)" shape-rendering="crispEdges"/><path d="M9,-17.5L1.3,-11.7L8.7,-11Z" fill="rgb(164,84,11)" shape-rendering="crispEdges"/><path d="M-2.6,38.2L-16.4,44.9L-0.9,40.6Z" fill="rgb(92,28,48)" shape-rendering="crispEdges"/><path d="M-8,24.2L-10,27.9L2,29.8Z" fill="rgb(168,121,111)" shape-rendering="crispEdges"/><path d="M-14.8,19L-10,27.9L-8,24.2Z" fill="rgb(183,139,119)" shape-rendering="crispEdges"/><path d="M40.8,58.3L58.3,51.5L43.1,52.7Z" fill="rgb(45,0,75)" shape-rendering="crispEdges"/><path d="M54.6,39.1L58.3,51.5L55.4,22.8Z" fill="rgb(60,15,99)" shape-rendering="crispEdges"/><path d="M56.8,13.5L58.3,51.5L57.4,-0.8Z" fill="rgb(141,115,157)" shape-rendering="crispEdges"/><path d="M-10,27.9L-9.5,35.2L2,29.8Z" fill="rgb(149,99,98)" shape-rendering="crispEdges"/><path d="M-0.9,40.6L2,52.5L5.1,48.2Z" fill="rgb(105,35,51)" shape-rendering="crispEdges"/><path d="M-16.4,44.9L2,52.5L-0.9,40.6Z" fill="rgb(92,28,48)" shape-rendering="crispEdges"/><path d="M5.1,48.2L5.7,55.7L13.5,55.2Z" fill="rgb(138,61,62)" shape-rendering="crispEdges"/><path d="M13.5,55.2L5.7,55.7L28.9,59.2Z" fill="rgb(149,106,125)" shape-rendering="crispEdges"/><path d="M2,52.5L5.7,55.7L5.1,48.2Z" fill="rgb(118,42,54)" shape-rendering="crispEdges"/><path d="M-10,27.9L-16.4,44.9L-9.5,35.2Z" fill="rgb(122,57,80)" shape-rendering="crispEdges"/><path d="M-7.5,8L-14.8,19L-0.8,13.4Z" fill="rgb(190,125,64)" shape-rendering="crispEdges"/><path d="M-17.8,12.6L-14.8,19L-7.5,8Z" fill="rgb(190,124,62)" shape-rendering="crispEdges"/><path d="M-17.7,6.4L-7.5,8L-5.8,0.4Z" fill="rgb(157,77,9)" shape-rendering="crispEdges"/><path d="M-17.7,6.4L-17.8,12.6L-7.5,8Z" fill="rgb(177,99,23)" shape-rendering="crispEdges"/><path d="M-14.8,19L-16.4,44.9L-10,27.9Z" fill="rgb(151,101,100)" shape-rendering="crispEdges"/><path d="M-16,-7.7L-17.7,6.4L-5.8,0.4Z" fill="rgb(127,59,8)" shape-rendering="crispEdges"/><path d="M1.3,-11.7L-13.5,-8.8L-0.2,-2.4Z" fill="rgb(127,59,8)" shape-rendering="crispEdges"/><path d="M9,-17.5L-13.5,-8.8L1.3,-11.7Z" fill="rgb(127,59,8)" shape-rendering="crispEdges"/><path d="M-13.5,-8.8L-16,-7.7L-5.8,0.4Z" fill="rgb(127,59,8)" shape-rendering="crispEdges"/><path d="M-17.8,12.6L-16.4,44.9L-14.8,19Z" fill="rgb(176,131,116)" shape-rendering="crispEdges"/><path d="M-9.5,35.2L-16.4,44.9L-2.6,38.2Z" fill="rgb(102,36,59)" shape-rendering="crispEdges"/><path d="M2,52.5L-15.2,54.6L5.7,55.7Z" fill="rgb(92,28,48)" shape-rendering="crispEdges"/><path d="M-16.4,44.9L-15.2,54.6L2,52.5Z" fill="rgb(92,28,48)" shape-rendering="crispEdges"/><path d="M5.7,55.7L-15.2,54.6L28.9,59.2Z" fill="rgb(129,53,59)" shape-rendering="crispEdges"/></g><g transform="translate(49.30899435778294, 8.218165726297157)"><path fill="#555" d="M2.4394291403916366 4.813806837039494C4.130766677729839 4.813806837039494 4.878858280783273 3.9356123464985067 4.878858280783273 2.7321606372386325L4.878858280783273 2.0816461998008635C4.878858280783273 0.8781944905409892 4.130766677729839 0 2.4394291403916366 0C0.7155658811815471 0 3.611080531472465e-16 0.8781944905409892 3.611080531472465e-16 2.0816461998008635L3.611080531472465e-16 2.7321606372386325C3.611080531472465e-16 3.9356123464985067 0.7155658811815471 4.813806837039494 2.4394291403916366 4.813806837039494zM0.3577829405907737 24.26418851642881L4.521075340192501 24.26418851642881L4.521075340192501 7.285761699303022L0.3577829405907737 7.285761699303022zM19.2227016262861 24.26418851642881L23.385994025887825 24.26418851642881L23.385994025887825 0.19515433123133108L19.2227016262861 0.19515433123133108L19.2227016262861 10.08297378028543L19.06007301692666 10.08297378028543C18.47461002323266 8.131430467972121 16.62064387653502 6.89545303684036 14.376369067374712 6.89545303684036C10.115499502157322 6.89545303684036 7.741121805509461 10.08297378028543 7.741121805509461 15.742449385994027C7.741121805509461 21.434450713574517 10.115499502157322 24.65449717889147 14.376369067374712 24.65449717889147C16.62064387653502 24.65449717889147 18.442084301360776 23.353468304015934 19.06007301692666 21.434450713574517L19.2227016262861 21.434450713574517zM15.709923664122142 21.206770660471296C13.5632260205775 21.206770660471296 12.099568536342518 19.645536010620646 12.099568536342518 17.2386325921009L12.099568536342518 14.311317623630936C12.099568536342518 11.904414205111186 13.5632260205775 10.31065383338865 15.709923664122142 10.31065383338865C17.69399269830734 10.31065383338865 19.2227016262861 11.38400265516097 19.2227016262861 13.042814470627283L19.2227016262861 18.442084301360776C19.2227016262861 20.19847328244275 17.69399269830734 21.206770660471296 15.709923664122142 21.206770660471296zM34.41221374045803 24.65449717889147C37.56720876203121 24.65449717889147 40.03916362429473 23.451045469631598 41.43776966478593 21.532027879190178L39.19349485562564 19.027547295054767C38.1526717557252 20.361101891802196 36.91669432459344 21.336873547958845 34.867573846664456 21.336873547958845C32.13541320942583 21.336873547958845 30.73680716893462 19.678061732492534 30.73680716893462 17.2386325921009L30.73680716893462 16.81579820776635L42.023232658479934 16.81579820776635L42.023232658479934 15.449717889147031C42.023232658479934 10.798539661466979 39.5838035180883 6.89545303684036 34.28211085297047 6.89545303684036C29.305675406571535 6.89545303684036 26.410886159973458 10.375705277132429 26.410886159973458 15.742449385994027C26.410886159973458 21.174244938599408 29.403252572187192 24.65449717889147 34.41221374045803 24.65449717889147zM34.347162296714245 10.017922336541654C36.493859940258886 10.017922336541654 37.69731164951876 11.61168270826419 37.69731164951876 13.95353468304016L37.69731164951876 14.246266179887156L30.73680716893462 14.246266179887156L30.73680716893462 13.986060404912049C30.73680716893462 11.644208430136079 32.16793893129772 10.017922336541654 34.347162296714245 10.017922336541654zM49.243942914039174 24.65449717889147C51.78094922004648 24.65449717889147 53.63491536674413 23.516096913375375 54.18785263856623 21.336873547958845L54.38300696979756 21.336873547958845C54.64321274477267 23.093262529040828 55.749087288416874 24.26418851642881 57.53800199137074 24.26418851642881L59.84732824427483 24.26418851642881L59.84732824427483 20.946564885496187L58.15599070693663 20.946564885496187L58.15599070693663 12.945237305011617C58.15599070693663 9.074676402256888 55.716561566544996 6.89545303684036 51.13043478260872 6.89545303684036C47.71523398606042 6.89545303684036 45.731164951875215 8.196481911715898 44.49518752074346 10.148025224029208L46.96714238300699 12.359774311317624C47.780285429804195 11.18884832392964 48.88615997344841 10.213076667772985 50.83770328576172 10.213076667772985C53.04945237305014 10.213076667772985 53.9926983073349 11.318951211417192 53.9926983073349 13.205443079986724L53.9926983073349 14.441420511118489L51.097909060736825 14.441420511118489C46.479256554928654 14.441420511118489 43.844673083305686 16.16528377032858 43.844673083305686 19.645536010620646C43.844673083305686 22.670428144706275 45.796216395619 24.65449717889147 49.243942914039174 24.65449717889147zM50.64254895453038 21.629605044805842C49.01626286093596 21.629605044805842 48.07301692665119 20.946564885496187 48.07301692665119 19.58048456687687L48.07301692665119 19.027547295054767C48.07301692665119 17.693992698307337 49.146365748423506 16.9459010952539 51.325589113840046 16.9459010952539L53.9926983073349 16.9459010952539L53.9926983073349 19.190175904414204C53.9926983073349 20.783936276136743 52.49651510122803 21.629605044805842 50.64254895453038 21.629605044805842zM66.74278128111519 24.26418851642881L66.74278128111519 13.042814470627283C66.74278128111519 11.221374045801529 68.30401593096583 10.31065383338865 69.89777630268837 10.31065383338865C71.75174244938601 10.31065383338865 72.629936939927 11.514105542648524 72.629936939927 13.95353468304016L72.629936939927 24.26418851642881L76.79322933952872 24.26418851642881L76.79322933952872 13.042814470627283C76.79322933952872 11.221374045801529 78.32193826750749 10.31065383338865 79.94822436110192 10.31065383338865C81.80219050779957 10.31065383338865 82.68038499834054 11.514105542648524 82.68038499834054 13.95353468304016L82.68038499834054 24.26418851642881L86.84367739794227 24.26418851642881L86.84367739794227 13.53070029870561C86.84367739794227 9.302356455360108 84.95718552937274 6.89545303684036 81.63956189844012 6.89545303684036C78.93992698307336 6.89545303684036 77.05343511450384 8.424161964819117 76.43544639893796 10.31065383338865L76.37039495519417 10.31065383338865C75.55725190839696 8.033853302356455 73.7683372054431 6.89545303684036 71.45901095253902 6.89545303684036C68.92200464653172 6.89545303684036 67.5559243279124 8.32658479920345 66.90540989047463 10.11549950215732L66.74278128111519 10.11549950215732L66.74278128111519 7.285761699303022L62.57948888151346 7.285761699303022L62.57948888151346 24.26418851642881zM95.00763358778629 24.65449717889147C97.54463989379359 24.65449717889147 99.39860604049123 23.516096913375375 99.95154331231333 21.336873547958845L100.14669764354467 21.336873547958845C100.40690341851978 23.093262529040828 101.51277796216398 24.26418851642881 103.30169266511786 24.26418851642881L105.61101891802193 24.26418851642881L105.61101891802193 20.946564885496187L103.91968138068373 20.946564885496187L103.91968138068373 12.945237305011617C103.91968138068373 9.074676402256888 101.48025224029209 6.89545303684036 96.89412545635582 6.89545303684036C93.47892465980753 6.89545303684036 91.49485562562234 8.196481911715898 90.25887819449056 10.148025224029208L92.7308330567541 12.359774311317624C93.5439761035513 11.18884832392964 94.6498506471955 10.213076667772985 96.60139395950881 10.213076667772985C98.81314304679725 10.213076667772985 99.75638898108201 11.318951211417192 99.75638898108201 13.205443079986724L99.75638898108201 14.441420511118489L96.86159973448393 14.441420511118489C92.24294722867576 14.441420511118489 89.6083637570528 16.16528377032858 89.6083637570528 19.645536010620646C89.6083637570528 22.670428144706275 91.5599070693661 24.65449717889147 95.00763358778629 24.65449717889147zM96.40623962827749 21.629605044805842C94.77995353468306 21.629605044805842 93.8367076003983 20.946564885496187 93.8367076003983 19.58048456687687L93.8367076003983 19.027547295054767C93.8367076003983 17.693992698307337 94.91005642217061 16.9459010952539 97.08927978758715 16.9459010952539L99.75638898108201 16.9459010952539L99.75638898108201 19.190175904414204C99.75638898108201 20.783936276136743 98.26020577497513 21.629605044805842 96.40623962827749 21.629605044805842zM112.50647195486228 24.26418851642881L112.50647195486228 13.042814470627283C112.50647195486228 11.221374045801529 114.16528377032859 10.31065383338865 115.88914702953868 10.31065383338865C117.87321606372387 10.31065383338865 118.68635911052108 11.546631264520412 118.68635911052108 13.95353468304016L118.68635911052108 24.26418851642881L122.84965151012281 24.26418851642881L122.84965151012281 13.53070029870561C122.84965151012281 9.302356455360108 120.8981081978095 6.89545303684036 117.41785595751743 6.89545303684036C114.78327248589449 6.89545303684036 113.35214072353138 8.294059077331564 112.66910056422174 10.11549950215732L112.50647195486228 10.11549950215732L112.50647195486228 7.285761699303022L108.34317955526055 7.285761699303022L108.34317955526055 24.26418851642881zM130.00531032193828 10.343179555260537L130.00531032193828 0.19515433123133108L126.29737802854301 0.19515433123133108L126.29737802854301 10.343179555260537zM139.69797543976105 24.65449717889147C143.92631928310658 24.65449717889147 146.69100564221708 22.377696647859278 146.69100564221708 19.092598738798543C146.69100564221708 16.262860935944243 144.90209093926322 14.604049120477931 141.19415864586793 14.083637570527715L139.47029538665782 13.855957517424494C137.8765350149353 13.595751742449387 137.2585462993694 13.075340192499171 137.2585462993694 11.936939926983074C137.2585462993694 10.896116827082642 138.03916362429476 10.180550945901096 139.82807832724862 10.180550945901096C141.48689014271494 10.180550945901096 142.91802190507804 10.96116827082642 143.89379356123467 12.001991370726852L146.3332227016263 9.562562230335216C144.70693660803187 7.871224692997013 143.0155990706937 6.89545303684036 139.69797543976105 6.89545303684036C135.82741453700632 6.89545303684036 133.25788250912714 8.977099236641221 133.25788250912714 12.262197145701958C133.25788250912714 15.352140723531365 135.27447726518423 16.9459010952539 138.91735811483574 17.401261201460343L140.60869565217394 17.62894125456356C142.1048788582808 17.82409558579489 142.6903418519748 18.442084301360776 142.6903418519748 19.417855957517425C142.6903418519748 20.6213076667773 141.8446730833057 21.369399269830733 139.86060404912052 21.369399269830733C137.94158645867907 21.369399269830733 136.44540325257222 20.491204779289745 135.20942582144045 19.060073016926655L132.67241951543315 21.532027879190178C134.36375705277135 23.483571191503486 136.4779289744441 24.65449717889147 139.69797543976105 24.65449717889147z"/></g></svg>