<?xml version="1.0" encoding="utf-8"?>
<!DOCTYPE svg PUBLIC "-//W3C//DTD SVG 1.1//EN" "http://www.w3.org/Graphics/SVG/1.1/DTD/svg11.dtd">
<svg xmlns="http://www.w3.org/2000/svg" width="800" height="187" viewBox="0 0 858 200">
  <defs>
    <style>
      .cls-1 {
        fill: #fff;
      }

      .cls-2 {
        fill: #444;
        fill-rule: evenodd;
      }
    </style>
  </defs>
  <svg width="200" height="200" xmlns="http://www.w3.org/2000/svg"><path d="M222,301L130,311L268,307Z" fill="#5a3694" stroke="#5a3694" stroke-width="1.51"></path><path d="M222,301L268,307L271,204Z" fill="#572d91" stroke="#572d91" stroke-width="1.51"></path><path d="M116,-102L219,-83L275,-105Z" fill="#b2a3d0" stroke="#b2a3d0" stroke-width="1.51"></path><path d="M271,204L268,307L299,-12Z" fill="#674ca1" stroke="#674ca1" stroke-width="1.51"></path><path d="M201,34L273,57L299,-12Z" fill="#9179ba" stroke="#9179ba" stroke-width="1.51"></path><path d="M210,-37L201,34L299,-12Z" fill="#9d89c1" stroke="#9d89c1" stroke-width="1.51"></path><path d="M273,57L264,148L299,-12Z" fill="#8368b1" stroke="#8368b1" stroke-width="1.51"></path><path d="M264,148L271,204L299,-12Z" fill="#765ba9" stroke="#765ba9" stroke-width="1.51"></path><path d="M275,-105L219,-83L299,-12Z" fill="#a488c3" stroke="#a488c3" stroke-width="1.51"></path><path d="M219,-83L210,-37L299,-12Z" fill="#a48dc5" stroke="#a48dc5" stroke-width="1.51"></path><path d="M264,148L192,205L271,204Z" fill="#6a51a3" stroke="#6a51a3" stroke-width="1.51"></path><path d="M192,205L222,301L271,204Z" fill="#63439b" stroke="#63439b" stroke-width="1.51"></path><path d="M203,120L264,148L273,57Z" fill="#7d67af" stroke="#7d67af" stroke-width="1.51"></path><path d="M201,34L203,120L273,57Z" fill="#8a79b8" stroke="#8a79b8" stroke-width="1.51"></path><path d="M203,120L192,205L264,148Z" fill="#7364ac" stroke="#7364ac" stroke-width="1.51"></path><path d="M87,288L-113,300L130,311Z" fill="#886cb1" stroke="#886cb1" stroke-width="1.51"></path><path d="M201,34L160,62L203,120Z" fill="#9187c0" stroke="#9187c0" stroke-width="1.51"></path><path d="M192,205L152,225L222,301Z" fill="#694fa3" stroke="#694fa3" stroke-width="1.51"></path><path d="M152,225L130,311L222,301Z" fill="#674ca1" stroke="#674ca1" stroke-width="1.51"></path><path d="M141,118L192,205L203,120Z" fill="#7f76b7" stroke="#7f76b7" stroke-width="1.51"></path><path d="M123,-19L201,34L210,-37Z" fill="#a8a0cd" stroke="#a8a0cd" stroke-width="1.51"></path><path d="M116,-102L210,-37L219,-83Z" fill="#b3a9d3" stroke="#b3a9d3" stroke-width="1.51"></path><path d="M160,62L141,118L203,120Z" fill="#8d87bf" stroke="#8d87bf" stroke-width="1.51"></path><path d="M116,-102L123,-19L210,-37Z" fill="#b7b3d7" stroke="#b7b3d7" stroke-width="1.51"></path><path d="M141,118L152,225L192,205Z" fill="#7a70b3" stroke="#7a70b3" stroke-width="1.51"></path><path d="M123,-19L160,62L201,34Z" fill="#a29fcd" stroke="#a29fcd" stroke-width="1.51"></path><path d="M89,120L73,217L141,118Z" fill="#908cc2" stroke="#908cc2" stroke-width="1.51"></path><path d="M87,288L130,311L152,225Z" fill="#745aa8" stroke="#745aa8" stroke-width="1.51"></path><path d="M141,118L73,217L152,225Z" fill="#837ab9" stroke="#837ab9" stroke-width="1.51"></path><path d="M89,120L141,118L160,62Z" fill="#9692c5" stroke="#9692c5" stroke-width="1.51"></path><path d="M53,63L89,120L160,62Z" fill="#a39fcb" stroke="#a39fcb" stroke-width="1.51"></path><path d="M82,3L53,63L160,62Z" fill="#aeacd2" stroke="#aeacd2" stroke-width="1.51"></path><path d="M123,-19L82,3L160,62Z" fill="#afadd3" stroke="#afadd3" stroke-width="1.51"></path><path d="M73,217L87,288L152,225Z" fill="#7e69b0" stroke="#7e69b0" stroke-width="1.51"></path><path d="M-29,259L-113,300L87,288Z" fill="#987cbc" stroke="#987cbc" stroke-width="1.51"></path><path d="M116,-102L40,-95L123,-19Z" fill="#c9c5df" stroke="#c9c5df" stroke-width="1.51"></path><path d="M40,-95L82,3L123,-19Z" fill="#c5c3df" stroke="#c5c3df" stroke-width="1.51"></path><path d="M14,165L73,217L89,120Z" fill="#9893c6" stroke="#9893c6" stroke-width="1.51"></path><path d="M40,-95L4,-67L82,3Z" fill="#d3d3e7" stroke="#d3d3e7" stroke-width="1.51"></path><path d="M4,-67L8,5L82,3Z" fill="#d0cfe6" stroke="#d0cfe6" stroke-width="1.51"></path><path d="M73,217L-29,259L87,288Z" fill="#8d76b8" stroke="#8d76b8" stroke-width="1.51"></path><path d="M53,63L14,165L89,120Z" fill="#a7a5ce" stroke="#a7a5ce" stroke-width="1.51"></path><path d="M14,49L53,63L82,3Z" fill="#bcbcdc" stroke="#bcbcdc" stroke-width="1.51"></path><path d="M8,5L14,49L82,3Z" fill="#c5c6e0" stroke="#c5c6e0" stroke-width="1.51"></path><path d="M14,49L14,165L53,63Z" fill="#b3b2d5" stroke="#b3b2d5" stroke-width="1.51"></path><path d="M14,165L-5,200L73,217Z" fill="#9c91c6" stroke="#9c91c6" stroke-width="1.51"></path><path d="M-5,200L-29,259L73,217Z" fill="#9a89c1" stroke="#9a89c1" stroke-width="1.51"></path><path d="M-91,-71L4,-67L40,-95Z" fill="#e6e5f1" stroke="#e6e5f1" stroke-width="1.51"></path><path d="M-88,136L14,165L14,49Z" fill="#b9b6d8" stroke="#b9b6d8" stroke-width="1.51"></path><path d="M-91,-71L-102,-4L4,-67Z" fill="#eae8f2" stroke="#eae8f2" stroke-width="1.51"></path><path d="M4,-67L-102,-4L8,5Z" fill="#e0deee" stroke="#e0deee" stroke-width="1.51"></path><path d="M-88,136L-5,200L14,165Z" fill="#aea9d2" stroke="#aea9d2" stroke-width="1.51"></path><path d="M8,5L-95,73L14,49Z" fill="#cdcee4" stroke="#cdcee4" stroke-width="1.51"></path><path d="M-95,73L-88,136L14,49Z" fill="#c7c5e0" stroke="#c7c5e0" stroke-width="1.51"></path><path d="M-102,-4L-95,73L8,5Z" fill="#d9d9ea" stroke="#d9d9ea" stroke-width="1.51"></path><path d="M-101,201L-29,259L-5,200Z" fill="#a796c8" stroke="#a796c8" stroke-width="1.51"></path><path d="M-88,136L-101,201L-5,200Z" fill="#b2a9d3" stroke="#b2a9d3" stroke-width="1.51"></path><path d="M-101,201L-113,300L-29,259Z" fill="#a88ec5" stroke="#a88ec5" stroke-width="1.51"></path><path d="M-95,73L-101,201L-88,136Z" fill="#c0bcdc" stroke="#c0bcdc" stroke-width="1.51"></path><path d="M-102,-4L-101,201L-95,73Z" fill="#cccae2" stroke="#cccae2" stroke-width="1.51"></path><path d="M-102,-4L-113,300L-101,201Z" fill="#bab4d8" stroke="#bab4d8" stroke-width="1.51"></path></svg>
  <path id="line-logo-type" class="cls-2" d="M231.759,150.225h18.46V79.546h-18.46v70.679Zm9.357-82.038c6.322,0,11-4.291,11-10.1,0-6.058-4.678-10.1-11-10.1-6.449,0-11.127,4.039-11.127,10.1C229.989,63.9,234.667,68.187,241.116,68.187Zm51.129,83.805c7.333,0,14.413-4.039,19.6-9.087h0.38l1.517,7.32h15.046V49.507H310.2V74.371l0.758,11.107c-5.057-4.67-9.988-7.7-17.954-7.7-15.3,0-29.713,14.136-29.713,37.233S274.67,151.992,292.245,151.992Zm4.8-15.272c-9.356,0-14.667-7.32-14.667-21.961,0-14.135,6.7-21.708,14.667-21.708a18.831,18.831,0,0,1,13.15,5.3V129.4C306.153,134.7,301.98,136.72,297.049,136.72Zm80.008,15.272a44.72,44.72,0,0,0,24.782-7.825l-6.322-11.359a29.224,29.224,0,0,1-15.931,4.922c-10.5,0-18.081-6.058-19.6-17.67h43.621a34.4,34.4,0,0,0,.885-8.456c0-19.563-10.115-33.825-29.586-33.825-16.943,0-33,14.262-33,37.233C341.907,138.235,357.333,151.992,377.057,151.992Zm-17.322-44.174c1.391-10.35,7.966-15.651,15.425-15.651,9.1,0,13.4,6.058,13.4,15.651H359.735Zm74.027,44.174c8.092,0,15.173-4.039,21.368-9.34h0.379l1.391,7.573h15.173V108.954c0-20.447-9.23-31.175-27.184-31.175-11.127,0-21.242,4.165-29.587,9.34L422,99.361c6.575-3.786,12.9-6.689,19.472-6.689,8.724,0,11.759,5.3,12.011,12.243-28.448,3.029-40.713,10.98-40.713,26.126C412.773,143.031,421.118,151.992,433.762,151.992Zm6.069-14.514c-5.437,0-9.356-2.4-9.356-7.952,0-6.31,5.816-10.98,23.011-13.252v14.262C449.061,134.953,445.142,137.478,439.831,137.478Zm48.663,12.747h18.46V101.633q7.585-7.951,13.655-7.951c6.7,0,9.862,3.913,9.862,14.767v41.776h18.587V101.633q7.586-7.951,13.655-7.951c6.7,0,9.862,3.913,9.862,14.767v41.776h18.587V106.177c0-17.8-6.954-28.4-22-28.4-9.23,0-16.057,5.553-22.506,12.369-3.413-7.825-9.356-12.369-19.471-12.369-9.23,0-15.8,5.049-21.747,11.233h-0.506l-1.264-9.466H488.494v70.679Zm136.473,1.767c8.092,0,15.173-4.039,21.368-9.34h0.379l1.391,7.573h15.173V108.954c0-20.447-9.23-31.175-27.184-31.175-11.127,0-21.242,4.165-29.587,9.34l6.7,12.243c6.575-3.786,12.9-6.689,19.472-6.689,8.724,0,11.759,5.3,12.011,12.243-28.448,3.029-40.713,10.98-40.713,26.126C603.978,143.031,612.323,151.992,624.967,151.992Zm6.069-14.514c-5.437,0-9.356-2.4-9.356-7.952,0-6.31,5.816-10.98,23.011-13.252v14.262C640.266,134.953,636.347,137.478,631.036,137.478ZM679.7,150.225h18.46V101.633c5.31-5.174,8.977-7.951,14.793-7.951,6.954,0,9.989,3.913,9.989,14.767v41.776h18.586V106.177c0-17.8-6.575-28.4-21.874-28.4-9.609,0-16.816,5.049-23.011,11.107h-0.506l-1.264-9.34H679.7v70.679Zm79.577-53.514c12.771-6.437,19.092-16.155,19.092-29.155,0-10.854-4.3-17.165-12.264-17.165-5.943,0-10.115,4.165-10.115,10.6,0,6.058,4.678,9.718,10.115,9.718a4.3,4.3,0,0,0,1.264-.126c-0.126,8.33-4.172,13.5-12.264,18.049ZM809.8,151.992c18.46,0,28.2-9.971,28.2-22.34,0-13.126-10.368-17.8-19.724-21.33-7.46-2.776-14.414-4.669-14.414-9.844,0-4.039,3.035-6.815,9.357-6.815,5.31,0,10.241,2.524,15.3,6.058l8.344-11.233c-5.942-4.418-13.781-8.709-24.149-8.709-15.931,0-26.3,8.961-26.3,21.709,0,11.737,10.368,17.165,19.345,20.572,7.46,2.9,14.793,5.3,14.793,10.6,0,4.418-3.161,7.447-10.242,7.447-6.574,0-12.643-2.777-18.965-7.7l-8.472,11.611C789.823,147.827,800.317,151.992,809.8,151.992Z"></path>
</svg>