<svg xmlns="http://www.w3.org/2000/svg" xmlns:xlink="http://www.w3.org/1999/xlink" width="449" height="64" viewBox="0 0 449 64"><title>notes</title><defs><clipPath id="clip"><path d="M32.70010112725924 63.968670569035716C39.24766813498362 64.35080600496516 45.372336589988684 61.17743214738536 50.75008237358108 57.71315589731869C55.98029078169527 54.34392137038922 60.70204306696391 50.05612592149588 62.879786494534194 44.52729653247912C64.97826049557499 39.19971543079422 63.702047998391606 33.43086368238256 62.504366148364966 27.87151855927156C61.36236515176394 22.570630288400125 59.84968715185354 17.284289847451117 56.11344020708822 13.119578169245655C52.32635628921344 8.89819964360652 46.91889679982759 6.505545477201484 41.43791798535387 4.389215601292662C35.363361165335434 2.043691833318541 29.129762925951976 -0.7574751805233837 22.62433127646566 0.18867583474230507C15.760907663495505 1.186893258196898 9.152096176889833 4.558713743730668 4.992989128163733 9.689771859114376C0.9409116425044358 14.688788432473308 0.9567489184976296 21.32427912968522 0.4482677240306157 27.54711348131324C-0.028922822395356398 33.387010328795 -0.7598066283278337 39.476333136202456 2.1330131959201752 44.69039070136947C4.974223068463482 49.81142579176353 10.911793802263427 52.440767831479185 16.061507381095286 55.68862774649768C21.370859313694197 59.03716957365801 26.279938358883882 63.59397082249829 32.70010112725924 63.968670569035716"/></clipPath></defs><g clip-path="url(#clip)"><path d="M40.8,32L46.3,36.5L49.4,37Z" fill="rgb(202,198,223)" shape-rendering="crispEdges"/><path d="M48.5,54.2L52.9,39L49.4,37Z" fill="rgb(161,152,196)" shape-rendering="crispEdges"/><path d="M49.4,37L40.5,18.3L40.8,32Z" fill="rgb(219,208,216)" shape-rendering="crispEdges"/><path d="M56.2,12.1L40.5,18.3L49.4,37Z" fill="rgb(205,169,166)" shape-rendering="crispEdges"/><path d="M52.9,39L56.2,12.1L49.4,37Z" fill="rgb(185,164,192)" shape-rendering="crispEdges"/><path d="M56.2,12.1L52.7,8.3L40.5,18.3Z" fill="rgb(192,128,110)" shape-rendering="crispEdges"/><path d="M52.7,8.3L38,10.1L40.5,18.3Z" fill="rgb(213,152,124)" shape-rendering="crispEdges"/><path d="M40.5,18.3L21.8,26L40.8,32Z" fill="rgb(246,229,211)" shape-rendering="crispEdges"/><path d="M52.9,39L65.3,13.4L56.2,12.1Z" fill="rgb(173,114,134)" shape-rendering="crispEdges"/><path d="M56.2,12.1L62.5,9.1L52.7,8.3Z" fill="rgb(156,75,88)" shape-rendering="crispEdges"/><path d="M65.3,13.4L62.5,9.1L56.2,12.1Z" fill="rgb(145,66,73)" shape-rendering="crispEdges"/><path d="M36.9,2.1L34.9,8L38,10.1Z" fill="rgb(214,157,125)" shape-rendering="crispEdges"/><path d="M38,10.1L34.9,8L40.5,18.3Z" fill="rgb(230,173,133)" shape-rendering="crispEdges"/><path d="M65.3,13.4L65.5,8.8L62.5,9.1Z" fill="rgb(130,54,59)" shape-rendering="crispEdges"/><path d="M62.5,9.1L66.6,1.4L52.7,8.3Z" fill="rgb(130,52,68)" shape-rendering="crispEdges"/><path d="M52.9,39L75.4,27.2L65.3,13.4Z" fill="rgb(148,109,133)" shape-rendering="crispEdges"/><path d="M65.3,13.4L88.5,21L65.5,8.8Z" fill="rgb(141,69,70)" shape-rendering="crispEdges"/><path d="M73.1,37.6L75.4,27.2L52.9,39Z" fill="rgb(138,113,155)" shape-rendering="crispEdges"/><path d="M48.5,54.2L55.4,52.5L52.9,39Z" fill="rgb(135,120,177)" shape-rendering="crispEdges"/><path d="M52.9,39L69.8,45.2L73.1,37.6Z" fill="rgb(123,98,148)" shape-rendering="crispEdges"/><path d="M48.5,54.2L49.4,37L46.3,36.5Z" fill="rgb(172,164,205)" shape-rendering="crispEdges"/><path d="M32.8,58.1L48.5,54.2L46.3,36.5Z" fill="rgb(166,158,200)" shape-rendering="crispEdges"/><path d="M55.4,52.5L69.8,45.2L52.9,39Z" fill="rgb(123,95,161)" shape-rendering="crispEdges"/><path d="M34.9,8L21.8,26L40.5,18.3Z" fill="rgb(252,207,163)" shape-rendering="crispEdges"/><path d="M40.8,32L24.9,45.7L46.3,36.5Z" fill="rgb(219,221,236)" shape-rendering="crispEdges"/><path d="M52.7,8.3L36.9,2.1L38,10.1Z" fill="rgb(198,138,117)" shape-rendering="crispEdges"/><path d="M34.9,8L16,11.9L21.8,26Z" fill="rgb(248,183,111)" shape-rendering="crispEdges"/><path d="M60.8,-16.3L36.9,2.1L52.7,8.3Z" fill="rgb(142,91,94)" shape-rendering="crispEdges"/><path d="M21.8,26L22.4,35.3L40.8,32Z" fill="rgb(251,239,223)" shape-rendering="crispEdges"/><path d="M22.4,35.3L24.9,45.7L40.8,32Z" fill="rgb(236,229,228)" shape-rendering="crispEdges"/><path d="M83.7,-7.2L66.6,1.4L89.3,-1.3Z" fill="rgb(92,28,48)" shape-rendering="crispEdges"/><path d="M65.5,8.8L66.6,1.4L62.5,9.1Z" fill="rgb(117,42,54)" shape-rendering="crispEdges"/><path d="M23.2,-15.8L31.3,-0.6L37.1,-22.4Z" fill="rgb(194,147,116)" shape-rendering="crispEdges"/><path d="M36.9,2.1L31.3,-0.6L34.9,8Z" fill="rgb(203,152,124)" shape-rendering="crispEdges"/><path d="M24.9,45.7L32.8,58.1L46.3,36.5Z" fill="rgb(198,193,220)" shape-rendering="crispEdges"/><path d="M48.4,65.9L64.1,61.4L55.4,52.5Z" fill="rgb(83,42,129)" shape-rendering="crispEdges"/><path d="M31.3,-0.6L16,11.9L34.9,8Z" fill="rgb(222,158,106)" shape-rendering="crispEdges"/><path d="M21.8,26L10.6,23.8L22.4,35.3Z" fill="rgb(254,205,149)" shape-rendering="crispEdges"/><path d="M22.4,35.3L3.2,46.4L24.9,45.7Z" fill="rgb(225,176,148)" shape-rendering="crispEdges"/><path d="M48.4,65.9L55.4,52.5L48.5,54.2Z" fill="rgb(109,80,155)" shape-rendering="crispEdges"/><path d="M55.4,52.5L64.1,61.4L69.8,45.2Z" fill="rgb(83,50,121)" shape-rendering="crispEdges"/><path d="M82.1,48.7L86.3,35.5L73.1,37.6Z" fill="rgb(123,98,148)" shape-rendering="crispEdges"/><path d="M73.1,37.6L86.3,35.5L75.4,27.2Z" fill="rgb(141,115,157)" shape-rendering="crispEdges"/><path d="M75.4,27.2L88.5,21L65.3,13.4Z" fill="rgb(150,92,100)" shape-rendering="crispEdges"/><path d="M82.1,48.7L73.1,37.6L69.8,45.2Z" fill="rgb(114,87,142)" shape-rendering="crispEdges"/><path d="M32.8,58.1L48.4,65.9L48.5,54.2Z" fill="rgb(131,104,167)" shape-rendering="crispEdges"/><path d="M16,11.9L10.6,23.8L21.8,26Z" fill="rgb(247,175,91)" shape-rendering="crispEdges"/><path d="M24.9,45.7L23.5,60.9L32.8,58.1Z" fill="rgb(180,147,175)" shape-rendering="crispEdges"/><path d="M74,63.6L82.1,48.7L69.8,45.2Z" fill="rgb(82,51,118)" shape-rendering="crispEdges"/><path d="M86.3,35.5L88.5,21L75.4,27.2Z" fill="rgb(147,111,139)" shape-rendering="crispEdges"/><path d="M10.4,61.6L23.5,60.9L24.9,45.7Z" fill="rgb(180,119,130)" shape-rendering="crispEdges"/><path d="M32.8,58.1L38.1,69.8L48.4,65.9Z" fill="rgb(126,101,149)" shape-rendering="crispEdges"/><path d="M16,11.9L11.6,7.3L10.6,23.8Z" fill="rgb(227,136,32)" shape-rendering="crispEdges"/><path d="M11.1,4.2L11.6,7.3L16,11.9Z" fill="rgb(207,114,15)" shape-rendering="crispEdges"/><path d="M64.1,61.4L74,63.6L69.8,45.2Z" fill="rgb(67,25,107)" shape-rendering="crispEdges"/><path d="M61.5,76.8L74,63.6L64.1,61.4Z" fill="rgb(45,0,75)" shape-rendering="crispEdges"/><path d="M23.5,60.9L38.1,69.8L32.8,58.1Z" fill="rgb(149,121,161)" shape-rendering="crispEdges"/><path d="M48.4,65.9L61.5,76.8L64.1,61.4Z" fill="rgb(63,18,103)" shape-rendering="crispEdges"/><path d="M31.3,-0.6L11.1,4.2L16,11.9Z" fill="rgb(212,133,57)" shape-rendering="crispEdges"/><path d="M11.6,7.3L-1.3,20.9L10.6,23.8Z" fill="rgb(214,129,45)" shape-rendering="crispEdges"/><path d="M65.9,-15.6L60.8,-16.3L66.6,1.4Z" fill="rgb(92,28,48)" shape-rendering="crispEdges"/><path d="M66.6,1.4L60.8,-16.3L52.7,8.3Z" fill="rgb(107,40,65)" shape-rendering="crispEdges"/><path d="M31.3,-0.6L23.2,-15.8L11.1,4.2Z" fill="rgb(191,127,70)" shape-rendering="crispEdges"/><path d="M83.7,-7.2L65.9,-15.6L66.6,1.4Z" fill="rgb(92,28,48)" shape-rendering="crispEdges"/><path d="M89.3,-1.3L66.6,1.4L65.5,8.8Z" fill="rgb(104,34,51)" shape-rendering="crispEdges"/><path d="M88.5,21L89.3,-1.3L65.5,8.8Z" fill="rgb(127,52,58)" shape-rendering="crispEdges"/><path d="M74,63.6L85,60.8L82.1,48.7Z" fill="rgb(64,19,104)" shape-rendering="crispEdges"/><path d="M82.1,48.7L85,60.8L86.3,35.5Z" fill="rgb(98,70,130)" shape-rendering="crispEdges"/><path d="M86.3,35.5L90.9,80.2L88.5,21Z" fill="rgb(108,81,138)" shape-rendering="crispEdges"/><path d="M-2.6,33.4L3.2,46.4L10.6,23.8Z" fill="rgb(205,153,124)" shape-rendering="crispEdges"/><path d="M10.6,23.8L3.2,46.4L22.4,35.3Z" fill="rgb(236,178,135)" shape-rendering="crispEdges"/><path d="M37.1,-22.4L31.3,-0.6L36.9,2.1Z" fill="rgb(187,142,120)" shape-rendering="crispEdges"/><path d="M60.8,-16.3L37.1,-22.4L36.9,2.1Z" fill="rgb(161,113,107)" shape-rendering="crispEdges"/><path d="M39.3,-27.4L37.1,-22.4L60.8,-16.3Z" fill="rgb(158,109,105)" shape-rendering="crispEdges"/><path d="M0.8,-1L11.6,7.3L11.1,4.2Z" fill="rgb(172,86,8)" shape-rendering="crispEdges"/><path d="M0.8,-1L-1.3,20.9L11.6,7.3Z" fill="rgb(177,90,9)" shape-rendering="crispEdges"/><path d="M45.1,92.2L61.5,76.8L48.4,65.9Z" fill="rgb(85,56,121)" shape-rendering="crispEdges"/><path d="M74,63.6L90.9,80.2L85,60.8Z" fill="rgb(45,0,75)" shape-rendering="crispEdges"/><path d="M23.5,60.9L24.1,84.1L38.1,69.8Z" fill="rgb(147,112,142)" shape-rendering="crispEdges"/><path d="M63.6,90.8L67.1,82.1L61.5,76.8Z" fill="rgb(45,0,75)" shape-rendering="crispEdges"/><path d="M3.2,46.4L10.4,61.6L24.9,45.7Z" fill="rgb(187,122,107)" shape-rendering="crispEdges"/><path d="M-1.3,20.9L-2.6,33.4L10.6,23.8Z" fill="rgb(203,145,96)" shape-rendering="crispEdges"/><path d="M3.2,46.4L9.7,61.4L10.4,61.6Z" fill="rgb(151,73,87)" shape-rendering="crispEdges"/><path d="M10.4,61.6L10.6,64.2L23.5,60.9Z" fill="rgb(149,76,80)" shape-rendering="crispEdges"/><path d="M10.6,64.2L9.7,61.4L-1.4,63.2Z" fill="rgb(121,45,58)" shape-rendering="crispEdges"/><path d="M-1.4,63.2L9.7,61.4L-4,59.4Z" fill="rgb(108,39,61)" shape-rendering="crispEdges"/><path d="M9.7,61.4L10.6,64.2L10.4,61.6Z" fill="rgb(136,59,66)" shape-rendering="crispEdges"/><path d="M37.1,-22.4L14,-27.3L23.2,-15.8Z" fill="rgb(192,136,87)" shape-rendering="crispEdges"/><path d="M65.4,-28.7L39.3,-27.4L60.8,-16.3Z" fill="rgb(125,62,82)" shape-rendering="crispEdges"/><path d="M-0.3,-3.8L0.8,-1L11.1,4.2Z" fill="rgb(142,68,8)" shape-rendering="crispEdges"/><path d="M-1.3,20.9L-12.5,37.7L-2.6,33.4Z" fill="rgb(194,147,116)" shape-rendering="crispEdges"/><path d="M13.6,-17.2L11.1,4.2L23.2,-15.8Z" fill="rgb(182,106,35)" shape-rendering="crispEdges"/><path d="M14,-27.3L13.6,-17.2L23.2,-15.8Z" fill="rgb(184,110,40)" shape-rendering="crispEdges"/><path d="M45.1,92.2L48.4,65.9L38.1,69.8Z" fill="rgb(114,87,142)" shape-rendering="crispEdges"/><path d="M61.5,76.8L67.1,82.1L74,63.6Z" fill="rgb(45,0,75)" shape-rendering="crispEdges"/><path d="M85.5,-25.5L65.4,-28.7L65.9,-15.6Z" fill="rgb(92,28,48)" shape-rendering="crispEdges"/><path d="M65.9,-15.6L65.4,-28.7L60.8,-16.3Z" fill="rgb(92,28,48)" shape-rendering="crispEdges"/><path d="M85.5,-25.5L65.9,-15.6L83.7,-7.2Z" fill="rgb(92,28,48)" shape-rendering="crispEdges"/><path d="M13.6,-17.2L-0.3,-3.8L11.1,4.2Z" fill="rgb(158,79,9)" shape-rendering="crispEdges"/><path d="M0.8,-1L-11.7,12.5L-1.3,20.9Z" fill="rgb(167,87,12)" shape-rendering="crispEdges"/><path d="M-4,59.4L9.7,61.4L3.2,46.4Z" fill="rgb(135,65,83)" shape-rendering="crispEdges"/><path d="M8,75.1L24.1,84.1L23.5,60.9Z" fill="rgb(149,85,89)" shape-rendering="crispEdges"/><path d="M8,75.1L23.5,60.9L10.6,64.2Z" fill="rgb(141,67,68)" shape-rendering="crispEdges"/><path d="M-14.8,54.8L-4,59.4L3.2,46.4Z" fill="rgb(130,72,86)" shape-rendering="crispEdges"/><path d="M-9,0.6L-11.7,12.5L0.8,-1Z" fill="rgb(143,68,8)" shape-rendering="crispEdges"/><path d="M-2.6,33.4L-12.5,37.7L3.2,46.4Z" fill="rgb(178,133,116)" shape-rendering="crispEdges"/><path d="M-23,29.6L-12.5,37.7L-1.3,20.9Z" fill="rgb(194,145,110)" shape-rendering="crispEdges"/><path d="M-1.4,63.2L8,75.1L10.6,64.2Z" fill="rgb(115,40,53)" shape-rendering="crispEdges"/><path d="M89.3,-1.3L85.5,-25.5L83.7,-7.2Z" fill="rgb(92,28,48)" shape-rendering="crispEdges"/><path d="M-0.3,-3.8L-9,0.6L0.8,-1Z" fill="rgb(127,59,8)" shape-rendering="crispEdges"/><path d="M-21,-13.7L-9,0.6L-0.3,-3.8Z" fill="rgb(127,59,8)" shape-rendering="crispEdges"/><path d="M39.3,-27.4L14,-27.3L37.1,-22.4Z" fill="rgb(194,146,114)" shape-rendering="crispEdges"/><path d="M13.6,-17.2L2,-18.3L-0.3,-3.8Z" fill="rgb(147,70,8)" shape-rendering="crispEdges"/><path d="M65.4,-28.7L14,-27.3L39.3,-27.4Z" fill="rgb(177,131,116)" shape-rendering="crispEdges"/><path d="M24.1,84.1L45.1,92.2L38.1,69.8Z" fill="rgb(136,111,154)" shape-rendering="crispEdges"/><path d="M45.1,92.2L63.6,90.8L61.5,76.8Z" fill="rgb(68,26,107)" shape-rendering="crispEdges"/><path d="M67.1,82.1L90.9,80.2L74,63.6Z" fill="rgb(45,0,75)" shape-rendering="crispEdges"/><path d="M8,75.1L21.1,86L24.1,84.1Z" fill="rgb(147,82,85)" shape-rendering="crispEdges"/><path d="M24.1,84.1L21.1,86L45.1,92.2Z" fill="rgb(146,115,149)" shape-rendering="crispEdges"/><path d="M14,-27.3L2,-18.3L13.6,-17.2Z" fill="rgb(164,84,11)" shape-rendering="crispEdges"/><path d="M-4,59.4L-25.5,69.9L-1.4,63.2Z" fill="rgb(92,28,48)" shape-rendering="crispEdges"/><path d="M-12.5,37.7L-15.5,43.5L3.2,46.4Z" fill="rgb(168,121,111)" shape-rendering="crispEdges"/><path d="M-23,29.6L-15.5,43.5L-12.5,37.7Z" fill="rgb(183,139,119)" shape-rendering="crispEdges"/><path d="M63.6,90.8L90.9,80.2L67.1,82.1Z" fill="rgb(45,0,75)" shape-rendering="crispEdges"/><path d="M85,60.8L90.9,80.2L86.3,35.5Z" fill="rgb(60,15,99)" shape-rendering="crispEdges"/><path d="M88.5,21L90.9,80.2L89.3,-1.3Z" fill="rgb(141,115,157)" shape-rendering="crispEdges"/><path d="M-15.5,43.5L-14.8,54.8L3.2,46.4Z" fill="rgb(149,99,98)" shape-rendering="crispEdges"/><path d="M-1.4,63.2L3.1,81.7L8,75.1Z" fill="rgb(105,35,51)" shape-rendering="crispEdges"/><path d="M-25.5,69.9L3.1,81.7L-1.4,63.2Z" fill="rgb(92,28,48)" shape-rendering="crispEdges"/><path d="M8,75.1L8.9,86.7L21.1,86Z" fill="rgb(138,61,62)" shape-rendering="crispEdges"/><path d="M21.1,86L8.9,86.7L45.1,92.2Z" fill="rgb(149,106,125)" shape-rendering="crispEdges"/><path d="M3.1,81.7L8.9,86.7L8,75.1Z" fill="rgb(118,42,54)" shape-rendering="crispEdges"/><path d="M-15.5,43.5L-25.5,69.9L-14.8,54.8Z" fill="rgb(122,57,80)" shape-rendering="crispEdges"/><path d="M-11.7,12.5L-23,29.6L-1.3,20.9Z" fill="rgb(190,125,64)" shape-rendering="crispEdges"/><path d="M-27.8,19.6L-23,29.6L-11.7,12.5Z" fill="rgb(190,124,62)" shape-rendering="crispEdges"/><path d="M-27.6,10L-11.7,12.5L-9,0.6Z" fill="rgb(157,77,9)" shape-rendering="crispEdges"/><path d="M-27.6,10L-27.8,19.6L-11.7,12.5Z" fill="rgb(177,99,23)" shape-rendering="crispEdges"/><path d="M-23,29.6L-25.5,69.9L-15.5,43.5Z" fill="rgb(151,101,100)" shape-rendering="crispEdges"/><path d="M-25,-12L-27.6,10L-9,0.6Z" fill="rgb(127,59,8)" shape-rendering="crispEdges"/><path d="M2,-18.3L-21,-13.7L-0.3,-3.8Z" fill="rgb(127,59,8)" shape-rendering="crispEdges"/><path d="M14,-27.3L-21,-13.7L2,-18.3Z" fill="rgb(127,59,8)" shape-rendering="crispEdges"/><path d="M-21,-13.7L-25,-12L-9,0.6Z" fill="rgb(127,59,8)" shape-rendering="crispEdges"/><path d="M-27.8,19.6L-25.5,69.9L-23,29.6Z" fill="rgb(176,131,116)" shape-rendering="crispEdges"/><path d="M-14.8,54.8L-25.5,69.9L-4,59.4Z" fill="rgb(102,36,59)" shape-rendering="crispEdges"/><path d="M3.1,81.7L-23.7,85.1L8.9,86.7Z" fill="rgb(92,28,48)" shape-rendering="crispEdges"/><path d="M-25.5,69.9L-23.7,85.1L3.1,81.7Z" fill="rgb(92,28,48)" shape-rendering="crispEdges"/><path d="M8.9,86.7L-23.7,85.1L45.1,92.2Z" fill="rgb(129,53,59)" shape-rendering="crispEdges"/></g><g transform="translate(76.8, 12.8)"><path fill="#555" d="M3.799472295514512 7.4976253298153015C6.43377308707124 7.4976253298153015 7.598944591029024 6.129815303430079 7.598944591029024 4.255408970976253L7.598944591029024 3.242216358839051C7.598944591029024 1.3678100263852244 6.43377308707124 0 3.799472295514512 0C1.114511873350924 0 5.624348831874144e-16 1.3678100263852244 5.624348831874144e-16 3.242216358839051L5.624348831874144e-16 4.255408970976253C5.624348831874144e-16 6.129815303430079 1.114511873350924 7.4976253298153015 3.799472295514512 7.4976253298153015zM0.5572559366754622 37.79208443271768L7.041688654353563 37.79208443271768L7.041688654353563 11.347757255936678L0.5572559366754622 11.347757255936678zM29.939841688654358 37.79208443271768L36.42427440633246 37.79208443271768L36.42427440633246 0.3039577836411612L29.939841688654358 0.3039577836411612L29.939841688654358 15.704485488126648L29.686543535620057 15.704485488126648C28.77467018469657 12.66490765171504 25.887071240105545 10.739841688654355 22.391556728232192 10.739841688654355C15.755145118733513 10.739841688654355 12.056992084432718 15.704485488126648 12.056992084432718 24.519261213720316C12.056992084432718 33.38469656992085 15.755145118733513 38.4 22.391556728232192 38.4C25.887071240105545 38.4 28.724010554089713 36.3736147757256 29.686543535620057 33.38469656992085L29.939841688654358 33.38469656992085zM24.468601583113458 33.03007915567283C21.12506596306069 33.03007915567283 18.845382585751977 30.59841688654354 18.845382585751977 26.849604221635886L18.845382585751977 22.290237467018475C18.845382585751977 18.54142480211082 21.12506596306069 16.059102902374672 24.468601583113458 16.059102902374672C27.55883905013193 16.059102902374672 29.939841688654358 17.730870712401057 29.939841688654358 20.314511873350924L29.939841688654358 28.724010554089716C29.939841688654358 31.45963060686016 27.55883905013193 33.03007915567283 24.468601583113458 33.03007915567283zM53.59788918205806 38.4C58.511873350923494 38.4 62.36200527704485 36.525593667546175 64.54036939313984 33.536675461741424L61.0448548812665 29.6358839050132C59.42374670184697 31.712928759894464 57.49868073878629 33.232717678100265 54.30712401055409 33.232717678100265C50.051715039577836 33.232717678100265 47.873350923482846 30.649076517150398 47.873350923482846 26.849604221635886L47.873350923482846 26.191029023746704L65.45224274406334 26.191029023746704L65.45224274406334 24.063324538258577C65.45224274406334 16.818997361477575 61.65277044854883 10.739841688654355 53.395250659630605 10.739841688654355C45.64432717678101 10.739841688654355 41.135620052770456 16.160422163588393 41.135620052770456 24.519261213720316C41.135620052770456 32.97941952506597 45.79630606860158 38.4 53.59788918205806 38.4zM53.49656992084432 15.603166226912931C56.8401055408971 15.603166226912931 58.71451187335093 18.08548812664908 58.71451187335093 21.73298153034301L58.71451187335093 22.18891820580475L47.873350923482846 22.18891820580475L47.873350923482846 21.78364116094987C47.873350923482846 18.136147757255937 50.1023746701847 15.603166226912931 53.49656992084432 15.603166226912931zM76.6986807387863 38.4C80.65013192612139 38.4 83.53773087071242 36.62691292875989 84.39894459102904 33.232717678100265L84.7029023746702 33.232717678100265C85.10817941952507 35.968337730870715 86.83060686015833 37.79208443271768 89.61688654353563 37.79208443271768L93.21372031662271 37.79208443271768L93.21372031662271 32.624802110817946L90.57941952506599 32.624802110817946L90.57941952506599 20.162532981530344C90.57941952506599 14.134036939313985 86.77994722955147 10.739841688654355 79.63693931398419 10.739841688654355C74.31767810026386 10.739841688654355 71.22744063324538 12.766226912928758 69.3023746701847 15.805804749340371L73.15250659630608 19.25065963060686C74.41899736147758 17.426912928759897 76.14142480211083 15.907124010554089 79.18100263852244 15.907124010554089C82.62585751978894 15.907124010554089 84.09498680738788 17.629551451187336 84.09498680738788 20.567810026385224L84.09498680738788 22.492875989445913L79.58627968337731 22.492875989445913C72.39261213720317 22.492875989445913 68.2891820580475 25.177836411609498 68.2891820580475 30.59841688654354C68.2891820580475 35.30976253298153 71.32875989445911 38.4 76.6986807387863 38.4zM78.87704485488128 33.68865435356201C76.34406332453827 33.68865435356201 74.87493403693932 32.624802110817946 74.87493403693932 30.49709762532982L74.87493403693932 29.6358839050132C74.87493403693932 27.55883905013193 76.5467018469657 26.393667546174143 79.94089709762534 26.393667546174143L84.09498680738788 26.393667546174143L84.09498680738788 29.889182058047492C84.09498680738788 32.371503957783645 81.76464379947231 33.68865435356201 78.87704485488128 33.68865435356201zM103.95356200527705 37.79208443271768L103.95356200527705 20.314511873350924C103.95356200527705 17.477572559366756 106.38522427440634 16.059102902374672 108.8675461741425 16.059102902374672C111.75514511873352 16.059102902374672 113.12295514511875 17.9335092348285 113.12295514511875 21.73298153034301L113.12295514511875 37.79208443271768L119.60738786279684 37.79208443271768L119.60738786279684 20.314511873350924C119.60738786279684 17.477572559366756 121.98839050131927 16.059102902374672 124.52137203166228 16.059102902374672C127.40897097625331 16.059102902374672 128.77678100263853 17.9335092348285 128.77678100263853 21.73298153034301L128.77678100263853 37.79208443271768L135.26121372031662 37.79208443271768L135.26121372031662 21.07440633245383C135.26121372031662 14.488654353562008 132.32295514511875 10.739841688654355 127.15567282321902 10.739841688654355C122.95092348284962 10.739841688654355 120.01266490765173 13.120844327176782 119.05013192612138 16.059102902374672L118.94881266490766 16.059102902374672C117.68232189973615 12.512928759894459 114.89604221635885 10.739841688654355 111.2992084432718 10.739841688654355C107.34775725593668 10.739841688654355 105.22005277044856 12.9688654353562 104.20686015831136 15.755145118733513L103.95356200527705 15.755145118733513L103.95356200527705 11.347757255936678L97.46912928759896 11.347757255936678L97.46912928759896 37.79208443271768zM147.97678100263855 38.4C151.92823218997364 38.4 154.81583113456466 36.62691292875989 155.67704485488127 33.232717678100265L155.98100263852245 33.232717678100265C156.38627968337732 35.968337730870715 158.10870712401058 37.79208443271768 160.89498680738788 37.79208443271768L164.49182058047495 37.79208443271768L164.49182058047495 32.624802110817946L161.8575197889182 32.624802110817946L161.8575197889182 20.162532981530344C161.8575197889182 14.134036939313985 158.0580474934037 10.739841688654355 150.91503957783644 10.739841688654355C145.59577836411611 10.739841688654355 142.50554089709766 12.766226912928758 140.58047493403694 15.805804749340371L144.43060686015832 19.25065963060686C145.69709762532983 17.426912928759897 147.4195250659631 15.907124010554089 150.45910290237467 15.907124010554089C153.90395778364118 15.907124010554089 155.37308707124012 17.629551451187336 155.37308707124012 20.567810026385224L155.37308707124012 22.492875989445913L150.86437994722957 22.492875989445913C143.67071240105543 22.492875989445913 139.56728232189974 25.177836411609498 139.56728232189974 30.59841688654354C139.56728232189974 35.30976253298153 142.60686015831138 38.4 147.97678100263855 38.4zM150.15514511873351 33.68865435356201C147.62216358839052 33.68865435356201 146.15303430079157 32.624802110817946 146.15303430079157 30.49709762532982L146.15303430079157 29.6358839050132C146.15303430079157 27.55883905013193 147.82480211081796 26.393667546174143 151.2189973614776 26.393667546174143L155.37308707124012 26.393667546174143L155.37308707124012 29.889182058047492C155.37308707124012 32.371503957783645 153.04274406332456 33.68865435356201 150.15514511873351 33.68865435356201zM175.2316622691293 37.79208443271768L175.2316622691293 20.314511873350924C175.2316622691293 17.477572559366756 177.81530343007913 16.059102902374672 180.50026385224274 16.059102902374672C183.5905013192612 16.059102902374672 184.8569920844327 17.984168865435358 184.8569920844327 21.73298153034301L184.8569920844327 37.79208443271768L191.34142480211082 37.79208443271768L191.34142480211082 21.07440633245383C191.34142480211082 14.488654353562008 188.30184696569918 10.739841688654355 182.88126649076514 10.739841688654355C178.7778364116095 10.739841688654355 176.54881266490764 12.91820580474934 175.4849604221636 15.755145118733513L175.2316622691293 15.755145118733513L175.2316622691293 11.347757255936678L168.74722955145117 11.347757255936678L168.74722955145117 37.79208443271768zM202.48654353562006 16.10976253298153L202.48654353562006 0.3039577836411612L196.711345646438 0.3039577836411612L196.711345646438 16.10976253298153zM217.58311345646436 38.4C224.16886543535622 38.4 228.4749340369393 34.853825857519794 228.4749340369393 29.737203166226916C228.4749340369393 25.32981530343008 225.68865435356201 22.746174142480214 219.91345646437995 21.93562005277045L217.22849604221636 21.581002638522428C214.74617414248024 21.175725593667547 213.78364116094986 20.365171503957782 213.78364116094986 18.59208443271768C213.78364116094986 16.97097625329815 214.99947229551452 15.85646437994723 217.78575197889182 15.85646437994723C220.3693931398417 15.85646437994723 222.59841688654353 17.072295514511875 224.11820580474932 18.6934036939314L227.91767810026386 14.893931398416889C225.38469656992083 12.259630606860158 222.75039577836412 10.739841688654355 217.58311345646436 10.739841688654355C211.554617414248 10.739841688654355 207.55250659630607 13.982058047493403 207.55250659630607 19.09868073878628C207.55250659630607 23.911345646437994 210.6934036939314 26.393667546174143 216.36728232189975 27.10290237467019L219.00158311345646 27.457519788918212C221.33192612137205 27.761477572559368 222.2437994722955 28.724010554089716 222.2437994722955 30.243799472295514C222.2437994722955 32.118205804749344 220.92664907651715 33.283377308707124 217.8364116094987 33.283377308707124C214.84749340369393 33.283377308707124 212.51715039577834 31.915567282321902 210.59208443271768 29.686543535620057L206.6406332453826 33.536675461741424C209.2749340369393 36.576253298153034 212.56781002638525 38.4 217.58311345646436 38.4zM265.30448548812666 37.79208443271768L272.6501319261214 37.79208443271768L272.6501319261214 2.4316622691292875L266.3176781002639 2.4316622691292875L266.3176781002639 27.91345646437995L266.1656992084433 27.91345646437995L262.51820580474936 20.567810026385224L251.8796833773087 2.4316622691292875L244.53403693931398 2.4316622691292875L244.53403693931398 37.79208443271768L250.8664907651715 37.79208443271768L250.8664907651715 12.310290237467019L251.0184696569921 12.310290237467019L254.665963060686 19.655936675461742zM290.0263852242744 38.4C297.6253298153035 38.4 302.33667546174144 33.03007915567283 302.33667546174144 24.519261213720316C302.33667546174144 16.059102902374672 297.6253298153035 10.739841688654355 290.0263852242744 10.739841688654355C282.47810026385224 10.739841688654355 277.7667546174143 16.059102902374672 277.7667546174143 24.519261213720316C277.7667546174143 33.03007915567283 282.47810026385224 38.4 290.0263852242744 38.4zM290.0263852242744 33.182058047493406C286.68284960422164 33.182058047493406 284.5551451187335 31.00369393139842 284.5551451187335 27.001583113456462L284.5551451187335 22.087598944591033C284.5551451187335 18.136147757255937 286.68284960422164 15.957783641160953 290.0263852242744 15.957783641160953C293.420580474934 15.957783641160953 295.54828496042217 18.136147757255937 295.54828496042217 22.087598944591033L295.54828496042217 27.001583113456462C295.54828496042217 31.00369393139842 293.420580474934 33.182058047493406 290.0263852242744 33.182058047493406zM315.1029023746702 37.79208443271768L319.76358839050135 37.79208443271768L319.76358839050135 32.624802110817946L314.74828496042215 32.624802110817946L314.74828496042215 16.51503957783641L320.1688654353562 16.51503957783641L320.1688654353562 11.347757255936678L314.74828496042215 11.347757255936678L314.74828496042215 4.1034300791556735L308.92242744063327 4.1034300791556735L308.92242744063327 8.61213720316623C308.92242744063327 10.435883905013192 308.31451187335097 11.347757255936678 306.38944591029025 11.347757255936678L304.36306068601584 11.347757255936678L304.36306068601584 16.51503957783641L308.26385224274406 16.51503957783641L308.26385224274406 31.05435356200528C308.26385224274406 35.36042216358839 310.6448548812665 37.79208443271768 315.1029023746702 37.79208443271768zM335.2654353562006 38.4C340.179419525066 38.4 344.0295514511874 36.525593667546175 346.2079155672824 33.536675461741424L342.71240105540903 29.6358839050132C341.09129287598944 31.712928759894464 339.1662269129288 33.232717678100265 335.9746701846966 33.232717678100265C331.71926121372036 33.232717678100265 329.5408970976254 30.649076517150398 329.5408970976254 26.849604221635886L329.5408970976254 26.191029023746704L347.11978891820587 26.191029023746704L347.11978891820587 24.063324538258577C347.11978891820587 16.818997361477575 343.3203166226914 10.739841688654355 335.0627968337731 10.739841688654355C327.3118733509235 10.739841688654355 322.80316622691294 16.160422163588393 322.80316622691294 24.519261213720316C322.80316622691294 32.97941952506597 327.4638522427441 38.4 335.2654353562006 38.4zM335.16411609498687 15.603166226912931C338.50765171503963 15.603166226912931 340.38205804749344 18.08548812664908 340.38205804749344 21.73298153034301L340.38205804749344 22.18891820580475L329.5408970976254 22.18891820580475L329.5408970976254 21.78364116094987C329.5408970976254 18.136147757255937 331.76992084432726 15.603166226912931 335.16411609498687 15.603166226912931zM360.493931398417 38.4C367.07968337730875 38.4 371.38575197889185 34.853825857519794 371.38575197889185 29.737203166226916C371.38575197889185 25.32981530343008 368.59947229551454 22.746174142480214 362.8242744063325 21.93562005277045L360.1393139841689 21.581002638522428C357.6569920844328 21.175725593667547 356.69445910290244 20.365171503957782 356.69445910290244 18.59208443271768C356.69445910290244 16.97097625329815 357.91029023746705 15.85646437994723 360.69656992084435 15.85646437994723C363.2802110817943 15.85646437994723 365.5092348284961 17.072295514511875 367.0290237467019 18.6934036939314L370.8284960422164 14.893931398416889C368.2955145118734 12.259630606860158 365.6612137203167 10.739841688654355 360.493931398417 10.739841688654355C354.46543535620054 10.739841688654355 350.46332453825863 13.982058047493403 350.46332453825863 19.09868073878628C350.46332453825863 23.911345646437994 353.604221635884 26.393667546174143 359.27810026385225 27.10290237467019L361.91240105540896 27.457519788918212C364.2427440633246 27.761477572559368 365.15461741424804 28.724010554089716 365.15461741424804 30.243799472295514C365.15461741424804 32.118205804749344 363.83746701846974 33.283377308707124 360.74722955145126 33.283377308707124C357.75831134564646 33.283377308707124 355.42796833773093 31.915567282321902 353.5029023746702 29.686543535620057L349.55145118733515 33.536675461741424C352.1857519788919 36.576253298153034 355.4786279683378 38.4 360.493931398417 38.4z"/></g></svg>