<?xml version="1.0" encoding="utf-8"?>
<!DOCTYPE svg PUBLIC "-//W3C//DTD SVG 1.1//EN" "http://www.w3.org/Graphics/SVG/1.1/DTD/svg11.dtd">
<svg xmlns="http://www.w3.org/2000/svg" width="800" height="800" viewBox="0 0 800 800">
  <defs>
    <style>
      .cls-1 {
        fill: #444;
        fill-rule: evenodd;
      }
    </style>
  </defs>
  <path id="logo-type" class="cls-1" d="M4.325,795H27.686V705.4H4.325V795Zm11.84-104c8,0,13.92-5.441,13.92-12.8,0-7.68-5.92-12.8-13.92-12.8-8.16,0-14.08,5.12-14.08,12.8C2.085,685.557,8.005,691,16.165,691ZM84.484,797.24c9.28,0,18.24-5.12,24.8-11.52h0.48l1.92,9.28h19.041V667.317H107.2v31.521l0.96,14.08c-6.4-5.92-12.64-9.76-22.72-9.76-19.36,0-37.6,17.92-37.6,47.2S62.243,797.24,84.484,797.24Zm6.08-19.36C78.723,777.88,72,768.6,72,750.039c0-17.92,8.48-27.521,18.56-27.521a23.806,23.806,0,0,1,16.64,6.72V768.6C102.084,775.32,96.8,777.88,90.564,777.88Zm104.319,19.36a56.524,56.524,0,0,0,31.361-9.92l-8-14.4c-6.4,4-12.8,6.241-20.161,6.241-13.28,0-22.88-7.681-24.8-22.4h55.2a43.709,43.709,0,0,0,1.12-10.72c0-24.8-12.8-42.881-37.441-42.881-21.44,0-41.761,18.08-41.761,47.2C150.4,779.8,169.923,797.24,194.883,797.24Zm-21.92-56c1.76-13.121,10.08-19.841,19.52-19.841,11.52,0,16.961,7.68,16.961,19.841H172.963Zm95.84,56c10.24,0,19.2-5.12,27.041-11.84h0.48l1.76,9.6h19.2V742.679c0-25.921-11.68-39.521-34.4-39.521-14.08,0-26.88,5.28-37.44,11.84l8.48,15.521c8.32-4.8,16.32-8.481,24.64-8.481,11.041,0,14.881,6.72,15.2,15.521-36,3.84-51.522,13.92-51.522,33.12C242.242,785.88,252.8,797.24,268.8,797.24Zm7.68-18.4c-6.88,0-11.84-3.04-11.84-10.081,0-8,7.36-13.92,29.121-16.8v18.08C288.164,775.64,283.2,778.84,276.483,778.84Zm64.8,16.16h23.36V733.4q9.6-10.082,17.281-10.081c8.48,0,12.48,4.96,12.48,18.721V795h23.52V733.4q9.6-10.082,17.281-10.081c8.48,0,12.48,4.96,12.48,18.721V795H471.2V739.159c0-22.561-8.8-36-27.841-36-11.68,0-20.32,7.04-28.481,15.68-4.32-9.92-11.84-15.68-24.64-15.68-11.68,0-20,6.4-27.521,14.24h-0.64l-1.6-12h-19.2V795ZM517.6,797.24c10.241,0,19.2-5.12,27.041-11.84h0.48l1.76,9.6h19.2V742.679c0-25.921-11.681-39.521-34.4-39.521-14.081,0-26.881,5.28-37.441,11.84l8.48,15.521c8.32-4.8,16.32-8.481,24.641-8.481,11.04,0,14.88,6.72,15.2,15.521-36,3.84-51.521,13.92-51.521,33.12C491.039,785.88,501.6,797.24,517.6,797.24Zm7.681-18.4c-6.881,0-11.841-3.04-11.841-10.081,0-8,7.361-13.92,29.121-16.8v18.08C536.96,775.64,532,778.84,525.28,778.84Zm64.8,16.16h23.361V733.4c6.72-6.561,11.36-10.081,18.72-10.081,8.8,0,12.64,4.96,12.64,18.721V795h23.521V739.159c0-22.561-8.32-36-27.681-36-12.16,0-21.28,6.4-29.12,14.08h-0.64l-1.6-11.84h-19.2V795Zm104-67.842c16.16-8.16,24.16-20.48,24.16-36.96,0-13.761-5.44-21.761-15.52-21.761-7.52,0-12.8,5.28-12.8,13.44,0,7.681,5.921,12.321,12.8,12.321a5.443,5.443,0,0,0,1.6-.16c-0.16,10.56-5.28,17.12-15.521,22.88Zm65.28,70.082c23.36,0,35.681-12.64,35.681-28.321,0-16.64-13.121-22.56-24.961-27.04-9.44-3.52-18.24-5.92-18.24-12.481,0-5.12,3.84-8.64,11.84-8.64,6.72,0,12.96,3.2,19.36,7.68L793.6,714.2c-7.521-5.6-17.441-11.04-30.561-11.04-20.161,0-33.281,11.36-33.281,27.521,0,14.88,13.12,21.76,24.481,26.08,9.44,3.68,18.72,6.72,18.72,13.44,0,5.6-4,9.441-12.96,9.441-8.32,0-16-3.52-24-9.761L725.276,784.6C734.076,791.96,747.357,797.24,759.357,797.24Z"></path>
  <svg width="800" height="650" xmlns="http://www.w3.org/2000/svg"><path d="M888,1130L520,1170L1072,1154Z" fill="#5a3694" stroke="#5a3694" stroke-width="1.51"></path><path d="M888,1130L1072,1154L1084,741Z" fill="#572d91" stroke="#572d91" stroke-width="1.51"></path><path d="M465,-483L877,-405L1101,-495Z" fill="#b2a3d0" stroke="#b2a3d0" stroke-width="1.51"></path><path d="M1084,741L1072,1154L1199,-123Z" fill="#674ca1" stroke="#674ca1" stroke-width="1.51"></path><path d="M807,63L1092,154L1199,-123Z" fill="#9079ba" stroke="#9079ba" stroke-width="1.51"></path><path d="M842,-223L807,63L1199,-123Z" fill="#9d88c2" stroke="#9d88c2" stroke-width="1.51"></path><path d="M1092,154L1058,518L1199,-123Z" fill="#8368b1" stroke="#8368b1" stroke-width="1.51"></path><path d="M1058,518L1084,741L1199,-123Z" fill="#765ba9" stroke="#765ba9" stroke-width="1.51"></path><path d="M1101,-495L877,-405L1199,-123Z" fill="#a488c2" stroke="#a488c2" stroke-width="1.51"></path><path d="M877,-405L842,-223L1199,-123Z" fill="#a38dc5" stroke="#a38dc5" stroke-width="1.51"></path><path d="M1058,518L769,748L1084,741Z" fill="#6a51a3" stroke="#6a51a3" stroke-width="1.51"></path><path d="M769,748L888,1130L1084,741Z" fill="#63439c" stroke="#63439c" stroke-width="1.51"></path><path d="M812,406L1058,518L1092,154Z" fill="#7c67af" stroke="#7c67af" stroke-width="1.51"></path><path d="M807,63L812,406L1092,154Z" fill="#8a79b8" stroke="#8a79b8" stroke-width="1.51"></path><path d="M812,406L769,748L1058,518Z" fill="#7364ac" stroke="#7364ac" stroke-width="1.51"></path><path d="M350,1079L-450,1125L520,1170Z" fill="#886bb1" stroke="#886bb1" stroke-width="1.51"></path><path d="M807,63L640,176L812,406Z" fill="#9187c0" stroke="#9187c0" stroke-width="1.51"></path><path d="M769,748L608,826L888,1130Z" fill="#694fa3" stroke="#694fa3" stroke-width="1.51"></path><path d="M608,826L520,1170L888,1130Z" fill="#674ca1" stroke="#674ca1" stroke-width="1.51"></path><path d="M565,398L769,748L812,406Z" fill="#7e76b7" stroke="#7e76b7" stroke-width="1.51"></path><path d="M492,-150L807,63L842,-223Z" fill="#a8a0cd" stroke="#a8a0cd" stroke-width="1.51"></path><path d="M465,-483L842,-223L877,-405Z" fill="#b3a9d2" stroke="#b3a9d2" stroke-width="1.51"></path><path d="M465,-483L492,-150L842,-223Z" fill="#b6b3d7" stroke="#b6b3d7" stroke-width="1.51"></path><path d="M565,398L608,826L769,748Z" fill="#7a70b3" stroke="#7a70b3" stroke-width="1.51"></path><path d="M492,-150L640,176L807,63Z" fill="#a29fcd" stroke="#a29fcd" stroke-width="1.51"></path><path d="M640,176L565,398L812,406Z" fill="#8d87bf" stroke="#8d87bf" stroke-width="1.51"></path><path d="M350,1079L520,1170L608,826Z" fill="#745aa8" stroke="#745aa8" stroke-width="1.51"></path><path d="M565,398L357,408L608,826Z" fill="#8885be" stroke="#8885be" stroke-width="1.51"></path><path d="M357,408L293,796L608,826Z" fill="#887dba" stroke="#887dba" stroke-width="1.51"></path><path d="M357,408L565,398L640,176Z" fill="#9692c5" stroke="#9692c5" stroke-width="1.51"></path><path d="M215,177L357,408L640,176Z" fill="#a39fcb" stroke="#a39fcb" stroke-width="1.51"></path><path d="M331,-61L215,177L640,176Z" fill="#adacd2" stroke="#adacd2" stroke-width="1.51"></path><path d="M492,-150L331,-61L640,176Z" fill="#afadd3" stroke="#afadd3" stroke-width="1.51"></path><path d="M293,796L350,1079L608,826Z" fill="#7e69b0" stroke="#7e69b0" stroke-width="1.51"></path><path d="M-115,964L-450,1125L350,1079Z" fill="#987cbc" stroke="#987cbc" stroke-width="1.51"></path><path d="M465,-483L161,-453L492,-150Z" fill="#c9c5df" stroke="#c9c5df" stroke-width="1.51"></path><path d="M161,-453L331,-61L492,-150Z" fill="#c5c3de" stroke="#c5c3de" stroke-width="1.51"></path><path d="M59,585L293,796L357,408Z" fill="#9893c6" stroke="#9893c6" stroke-width="1.51"></path><path d="M161,-453L19,-341L331,-61Z" fill="#d3d2e7" stroke="#d3d2e7" stroke-width="1.51"></path><path d="M19,-341L34,-52L331,-61Z" fill="#cfcfe6" stroke="#cfcfe6" stroke-width="1.51"></path><path d="M293,796L-115,964L350,1079Z" fill="#8d76b8" stroke="#8d76b8" stroke-width="1.51"></path><path d="M215,177L59,585L357,408Z" fill="#a6a4ce" stroke="#a6a4ce" stroke-width="1.51"></path><path d="M34,-52L56,122L215,177Z" fill="#c2c2df" stroke="#c2c2df" stroke-width="1.51"></path><path d="M34,-52L215,177L331,-61Z" fill="#c0c0dd" stroke="#c0c0dd" stroke-width="1.51"></path><path d="M56,122L59,585L215,177Z" fill="#b3b2d5" stroke="#b3b2d5" stroke-width="1.51"></path><path d="M59,585L-20,726L293,796Z" fill="#9b91c5" stroke="#9b91c5" stroke-width="1.51"></path><path d="M-20,726L-115,964L293,796Z" fill="#9a88c1" stroke="#9a88c1" stroke-width="1.51"></path><path d="M-363,-357L19,-341L161,-453Z" fill="#e6e5f0" stroke="#e6e5f0" stroke-width="1.51"></path><path d="M56,122L-349,470L59,585Z" fill="#b9b6d8" stroke="#b9b6d8" stroke-width="1.51"></path><path d="M-363,-357L-405,-91L19,-341Z" fill="#eae8f2" stroke="#eae8f2" stroke-width="1.51"></path><path d="M19,-341L-405,-91L34,-52Z" fill="#dfdeee" stroke="#dfdeee" stroke-width="1.51"></path><path d="M34,-52L-378,217L56,122Z" fill="#cdcee4" stroke="#cdcee4" stroke-width="1.51"></path><path d="M-378,217L-349,470L56,122Z" fill="#c7c5e0" stroke="#c7c5e0" stroke-width="1.51"></path><path d="M-349,470L-20,726L59,585Z" fill="#aea8d2" stroke="#aea8d2" stroke-width="1.51"></path><path d="M-405,-91L-378,217L34,-52Z" fill="#d9d9ea" stroke="#d9d9ea" stroke-width="1.51"></path><path d="M-403,729L-115,964L-20,726Z" fill="#a795c9" stroke="#a795c9" stroke-width="1.51"></path><path d="M-349,470L-403,729L-20,726Z" fill="#b2a9d3" stroke="#b2a9d3" stroke-width="1.51"></path><path d="M-403,729L-450,1125L-115,964Z" fill="#a88ec5" stroke="#a88ec5" stroke-width="1.51"></path><path d="M-378,217L-403,729L-349,470Z" fill="#c0bcdc" stroke="#c0bcdc" stroke-width="1.51"></path><path d="M-405,-91L-403,729L-378,217Z" fill="#ccc9e2" stroke="#ccc9e2" stroke-width="1.51"></path><path d="M-405,-91L-450,1125L-403,729Z" fill="#bab4d8" stroke="#bab4d8" stroke-width="1.51"></path></svg>
</svg>