<svg xmlns="http://www.w3.org/2000/svg" xmlns:xlink="http://www.w3.org/1999/xlink" width="64" height="64" viewBox="0 0 64 64"><defs><clipPath id="clip"><path d="M32.70010112725924 63.968670569035716C39.24766813498362 64.35080600496516 45.372336589988684 61.17743214738536 50.75008237358108 57.71315589731869C55.98029078169527 54.34392137038922 60.70204306696391 50.05612592149588 62.879786494534194 44.52729653247912C64.97826049557499 39.19971543079422 63.702047998391606 33.43086368238256 62.504366148364966 27.87151855927156C61.36236515176394 22.570630288400125 59.84968715185354 17.284289847451117 56.11344020708822 13.119578169245655C52.32635628921344 8.89819964360652 46.91889679982759 6.505545477201484 41.43791798535387 4.389215601292662C35.363361165335434 2.043691833318541 29.129762925951976 -0.7574751805233837 22.62433127646566 0.18867583474230507C15.760907663495505 1.186893258196898 9.152096176889833 4.558713743730668 4.992989128163733 9.689771859114376C0.9409116425044358 14.688788432473308 0.9567489184976296 21.32427912968522 0.4482677240306157 27.54711348131324C-0.028922822395356398 33.387010328795 -0.7598066283278337 39.476333136202456 2.1330131959201752 44.69039070136947C4.974223068463482 49.81142579176353 10.911793802263427 52.440767831479185 16.061507381095286 55.68862774649768C21.370859313694197 59.03716957365801 26.279938358883882 63.59397082249829 32.70010112725924 63.968670569035716"/></clipPath></defs><g clip-path="url(#clip)"><path d="M40.8,32L46.3,36.5L49.4,37Z" fill="rgb(202,198,223)" shape-rendering="crispEdges"/><path d="M48.5,54.2L52.9,39L49.4,37Z" fill="rgb(161,152,196)" shape-rendering="crispEdges"/><path d="M49.4,37L40.5,18.3L40.8,32Z" fill="rgb(219,208,216)" shape-rendering="crispEdges"/><path d="M56.2,12.1L40.5,18.3L49.4,37Z" fill="rgb(205,169,166)" shape-rendering="crispEdges"/><path d="M52.9,39L56.2,12.1L49.4,37Z" fill="rgb(185,164,192)" shape-rendering="crispEdges"/><path d="M56.2,12.1L52.7,8.3L40.5,18.3Z" fill="rgb(192,128,110)" shape-rendering="crispEdges"/><path d="M52.7,8.3L38,10.1L40.5,18.3Z" fill="rgb(213,152,124)" shape-rendering="crispEdges"/><path d="M40.5,18.3L21.8,26L40.8,32Z" fill="rgb(246,229,211)" shape-rendering="crispEdges"/><path d="M52.9,39L65.3,13.4L56.2,12.1Z" fill="rgb(173,114,134)" shape-rendering="crispEdges"/><path d="M56.2,12.1L62.5,9.1L52.7,8.3Z" fill="rgb(156,75,88)" shape-rendering="crispEdges"/><path d="M65.3,13.4L62.5,9.1L56.2,12.1Z" fill="rgb(145,66,73)" shape-rendering="crispEdges"/><path d="M36.9,2.1L34.9,8L38,10.1Z" fill="rgb(214,157,125)" shape-rendering="crispEdges"/><path d="M38,10.1L34.9,8L40.5,18.3Z" fill="rgb(230,173,133)" shape-rendering="crispEdges"/><path d="M65.3,13.4L65.5,8.8L62.5,9.1Z" fill="rgb(130,54,59)" shape-rendering="crispEdges"/><path d="M62.5,9.1L66.6,1.4L52.7,8.3Z" fill="rgb(130,52,68)" shape-rendering="crispEdges"/><path d="M52.9,39L75.4,27.2L65.3,13.4Z" fill="rgb(148,109,133)" shape-rendering="crispEdges"/><path d="M65.3,13.4L88.5,21L65.5,8.8Z" fill="rgb(141,69,70)" shape-rendering="crispEdges"/><path d="M73.1,37.6L75.4,27.2L52.9,39Z" fill="rgb(138,113,155)" shape-rendering="crispEdges"/><path d="M48.5,54.2L55.4,52.5L52.9,39Z" fill="rgb(135,120,177)" shape-rendering="crispEdges"/><path d="M52.9,39L69.8,45.2L73.1,37.6Z" fill="rgb(123,98,148)" shape-rendering="crispEdges"/><path d="M48.5,54.2L49.4,37L46.3,36.5Z" fill="rgb(172,164,205)" shape-rendering="crispEdges"/><path d="M32.8,58.1L48.5,54.2L46.3,36.5Z" fill="rgb(166,158,200)" shape-rendering="crispEdges"/><path d="M55.4,52.5L69.8,45.2L52.9,39Z" fill="rgb(123,95,161)" shape-rendering="crispEdges"/><path d="M34.9,8L21.8,26L40.5,18.3Z" fill="rgb(252,207,163)" shape-rendering="crispEdges"/><path d="M40.8,32L24.9,45.7L46.3,36.5Z" fill="rgb(219,221,236)" shape-rendering="crispEdges"/><path d="M52.7,8.3L36.9,2.1L38,10.1Z" fill="rgb(198,138,117)" shape-rendering="crispEdges"/><path d="M34.9,8L16,11.9L21.8,26Z" fill="rgb(248,183,111)" shape-rendering="crispEdges"/><path d="M60.8,-16.3L36.9,2.1L52.7,8.3Z" fill="rgb(142,91,94)" shape-rendering="crispEdges"/><path d="M21.8,26L22.4,35.3L40.8,32Z" fill="rgb(251,239,223)" shape-rendering="crispEdges"/><path d="M22.4,35.3L24.9,45.7L40.8,32Z" fill="rgb(236,229,228)" shape-rendering="crispEdges"/><path d="M83.7,-7.2L66.6,1.4L89.3,-1.3Z" fill="rgb(92,28,48)" shape-rendering="crispEdges"/><path d="M65.5,8.8L66.6,1.4L62.5,9.1Z" fill="rgb(117,42,54)" shape-rendering="crispEdges"/><path d="M23.2,-15.8L31.3,-0.6L37.1,-22.4Z" fill="rgb(194,147,116)" shape-rendering="crispEdges"/><path d="M36.9,2.1L31.3,-0.6L34.9,8Z" fill="rgb(203,152,124)" shape-rendering="crispEdges"/><path d="M24.9,45.7L32.8,58.1L46.3,36.5Z" fill="rgb(198,193,220)" shape-rendering="crispEdges"/><path d="M48.4,65.9L64.1,61.4L55.4,52.5Z" fill="rgb(83,42,129)" shape-rendering="crispEdges"/><path d="M31.3,-0.6L16,11.9L34.9,8Z" fill="rgb(222,158,106)" shape-rendering="crispEdges"/><path d="M21.8,26L10.6,23.8L22.4,35.3Z" fill="rgb(254,205,149)" shape-rendering="crispEdges"/><path d="M22.4,35.3L3.2,46.4L24.9,45.7Z" fill="rgb(225,176,148)" shape-rendering="crispEdges"/><path d="M48.4,65.9L55.4,52.5L48.5,54.2Z" fill="rgb(109,80,155)" shape-rendering="crispEdges"/><path d="M55.4,52.5L64.1,61.4L69.8,45.2Z" fill="rgb(83,50,121)" shape-rendering="crispEdges"/><path d="M82.1,48.7L86.3,35.5L73.1,37.6Z" fill="rgb(123,98,148)" shape-rendering="crispEdges"/><path d="M73.1,37.6L86.3,35.5L75.4,27.2Z" fill="rgb(141,115,157)" shape-rendering="crispEdges"/><path d="M75.4,27.2L88.5,21L65.3,13.4Z" fill="rgb(150,92,100)" shape-rendering="crispEdges"/><path d="M82.1,48.7L73.1,37.6L69.8,45.2Z" fill="rgb(114,87,142)" shape-rendering="crispEdges"/><path d="M32.8,58.1L48.4,65.9L48.5,54.2Z" fill="rgb(131,104,167)" shape-rendering="crispEdges"/><path d="M16,11.9L10.6,23.8L21.8,26Z" fill="rgb(247,175,91)" shape-rendering="crispEdges"/><path d="M24.9,45.7L23.5,60.9L32.8,58.1Z" fill="rgb(180,147,175)" shape-rendering="crispEdges"/><path d="M74,63.6L82.1,48.7L69.8,45.2Z" fill="rgb(82,51,118)" shape-rendering="crispEdges"/><path d="M86.3,35.5L88.5,21L75.4,27.2Z" fill="rgb(147,111,139)" shape-rendering="crispEdges"/><path d="M10.4,61.6L23.5,60.9L24.9,45.7Z" fill="rgb(180,119,130)" shape-rendering="crispEdges"/><path d="M32.8,58.1L38.1,69.8L48.4,65.9Z" fill="rgb(126,101,149)" shape-rendering="crispEdges"/><path d="M16,11.9L11.6,7.3L10.6,23.8Z" fill="rgb(227,136,32)" shape-rendering="crispEdges"/><path d="M11.1,4.2L11.6,7.3L16,11.9Z" fill="rgb(207,114,15)" shape-rendering="crispEdges"/><path d="M64.1,61.4L74,63.6L69.8,45.2Z" fill="rgb(67,25,107)" shape-rendering="crispEdges"/><path d="M61.5,76.8L74,63.6L64.1,61.4Z" fill="rgb(45,0,75)" shape-rendering="crispEdges"/><path d="M23.5,60.9L38.1,69.8L32.8,58.1Z" fill="rgb(149,121,161)" shape-rendering="crispEdges"/><path d="M48.4,65.9L61.5,76.8L64.1,61.4Z" fill="rgb(63,18,103)" shape-rendering="crispEdges"/><path d="M31.3,-0.6L11.1,4.2L16,11.9Z" fill="rgb(212,133,57)" shape-rendering="crispEdges"/><path d="M11.6,7.3L-1.3,20.9L10.6,23.8Z" fill="rgb(214,129,45)" shape-rendering="crispEdges"/><path d="M65.9,-15.6L60.8,-16.3L66.6,1.4Z" fill="rgb(92,28,48)" shape-rendering="crispEdges"/><path d="M66.6,1.4L60.8,-16.3L52.7,8.3Z" fill="rgb(107,40,65)" shape-rendering="crispEdges"/><path d="M31.3,-0.6L23.2,-15.8L11.1,4.2Z" fill="rgb(191,127,70)" shape-rendering="crispEdges"/><path d="M83.7,-7.2L65.9,-15.6L66.6,1.4Z" fill="rgb(92,28,48)" shape-rendering="crispEdges"/><path d="M89.3,-1.3L66.6,1.4L65.5,8.8Z" fill="rgb(104,34,51)" shape-rendering="crispEdges"/><path d="M88.5,21L89.3,-1.3L65.5,8.8Z" fill="rgb(127,52,58)" shape-rendering="crispEdges"/><path d="M74,63.6L85,60.8L82.1,48.7Z" fill="rgb(64,19,104)" shape-rendering="crispEdges"/><path d="M82.1,48.7L85,60.8L86.3,35.5Z" fill="rgb(98,70,130)" shape-rendering="crispEdges"/><path d="M86.3,35.5L90.9,80.2L88.5,21Z" fill="rgb(108,81,138)" shape-rendering="crispEdges"/><path d="M-2.6,33.4L3.2,46.4L10.6,23.8Z" fill="rgb(205,153,124)" shape-rendering="crispEdges"/><path d="M10.6,23.8L3.2,46.4L22.4,35.3Z" fill="rgb(236,178,135)" shape-rendering="crispEdges"/><path d="M37.1,-22.4L31.3,-0.6L36.9,2.1Z" fill="rgb(187,142,120)" shape-rendering="crispEdges"/><path d="M60.8,-16.3L37.1,-22.4L36.9,2.1Z" fill="rgb(161,113,107)" shape-rendering="crispEdges"/><path d="M39.3,-27.4L37.1,-22.4L60.8,-16.3Z" fill="rgb(158,109,105)" shape-rendering="crispEdges"/><path d="M0.8,-1L11.6,7.3L11.1,4.2Z" fill="rgb(172,86,8)" shape-rendering="crispEdges"/><path d="M0.8,-1L-1.3,20.9L11.6,7.3Z" fill="rgb(177,90,9)" shape-rendering="crispEdges"/><path d="M45.1,92.2L61.5,76.8L48.4,65.9Z" fill="rgb(85,56,121)" shape-rendering="crispEdges"/><path d="M74,63.6L90.9,80.2L85,60.8Z" fill="rgb(45,0,75)" shape-rendering="crispEdges"/><path d="M23.5,60.9L24.1,84.1L38.1,69.8Z" fill="rgb(147,112,142)" shape-rendering="crispEdges"/><path d="M63.6,90.8L67.1,82.1L61.5,76.8Z" fill="rgb(45,0,75)" shape-rendering="crispEdges"/><path d="M3.2,46.4L10.4,61.6L24.9,45.7Z" fill="rgb(187,122,107)" shape-rendering="crispEdges"/><path d="M-1.3,20.9L-2.6,33.4L10.6,23.8Z" fill="rgb(203,145,96)" shape-rendering="crispEdges"/><path d="M3.2,46.4L9.7,61.4L10.4,61.6Z" fill="rgb(151,73,87)" shape-rendering="crispEdges"/><path d="M10.4,61.6L10.6,64.2L23.5,60.9Z" fill="rgb(149,76,80)" shape-rendering="crispEdges"/><path d="M10.6,64.2L9.7,61.4L-1.4,63.2Z" fill="rgb(121,45,58)" shape-rendering="crispEdges"/><path d="M-1.4,63.2L9.7,61.4L-4,59.4Z" fill="rgb(108,39,61)" shape-rendering="crispEdges"/><path d="M9.7,61.4L10.6,64.2L10.4,61.6Z" fill="rgb(136,59,66)" shape-rendering="crispEdges"/><path d="M37.1,-22.4L14,-27.3L23.2,-15.8Z" fill="rgb(192,136,87)" shape-rendering="crispEdges"/><path d="M65.4,-28.7L39.3,-27.4L60.8,-16.3Z" fill="rgb(125,62,82)" shape-rendering="crispEdges"/><path d="M-0.3,-3.8L0.8,-1L11.1,4.2Z" fill="rgb(142,68,8)" shape-rendering="crispEdges"/><path d="M-1.3,20.9L-12.5,37.7L-2.6,33.4Z" fill="rgb(194,147,116)" shape-rendering="crispEdges"/><path d="M13.6,-17.2L11.1,4.2L23.2,-15.8Z" fill="rgb(182,106,35)" shape-rendering="crispEdges"/><path d="M14,-27.3L13.6,-17.2L23.2,-15.8Z" fill="rgb(184,110,40)" shape-rendering="crispEdges"/><path d="M45.1,92.2L48.4,65.9L38.1,69.8Z" fill="rgb(114,87,142)" shape-rendering="crispEdges"/><path d="M61.5,76.8L67.1,82.1L74,63.6Z" fill="rgb(45,0,75)" shape-rendering="crispEdges"/><path d="M85.5,-25.5L65.4,-28.7L65.9,-15.6Z" fill="rgb(92,28,48)" shape-rendering="crispEdges"/><path d="M65.9,-15.6L65.4,-28.7L60.8,-16.3Z" fill="rgb(92,28,48)" shape-rendering="crispEdges"/><path d="M85.5,-25.5L65.9,-15.6L83.7,-7.2Z" fill="rgb(92,28,48)" shape-rendering="crispEdges"/><path d="M13.6,-17.2L-0.3,-3.8L11.1,4.2Z" fill="rgb(158,79,9)" shape-rendering="crispEdges"/><path d="M0.8,-1L-11.7,12.5L-1.3,20.9Z" fill="rgb(167,87,12)" shape-rendering="crispEdges"/><path d="M-4,59.4L9.7,61.4L3.2,46.4Z" fill="rgb(135,65,83)" shape-rendering="crispEdges"/><path d="M8,75.1L24.1,84.1L23.5,60.9Z" fill="rgb(149,85,89)" shape-rendering="crispEdges"/><path d="M8,75.1L23.5,60.9L10.6,64.2Z" fill="rgb(141,67,68)" shape-rendering="crispEdges"/><path d="M-14.8,54.8L-4,59.4L3.2,46.4Z" fill="rgb(130,72,86)" shape-rendering="crispEdges"/><path d="M-9,0.6L-11.7,12.5L0.8,-1Z" fill="rgb(143,68,8)" shape-rendering="crispEdges"/><path d="M-2.6,33.4L-12.5,37.7L3.2,46.4Z" fill="rgb(178,133,116)" shape-rendering="crispEdges"/><path d="M-23,29.6L-12.5,37.7L-1.3,20.9Z" fill="rgb(194,145,110)" shape-rendering="crispEdges"/><path d="M-1.4,63.2L8,75.1L10.6,64.2Z" fill="rgb(115,40,53)" shape-rendering="crispEdges"/><path d="M89.3,-1.3L85.5,-25.5L83.7,-7.2Z" fill="rgb(92,28,48)" shape-rendering="crispEdges"/><path d="M-0.3,-3.8L-9,0.6L0.8,-1Z" fill="rgb(127,59,8)" shape-rendering="crispEdges"/><path d="M-21,-13.7L-9,0.6L-0.3,-3.8Z" fill="rgb(127,59,8)" shape-rendering="crispEdges"/><path d="M39.3,-27.4L14,-27.3L37.1,-22.4Z" fill="rgb(194,146,114)" shape-rendering="crispEdges"/><path d="M13.6,-17.2L2,-18.3L-0.3,-3.8Z" fill="rgb(147,70,8)" shape-rendering="crispEdges"/><path d="M65.4,-28.7L14,-27.3L39.3,-27.4Z" fill="rgb(177,131,116)" shape-rendering="crispEdges"/><path d="M24.1,84.1L45.1,92.2L38.1,69.8Z" fill="rgb(136,111,154)" shape-rendering="crispEdges"/><path d="M45.1,92.2L63.6,90.8L61.5,76.8Z" fill="rgb(68,26,107)" shape-rendering="crispEdges"/><path d="M67.1,82.1L90.9,80.2L74,63.6Z" fill="rgb(45,0,75)" shape-rendering="crispEdges"/><path d="M8,75.1L21.1,86L24.1,84.1Z" fill="rgb(147,82,85)" shape-rendering="crispEdges"/><path d="M24.1,84.1L21.1,86L45.1,92.2Z" fill="rgb(146,115,149)" shape-rendering="crispEdges"/><path d="M14,-27.3L2,-18.3L13.6,-17.2Z" fill="rgb(164,84,11)" shape-rendering="crispEdges"/><path d="M-4,59.4L-25.5,69.9L-1.4,63.2Z" fill="rgb(92,28,48)" shape-rendering="crispEdges"/><path d="M-12.5,37.7L-15.5,43.5L3.2,46.4Z" fill="rgb(168,121,111)" shape-rendering="crispEdges"/><path d="M-23,29.6L-15.5,43.5L-12.5,37.7Z" fill="rgb(183,139,119)" shape-rendering="crispEdges"/><path d="M63.6,90.8L90.9,80.2L67.1,82.1Z" fill="rgb(45,0,75)" shape-rendering="crispEdges"/><path d="M85,60.8L90.9,80.2L86.3,35.5Z" fill="rgb(60,15,99)" shape-rendering="crispEdges"/><path d="M88.5,21L90.9,80.2L89.3,-1.3Z" fill="rgb(141,115,157)" shape-rendering="crispEdges"/><path d="M-15.5,43.5L-14.8,54.8L3.2,46.4Z" fill="rgb(149,99,98)" shape-rendering="crispEdges"/><path d="M-1.4,63.2L3.1,81.7L8,75.1Z" fill="rgb(105,35,51)" shape-rendering="crispEdges"/><path d="M-25.5,69.9L3.1,81.7L-1.4,63.2Z" fill="rgb(92,28,48)" shape-rendering="crispEdges"/><path d="M8,75.1L8.9,86.7L21.1,86Z" fill="rgb(138,61,62)" shape-rendering="crispEdges"/><path d="M21.1,86L8.9,86.7L45.1,92.2Z" fill="rgb(149,106,125)" shape-rendering="crispEdges"/><path d="M3.1,81.7L8.9,86.7L8,75.1Z" fill="rgb(118,42,54)" shape-rendering="crispEdges"/><path d="M-15.5,43.5L-25.5,69.9L-14.8,54.8Z" fill="rgb(122,57,80)" shape-rendering="crispEdges"/><path d="M-11.7,12.5L-23,29.6L-1.3,20.9Z" fill="rgb(190,125,64)" shape-rendering="crispEdges"/><path d="M-27.8,19.6L-23,29.6L-11.7,12.5Z" fill="rgb(190,124,62)" shape-rendering="crispEdges"/><path d="M-27.6,10L-11.7,12.5L-9,0.6Z" fill="rgb(157,77,9)" shape-rendering="crispEdges"/><path d="M-27.6,10L-27.8,19.6L-11.7,12.5Z" fill="rgb(177,99,23)" shape-rendering="crispEdges"/><path d="M-23,29.6L-25.5,69.9L-15.5,43.5Z" fill="rgb(151,101,100)" shape-rendering="crispEdges"/><path d="M-25,-12L-27.6,10L-9,0.6Z" fill="rgb(127,59,8)" shape-rendering="crispEdges"/><path d="M2,-18.3L-21,-13.7L-0.3,-3.8Z" fill="rgb(127,59,8)" shape-rendering="crispEdges"/><path d="M14,-27.3L-21,-13.7L2,-18.3Z" fill="rgb(127,59,8)" shape-rendering="crispEdges"/><path d="M-21,-13.7L-25,-12L-9,0.6Z" fill="rgb(127,59,8)" shape-rendering="crispEdges"/><path d="M-27.8,19.6L-25.5,69.9L-23,29.6Z" fill="rgb(176,131,116)" shape-rendering="crispEdges"/><path d="M-14.8,54.8L-25.5,69.9L-4,59.4Z" fill="rgb(102,36,59)" shape-rendering="crispEdges"/><path d="M3.1,81.7L-23.7,85.1L8.9,86.7Z" fill="rgb(92,28,48)" shape-rendering="crispEdges"/><path d="M-25.5,69.9L-23.7,85.1L3.1,81.7Z" fill="rgb(92,28,48)" shape-rendering="crispEdges"/><path d="M8.9,86.7L-23.7,85.1L45.1,92.2Z" fill="rgb(129,53,59)" shape-rendering="crispEdges"/></g></svg>