<svg xmlns="http://www.w3.org/2000/svg" xmlns:xlink="http://www.w3.org/1999/xlink" version="1.1" data-diagram-type="DESCRIPTION" style="width:1270px;height:266px;background:#FFFFFF;" width="1270px" height="266px" viewBox="0 0 1270 266" zoomAndPan="magnify" preserveAspectRatio="none" contentStyleType="text/css"><?plantuml 1.2026.8?><defs/><g font-family="sans-serif" lengthAdjust="spacing"><!--cluster LightFile Proxy--><g class="cluster" data-qualified-name="LightFile Proxy" id="ent0003" data-source-line="75"><rect x="543" y="7.563" width="713" height="179" fill="#FFF" style="stroke:#0B4884;stroke-width:2;" rx="2.5" ry="2.5"/><text x="807.713" y="32.766" fill="#1F2937" font-size="24" textLength="183.574" font-weight="700">LightFile Proxy</text></g><!--entity LightFileProxy.プロキシ--><g class="entity" data-qualified-name="LightFile Proxy.LightFileProxy....." id="ent0004" data-source-line="76"><rect x="559" y="118.253" width="124" height="50.621" fill="#1168BD" style="stroke:#0B4884;stroke-width:2;" rx="10" ry="10"/><text x="569" y="153.389" fill="#FFF" font-size="26" font-weight="700">プ</text><text x="595" y="153.389" fill="#FFF" font-size="26" font-weight="700">ロ</text><text x="621" y="153.389" fill="#FFF" font-size="26" font-weight="700">キ</text><text x="647" y="153.389" fill="#FFF" font-size="26" font-weight="700">シ</text></g><!--entity LightFileProxy.変換キャッシュ--><g class="entity" data-qualified-name="LightFile Proxy.LightFileProxy........" id="ent0005" data-source-line="77"><path d="M980,64.483 C980,54.483 1110,54.483 1110,54.483 C1110,54.483 1240,54.483 1240,64.483 L1240,160.635 C1240,170.635 1110,170.635 1110,170.635 C1110,170.635 980,170.635 980,160.635 L980,64.483" style="stroke:#9CA3AF;stroke-width:2;" fill="#F8FAFC"/><path d="M980,64.483 C980,74.483 1110,74.483 1110,74.483 C1110,74.483 1240,74.483 1240,64.483" style="stroke:#9CA3AF;stroke-width:2;" fill="none"/><text x="1019" y="103.619" fill="#1F2937" font-size="26" font-weight="700">変</text><text x="1045" y="103.619" fill="#1F2937" font-size="26" font-weight="700">換</text><text x="1071" y="103.619" fill="#1F2937" font-size="26" font-weight="700">キ</text><text x="1097" y="103.619" fill="#1F2937" font-size="26" font-weight="700">ャ</text><text x="1123" y="103.619" fill="#1F2937" font-size="26" font-weight="700">ッ</text><text x="1149" y="103.619" fill="#1F2937" font-size="26" font-weight="700">シ</text><text x="1175" y="103.619" fill="#1F2937" font-size="26" font-weight="700">ュ</text><text x="1106.203" y="132.307" fill="#1F2937" font-size="24"> </text><text x="990" y="160.572" fill="#1F2937" font-size="24">変</text><text x="1014" y="160.572" fill="#1F2937" font-size="24">換</text><text x="1038" y="160.572" fill="#1F2937" font-size="24">済</text><text x="1062" y="160.572" fill="#1F2937" font-size="24">み</text><text x="1086" y="160.572" fill="#1F2937" font-size="24">を</text><text x="1110" y="160.572" fill="#1F2937" font-size="24">持</text><text x="1134" y="160.572" fill="#1F2937" font-size="24">ち</text><text x="1158" y="160.572" fill="#1F2937" font-size="24">続</text><text x="1182" y="160.572" fill="#1F2937" font-size="24">け</text><text x="1206" y="160.572" fill="#1F2937" font-size="24">る</text></g><!--entity CloudFront--><g class="entity" data-qualified-name="CloudFront" id="ent0001" data-source-line="72"><rect x="7" y="89.983" width="260" height="107.152" fill="#64748B" style="stroke:#475569;stroke-width:2;" rx="10" ry="10"/><text x="62.574" y="125.119" fill="#FFF" font-size="26" textLength="148.853" font-weight="700">CloudFront</text><text x="133.203" y="153.807" fill="#FFF" font-size="24"> </text><text x="17" y="182.072" fill="#FFF" font-size="24">短</text><text x="41" y="182.072" fill="#FFF" font-size="24">い</text><text x="65" y="182.072" fill="#FFF" font-size="24">期</text><text x="89" y="182.072" fill="#FFF" font-size="24">間</text><text x="113" y="182.072" fill="#FFF" font-size="24">で</text><text x="137" y="182.072" fill="#FFF" font-size="24">入</text><text x="161" y="182.072" fill="#FFF" font-size="24">れ</text><text x="185" y="182.072" fill="#FFF" font-size="24">替</text><text x="209" y="182.072" fill="#FFF" font-size="24">わ</text><text x="233" y="182.072" fill="#FFF" font-size="24">る</text></g><!--entity オリジンサーバー--><g class="entity" data-qualified-name="........" id="ent0002" data-source-line="73"><rect x="996" y="202.253" width="228" height="50.621" fill="#64748B" style="stroke:#475569;stroke-width:2;" rx="10" ry="10"/><text x="1006" y="237.389" fill="#FFF" font-size="26" font-weight="700">オ</text><text x="1032" y="237.389" fill="#FFF" font-size="26" font-weight="700">リ</text><text x="1058" y="237.389" fill="#FFF" font-size="26" font-weight="700">ジ</text><text x="1084" y="237.389" fill="#FFF" font-size="26" font-weight="700">ン</text><text x="1110" y="237.389" fill="#FFF" font-size="26" font-weight="700">サ</text><text x="1136" y="237.389" fill="#FFF" font-size="26" font-weight="700">ー</text><text x="1162" y="237.389" fill="#FFF" font-size="26" font-weight="700">バ</text><text x="1188" y="237.389" fill="#FFF" font-size="26" font-weight="700">ー</text></g><!--link LightFileProxy.プロキシ to LightFileProxy.変換キャッシュ--><g class="link" data-entity-1="ent0004" data-entity-2="ent0005" id="lnk6" data-source-line="80" data-link-type="dependency"><path d="M683.19,139.663 C757.14,134.963 878.61,127.23 974.56,121.12" style="stroke:#4B5563;stroke-width:2;stroke-dasharray:10,10;" fill="none" id="LightFileProxy.プロキシ-to-LightFileProxy.変換キャッシュ"/><polygon points="979.55,120.803,970.314,117.383,974.56,121.12,970.822,125.366,979.55,120.803" fill="#4B5563" style="stroke:#4B5563;stroke-width:2;stroke-linejoin:miter;stroke-miterlimit:10;"/><text x="754.5" y="118.742" fill="#4B5563" font-size="22" textLength="154">変換済みを探す</text></g><!--link LightFileProxy.プロキシ to オリジンサーバー--><g class="link" data-entity-1="ent0004" data-entity-2="ent0002" id="lnk7" data-source-line="81" data-link-type="dependency"><path d="M683.32,163.873 C693.18,166.713 703.32,169.403 713,171.563 C807.37,192.613 911.272,206.768 990.952,215.818" style="stroke:#4B5563;stroke-width:2;stroke-dasharray:10,10;" fill="none" id="LightFileProxy.プロキシ-to-オリジンサーバー"/><polygon points="995.92,216.383,987.429,211.392,990.952,215.818,986.526,219.341,995.92,216.383" fill="#4B5563" style="stroke:#4B5563;stroke-width:2;stroke-linejoin:miter;stroke-miterlimit:10;"/><text x="714" y="166.832" fill="#4B5563" font-size="22" textLength="235.748">更新をHEADで確かめる</text></g><!--link CloudFront to LightFileProxy.プロキシ--><g class="link" data-entity-1="ent0001" data-entity-2="ent0004" id="lnk8" data-source-line="82" data-link-type="dependency"><path d="M267.48,143.563 C361.87,143.563 480.54,143.563 553.51,143.563" style="stroke:#4B5563;stroke-width:2;stroke-dasharray:10,10;" fill="none" id="CloudFront-to-LightFileProxy.プロキシ"/><polygon points="558.51,143.563,549.51,139.563,553.51,143.563,549.51,147.563,558.51,143.563" fill="#4B5563" style="stroke:#4B5563;stroke-width:2;stroke-linejoin:miter;stroke-miterlimit:10;"/><text x="298" y="138.832" fill="#4B5563" font-size="22" textLength="228.787">CloudFrontに無ければ</text></g><?plantuml-src rLLTInj157tVNp6ahurkaasCgGfg_G8B9LfjmPVPx2IxPZEJpcxGfFYmknPRbDeFiBGMHAi85elGBocb_fZ1fFwBpYHg4itQbD92byrcSsRct7FFdRcna0qib8SKseG2J32IJ9IsWKq0DJAw3JI3efHj42nPMGEBYJb08SxoHI0cDu2OQ4Y04LdI3Gq1oqOK4RkOHvBKOzb54_L90512RF20lm0m05FP32K5h0qIaz04k9QkNZUgeyC4ssUuKhq4li0_dPrWo4GvXEthp5jYtZVc7d6uunGC9gVdJNLwgg0DbcOpIdesqyM_QRpNFsmy3TEfMjXn0wCpl3i58p1TnoT44WaWrv59tKXbCRAi10XVbXrAXxiZNNLymYZnvM6bXemIQfGu2ir-qyXW8Jq1Klo9Q6t2X0urCcVWp7d8Mt3Uo1LoquPcwmcWHEKMblnOsgjiV_VnW-WnYlFZYhyNeL0ihcgNlP1L9HvNVi-BP8sOOiGPml9bWoxM-vyOTBAvU_n-oyUWF85fazuVypSefdGfSVMoGKfND1hh_fyDIY8JYeDkwKPUsDFuEtWdDsNTkvlCg-5e2OwOSwV-jCwh8V-G70p9BTnIkLkH5YVz0dwQSBX1vhXeIyE6YS1jIkQBGkc0y17IOd1onCHmD3a2UKN7XWUAQaIFjjLj_dIh_yLZlo3rT9wsJqcqOeWpFFT0R--WIGhQCELSCtW6LpRscRDOVhDnilQ2ERl73tUOkr9UFsBkAdEN0w2dvwhjtjS7e0NgZCsHcBl7l3tc7ZBl0tC_YPRhFUNFzbZzLZUbSw6gWldAgd9gKTTccTvBvkqpbzzVVAITDy2QjFEerQ0TZGISN8CsLA5LvJxUVbnUNHT3tblcUNm2ytQ4xxM1yk4Zvd2ldvTN7EPiLZw_PiupVz-R_fTQIcaPJrgGf2iaWs2mhoqUBkhAmyqL9K3WOcPFjfZpAl1B0NxbRYzeUVrZUUs0XniTwh_9zt5bwojpbfdh23Eb-WPjbMkJbBQYrVcOywwok5ajsWfp3WBIJm00?></g></svg>